%FSTAX23Y23*%
%MOIN*%
%SFA1B1*%

%IPPOS*%
%ADD12C,0.010000*%
%ADD90C,0.001000*%
%ADD91C,0.000500*%
%ADD115C,0.003940*%
%ADD118C,0.005000*%
%LNpcb_flex_1-1*%
%LPD*%
G54D12*
X-00851Y-001D02*
D01*
X-00851Y-00099*
X-00851Y-00099*
X-00851Y-00098*
X-00851Y-00098*
X-00852Y-00097*
X-00852Y-00096*
X-00852Y-00096*
X-00852Y-00095*
X-00853Y-00095*
X-00853Y-00094*
X-00854Y-00094*
X-00854Y-00093*
X-00855Y-00093*
X-00855Y-00093*
X-00856Y-00092*
X-00856Y-00092*
X-00857Y-00092*
X-00857Y-00092*
X-00858Y-00091*
X-00858Y-00091*
X-00859Y-00091*
X-0086Y-00091*
X-0086*
X-00861Y-00091*
X-00861Y-00091*
X-00862Y-00091*
X-00863Y-00092*
X-00863Y-00092*
X-00864Y-00092*
X-00864Y-00092*
X-00865Y-00093*
X-00865Y-00093*
X-00866Y-00093*
X-00866Y-00094*
X-00867Y-00094*
X-00867Y-00095*
X-00867Y-00095*
X-00868Y-00096*
X-00868Y-00096*
X-00868Y-00097*
X-00868Y-00098*
X-00869Y-00098*
X-00869Y-00099*
X-00869Y-00099*
X-00869Y-001*
X-00869Y-00101*
X-00869Y-00101*
X-00869Y-00102*
X-00868Y-00102*
X-00868Y-00103*
X-00868Y-00104*
X-00868Y-00104*
X-00867Y-00105*
X-00867Y-00105*
X-00867Y-00106*
X-00866Y-00106*
X-00866Y-00106*
X-00865Y-00107*
X-00865Y-00107*
X-00864Y-00108*
X-00864Y-00108*
X-00863Y-00108*
X-00863Y-00108*
X-00862Y-00108*
X-00861Y-00109*
X-00861Y-00109*
X-0086Y-00109*
X-0086*
X-00859Y-00109*
X-00858Y-00109*
X-00858Y-00108*
X-00857Y-00108*
X-00857Y-00108*
X-00856Y-00108*
X-00856Y-00108*
X-00855Y-00107*
X-00855Y-00107*
X-00854Y-00106*
X-00854Y-00106*
X-00853Y-00106*
X-00853Y-00105*
X-00852Y-00105*
X-00852Y-00104*
X-00852Y-00104*
X-00852Y-00103*
X-00851Y-00102*
X-00851Y-00102*
X-00851Y-00101*
X-00851Y-00101*
X-00851Y-001*
X-00737Y-00714D02*
D01*
X-00737Y-00714*
X-00737Y-00714*
X-00738Y-00713*
X-00738Y-00713*
X-00738Y-00712*
X-00738Y-00712*
X-00738Y-00712*
X-00738Y-00711*
X-00739Y-00711*
X-00739Y-00711*
X-00739Y-00711*
X-00739Y-0071*
X-0074Y-0071*
X-0074Y-0071*
X-0074Y-0071*
X-00741Y-00709*
X-00741Y-00709*
X-00741Y-00709*
X-00742Y-00709*
X-00742Y-00709*
X-00742Y-00709*
X-00743Y-00709*
X-00743*
X-00744Y-00709*
X-00744Y-00709*
X-00744Y-00709*
X-00745Y-00709*
X-00745Y-00709*
X-00745Y-00709*
X-00746Y-0071*
X-00746Y-0071*
X-00746Y-0071*
X-00747Y-0071*
X-00747Y-00711*
X-00747Y-00711*
X-00748Y-00711*
X-00748Y-00711*
X-00748Y-00712*
X-00748Y-00712*
X-00748Y-00712*
X-00748Y-00713*
X-00748Y-00713*
X-00749Y-00714*
X-00749Y-00714*
X-00749Y-00714*
X-00749Y-00715*
X-00749Y-00715*
X-00748Y-00716*
X-00748Y-00716*
X-00748Y-00716*
X-00748Y-00717*
X-00748Y-00717*
X-00748Y-00717*
X-00748Y-00718*
X-00747Y-00718*
X-00747Y-00718*
X-00747Y-00719*
X-00746Y-00719*
X-00746Y-00719*
X-00746Y-00719*
X-00745Y-00719*
X-00745Y-0072*
X-00745Y-0072*
X-00744Y-0072*
X-00744Y-0072*
X-00744Y-0072*
X-00743Y-0072*
X-00743*
X-00742Y-0072*
X-00742Y-0072*
X-00742Y-0072*
X-00741Y-0072*
X-00741Y-0072*
X-00741Y-00719*
X-0074Y-00719*
X-0074Y-00719*
X-0074Y-00719*
X-00739Y-00719*
X-00739Y-00718*
X-00739Y-00718*
X-00739Y-00718*
X-00738Y-00717*
X-00738Y-00717*
X-00738Y-00717*
X-00738Y-00716*
X-00738Y-00716*
X-00738Y-00716*
X-00737Y-00715*
X-00737Y-00715*
X-00737Y-00714*
X00107Y00477D02*
X00136D01*
X-00158D02*
X-00129D01*
X-00158Y00313D02*
X00136D01*
Y00509*
X00084D02*
X00136D01*
X00084D02*
Y00527D01*
X-00106D02*
X00084D01*
X-00106Y00509D02*
Y00527D01*
X-00158Y00313D02*
Y00509D01*
X-00106*
X-00884Y-00124D02*
X-00765D01*
Y-00005*
X-00884D02*
X-00765D01*
X-00884Y-00124D02*
Y-00005D01*
X-00762Y00032D02*
Y00267D01*
X-01077D02*
X-00765D01*
X-01077Y0003D02*
X-00762D01*
X-01077Y00032D02*
Y00264D01*
X-013Y00043D02*
X-01175D01*
X-013D02*
Y00146D01*
X-01175*
Y00043D02*
Y00146D01*
X-01198Y00095D02*
X-01175D01*
X-00822Y-00773D02*
X-00727D01*
X-00824D02*
Y-00695D01*
X-00822D02*
X-00727D01*
X-00725Y-00773D02*
Y-00695D01*
X-00814Y-006D02*
X-00735D01*
Y-00553*
X-00814D02*
X-00735D01*
X-00814Y-006D02*
Y-00553D01*
Y-006D02*
Y-00577D01*
X-00802*
X-00299Y0016D02*
X-0026D01*
Y0018*
X-00299D02*
X-0026D01*
X-00299Y0016D02*
Y0018D01*
X-0026Y0016D02*
Y0018D01*
X-00232Y00311D02*
X-00193D01*
X-00232Y00291D02*
Y00311D01*
Y00291D02*
X-00193D01*
Y00311*
X-00232Y00291D02*
Y00311D01*
X-00136Y-0035D02*
X00114D01*
Y-00601D02*
Y-0035D01*
X-00136Y-00601D02*
Y-0035D01*
Y-00601D02*
X00114D01*
X-01454Y00306D02*
X-00549D01*
Y-00874D02*
Y00306D01*
X-01454Y-00874D02*
X-00549D01*
X-01454D02*
Y00306D01*
X00528Y00307D02*
X01433D01*
Y-00873D02*
Y00307D01*
X00528Y-00873D02*
X01433D01*
X00528D02*
Y00307D01*
X00138Y01108D02*
Y01281D01*
X00311*
Y01108D02*
Y01281D01*
X00138Y01108D02*
X00311D01*
G54D90*
X00303Y00523D02*
D01*
X00303Y0052*
X00303Y00517*
X00303Y00514*
X00304Y00511*
X00305Y00509*
X00306Y00506*
X00307Y00504*
X00309Y00501*
X0031Y00499*
X00312Y00497*
X00314Y00495*
X00316Y00493*
X00318Y00491*
X0032Y00489*
X00323Y00488*
X00325Y00487*
X00328Y00485*
X0033Y00484*
X00333Y00484*
X00336Y00483*
X00338Y00483*
X00341Y00483*
X00343Y00483*
X-00433Y00089D02*
D01*
X-0043Y00089*
X-00427Y00089*
X-00424Y00089*
X-00421Y0009*
X-00419Y00091*
X-00416Y00092*
X-00414Y00093*
X-00411Y00095*
X-00409Y00096*
X-00407Y00098*
X-00405Y001*
X-00403Y00102*
X-00401Y00104*
X-00399Y00106*
X-00398Y00109*
X-00397Y00111*
X-00395Y00114*
X-00394Y00116*
X-00394Y00119*
X-00393Y00122*
X-00393Y00124*
X-00393Y00127*
X-00393Y00129*
X-00366Y00483D02*
D01*
X-00363Y00483*
X-0036Y00483*
X-00357Y00483*
X-00354Y00484*
X-00352Y00485*
X-00349Y00486*
X-00347Y00487*
X-00344Y00489*
X-00342Y0049*
X-0034Y00492*
X-00338Y00494*
X-00336Y00496*
X-00334Y00498*
X-00332Y005*
X-00331Y00503*
X-0033Y00505*
X-00328Y00508*
X-00327Y0051*
X-00327Y00513*
X-00326Y00516*
X-00326Y00518*
X-00326Y00521*
X-00326Y00523*
X0037Y00129D02*
D01*
X0037Y00126*
X0037Y00123*
X0037Y0012*
X00371Y00117*
X00372Y00115*
X00373Y00112*
X00374Y0011*
X00376Y00107*
X00377Y00105*
X00379Y00103*
X00381Y00101*
X00383Y00099*
X00385Y00097*
X00387Y00095*
X0039Y00094*
X00392Y00093*
X00395Y00091*
X00397Y0009*
X004Y0009*
X00403Y00089*
X00405Y00089*
X00408Y00089*
X0041Y00089*
X0037Y00129D02*
D01*
X0037Y00126*
X0037Y00123*
X0037Y0012*
X00371Y00117*
X00372Y00115*
X00373Y00112*
X00374Y0011*
X00376Y00107*
X00377Y00105*
X00379Y00103*
X00381Y00101*
X00383Y00099*
X00385Y00097*
X00387Y00095*
X0039Y00094*
X00392Y00093*
X00395Y00091*
X00397Y0009*
X004Y0009*
X00403Y00089*
X00405Y00089*
X00408Y00089*
X0041Y00089*
X-00366Y00483D02*
D01*
X-00363Y00483*
X-0036Y00483*
X-00357Y00483*
X-00354Y00484*
X-00352Y00485*
X-00349Y00486*
X-00347Y00487*
X-00344Y00489*
X-00342Y0049*
X-0034Y00492*
X-00338Y00494*
X-00336Y00496*
X-00334Y00498*
X-00332Y005*
X-00331Y00503*
X-0033Y00505*
X-00328Y00508*
X-00327Y0051*
X-00327Y00513*
X-00326Y00516*
X-00326Y00518*
X-00326Y00521*
X-00326Y00523*
X-00433Y00089D02*
D01*
X-0043Y00089*
X-00427Y00089*
X-00424Y00089*
X-00421Y0009*
X-00419Y00091*
X-00416Y00092*
X-00414Y00093*
X-00411Y00095*
X-00409Y00096*
X-00407Y00098*
X-00405Y001*
X-00403Y00102*
X-00401Y00104*
X-00399Y00106*
X-00398Y00109*
X-00397Y00111*
X-00395Y00114*
X-00394Y00116*
X-00394Y00119*
X-00393Y00122*
X-00393Y00124*
X-00393Y00127*
X-00393Y00129*
X00303Y00523D02*
D01*
X00303Y0052*
X00303Y00517*
X00303Y00514*
X00304Y00511*
X00305Y00509*
X00306Y00506*
X00307Y00504*
X00309Y00501*
X0031Y00499*
X00312Y00497*
X00314Y00495*
X00316Y00493*
X00318Y00491*
X0032Y00489*
X00323Y00488*
X00325Y00487*
X00328Y00485*
X0033Y00484*
X00333Y00484*
X00336Y00483*
X00338Y00483*
X00341Y00483*
X00343Y00483*
X00633Y-01105D02*
D01*
X00641Y-01123*
X0065Y-01142*
X0066Y-01159*
X00672Y-01176*
X00672Y-01177*
X00679Y-01186D02*
D01*
X00686Y-01194*
X00694Y-01202*
X00702Y-0121*
X00711Y-01217*
X0072Y-01223*
X0073Y-01229*
X0074Y-01234*
X0075Y-01238*
X00761Y-01242*
X00771Y-01245*
X00782Y-01247*
X00793Y-01248*
X00805Y-01248*
X00806Y-01248*
X01248Y-01247D02*
D01*
X01261Y-01245*
X01274Y-01242*
X01286Y-01238*
X01299Y-01233*
X01311Y-01228*
X01322Y-01221*
X01333Y-01214*
X01344Y-01206*
X01354Y-01197*
X0136Y-01191*
X01419Y-0112D02*
D01*
X01424Y-01112*
X01429Y-01103*
X01433Y-01093*
X01436Y-01083*
X01439Y-01074*
X01441Y-01063*
X01442Y-01053*
X01442Y-01043*
X01443Y-0104*
X-00829Y-01249D02*
D01*
X-00818Y-01248*
X-00807Y-01247*
X-00796Y-01245*
X-00785Y-01242*
X-00774Y-01239*
X-00764Y-01235*
X-00754Y-0123*
X-00744Y-01224*
X-00735Y-01218*
X-00726Y-01211*
X-00718Y-01204*
X-0071Y-01196*
X-00703Y-01187*
X-00702Y-01186*
X-01383Y-01191D02*
D01*
X-01373Y-012*
X-01363Y-01209*
X-01352Y-01217*
X-01341Y-01224*
X-01329Y-0123*
X-01317Y-01235*
X-01304Y-0124*
X-01292Y-01243*
X-01279Y-01246*
X-01271Y-01247*
X-01466Y-0104D02*
D01*
X-01465Y-0105*
X-01464Y-01061*
X-01462Y-01071*
X-0146Y-01081*
X-01457Y-0109*
X-01453Y-011*
X-01448Y-01109*
X-01443Y-01118*
X-01442Y-0112*
X01443Y00429D02*
D01*
X01442Y00435*
X01442Y00442*
X0144Y00448*
X01439Y00454*
X01437Y00461*
X01434Y00467*
X01431Y00473*
X01428Y00478*
X01425Y00484*
X01421Y00489*
X01416Y00494*
X01411Y00498*
X01406Y00503*
X01401Y00506*
X01396Y0051*
X0139Y00513*
X01384Y00516*
X01378Y00518*
X01371Y0052*
X01365Y00521*
X01358Y00522*
X01352Y00522*
X01349Y00523*
X00756Y00483D02*
D01*
X00758Y00483*
X00761Y00483*
X00764Y00483*
X00767Y00484*
X00769Y00485*
X00772Y00486*
X00774Y00487*
X00777Y00489*
X00779Y0049*
X00781Y00492*
X00783Y00494*
X00785Y00496*
X00787Y00498*
X00789Y005*
X0079Y00503*
X00791Y00505*
X00793Y00508*
X00794Y0051*
X00794Y00513*
X00795Y00516*
X00795Y00518*
X00795Y00521*
X00796Y00523*
X0115D02*
D01*
X0115Y0052*
X0115Y00517*
X0115Y00514*
X01151Y00511*
X01152Y00509*
X01153Y00506*
X01154Y00504*
X01156Y00501*
X01157Y00499*
X01159Y00497*
X01161Y00495*
X01163Y00493*
X01165Y00491*
X01167Y00489*
X0117Y00488*
X01172Y00487*
X01175Y00485*
X01177Y00484*
X0118Y00484*
X01183Y00483*
X01185Y00483*
X01188Y00483*
X01191*
X01194Y00483*
X01196Y00483*
X01199Y00484*
X01202Y00484*
X01204Y00485*
X01207Y00487*
X0121Y00488*
X01212Y00489*
X01214Y00491*
X01216Y00493*
X01218Y00495*
X0122Y00497*
X01222Y00499*
X01223Y00501*
X01225Y00504*
X01226Y00506*
X01227Y00509*
X01228Y00511*
X01229Y00514*
X01229Y00517*
X01229Y0052*
X0123Y00523*
X-01253D02*
D01*
X-01252Y0052*
X-01252Y00517*
X-01252Y00514*
X-01251Y00511*
X-0125Y00509*
X-01249Y00506*
X-01248Y00504*
X-01246Y00501*
X-01245Y00499*
X-01243Y00497*
X-01241Y00495*
X-01239Y00493*
X-01237Y00491*
X-01235Y00489*
X-01233Y00488*
X-0123Y00487*
X-01227Y00485*
X-01225Y00484*
X-01222Y00484*
X-01219Y00483*
X-01217Y00483*
X-01214Y00483*
X-01211*
X-01208Y00483*
X-01206Y00483*
X-01203Y00484*
X-012Y00484*
X-01198Y00485*
X-01195Y00487*
X-01192Y00488*
X-0119Y00489*
X-01188Y00491*
X-01186Y00493*
X-01184Y00495*
X-01182Y00497*
X-0118Y00499*
X-01179Y00501*
X-01177Y00504*
X-01176Y00506*
X-01175Y00509*
X-01174Y00511*
X-01173Y00514*
X-01173Y00517*
X-01173Y0052*
X-01173Y00523*
X-01372D02*
D01*
X-01378Y00522*
X-01385Y00522*
X-01391Y0052*
X-01397Y00519*
X-01404Y00517*
X-0141Y00514*
X-01416Y00511*
X-01421Y00508*
X-01427Y00505*
X-01432Y00501*
X-01437Y00496*
X-01441Y00491*
X-01446Y00486*
X-01449Y00481*
X-01453Y00475*
X-01456Y0047*
X-01459Y00464*
X-01461Y00458*
X-01463Y00451*
X-01464Y00445*
X-01465Y00438*
X-01465Y00432*
X-01466Y00429*
X-00819Y00522D02*
D01*
X-00818Y00519*
X-00818Y00516*
X-00818Y00514*
X-00817Y00511*
X-00816Y00508*
X-00815Y00506*
X-00814Y00503*
X-00813Y00501*
X-00811Y00499*
X-00809Y00497*
X-00807Y00494*
X-00806Y00493*
X-00803Y00491*
X-00801Y00489*
X-00799Y00488*
X-00796Y00486*
X-00794Y00485*
X-00791Y00484*
X-00789Y00484*
X-00786Y00483*
X-00783Y00483*
X-00781Y00483*
X-00779Y00483*
X-00669Y00129D02*
D01*
X-00668Y00126*
X-00668Y00123*
X-00668Y0012*
X-00667Y00117*
X-00666Y00115*
X-00665Y00112*
X-00664Y0011*
X-00662Y00107*
X-00661Y00105*
X-00659Y00103*
X-00657Y00101*
X-00655Y00099*
X-00653Y00097*
X-00651Y00095*
X-00648Y00094*
X-00646Y00093*
X-00643Y00091*
X-00641Y0009*
X-00638Y0009*
X-00635Y00089*
X-00633Y00089*
X-0063Y00089*
X-00629Y00089*
X00606D02*
D01*
X00609Y00089*
X00612Y00089*
X00614Y00089*
X00617Y0009*
X0062Y00091*
X00622Y00092*
X00625Y00093*
X00627Y00094*
X00629Y00096*
X00631Y00098*
X00634Y001*
X00635Y00101*
X00637Y00104*
X00639Y00106*
X0064Y00108*
X00642Y00111*
X00643Y00113*
X00644Y00116*
X00644Y00118*
X00645Y00121*
X00645Y00124*
X00645Y00126*
X00646Y00128*
X00606Y00089D02*
D01*
X00609Y00089*
X00612Y00089*
X00614Y00089*
X00617Y0009*
X0062Y00091*
X00622Y00092*
X00625Y00093*
X00627Y00094*
X00629Y00096*
X00631Y00098*
X00634Y001*
X00635Y00101*
X00637Y00104*
X00639Y00106*
X0064Y00108*
X00642Y00111*
X00643Y00113*
X00644Y00116*
X00644Y00118*
X00645Y00121*
X00645Y00124*
X00645Y00126*
X00646Y00128*
X-00669Y00129D02*
D01*
X-00668Y00126*
X-00668Y00123*
X-00668Y0012*
X-00667Y00117*
X-00666Y00115*
X-00665Y00112*
X-00664Y0011*
X-00662Y00107*
X-00661Y00105*
X-00659Y00103*
X-00657Y00101*
X-00655Y00099*
X-00653Y00097*
X-00651Y00095*
X-00648Y00094*
X-00646Y00093*
X-00643Y00091*
X-00641Y0009*
X-00638Y0009*
X-00635Y00089*
X-00633Y00089*
X-0063Y00089*
X-00629Y00089*
X-00819Y00522D02*
D01*
X-00818Y00519*
X-00818Y00516*
X-00818Y00514*
X-00817Y00511*
X-00816Y00508*
X-00815Y00506*
X-00814Y00503*
X-00813Y00501*
X-00811Y00499*
X-00809Y00497*
X-00807Y00494*
X-00806Y00493*
X-00803Y00491*
X-00801Y00489*
X-00799Y00488*
X-00796Y00486*
X-00794Y00485*
X-00791Y00484*
X-00789Y00484*
X-00786Y00483*
X-00783Y00483*
X-00781Y00483*
X-00779Y00483*
X-01372Y00523D02*
D01*
X-01378Y00522*
X-01385Y00522*
X-01391Y0052*
X-01397Y00519*
X-01404Y00517*
X-0141Y00514*
X-01416Y00511*
X-01421Y00508*
X-01427Y00505*
X-01432Y00501*
X-01437Y00496*
X-01441Y00491*
X-01446Y00486*
X-01449Y00481*
X-01453Y00475*
X-01456Y0047*
X-01459Y00464*
X-01461Y00458*
X-01463Y00451*
X-01464Y00445*
X-01465Y00438*
X-01465Y00432*
X-01466Y00429*
X-01253Y00523D02*
D01*
X-01252Y0052*
X-01252Y00517*
X-01252Y00514*
X-01251Y00511*
X-0125Y00509*
X-01249Y00506*
X-01248Y00504*
X-01246Y00501*
X-01245Y00499*
X-01243Y00497*
X-01241Y00495*
X-01239Y00493*
X-01237Y00491*
X-01235Y00489*
X-01233Y00488*
X-0123Y00487*
X-01227Y00485*
X-01225Y00484*
X-01222Y00484*
X-01219Y00483*
X-01217Y00483*
X-01214Y00483*
X-01211*
X-01208Y00483*
X-01206Y00483*
X-01203Y00484*
X-012Y00484*
X-01198Y00485*
X-01195Y00487*
X-01192Y00488*
X-0119Y00489*
X-01188Y00491*
X-01186Y00493*
X-01184Y00495*
X-01182Y00497*
X-0118Y00499*
X-01179Y00501*
X-01177Y00504*
X-01176Y00506*
X-01175Y00509*
X-01174Y00511*
X-01173Y00514*
X-01173Y00517*
X-01173Y0052*
X-01173Y00523*
X0115D02*
D01*
X0115Y0052*
X0115Y00517*
X0115Y00514*
X01151Y00511*
X01152Y00509*
X01153Y00506*
X01154Y00504*
X01156Y00501*
X01157Y00499*
X01159Y00497*
X01161Y00495*
X01163Y00493*
X01165Y00491*
X01167Y00489*
X0117Y00488*
X01172Y00487*
X01175Y00485*
X01177Y00484*
X0118Y00484*
X01183Y00483*
X01185Y00483*
X01188Y00483*
X01191*
X01194Y00483*
X01196Y00483*
X01199Y00484*
X01202Y00484*
X01204Y00485*
X01207Y00487*
X0121Y00488*
X01212Y00489*
X01214Y00491*
X01216Y00493*
X01218Y00495*
X0122Y00497*
X01222Y00499*
X01223Y00501*
X01225Y00504*
X01226Y00506*
X01227Y00509*
X01228Y00511*
X01229Y00514*
X01229Y00517*
X01229Y0052*
X0123Y00523*
X00756Y00483D02*
D01*
X00758Y00483*
X00761Y00483*
X00764Y00483*
X00767Y00484*
X00769Y00485*
X00772Y00486*
X00774Y00487*
X00777Y00489*
X00779Y0049*
X00781Y00492*
X00783Y00494*
X00785Y00496*
X00787Y00498*
X00789Y005*
X0079Y00503*
X00791Y00505*
X00793Y00508*
X00794Y0051*
X00794Y00513*
X00795Y00516*
X00795Y00518*
X00795Y00521*
X00796Y00523*
X01443Y00429D02*
D01*
X01442Y00435*
X01442Y00442*
X0144Y00448*
X01439Y00454*
X01437Y00461*
X01434Y00467*
X01431Y00473*
X01428Y00478*
X01425Y00484*
X01421Y00489*
X01416Y00494*
X01411Y00498*
X01406Y00503*
X01401Y00506*
X01396Y0051*
X0139Y00513*
X01384Y00516*
X01378Y00518*
X01371Y0052*
X01365Y00521*
X01358Y00522*
X01352Y00522*
X01349Y00523*
X-01466Y-0104D02*
D01*
X-01465Y-0105*
X-01464Y-01061*
X-01462Y-01071*
X-0146Y-01081*
X-01457Y-0109*
X-01453Y-011*
X-01448Y-01109*
X-01443Y-01118*
X-01442Y-0112*
X-01383Y-01191D02*
D01*
X-01373Y-012*
X-01363Y-01209*
X-01352Y-01217*
X-01341Y-01224*
X-01329Y-0123*
X-01317Y-01235*
X-01304Y-0124*
X-01292Y-01243*
X-01279Y-01246*
X-01271Y-01247*
X-00829Y-01249D02*
D01*
X-00818Y-01248*
X-00807Y-01247*
X-00796Y-01245*
X-00785Y-01242*
X-00774Y-01239*
X-00764Y-01235*
X-00754Y-0123*
X-00744Y-01224*
X-00735Y-01218*
X-00726Y-01211*
X-00718Y-01204*
X-0071Y-01196*
X-00703Y-01187*
X-00702Y-01186*
X01419Y-0112D02*
D01*
X01424Y-01112*
X01429Y-01103*
X01433Y-01093*
X01436Y-01083*
X01439Y-01074*
X01441Y-01063*
X01442Y-01053*
X01442Y-01043*
X01443Y-0104*
X01248Y-01247D02*
D01*
X01261Y-01245*
X01274Y-01242*
X01286Y-01238*
X01299Y-01233*
X01311Y-01228*
X01322Y-01221*
X01333Y-01214*
X01344Y-01206*
X01354Y-01197*
X0136Y-01191*
X00679Y-01186D02*
D01*
X00686Y-01194*
X00694Y-01202*
X00702Y-0121*
X00711Y-01217*
X0072Y-01223*
X0073Y-01229*
X0074Y-01234*
X0075Y-01238*
X00761Y-01242*
X00771Y-01245*
X00782Y-01247*
X00793Y-01248*
X00805Y-01248*
X00806Y-01248*
X00633Y-01105D02*
D01*
X00641Y-01123*
X0065Y-01142*
X0066Y-01159*
X00672Y-01176*
X00672Y-01177*
X00303Y00523D02*
D01*
X00303Y0052*
X00303Y00517*
X00303Y00514*
X00304Y00511*
X00305Y00509*
X00306Y00506*
X00307Y00504*
X00309Y00501*
X0031Y00499*
X00312Y00497*
X00314Y00495*
X00316Y00493*
X00318Y00491*
X0032Y00489*
X00323Y00488*
X00325Y00487*
X00328Y00485*
X0033Y00484*
X00333Y00484*
X00336Y00483*
X00338Y00483*
X00341Y00483*
X00343Y00483*
X-00433Y00089D02*
D01*
X-0043Y00089*
X-00427Y00089*
X-00424Y00089*
X-00421Y0009*
X-00419Y00091*
X-00416Y00092*
X-00414Y00093*
X-00411Y00095*
X-00409Y00096*
X-00407Y00098*
X-00405Y001*
X-00403Y00102*
X-00401Y00104*
X-00399Y00106*
X-00398Y00109*
X-00397Y00111*
X-00395Y00114*
X-00394Y00116*
X-00394Y00119*
X-00393Y00122*
X-00393Y00124*
X-00393Y00127*
X-00393Y00129*
X-00366Y00483D02*
D01*
X-00363Y00483*
X-0036Y00483*
X-00357Y00483*
X-00354Y00484*
X-00352Y00485*
X-00349Y00486*
X-00347Y00487*
X-00344Y00489*
X-00342Y0049*
X-0034Y00492*
X-00338Y00494*
X-00336Y00496*
X-00334Y00498*
X-00332Y005*
X-00331Y00503*
X-0033Y00505*
X-00328Y00508*
X-00327Y0051*
X-00327Y00513*
X-00326Y00516*
X-00326Y00518*
X-00326Y00521*
X-00326Y00523*
X0037Y00129D02*
D01*
X0037Y00126*
X0037Y00123*
X0037Y0012*
X00371Y00117*
X00372Y00115*
X00373Y00112*
X00374Y0011*
X00376Y00107*
X00377Y00105*
X00379Y00103*
X00381Y00101*
X00383Y00099*
X00385Y00097*
X00387Y00095*
X0039Y00094*
X00392Y00093*
X00395Y00091*
X00397Y0009*
X004Y0009*
X00403Y00089*
X00405Y00089*
X00408Y00089*
X0041Y00089*
X0037Y00129D02*
D01*
X0037Y00126*
X0037Y00123*
X0037Y0012*
X00371Y00117*
X00372Y00115*
X00373Y00112*
X00374Y0011*
X00376Y00107*
X00377Y00105*
X00379Y00103*
X00381Y00101*
X00383Y00099*
X00385Y00097*
X00387Y00095*
X0039Y00094*
X00392Y00093*
X00395Y00091*
X00397Y0009*
X004Y0009*
X00403Y00089*
X00405Y00089*
X00408Y00089*
X0041Y00089*
X-00366Y00483D02*
D01*
X-00363Y00483*
X-0036Y00483*
X-00357Y00483*
X-00354Y00484*
X-00352Y00485*
X-00349Y00486*
X-00347Y00487*
X-00344Y00489*
X-00342Y0049*
X-0034Y00492*
X-00338Y00494*
X-00336Y00496*
X-00334Y00498*
X-00332Y005*
X-00331Y00503*
X-0033Y00505*
X-00328Y00508*
X-00327Y0051*
X-00327Y00513*
X-00326Y00516*
X-00326Y00518*
X-00326Y00521*
X-00326Y00523*
X-00433Y00089D02*
D01*
X-0043Y00089*
X-00427Y00089*
X-00424Y00089*
X-00421Y0009*
X-00419Y00091*
X-00416Y00092*
X-00414Y00093*
X-00411Y00095*
X-00409Y00096*
X-00407Y00098*
X-00405Y001*
X-00403Y00102*
X-00401Y00104*
X-00399Y00106*
X-00398Y00109*
X-00397Y00111*
X-00395Y00114*
X-00394Y00116*
X-00394Y00119*
X-00393Y00122*
X-00393Y00124*
X-00393Y00127*
X-00393Y00129*
X00303Y00523D02*
D01*
X00303Y0052*
X00303Y00517*
X00303Y00514*
X00304Y00511*
X00305Y00509*
X00306Y00506*
X00307Y00504*
X00309Y00501*
X0031Y00499*
X00312Y00497*
X00314Y00495*
X00316Y00493*
X00318Y00491*
X0032Y00489*
X00323Y00488*
X00325Y00487*
X00328Y00485*
X0033Y00484*
X00333Y00484*
X00336Y00483*
X00338Y00483*
X00341Y00483*
X00343Y00483*
X0119Y00995D02*
D01*
X01187Y00994*
X01184Y00994*
X01181Y00994*
X01178Y00993*
X01176Y00992*
X01173Y00991*
X01171Y0099*
X01168Y00988*
X01166Y00987*
X01164Y00985*
X01162Y00983*
X0116Y00981*
X01158Y00979*
X01156Y00977*
X01155Y00975*
X01154Y00972*
X01152Y00969*
X01151Y00967*
X01151Y00964*
X0115Y00961*
X0115Y00959*
X0115Y00956*
X0115Y00955*
X00796D02*
D01*
X00795Y00957*
X00795Y0096*
X00795Y00963*
X00794Y00966*
X00793Y00968*
X00792Y00971*
X00791Y00973*
X00789Y00976*
X00788Y00978*
X00786Y0098*
X00784Y00982*
X00782Y00984*
X0078Y00986*
X00778Y00988*
X00776Y00989*
X00773Y0099*
X0077Y00992*
X00768Y00993*
X00765Y00993*
X00762Y00994*
X0076Y00994*
X00757Y00994*
X00756Y00995*
X-00779D02*
D01*
X-00781Y00994*
X-00784Y00994*
X-00787Y00994*
X-0079Y00993*
X-00792Y00992*
X-00795Y00991*
X-00797Y0099*
X-008Y00988*
X-00802Y00987*
X-00804Y00985*
X-00806Y00983*
X-00808Y00981*
X-0081Y00979*
X-00812Y00977*
X-00813Y00975*
X-00814Y00972*
X-00816Y00969*
X-00817Y00967*
X-00817Y00964*
X-00818Y00961*
X-00818Y00959*
X-00818Y00956*
X-00819Y00955*
X-01173D02*
D01*
X-01173Y00957*
X-01173Y0096*
X-01173Y00963*
X-01174Y00966*
X-01175Y00968*
X-01176Y00971*
X-01177Y00973*
X-01179Y00976*
X-0118Y00978*
X-01182Y0098*
X-01184Y00982*
X-01186Y00984*
X-01188Y00986*
X-0119Y00988*
X-01193Y00989*
X-01195Y0099*
X-01198Y00992*
X-012Y00993*
X-01203Y00993*
X-01206Y00994*
X-01208Y00994*
X-01211Y00994*
X-01213Y00995*
X-01173Y00955D02*
D01*
X-01173Y00957*
X-01173Y0096*
X-01173Y00963*
X-01174Y00966*
X-01175Y00968*
X-01176Y00971*
X-01177Y00973*
X-01179Y00976*
X-0118Y00978*
X-01182Y0098*
X-01184Y00982*
X-01186Y00984*
X-01188Y00986*
X-0119Y00988*
X-01193Y00989*
X-01195Y0099*
X-01198Y00992*
X-012Y00993*
X-01203Y00993*
X-01206Y00994*
X-01208Y00994*
X-01211Y00994*
X-01213Y00995*
X-00779D02*
D01*
X-00781Y00994*
X-00784Y00994*
X-00787Y00994*
X-0079Y00993*
X-00792Y00992*
X-00795Y00991*
X-00797Y0099*
X-008Y00988*
X-00802Y00987*
X-00804Y00985*
X-00806Y00983*
X-00808Y00981*
X-0081Y00979*
X-00812Y00977*
X-00813Y00975*
X-00814Y00972*
X-00816Y00969*
X-00817Y00967*
X-00817Y00964*
X-00818Y00961*
X-00818Y00959*
X-00818Y00956*
X-00819Y00955*
X00796D02*
D01*
X00795Y00957*
X00795Y0096*
X00795Y00963*
X00794Y00966*
X00793Y00968*
X00792Y00971*
X00791Y00973*
X00789Y00976*
X00788Y00978*
X00786Y0098*
X00784Y00982*
X00782Y00984*
X0078Y00986*
X00778Y00988*
X00776Y00989*
X00773Y0099*
X0077Y00992*
X00768Y00993*
X00765Y00993*
X00762Y00994*
X0076Y00994*
X00757Y00994*
X00756Y00995*
X0119D02*
D01*
X01187Y00994*
X01184Y00994*
X01181Y00994*
X01178Y00993*
X01176Y00992*
X01173Y00991*
X01171Y0099*
X01168Y00988*
X01166Y00987*
X01164Y00985*
X01162Y00983*
X0116Y00981*
X01158Y00979*
X01156Y00977*
X01155Y00975*
X01154Y00972*
X01152Y00969*
X01151Y00967*
X01151Y00964*
X0115Y00961*
X0115Y00959*
X0115Y00956*
X0115Y00955*
X-00702Y-01186D02*
D01*
X-00688Y-01164*
X-00674Y-01142*
X-00663Y-01118*
X-00653Y-01094*
X-00652Y-01093*
X-00393Y-00707D02*
X0037D01*
X-00393Y00483D02*
X0037D01*
X00343D02*
X0037D01*
X-00393Y-00707D02*
Y00483D01*
X0037Y-00707D02*
Y00483D01*
X00343D02*
X0037D01*
X-00393D02*
X0037D01*
X00672Y-01177D02*
X00679Y-01186D01*
X00806Y-01249D02*
X01238D01*
X01248Y-01247*
X01396Y-01154D02*
X01396Y-01154D01*
X01419Y-0112*
X01359Y-01192D02*
X01396Y-01154D01*
X-00326Y00523D02*
Y01068D01*
X-00819Y00522D02*
Y00955D01*
X-01173Y00523D02*
Y00955D01*
X-00702Y-01186D02*
D01*
X-01261Y-01249D02*
X-00829D01*
X-01271Y-01247D02*
X-01261Y-01249D01*
X-01419Y-01154D02*
X-01419Y-01154D01*
X-01442Y-0112D02*
X-01419Y-01154D01*
X-01419Y-01154D02*
X-01382Y-01192D01*
X01443Y-0104D02*
Y00429D01*
X0115Y00523D02*
Y00955D01*
X01288Y00995D02*
Y01387D01*
X00658D02*
X01288D01*
X00658Y00995D02*
Y01387D01*
X00796Y00523D02*
Y00955D01*
X-00681Y00995D02*
Y0119D01*
X00303Y00523D02*
Y01387D01*
X-01311D02*
X-00681D01*
X-01311Y00995D02*
Y0119D01*
X-01372Y00523D02*
X-01253D01*
X-01466Y-0104D02*
Y00429D01*
X-00779Y00483D02*
X-00669D01*
X0123Y00523D02*
X01349D01*
X0123Y00511D02*
Y00523D01*
X-00669Y-01133D02*
Y00483D01*
X00646Y-00747D02*
Y00483D01*
X0041Y00089D02*
X00606D01*
X-00629D02*
X-00429D01*
X00646Y00483D02*
X00756D01*
X-00326Y01387D02*
X00303D01*
X-00326Y01068D02*
Y01387D01*
X01288Y00995D02*
Y01387D01*
X00658D02*
X01288D01*
X00658Y00995D02*
Y01387D01*
Y00995D02*
Y01387D01*
X01288*
Y00995D02*
Y01387D01*
X-00326Y01387D02*
X00303D01*
X00646Y00483D02*
X00756D01*
X-00629Y00089D02*
X-00429D01*
X0041D02*
X00606D01*
X00646Y-00747D02*
Y00483D01*
X-00669Y-01133D02*
Y00483D01*
X0123Y00511D02*
Y00523D01*
X01349*
X-00779Y00483D02*
X-00669D01*
X-01466Y-0104D02*
Y00429D01*
X-01372Y00523D02*
X-01253D01*
X-01311Y00995D02*
Y01387D01*
X00303Y00523D02*
Y01387D01*
X-00681Y00995D02*
Y01387D01*
X00796Y00523D02*
Y00955D01*
X00658Y00995D02*
Y01387D01*
X01288*
Y00995D02*
Y01387D01*
X0115Y00523D02*
Y00955D01*
X01443Y-0104D02*
Y00429D01*
X-01419Y-01154D02*
X-01382Y-01192D01*
X-01442Y-0112D02*
X-01419Y-01154D01*
X-01419Y-01154*
X-01271Y-01247D02*
X-01261Y-01249D01*
X-00829*
X-00702Y-01186D02*
X-00695Y-01177D01*
X-01173Y00523D02*
Y00955D01*
X-00819Y00522D02*
Y00955D01*
X-00326Y00523D02*
Y01068D01*
X01359Y-01192D02*
X01396Y-01154D01*
X01396Y-01154D02*
X01419Y-0112D01*
X01396Y-01154D02*
X01396Y-01154D01*
X01238Y-01249D02*
X01248Y-01247D01*
X00806Y-01249D02*
X01238D01*
X00672Y-01177D02*
X00679Y-01186D01*
X-00393Y00483D02*
X0037D01*
X00343D02*
X0037D01*
Y-00707D02*
Y00483D01*
X-00393Y-00707D02*
Y00483D01*
X00343D02*
X0037D01*
X-00393D02*
X0037D01*
X-00393Y-00707D02*
X0037D01*
X-00779Y00995D02*
X-00681D01*
X-01311D02*
X-01213D01*
X0119D02*
X01288D01*
Y01006D02*
Y01387D01*
X00658Y00995D02*
Y01387D01*
X00658Y00995D02*
X00756D01*
X-00681D02*
Y01387D01*
X-01311Y00995D02*
Y01387D01*
Y00995D02*
X01288D01*
X-01311Y01387D02*
X01288D01*
X0119Y00995D02*
X01288D01*
X00658D02*
X00756D01*
X01288D02*
Y01387D01*
X00658Y01006D02*
Y01387D01*
Y01006D02*
Y01387D01*
X01288Y01006D02*
Y01387D01*
X00658Y00995D02*
X00756D01*
X0119D02*
X01288D01*
X-01311Y01006D02*
Y01387D01*
X-00681Y01006D02*
Y01387D01*
X00658Y00995D02*
X00756D01*
X00658Y01006D02*
Y01387D01*
X01288Y01006D02*
Y01387D01*
X0119Y00995D02*
X01288D01*
X-01311D02*
X-01213D01*
X-00779D02*
X-00681D01*
G54D91*
X-00629Y-00707D02*
D01*
X-00631Y-00707*
X-00634Y-00707*
X-00637Y-00708*
X-0064Y-00708*
X-00642Y-00709*
X-00645Y-0071*
X-00647Y-00711*
X-0065Y-00713*
X-00652Y-00714*
X-00654Y-00716*
X-00656Y-00718*
X-00658Y-0072*
X-0066Y-00722*
X-00662Y-00724*
X-00663Y-00727*
X-00664Y-00729*
X-00666Y-00732*
X-00667Y-00734*
X-00667Y-00737*
X-00668Y-0074*
X-00668Y-00743*
X-00668Y-00745*
X-00669Y-00747*
X00646Y-00747D02*
D01*
X00645Y-00744*
X00645Y-00741*
X00645Y-00738*
X00644Y-00735*
X00643Y-00733*
X00642Y-0073*
X00641Y-00728*
X00639Y-00725*
X00638Y-00723*
X00636Y-00721*
X00634Y-00719*
X00632Y-00717*
X0063Y-00715*
X00628Y-00713*
X00626Y-00712*
X00623Y-00711*
X0062Y-00709*
X00618Y-00708*
X00615Y-00708*
X00612Y-00707*
X0061Y-00707*
X00607Y-00707*
X00606Y-00707*
X00646Y-00747D02*
D01*
X00645Y-00744*
X00645Y-00741*
X00645Y-00738*
X00644Y-00735*
X00643Y-00733*
X00642Y-0073*
X00641Y-00728*
X00639Y-00725*
X00638Y-00723*
X00636Y-00721*
X00634Y-00719*
X00632Y-00717*
X0063Y-00715*
X00628Y-00713*
X00626Y-00712*
X00623Y-00711*
X0062Y-00709*
X00618Y-00708*
X00615Y-00708*
X00612Y-00707*
X0061Y-00707*
X00607Y-00707*
X00606Y-00707*
X-00629Y-00707D02*
D01*
X-00631Y-00707*
X-00634Y-00707*
X-00637Y-00708*
X-0064Y-00708*
X-00642Y-00709*
X-00645Y-0071*
X-00647Y-00711*
X-0065Y-00713*
X-00652Y-00714*
X-00654Y-00716*
X-00656Y-00718*
X-00658Y-0072*
X-0066Y-00722*
X-00662Y-00724*
X-00663Y-00727*
X-00664Y-00729*
X-00666Y-00732*
X-00667Y-00734*
X-00667Y-00737*
X-00668Y-0074*
X-00668Y-00743*
X-00668Y-00745*
X-00669Y-00747*
X00646Y-01133D02*
Y-00747D01*
X-0063Y-00707D02*
X-00393D01*
X0037D02*
X00607D01*
X0037D02*
X00607D01*
X-0063D02*
X-00393D01*
X00646Y-01133D02*
Y-00747D01*
G54D115*
X01294Y-00581D02*
D01*
X01294Y-0058*
X01294Y-0058*
X01294Y-00579*
X01294Y-00578*
X01294Y-00578*
X01293Y-00577*
X01293Y-00576*
X01293Y-00576*
X01292Y-00575*
X01292Y-00575*
X01292Y-00574*
X01291Y-00574*
X01291Y-00573*
X0129Y-00573*
X01289Y-00572*
X01289Y-00572*
X01288Y-00572*
X01288Y-00572*
X01287Y-00571*
X01286Y-00571*
X01286Y-00571*
X01285Y-00571*
X01284*
X01283Y-00571*
X01283Y-00571*
X01282Y-00571*
X01281Y-00572*
X01281Y-00572*
X0128Y-00572*
X0128Y-00572*
X01279Y-00573*
X01278Y-00573*
X01278Y-00574*
X01277Y-00574*
X01277Y-00575*
X01277Y-00575*
X01276Y-00576*
X01276Y-00576*
X01276Y-00577*
X01275Y-00578*
X01275Y-00578*
X01275Y-00579*
X01275Y-0058*
X01275Y-0058*
X01275Y-00581*
X01275Y-00582*
X01275Y-00582*
X01275Y-00583*
X01275Y-00584*
X01275Y-00584*
X01276Y-00585*
X01276Y-00586*
X01276Y-00586*
X01277Y-00587*
X01277Y-00587*
X01277Y-00588*
X01278Y-00588*
X01278Y-00589*
X01279Y-00589*
X0128Y-0059*
X0128Y-0059*
X01281Y-0059*
X01281Y-0059*
X01282Y-00591*
X01283Y-00591*
X01283Y-00591*
X01284Y-00591*
X01285*
X01286Y-00591*
X01286Y-00591*
X01287Y-00591*
X01288Y-0059*
X01288Y-0059*
X01289Y-0059*
X01289Y-0059*
X0129Y-00589*
X01291Y-00589*
X01291Y-00588*
X01292Y-00588*
X01292Y-00587*
X01292Y-00587*
X01293Y-00586*
X01293Y-00586*
X01293Y-00585*
X01294Y-00584*
X01294Y-00584*
X01294Y-00583*
X01294Y-00582*
X01294Y-00582*
X01294Y-00581*
X-01306Y-0004D02*
D01*
X-01306Y-00039*
X-01306Y-00038*
X-01306Y-00036*
X-01307Y-00035*
X-01307Y-00034*
X-01308Y-00032*
X-01308Y-00031*
X-01309Y-0003*
X-0131Y-00029*
X-01311Y-00028*
X-01311Y-00027*
X-01312Y-00026*
X-01314Y-00025*
X-01315Y-00024*
X-01316Y-00023*
X-01317Y-00023*
X-01318Y-00022*
X-0132Y-00022*
X-01321Y-00021*
X-01322Y-00021*
X-01324Y-00021*
X-01325Y-00021*
X-01326*
X-01328Y-00021*
X-01329Y-00021*
X-0133Y-00021*
X-01332Y-00022*
X-01333Y-00022*
X-01334Y-00023*
X-01336Y-00023*
X-01337Y-00024*
X-01338Y-00025*
X-01339Y-00026*
X-0134Y-00027*
X-01341Y-00028*
X-01342Y-00029*
X-01342Y-0003*
X-01343Y-00031*
X-01344Y-00032*
X-01344Y-00034*
X-01345Y-00035*
X-01345Y-00036*
X-01345Y-00038*
X-01345Y-00039*
X-01345Y-0004*
X-01345Y-00042*
X-01345Y-00043*
X-01345Y-00044*
X-01345Y-00046*
X-01344Y-00047*
X-01344Y-00048*
X-01343Y-0005*
X-01342Y-00051*
X-01342Y-00052*
X-01341Y-00053*
X-0134Y-00054*
X-01339Y-00055*
X-01338Y-00056*
X-01337Y-00057*
X-01336Y-00057*
X-01334Y-00058*
X-01333Y-00059*
X-01332Y-00059*
X-0133Y-00059*
X-01329Y-0006*
X-01328Y-0006*
X-01326Y-0006*
X-01325*
X-01324Y-0006*
X-01322Y-0006*
X-01321Y-00059*
X-0132Y-00059*
X-01318Y-00059*
X-01317Y-00058*
X-01316Y-00057*
X-01315Y-00057*
X-01314Y-00056*
X-01312Y-00055*
X-01311Y-00054*
X-01311Y-00053*
X-0131Y-00052*
X-01309Y-00051*
X-01308Y-0005*
X-01308Y-00048*
X-01307Y-00047*
X-01307Y-00046*
X-01306Y-00044*
X-01306Y-00043*
X-01306Y-00042*
X-01306Y-0004*
X01277Y-00019D02*
D01*
X01277Y-00018*
X01276Y-00016*
X01276Y-00015*
X01276Y-00013*
X01275Y-00012*
X01275Y-00011*
X01274Y-0001*
X01274Y-00008*
X01273Y-00007*
X01272Y-00006*
X01271Y-00005*
X0127Y-00004*
X01269Y-00003*
X01268Y-00003*
X01267Y-00002*
X01266Y-00001*
X01264Y-00001*
X01263Y0*
X01262Y0*
X0126Y0*
X01259Y0*
X01258Y0*
X01256*
X01255Y0*
X01253Y0*
X01252Y0*
X01251Y0*
X0125Y-00001*
X01248Y-00001*
X01247Y-00002*
X01246Y-00003*
X01245Y-00003*
X01244Y-00004*
X01243Y-00005*
X01242Y-00006*
X01241Y-00007*
X0124Y-00008*
X0124Y-0001*
X01239Y-00011*
X01238Y-00012*
X01238Y-00013*
X01238Y-00015*
X01237Y-00016*
X01237Y-00018*
X01237Y-00019*
X01237Y-0002*
X01237Y-00022*
X01238Y-00023*
X01238Y-00024*
X01238Y-00026*
X01239Y-00027*
X0124Y-00028*
X0124Y-00029*
X01241Y-0003*
X01242Y-00032*
X01243Y-00033*
X01244Y-00034*
X01245Y-00034*
X01246Y-00035*
X01247Y-00036*
X01248Y-00037*
X0125Y-00037*
X01251Y-00038*
X01252Y-00038*
X01253Y-00038*
X01255Y-00038*
X01256Y-00039*
X01258*
X01259Y-00038*
X0126Y-00038*
X01262Y-00038*
X01263Y-00038*
X01264Y-00037*
X01266Y-00037*
X01267Y-00036*
X01268Y-00035*
X01269Y-00034*
X0127Y-00034*
X01271Y-00033*
X01272Y-00032*
X01273Y-0003*
X01274Y-00029*
X01274Y-00028*
X01275Y-00027*
X01275Y-00026*
X01276Y-00024*
X01276Y-00023*
X01276Y-00022*
X01277Y-0002*
X01277Y-00019*
X-01025Y-00705D02*
D01*
X-01025Y-00704*
X-01025Y-00703*
X-01025Y-00701*
X-01026Y-007*
X-01026Y-00699*
X-01027Y-00697*
X-01027Y-00696*
X-01028Y-00695*
X-01029Y-00694*
X-01029Y-00693*
X-0103Y-00692*
X-01031Y-00691*
X-01032Y-0069*
X-01033Y-00689*
X-01035Y-00688*
X-01036Y-00688*
X-01037Y-00687*
X-01038Y-00687*
X-0104Y-00686*
X-01041Y-00686*
X-01042Y-00686*
X-01044Y-00686*
X-01045*
X-01047Y-00686*
X-01048Y-00686*
X-01049Y-00686*
X-01051Y-00687*
X-01052Y-00687*
X-01053Y-00688*
X-01054Y-00688*
X-01056Y-00689*
X-01057Y-0069*
X-01058Y-00691*
X-01059Y-00692*
X-0106Y-00693*
X-0106Y-00694*
X-01061Y-00695*
X-01062Y-00696*
X-01062Y-00697*
X-01063Y-00699*
X-01063Y-007*
X-01064Y-00701*
X-01064Y-00703*
X-01064Y-00704*
X-01064Y-00705*
X-01064Y-00707*
X-01064Y-00708*
X-01064Y-00709*
X-01063Y-00711*
X-01063Y-00712*
X-01062Y-00713*
X-01062Y-00715*
X-01061Y-00716*
X-0106Y-00717*
X-0106Y-00718*
X-01059Y-00719*
X-01058Y-0072*
X-01057Y-00721*
X-01056Y-00722*
X-01054Y-00722*
X-01053Y-00723*
X-01052Y-00724*
X-01051Y-00724*
X-01049Y-00724*
X-01048Y-00725*
X-01047Y-00725*
X-01045Y-00725*
X-01044*
X-01042Y-00725*
X-01041Y-00725*
X-0104Y-00724*
X-01038Y-00724*
X-01037Y-00724*
X-01036Y-00723*
X-01035Y-00722*
X-01033Y-00722*
X-01032Y-00721*
X-01031Y-0072*
X-0103Y-00719*
X-01029Y-00718*
X-01029Y-00717*
X-01028Y-00716*
X-01027Y-00715*
X-01027Y-00713*
X-01026Y-00712*
X-01026Y-00711*
X-01025Y-00709*
X-01025Y-00708*
X-01025Y-00707*
X-01025Y-00705*
X00047Y0019D02*
D01*
X00047Y00191*
X00047Y00192*
X00047Y00194*
X00047Y00195*
X00046Y00196*
X00046Y00197*
X00046Y00198*
X00045Y00199*
X00044Y002*
X00044Y002*
X00043Y00201*
X00042Y00202*
X00041Y00203*
X0004Y00203*
X0004Y00204*
X00039Y00204*
X00038Y00205*
X00037Y00205*
X00035Y00206*
X00034Y00206*
X00033Y00206*
X00032Y00206*
X00031*
X0003Y00206*
X00029Y00206*
X00028Y00206*
X00027Y00205*
X00026Y00205*
X00025Y00204*
X00024Y00204*
X00023Y00203*
X00022Y00203*
X00021Y00202*
X0002Y00201*
X0002Y002*
X00019Y002*
X00018Y00199*
X00018Y00198*
X00017Y00197*
X00017Y00196*
X00017Y00195*
X00016Y00194*
X00016Y00192*
X00016Y00191*
X00016Y0019*
X00016Y00189*
X00016Y00188*
X00016Y00187*
X00017Y00186*
X00017Y00185*
X00017Y00184*
X00018Y00183*
X00018Y00182*
X00019Y00181*
X0002Y0018*
X0002Y00179*
X00021Y00179*
X00022Y00178*
X00023Y00177*
X00024Y00177*
X00025Y00176*
X00026Y00176*
X00027Y00175*
X00028Y00175*
X00029Y00175*
X0003Y00175*
X00031Y00175*
X00032*
X00033Y00175*
X00034Y00175*
X00035Y00175*
X00037Y00175*
X00038Y00176*
X00039Y00176*
X0004Y00177*
X0004Y00177*
X00041Y00178*
X00042Y00179*
X00043Y00179*
X00044Y0018*
X00044Y00181*
X00045Y00182*
X00046Y00183*
X00046Y00184*
X00046Y00185*
X00047Y00186*
X00047Y00187*
X00047Y00188*
X00047Y00189*
X00047Y0019*
X00052Y-00444D02*
D01*
X00052Y-00443*
X00052Y-00441*
X00052Y-0044*
X00052Y-00439*
X00051Y-00437*
X00051Y-00436*
X0005Y-00435*
X00049Y-00434*
X00049Y-00433*
X00048Y-00432*
X00047Y-00431*
X00046Y-0043*
X00045Y-00429*
X00044Y-00428*
X00043Y-00427*
X00041Y-00427*
X0004Y-00426*
X00039Y-00425*
X00038Y-00425*
X00036Y-00425*
X00035Y-00425*
X00033Y-00425*
X00032*
X00031Y-00425*
X00029Y-00425*
X00028Y-00425*
X00027Y-00425*
X00025Y-00426*
X00024Y-00427*
X00023Y-00427*
X00022Y-00428*
X00021Y-00429*
X0002Y-0043*
X00019Y-00431*
X00018Y-00432*
X00017Y-00433*
X00016Y-00434*
X00015Y-00435*
X00015Y-00436*
X00014Y-00437*
X00014Y-00439*
X00014Y-0044*
X00013Y-00441*
X00013Y-00443*
X00013Y-00444*
X00013Y-00446*
X00013Y-00447*
X00014Y-00448*
X00014Y-0045*
X00014Y-00451*
X00015Y-00452*
X00015Y-00453*
X00016Y-00455*
X00017Y-00456*
X00018Y-00457*
X00019Y-00458*
X0002Y-00459*
X00021Y-0046*
X00022Y-00461*
X00023Y-00461*
X00024Y-00462*
X00025Y-00462*
X00027Y-00463*
X00028Y-00463*
X00029Y-00464*
X00031Y-00464*
X00032Y-00464*
X00033*
X00035Y-00464*
X00036Y-00464*
X00038Y-00463*
X00039Y-00463*
X0004Y-00462*
X00041Y-00462*
X00043Y-00461*
X00044Y-00461*
X00045Y-0046*
X00046Y-00459*
X00047Y-00458*
X00048Y-00457*
X00049Y-00456*
X00049Y-00455*
X0005Y-00453*
X00051Y-00452*
X00051Y-00451*
X00052Y-0045*
X00052Y-00448*
X00052Y-00447*
X00052Y-00446*
X00052Y-00444*
X-00311Y00238D02*
D01*
X-00311Y00239*
X-00311Y0024*
X-00311Y00242*
X-00312Y00243*
X-00312Y00244*
X-00312Y00246*
X-00313Y00247*
X-00314Y00248*
X-00315Y00249*
X-00315Y0025*
X-00316Y00251*
X-00317Y00252*
X-00318Y00253*
X-00319Y00254*
X-00321Y00255*
X-00322Y00255*
X-00323Y00256*
X-00324Y00256*
X-00326Y00257*
X-00327Y00257*
X-00328Y00257*
X-0033Y00257*
X-00331*
X-00333Y00257*
X-00334Y00257*
X-00335Y00257*
X-00337Y00256*
X-00338Y00256*
X-00339Y00255*
X-0034Y00255*
X-00341Y00254*
X-00343Y00253*
X-00344Y00252*
X-00345Y00251*
X-00346Y0025*
X-00346Y00249*
X-00347Y00248*
X-00348Y00247*
X-00348Y00246*
X-00349Y00244*
X-00349Y00243*
X-0035Y00242*
X-0035Y0024*
X-0035Y00239*
X-0035Y00238*
X-0035Y00236*
X-0035Y00235*
X-0035Y00234*
X-00349Y00232*
X-00349Y00231*
X-00348Y0023*
X-00348Y00228*
X-00347Y00227*
X-00346Y00226*
X-00346Y00225*
X-00345Y00224*
X-00344Y00223*
X-00343Y00222*
X-00341Y00221*
X-0034Y00221*
X-00339Y0022*
X-00338Y00219*
X-00337Y00219*
X-00335Y00219*
X-00334Y00218*
X-00333Y00218*
X-00331Y00218*
X-0033*
X-00328Y00218*
X-00327Y00218*
X-00326Y00219*
X-00324Y00219*
X-00323Y00219*
X-00322Y0022*
X-00321Y00221*
X-00319Y00221*
X-00318Y00222*
X-00317Y00223*
X-00316Y00224*
X-00315Y00225*
X-00315Y00226*
X-00314Y00227*
X-00313Y00228*
X-00312Y0023*
X-00312Y00231*
X-00312Y00232*
X-00311Y00234*
X-00311Y00235*
X-00311Y00236*
X-00311Y00238*
X0118Y-0068D02*
Y-00562D01*
X01299Y-0068D02*
Y-00562D01*
X0118Y-0068D02*
X01299D01*
X0118Y-00562D02*
X01299D01*
X01095Y00497D02*
X01275D01*
X01095Y00275D02*
X01275D01*
Y00497*
X01095Y00275D02*
Y00497D01*
X-013D02*
X-0112D01*
X-013Y00275D02*
X-0112D01*
Y00497*
X-013Y00275D02*
Y00497D01*
X-01366Y-00626D02*
X-01333D01*
X-01366Y-00667D02*
X-01333D01*
X-01366D02*
Y-00626D01*
X-01333Y-00667D02*
Y-00626D01*
X00893Y-01113D02*
X00926D01*
X00893Y-01072D02*
X00926D01*
Y-01113D02*
Y-01072D01*
X00893Y-01113D02*
Y-01072D01*
X01031Y-01111D02*
Y-0106D01*
X01146Y-01111D02*
Y-0106D01*
X01031Y-01111D02*
X01146D01*
X01031Y-0106D02*
X01146D01*
X01043Y-01186D02*
Y-01135D01*
X00928Y-01186D02*
Y-01135D01*
X01043*
X00928Y-01186D02*
X01043D01*
X01127Y-01233D02*
Y-01122D01*
X0126D01*
X01127Y-01233D02*
X0126D01*
Y-01122*
X-01354Y-00851D02*
X-01303D01*
X-01354Y-00966D02*
X-01303D01*
X-01354D02*
Y-00851D01*
X-01303Y-00966D02*
Y-00851D01*
X-01418Y-00886D02*
X-01367D01*
X-01418Y-00771D02*
X-01367D01*
Y-00886D02*
Y-00771D01*
X-01418Y-00886D02*
Y-00771D01*
X-01356Y-0025D02*
Y-0001D01*
X-01116*
X-01356Y-0025D02*
X-01116D01*
Y-0001*
X01221Y-00106D02*
X01344D01*
X01221Y00016D02*
X01344D01*
Y-00106D02*
Y00016D01*
X01221Y-00106D02*
Y00016D01*
X-01149Y-01234D02*
Y-01123D01*
X-01282Y-01234D02*
X-01149D01*
X-01282Y-01123D02*
X-01149D01*
X-01282Y-01234D02*
Y-01123D01*
X00893Y-00583D02*
X00952D01*
Y-00661D02*
Y-00583D01*
X00893Y-00661D02*
X00952D01*
X00893D02*
Y-00583D01*
X-01212Y-0082D02*
X-01045Y-00987D01*
Y-00652D02*
X-00877Y-0082D01*
X-01045Y-00987D02*
X-00877Y-0082D01*
X-01212D02*
X-01045Y-00652D01*
X-00901Y-00921D02*
X-00859Y-00962D01*
X-00928Y-00948D02*
X-00887Y-0099D01*
X-00859Y-00962*
X-00928Y-00948D02*
X-00901Y-00921D01*
X-00349Y-00495D02*
X-0023D01*
X-00349Y-0055D02*
X-0023D01*
Y-00495*
X-00349Y-0055D02*
Y-00495D01*
X00189Y-00677D02*
Y-00612D01*
X00106Y-00677D02*
Y-00612D01*
Y-00677D02*
X00189D01*
X00106Y-00612D02*
X00189D01*
X00047Y00288D02*
Y00351D01*
X-00067Y00288D02*
Y00351D01*
X00047*
X-00067Y00288D02*
X00047D01*
X-00033Y-0004D02*
X00033D01*
X-00033Y-00159D02*
X00033D01*
X-00033D02*
Y-0004D01*
X00033Y-00159D02*
Y-0004D01*
X00161D02*
X00228D01*
X00161Y-00159D02*
X00228D01*
X00161D02*
Y-0004D01*
X00228Y-00159D02*
Y-0004D01*
X-00166Y-00159D02*
Y-0004D01*
X-00233Y-00159D02*
Y-0004D01*
Y-00159D02*
X-00166D01*
X-00233Y-0004D02*
X-00166D01*
X00821Y-00239D02*
Y-002D01*
X00798Y-00239D02*
X00821D01*
X00798D02*
Y-002D01*
X00821*
X00821Y-00189D02*
Y-0015D01*
X00798Y-00189D02*
X00821D01*
X00798D02*
Y-0015D01*
X00821*
X00798Y-00089D02*
Y-0005D01*
X00821*
Y-00089D02*
Y-0005D01*
X00798Y-00089D02*
X00821D01*
X00798Y-00139D02*
Y-001D01*
X00821*
Y-00139D02*
Y-001D01*
X00798Y-00139D02*
X00821D01*
Y-00039D02*
Y0D01*
X00798Y-00039D02*
X00821D01*
X00798D02*
Y0D01*
X00821*
X00821Y0001D02*
Y0005D01*
X00798Y0001D02*
X00821D01*
X00798D02*
Y0005D01*
X00821*
X-01416Y-00944D02*
Y-00905D01*
X-01439Y-00944D02*
X-01416D01*
X-01439D02*
Y-00905D01*
X-01416*
X01068Y-01214D02*
Y-01175D01*
X01092*
Y-01214D02*
Y-01175D01*
X01068Y-01214D02*
X01092D01*
X00892Y-01175D02*
Y-01135D01*
X00916*
Y-01175D02*
Y-01135D01*
X00892Y-01175D02*
X00916D01*
X-01418Y-00746D02*
Y-00706D01*
X-01441Y-00746D02*
X-01418D01*
X-01441D02*
Y-00706D01*
X-01418*
X-00286Y00028D02*
Y00067D01*
X-0031Y00028D02*
X-00286D01*
X-0031D02*
Y00067D01*
X-00286*
X-00018Y00415D02*
Y00454D01*
X-00041Y00415D02*
X-00018D01*
X-00041D02*
Y00454D01*
X-00018*
X-00091Y00415D02*
Y00454D01*
X-00068*
Y00415D02*
Y00454D01*
X-00091Y00415D02*
X-00068D01*
X-00076Y-00119D02*
Y-00079D01*
X-001Y-00119D02*
X-00076D01*
X-001D02*
Y-00079D01*
X-00076*
X00114Y-00129D02*
Y-0009D01*
X0009Y-00129D02*
X00114D01*
X0009D02*
Y-0009D01*
X00114*
X-00282Y-00121D02*
Y-00081D01*
X-00306Y-00121D02*
X-00282D01*
X-00306D02*
Y-00081D01*
X-00282*
X-0116Y01164D02*
X-01038D01*
X-0116Y01235D02*
X-01038D01*
X-0116Y01164D02*
Y01235D01*
X-01038Y01164D02*
Y01235D01*
X00807Y01163D02*
X00929D01*
X00807Y01234D02*
X00929D01*
X00807Y01163D02*
Y01234D01*
X00929Y01163D02*
Y01234D01*
X-00341Y00022D02*
X-00278D01*
X-00341Y-00111D02*
X-00278D01*
X-00341D02*
Y00022D01*
X-00278Y-00111D02*
Y00022D01*
X0Y00222D02*
X00083D01*
X0Y00127D02*
X00083D01*
X0D02*
Y00222D01*
X00083Y00127D02*
Y00222D01*
X-00092Y-0057D02*
X00068D01*
X-00092Y-00409D02*
X00068D01*
X-00092Y-0057D02*
Y-00409D01*
X00068Y-0057D02*
Y-00409D01*
X-00165Y00096D02*
Y00273D01*
X-00366Y00096D02*
Y00273D01*
Y00096D02*
X-00165D01*
X-00366Y00273D02*
X-00165D01*
X-00015Y00138D02*
Y00205D01*
X-00134Y00138D02*
Y00205D01*
Y00138D02*
X-00015D01*
X-00134Y00205D02*
X-00015D01*
G54D118*
X01007Y-00038D02*
D01*
X01007Y-00037*
X01007Y-00037*
X01007Y-00036*
X01007Y-00036*
X01006Y-00036*
X01006Y-00035*
X01006Y-00035*
X01006Y-00034*
X01006Y-00034*
X01005Y-00033*
X01005Y-00033*
X01005Y-00033*
X01004Y-00032*
X01004Y-00032*
X01003Y-00032*
X01003Y-00032*
X01002Y-00031*
X01002Y-00031*
X01002Y-00031*
X01001Y-00031*
X01001Y-00031*
X01Y-00031*
X01*
X00999Y-00031*
X00999Y-00031*
X00998Y-00031*
X00998Y-00031*
X00997Y-00031*
X00997Y-00032*
X00996Y-00032*
X00996Y-00032*
X00996Y-00032*
X00995Y-00033*
X00995Y-00033*
X00995Y-00033*
X00994Y-00034*
X00994Y-00034*
X00994Y-00035*
X00994Y-00035*
X00993Y-00036*
X00993Y-00036*
X00993Y-00036*
X00993Y-00037*
X00993Y-00037*
X00993Y-00038*
X00993Y-00038*
X00993Y-00039*
X00993Y-00039*
X00993Y-0004*
X00993Y-0004*
X00994Y-00041*
X00994Y-00041*
X00994Y-00042*
X00994Y-00042*
X00995Y-00042*
X00995Y-00043*
X00995Y-00043*
X00996Y-00043*
X00996Y-00044*
X00996Y-00044*
X00997Y-00044*
X00997Y-00044*
X00998Y-00045*
X00998Y-00045*
X00999Y-00045*
X00999Y-00045*
X01Y-00045*
X01*
X01001Y-00045*
X01001Y-00045*
X01002Y-00045*
X01002Y-00045*
X01002Y-00044*
X01003Y-00044*
X01003Y-00044*
X01004Y-00044*
X01004Y-00043*
X01005Y-00043*
X01005Y-00043*
X01005Y-00042*
X01006Y-00042*
X01006Y-00042*
X01006Y-00041*
X01006Y-00041*
X01006Y-0004*
X01007Y-0004*
X01007Y-00039*
X01007Y-00039*
X01007Y-00038*
X01007Y-00038*
X01006Y-00193D02*
D01*
X01006Y-00192*
X01006Y-00192*
X01006Y-00191*
X01006Y-00191*
X01005Y-00191*
X01005Y-0019*
X01005Y-0019*
X01005Y-00189*
X01005Y-00189*
X01004Y-00188*
X01004Y-00188*
X01004Y-00188*
X01003Y-00187*
X01003Y-00187*
X01002Y-00187*
X01002Y-00187*
X01001Y-00186*
X01001Y-00186*
X01001Y-00186*
X01Y-00186*
X01Y-00186*
X00999Y-00186*
X00999*
X00998Y-00186*
X00998Y-00186*
X00997Y-00186*
X00997Y-00186*
X00996Y-00186*
X00996Y-00187*
X00995Y-00187*
X00995Y-00187*
X00995Y-00187*
X00994Y-00188*
X00994Y-00188*
X00994Y-00188*
X00993Y-00189*
X00993Y-00189*
X00993Y-0019*
X00993Y-0019*
X00992Y-00191*
X00992Y-00191*
X00992Y-00191*
X00992Y-00192*
X00992Y-00192*
X00992Y-00193*
X00992Y-00193*
X00992Y-00194*
X00992Y-00194*
X00992Y-00195*
X00992Y-00195*
X00993Y-00196*
X00993Y-00196*
X00993Y-00197*
X00993Y-00197*
X00994Y-00197*
X00994Y-00198*
X00994Y-00198*
X00995Y-00198*
X00995Y-00199*
X00995Y-00199*
X00996Y-00199*
X00996Y-00199*
X00997Y-002*
X00997Y-002*
X00998Y-002*
X00998Y-002*
X00999Y-002*
X00999*
X01Y-002*
X01Y-002*
X01001Y-002*
X01001Y-002*
X01001Y-00199*
X01002Y-00199*
X01002Y-00199*
X01003Y-00199*
X01003Y-00198*
X01004Y-00198*
X01004Y-00198*
X01004Y-00197*
X01005Y-00197*
X01005Y-00197*
X01005Y-00196*
X01005Y-00196*
X01005Y-00195*
X01006Y-00195*
X01006Y-00194*
X01006Y-00194*
X01006Y-00193*
X01006Y-00193*
X-0026Y0043D02*
D01*
X-0026Y00431*
X-0026Y00431*
X-0026Y00432*
X-0026Y00433*
X-00261Y00433*
X-00261Y00434*
X-00261Y00434*
X-00261Y00435*
X-00262Y00435*
X-00262Y00436*
X-00262Y00436*
X-00263Y00437*
X-00263Y00437*
X-00264Y00437*
X-00264Y00438*
X-00265Y00438*
X-00266Y00438*
X-00266Y00439*
X-00267Y00439*
X-00267Y00439*
X-00268Y00439*
X-00269Y00439*
X-00269*
X-0027Y00439*
X-0027Y00439*
X-00271Y00439*
X-00272Y00439*
X-00272Y00438*
X-00273Y00438*
X-00273Y00438*
X-00274Y00437*
X-00274Y00437*
X-00275Y00437*
X-00275Y00436*
X-00276Y00436*
X-00276Y00435*
X-00276Y00435*
X-00277Y00434*
X-00277Y00434*
X-00277Y00433*
X-00277Y00433*
X-00277Y00432*
X-00278Y00431*
X-00278Y00431*
X-00278Y0043*
X-00278Y0043*
X-00278Y00429*
X-00277Y00428*
X-00277Y00428*
X-00277Y00427*
X-00277Y00427*
X-00277Y00426*
X-00276Y00426*
X-00276Y00425*
X-00276Y00425*
X-00275Y00424*
X-00275Y00424*
X-00274Y00423*
X-00274Y00423*
X-00273Y00423*
X-00273Y00422*
X-00272Y00422*
X-00272Y00422*
X-00271Y00422*
X-0027Y00422*
X-0027Y00421*
X-00269Y00421*
X-00269*
X-00268Y00421*
X-00267Y00422*
X-00267Y00422*
X-00266Y00422*
X-00266Y00422*
X-00265Y00422*
X-00264Y00423*
X-00264Y00423*
X-00263Y00423*
X-00263Y00424*
X-00262Y00424*
X-00262Y00425*
X-00262Y00425*
X-00261Y00426*
X-00261Y00426*
X-00261Y00427*
X-00261Y00427*
X-0026Y00428*
X-0026Y00428*
X-0026Y00429*
X-0026Y0043*
X-0026Y0043*
X-00077Y00138D02*
D01*
X-00077Y00139*
X-00077Y00139*
X-00077Y0014*
X-00077Y00141*
X-00077Y00141*
X-00077Y00142*
X-00078Y00142*
X-00078Y00143*
X-00078Y00143*
X-00079Y00144*
X-00079Y00144*
X-0008Y00145*
X-0008Y00145*
X-00081Y00145*
X-00081Y00146*
X-00082Y00146*
X-00082Y00146*
X-00083Y00147*
X-00083Y00147*
X-00084Y00147*
X-00085Y00147*
X-00085Y00147*
X-00086*
X-00086Y00147*
X-00087Y00147*
X-00088Y00147*
X-00088Y00147*
X-00089Y00146*
X-00089Y00146*
X-0009Y00146*
X-0009Y00145*
X-00091Y00145*
X-00091Y00145*
X-00092Y00144*
X-00092Y00144*
X-00093Y00143*
X-00093Y00143*
X-00093Y00142*
X-00094Y00142*
X-00094Y00141*
X-00094Y00141*
X-00094Y0014*
X-00094Y00139*
X-00094Y00139*
X-00094Y00138*
X-00094Y00138*
X-00094Y00137*
X-00094Y00136*
X-00094Y00136*
X-00094Y00135*
X-00094Y00135*
X-00093Y00134*
X-00093Y00134*
X-00093Y00133*
X-00092Y00133*
X-00092Y00132*
X-00091Y00132*
X-00091Y00131*
X-0009Y00131*
X-0009Y00131*
X-00089Y0013*
X-00089Y0013*
X-00088Y0013*
X-00088Y0013*
X-00087Y0013*
X-00086Y00129*
X-00086Y00129*
X-00085*
X-00085Y00129*
X-00084Y0013*
X-00083Y0013*
X-00083Y0013*
X-00082Y0013*
X-00082Y0013*
X-00081Y00131*
X-00081Y00131*
X-0008Y00131*
X-0008Y00132*
X-00079Y00132*
X-00079Y00133*
X-00078Y00133*
X-00078Y00134*
X-00078Y00134*
X-00077Y00135*
X-00077Y00135*
X-00077Y00136*
X-00077Y00136*
X-00077Y00137*
X-00077Y00138*
X-00077Y00138*
X00985Y-00104D02*
Y-00025D01*
Y-00104D02*
X01065D01*
Y-00025D01*
X00985D02*
X01065D01*
X00984Y-00259D02*
Y-0018D01*
Y-00259D02*
X01064D01*
Y-0018D01*
X00984D02*
X01064D01*
X-00857Y-01061D02*
X-00768Y-0115D01*
X-00724Y-01106*
X-00813Y-01017D02*
X-00724Y-01106D01*
X-00857Y-01061D02*
X-00813Y-01017D01*
X-00328Y0045D02*
X-00249D01*
Y00371D02*
Y0045D01*
Y00371D02*
D01*
X-00328D02*
X-00249D01*
X-00328D02*
D01*
Y0045D01*
X-00145Y00158D02*
X-00065D01*
Y00079D02*
Y00158D01*
Y00079D02*
D01*
X-00145D02*
X-00065D01*
X-00145D02*
D01*
Y00158D01*
X00076Y00158D02*
X00185D01*
X00076Y00081D02*
X00185D01*
X00076D02*
Y00158D01*
X00185Y00081D02*
Y00158D01*
M02*