%FSTAX23Y23*%
%MOIN*%
%SFA1B1*%

%IPPOS*%
%ADD10C,0.007000*%
%ADD11C,0.008000*%
%ADD12C,0.010000*%
%ADD13C,0.006000*%
%ADD70C,0.015000*%
%ADD74C,0.020000*%
%ADD75C,0.028000*%
%ADD78C,0.030000*%
%ADD79C,0.025000*%
%ADD90C,0.001000*%
%ADD91C,0.000500*%
%ADD94C,0.027560*%
%LNpcb_flex_1-1*%
%LPD*%
G36*
X01112Y01301D02*
X01111Y013D01*
X0111Y01299*
X0111Y01298*
X01109Y01297*
X01108Y01296*
X01108Y01295*
X01108Y01293*
X01107Y01292*
X01107Y01291*
X01107Y0129*
X01094Y01303*
X01095Y01303*
X01096Y01303*
X01097Y01304*
X01099Y01304*
X011Y01304*
X01101Y01305*
X01102Y01306*
X01103Y01306*
X01104Y01307*
X01105Y01308*
X01112Y01301*
G37*
G36*
X01093Y01276D02*
X01092Y01276D01*
X01091Y01276*
X0109Y01275*
X01088Y01275*
X01087Y01275*
X01086Y01274*
X01085Y01273*
X01084Y01273*
X01083Y01272*
X01082Y01271*
X01075Y01278*
X01076Y01279*
X01077Y0128*
X01077Y01281*
X01078Y01282*
X01079Y01283*
X01079Y01284*
X01079Y01286*
X0108Y01287*
X0108Y01288*
X0108Y01289*
X01093Y01276*
G37*
G36*
X00219D02*
X00218Y01276D01*
X00217Y01276*
X00216Y01275*
X00214Y01275*
X00213Y01275*
X00212Y01274*
X00211Y01273*
X0021Y01273*
X00209Y01272*
X00208Y01271*
X00201Y01278*
X00202Y01279*
X00203Y0128*
X00203Y01281*
X00204Y01282*
X00205Y01283*
X00205Y01284*
X00205Y01286*
X00206Y01287*
X00206Y01288*
X00206Y01289*
X00219Y01276*
G37*
G36*
X-00875D02*
X-00876Y01276D01*
X-00877Y01276*
X-00878Y01275*
X-0088Y01275*
X-00881Y01275*
X-00882Y01274*
X-00883Y01273*
X-00884Y01273*
X-00885Y01272*
X-00886Y01271*
X-00893Y01278*
X-00892Y01279*
X-00891Y0128*
X-00891Y01281*
X-0089Y01282*
X-00889Y01283*
X-00889Y01284*
X-00889Y01286*
X-00888Y01287*
X-00888Y01288*
X-00888Y01289*
X-00875Y01276*
G37*
G36*
X00973Y01276D02*
X00974Y01275D01*
X00975Y01275*
X00976Y01274*
X00977Y01274*
X00979Y01273*
X0098Y01273*
X00981Y01273*
X00982Y01273*
X00984Y01273*
Y01263*
X00982Y01262*
X00981Y01262*
X0098Y01262*
X00979Y01262*
X00977Y01261*
X00976Y01261*
X00975Y0126*
X00974Y0126*
X00973Y01259*
X00972Y01258*
Y01277*
X00973Y01276*
G37*
G36*
X-00995D02*
X-00994Y01275D01*
X-00993Y01275*
X-00992Y01274*
X-00991Y01274*
X-00989Y01273*
X-00988Y01273*
X-00987Y01273*
X-00986Y01273*
X-00984Y01273*
Y01263*
X-00986Y01262*
X-00987Y01262*
X-00988Y01262*
X-00989Y01262*
X-00991Y01261*
X-00992Y01261*
X-00993Y0126*
X-00994Y0126*
X-00995Y01259*
X-00996Y01258*
Y01277*
X-00995Y01276*
G37*
G36*
X01168Y01256D02*
X01167Y01256D01*
X01166Y01256*
X01165Y01255*
X01163Y01255*
X01162Y01255*
X01161Y01254*
X0116Y01253*
X01159Y01253*
X01158Y01252*
X01157Y01251*
X0115Y01258*
X01151Y01259*
X01152Y0126*
X01152Y01261*
X01153Y01262*
X01154Y01263*
X01154Y01264*
X01154Y01266*
X01155Y01267*
X01155Y01268*
X01155Y01269*
X01168Y01256*
G37*
G36*
X-00791Y01259D02*
X-00792Y01258D01*
X-00792Y01257*
X-00793Y01256*
X-00793Y01255*
X-00794Y01253*
X-00794Y01252*
X-00794Y01251*
X-00794Y0125*
X-00795Y01248*
X-00805*
X-00805Y0125*
X-00805Y01251*
X-00805Y01252*
X-00805Y01253*
X-00806Y01255*
X-00806Y01256*
X-00807Y01257*
X-00807Y01258*
X-00808Y01259*
X-00809Y0126*
X-0079*
X-00791Y01259*
G37*
G36*
X01152Y01246D02*
X01151Y01244D01*
X01149Y01243*
X01148Y01241*
X01147Y0124*
X01147Y01238*
X01146Y01236*
X01145Y01235*
X01145Y01233*
X01145Y01231*
X01145Y01229*
X01135Y01226*
X01135Y01228*
X01134Y01229*
X01134Y01231*
X01133Y01232*
X01132Y01233*
X01131Y01234*
X0113Y01235*
X01128Y01235*
X01127Y01236*
X01125Y01236*
X01128Y01246*
X0113Y01246*
X01132Y01246*
X01134Y01246*
X01135Y01247*
X01137Y01248*
X01139Y01248*
X0114Y01249*
X01142Y0125*
X01143Y01252*
X01145Y01253*
X01152Y01246*
G37*
G36*
X00238Y01208D02*
X00238Y01207D01*
X00239Y01206*
X00239Y01204*
X00239Y01203*
X0024Y01202*
X00241Y01201*
X00241Y012*
X00242Y01199*
X00243Y01198*
X00236Y01191*
X00235Y01192*
X00234Y01193*
X00233Y01193*
X00232Y01194*
X00231Y01195*
X0023Y01195*
X00228Y01195*
X00227Y01196*
X00226Y01196*
X00225Y01196*
X00238Y01209*
X00238Y01208*
G37*
G36*
X01101Y01168D02*
X011Y01169D01*
X01099Y0117*
X01098Y0117*
X01097Y01171*
X01096Y01171*
X01094Y01172*
X01093Y01172*
X01092Y01172*
X01091Y01172*
X01089Y01173*
Y01183*
X01091Y01183*
X01092Y01183*
X01093Y01183*
X01094Y01183*
X01096Y01184*
X01097Y01184*
X01098Y01185*
X01099Y01185*
X011Y01186*
X01101Y01187*
Y01168*
G37*
G36*
X-00236Y01173D02*
X-00236Y01172D01*
X-00235Y01171*
X-00235Y01169*
X-00235Y01168*
X-00234Y01167*
X-00233Y01166*
X-00233Y01165*
X-00232Y01164*
X-00231Y01163*
X-00238Y01156*
X-00239Y01157*
X-0024Y01158*
X-00241Y01158*
X-00242Y01159*
X-00243Y0116*
X-00244Y0116*
X-00246Y0116*
X-00247Y01161*
X-00248Y01161*
X-00249Y01161*
X-00236Y01174*
X-00236Y01173*
G37*
G36*
X-00191Y01164D02*
X-00192Y01163D01*
X-00192Y01162*
X-00193Y01161*
X-00193Y0116*
X-00194Y01158*
X-00194Y01157*
X-00194Y01156*
X-00194Y01155*
X-00195Y01153*
X-00205*
X-00205Y01155*
X-00205Y01156*
X-00205Y01157*
X-00205Y01158*
X-00206Y0116*
X-00206Y01161*
X-00207Y01162*
X-00207Y01163*
X-00208Y01164*
X-00209Y01165*
X-0019*
X-00191Y01164*
G37*
G36*
X0021Y0112D02*
X00209Y01121D01*
X00208Y01122*
X00207Y01122*
X00206Y01123*
X00205Y01123*
X00203Y01124*
X00202Y01124*
X00201Y01124*
X002Y01124*
X00198Y01125*
Y01135*
X002Y01135*
X00201Y01135*
X00202Y01135*
X00203Y01135*
X00205Y01136*
X00206Y01136*
X00207Y01137*
X00208Y01137*
X00209Y01138*
X0021Y01139*
Y0112*
G37*
G36*
X00834Y01124D02*
X00834Y01123D01*
X00834Y01122*
X00834Y01121*
X00835Y01119*
X00835Y01118*
X00836Y01117*
X00836Y01116*
X00837Y01115*
X00838Y01114*
X00819*
X0082Y01115*
X00821Y01116*
X00821Y01117*
X00822Y01118*
X00822Y01119*
X00823Y01121*
X00823Y01122*
X00823Y01123*
X00823Y01124*
X00824Y01126*
X00834*
X00834Y01124*
G37*
G36*
X-01134D02*
X-01134Y01123D01*
X-01134Y01122*
X-01134Y01121*
X-01133Y01119*
X-01133Y01118*
X-01132Y01117*
X-01132Y01116*
X-01131Y01115*
X-0113Y01114*
X-01149*
X-01148Y01115*
X-01147Y01116*
X-01147Y01117*
X-01146Y01118*
X-01146Y01119*
X-01145Y01121*
X-01145Y01122*
X-01145Y01123*
X-01145Y01124*
X-01145Y01126*
X-01135*
X-01134Y01124*
G37*
G36*
X00984Y01093D02*
X00983Y01094D01*
X00982Y01095*
X00981Y01095*
X0098Y01096*
X00979Y01096*
X00977Y01097*
X00976Y01097*
X00975Y01097*
X00974Y01097*
X00972Y01098*
X00972Y01108*
X00974Y01108*
X00975Y01108*
X00976Y01108*
X00977Y01108*
X00979Y01109*
X0098Y01109*
X00981Y0111*
X00982Y01111*
X00983Y01111*
X00984Y01112*
X00984Y01093*
G37*
G36*
X00954Y01111D02*
X00955Y01111D01*
X00956Y0111*
X00957Y01109*
X00959Y01109*
X0096Y01108*
X00961Y01108*
X00962Y01108*
X00963Y01108*
X00965Y01108*
X00965Y01098*
X00963Y01097*
X00962Y01097*
X00961Y01097*
X0096Y01097*
X00958Y01096*
X00957Y01096*
X00956Y01095*
X00955Y01095*
X00954Y01094*
X00953Y01093*
X00953Y01112*
X00954Y01111*
G37*
G36*
X-01126Y01103D02*
X-01126Y01102D01*
X-01125Y01101*
X-01125Y01099*
X-01125Y01098*
X-01124Y01097*
X-01123Y01096*
X-01123Y01095*
X-01122Y01094*
X-01121Y01093*
X-01128Y01086*
X-01129Y01087*
X-0113Y01088*
X-01131Y01088*
X-01132Y01089*
X-01133Y0109*
X-01134Y0109*
X-01136Y0109*
X-01137Y01091*
X-01138Y01091*
X-01139Y01091*
X-01126Y01104*
X-01126Y01103*
G37*
G36*
X01007Y01101D02*
X01007Y011D01*
X01008Y01099*
X01008Y01098*
X01008Y01097*
X01009Y01095*
X0101Y01094*
X0101Y01093*
X01011Y01092*
X01012Y01092*
X01012Y01091*
X01014Y0109*
X01015Y01089*
X01016Y01088*
X01017Y01088*
X01018Y01087*
X0102Y01087*
X01022Y01086*
X01005Y01076*
X01006Y01078*
X01006Y01079*
X01006Y0108*
X01006Y01081*
X01005Y01082*
X01005Y01083*
X01004Y01084*
X01004Y01085*
X01003Y01086*
X01003Y01086*
X01002Y01087*
X01001Y01087*
X01Y01088*
X00999Y01088*
X00998Y01089*
X00996Y01089*
X00995Y01089*
X00994Y01089*
X01007Y01103*
X01007Y01101*
G37*
G36*
X00935Y01096D02*
X00936Y01096D01*
X00937Y01095*
X00947Y01089*
X00946Y01089*
X00944Y01088*
X00943Y01088*
X0094Y01086*
X00939Y01086*
X00939Y01085*
X00934Y0108*
X00934Y0108*
X00934Y01079*
X00933Y01077*
X00933Y01076*
X00933Y01075*
X00932Y01074*
X00932Y01072*
X0093Y01075*
X00929Y01074*
X00929Y01073*
X00929Y01072*
X00919Y01083*
X0092Y01083*
X0092Y01083*
X00922Y01084*
X00919Y01086*
X0092*
X00922Y01087*
X00923Y01087*
X00924Y01087*
X00925Y01087*
X00926Y01088*
X00927Y01089*
X00928Y01089*
X00929Y0109*
X00929Y0109*
X0093Y01091*
X0093Y01092*
X0093Y01093*
X00931Y01094*
X00931Y01095*
X00931Y01096*
X00931Y01097*
X0093Y01099*
X00935Y01096*
G37*
G36*
X00255Y01095D02*
X00255Y01081D01*
X00256Y01078*
X00256Y01076*
X00257Y01074*
X00258Y01073*
X00258Y01072*
X00241*
X00241Y01073*
X00242Y01074*
X00243Y01076*
X00243Y01078*
X00244Y01081*
X00244Y01087*
X00244Y01095*
X00245Y01099*
X00255*
X00255Y01095*
G37*
G36*
X01019Y01059D02*
X01017Y01059D01*
X01016Y01059*
X01015Y01058*
X01014Y01058*
X01013Y01058*
X01012Y01057*
X0101Y01056*
X01009Y01056*
X01008Y01055*
X01007Y01054*
X01Y01061*
X01001Y01062*
X01002Y01063*
X01003Y01064*
X01003Y01065*
X01004Y01066*
X01004Y01067*
X01004Y01068*
X01005Y0107*
X01005Y01071*
Y01072*
X01019Y01059*
G37*
G36*
X-01103Y01076D02*
X-01093Y01066D01*
X-01091Y01065*
X-01089Y01064*
X-01087Y01063*
X-01086Y01062*
X-01084Y01062*
X-01097Y01049*
X-01097Y01051*
X-01098Y01052*
X-01099Y01054*
X-011Y01056*
X-01101Y01058*
X-01105Y01063*
X-01111Y01068*
X-01114Y01072*
X-01107Y01079*
X-01103Y01076*
G37*
G36*
X01051Y01067D02*
X01052Y01052D01*
X01052Y0105*
X01053Y01049*
X01053Y01049*
X01039*
X01039Y01049*
X0104Y0105*
X0104Y01052*
X0104Y01053*
X01041Y01058*
X01041Y01067*
X01041Y0107*
X01051*
X01051Y01067*
G37*
G36*
X-00291Y01047D02*
X-00291Y01046D01*
X-0029Y01046*
X-00289Y01046*
X-00288Y01045*
X-00287Y01045*
X-00285Y01045*
X-00282Y01044*
X-00296Y0103*
X-00296Y01032*
X-00297Y01035*
X-00297Y01037*
X-00298Y01037*
X-00298Y01038*
X-00298Y01039*
X-00299Y0104*
X-00299Y0104*
X-00292Y01047*
X-00291Y01047*
G37*
G36*
X01147Y01049D02*
X01144Y01046D01*
X01134Y01035*
X01133Y01033*
X01132Y01031*
X01131Y01029*
X0113Y01028*
X0113Y01027*
X01117Y01039*
X01119Y01039*
X0112Y0104*
X01122Y01041*
X01124Y01042*
X01126Y01044*
X01131Y01048*
X01136Y01053*
X0114Y01056*
X01147Y01049*
G37*
G36*
X00219Y00458D02*
X00219Y00457D01*
X00219Y00453*
X00219Y00427*
X00199*
X00198Y00458*
X00219*
X00219Y00458*
G37*
G36*
X-00275Y00446D02*
X-00276Y00444D01*
X-00277Y00443*
X-00277Y0044*
X-00278Y00438*
X-00278Y00432*
X-00278Y00424*
X-00279Y00419*
X-00289*
X-00289Y00424*
X-00289Y00438*
X-0029Y0044*
X-0029Y00443*
X-00291Y00444*
X-00292Y00446*
X-00292Y00447*
X-00275*
X-00275Y00446*
G37*
G36*
X01007Y00417D02*
X00972Y00382D01*
X00827*
X00825Y00387*
X00828Y00392*
X0083Y004*
X00828Y00407*
X00826Y00411*
Y00411*
X00835Y0042*
X00957*
X00963Y00421*
X00968Y00425*
X00974Y00431*
X00976Y00431*
X00982Y00435*
X00986Y00441*
X00987Y00449*
Y00468*
X01007*
Y00417*
G37*
G36*
X0095Y00453D02*
X00829D01*
X00822Y00452*
X00817Y00448*
X00798Y00429*
X00794Y00424*
X00793Y00418*
Y00411*
X00791Y00407*
X00789Y004*
X00791Y00392*
X00794Y00387*
X00792Y00382*
X00726*
X00705Y00403*
X00704Y00407*
X007Y00414*
X00693Y00418*
X00686Y0042*
X00678Y00418*
X00671Y00414*
X00667Y00407*
X00665Y004*
X00667Y00392*
X00671Y00385*
X00678Y00381*
X00682Y0038*
X00708Y00354*
X00713Y0035*
X0072Y00349*
X00879*
X00882Y00344*
X00879Y0034*
X00877Y00333*
X00879Y00325*
X00883Y00318*
X0089Y00314*
X00891Y00314*
X0089Y00309*
X00701*
X00696Y00308*
X00693Y00305*
X00672Y00284*
X00669Y00281*
X00668Y00277*
Y00047*
X00664Y00043*
X0066Y00045*
Y00468*
X0095*
Y00453*
G37*
G36*
X0143Y-00502D02*
X01425Y-00505D01*
X01425Y-00505*
X01421Y-00499*
X01414Y-00495*
X01407Y-00493*
X01399Y-00495*
X01392Y-00499*
X01388Y-00506*
X01386Y-00514*
X01388Y-00521*
X01392Y-00528*
X01399Y-00532*
X01407Y-00534*
X01414Y-00532*
X01421Y-00528*
X01425Y-00522*
X01425Y-00521*
X0143Y-00524*
X0143Y-00558*
X01425Y-0056*
X01425Y-0056*
X01421Y-00553*
X01414Y-00549*
X01407Y-00547*
X01399Y-00549*
X01392Y-00553*
X01388Y-0056*
X01386Y-00568*
X01388Y-00575*
X01392Y-00582*
X01399Y-00586*
X01407Y-00588*
X01414Y-00586*
X01421Y-00582*
X01425Y-00575*
X01425Y-00575*
X0143Y-00577*
X01431Y-00924*
X01429Y-00934*
Y-00972*
X0143Y-00981*
X01431Y-01004*
X01429Y-01027*
X01426Y-0105*
X0142Y-01073*
X01411Y-01095*
X01401Y-01115*
X01389Y-01135*
X01375Y-01153*
X01359Y-0117*
X01341Y-01186*
X01322Y-01199*
X01309Y-01207*
X01303Y-01204*
X01302Y-012*
X01298Y-01193*
X01291Y-01189*
X01284Y-01187*
X01278Y-01188*
X01246Y-01157*
X01248Y-01152*
X01265*
X01269Y-01158*
X01276Y-01162*
X01284Y-01164*
X01291Y-01162*
X01298Y-01158*
X01302Y-01151*
X01304Y-01144*
X01302Y-01136*
X01298Y-01129*
X01291Y-01125*
X01284Y-01123*
X01276Y-01125*
X01269Y-01129*
X01267Y-01133*
X01141*
X01137Y-01133*
X01134Y-01135*
X01109Y-0116*
X00815*
X00761Y-01106*
Y-0097*
X0077*
Y-00995*
X00771Y-00999*
X00773Y-01002*
X00813Y-01042*
Y-01051*
X00808Y-01055*
X00803Y-01061*
X00802Y-01069*
X00803Y-01077*
X00808Y-01083*
X00814Y-01088*
X00822Y-01089*
X0083Y-01088*
X00836Y-01083*
X0084Y-01077*
X00842Y-01069*
X0084Y-01061*
X00836Y-01055*
X00831Y-01051*
Y-01038*
X0083Y-01034*
X00828Y-01031*
X00788Y-00991*
Y-0097*
X00804*
X00805Y-0097*
X00816Y-00975*
X00828Y-00976*
X00839Y-00975*
X0085Y-0097*
X00851Y-0097*
X00873*
Y-00941*
X00872Y-0094*
X00873Y-00932*
Y-00929*
X00872Y-00919*
X00867Y-00908*
X0086Y-00898*
X0085Y-00891*
X00839Y-00886*
X00828Y-00885*
X00816Y-00886*
X00805Y-00891*
X00796Y-00898*
X00793Y-00897*
X00791Y-00897*
Y-00705*
X00795Y-00703*
X00796Y-00703*
X00804Y-00705*
X00811Y-00703*
X00818Y-00699*
X00822Y-00692*
X00824Y-00685*
X00822Y-00678*
X00827Y-00676*
X00844Y-00693*
X00843Y-00697*
X00845Y-00704*
X00849Y-00711*
X00856Y-00715*
X00864Y-00717*
X00871Y-00715*
X00878Y-00711*
X00882Y-00704*
X00884Y-00697*
X00882Y-00689*
X00878Y-00682*
X00871Y-00678*
X00864Y-00676*
X0086Y-00677*
X00854Y-00672*
X00857Y-00667*
X00861Y-00668*
X00868Y-00666*
X00875Y-00662*
X00879Y-00655*
X00881Y-00648*
X00879Y-0064*
X00875Y-00633*
X00868Y-00629*
X00861Y-00627*
X00853Y-00629*
X00849Y-00631*
X00756Y-00539*
X00753Y-00536*
X00752Y-00536*
X00746Y-0053*
X00745Y-0053*
X00728Y-00512*
X00728Y-00511*
X00733Y-00507*
X00782*
X00784Y-0051*
X00791Y-00515*
X00798Y-00516*
X00806Y-00515*
X00812Y-0051*
X00817Y-00504*
X00818Y-00496*
X00817Y-00488*
X00812Y-00482*
X00806Y-00478*
X00799Y-00476*
X00798Y-00473*
X00797Y-00471*
X00801Y-00465*
X00803Y-00457*
X00801Y-0045*
X00797Y-00443*
X0079Y-00439*
X00782Y-00437*
X00775Y-00439*
X00768Y-00443*
X00766Y-00446*
X00752*
X0073Y-00424*
Y-00376*
X00729Y-00371*
X00726Y-00368*
X00682Y-00324*
X00679Y-00321*
X00674Y-0032*
X0066*
Y-00122*
X00719*
X00749Y-00151*
X00752Y-00154*
X00757Y-00155*
X00831*
X00833Y-00158*
X00836Y-0016*
Y-0031*
X0083Y-00316*
X00827Y-00315*
X00819Y-00317*
X00812Y-00321*
X00808Y-00328*
X00806Y-00336*
X00808Y-00343*
X00812Y-0035*
X00819Y-00354*
X00827Y-00356*
X00834Y-00354*
X00841Y-0035*
X00845Y-00343*
X00847Y-00336*
X00846Y-00332*
X00855Y-00322*
X00858Y-00319*
X00859Y-00315*
Y-002*
X01046*
Y-002*
X0105Y-00199*
X01053Y-00196*
X01065Y-00185*
X01069Y-00186*
X01072Y-00185*
X01082Y-00195*
X01081Y-00201*
X0108Y-00201*
X01073Y-00205*
X01069Y-00212*
X01067Y-0022*
X01069Y-00227*
X01073Y-00234*
X0108Y-00238*
X01088Y-0024*
X01095Y-00238*
X01102Y-00234*
X01106Y-00227*
X01108Y-0022*
X01106Y-00212*
X01103Y-00207*
X01105Y-00202*
X01303*
X01353Y-00252*
X01351Y-00257*
X01345Y-00258*
X01338Y-00262*
X01338Y-00263*
X01333Y-00261*
X01329Y-00255*
X01322Y-00251*
X01315Y-00249*
X01307Y-00251*
X013Y-00255*
X01296Y-00262*
X01294Y-0027*
X01296Y-00277*
X013Y-00284*
X01307Y-00288*
X01315Y-0029*
X01322Y-00288*
X01329Y-00284*
X01329Y-00283*
X01334Y-00285*
X01338Y-00291*
X01345Y-00295*
X01353Y-00297*
X0136Y-00295*
X01367Y-00291*
X01369Y-00287*
X01374Y-00289*
Y-00368*
X01318Y-00424*
X01314Y-00422*
X01315Y-00418*
X01313Y-0041*
X01309Y-00403*
X01302Y-00399*
X01295Y-00397*
X01287Y-00399*
X0128Y-00403*
X01276Y-0041*
X01274Y-00418*
X01276Y-00425*
X0128Y-00432*
X01287Y-00436*
X01295Y-00438*
X01302Y-00436*
X01304Y-00438*
X01306Y-0044*
X01305Y-00442*
Y-00482*
X01275Y-00512*
X01272Y-00511*
X01264Y-00513*
X01257Y-00517*
X01253Y-00524*
X01251Y-00532*
X01252Y-00535*
X01186Y-00601*
X01169*
X01164Y-00602*
X01161Y-00605*
X0108Y-00685*
X01078Y-00689*
X01077Y-00693*
Y-00744*
X01078Y-00748*
X0108Y-00752*
X01114Y-00785*
X01112Y-00792*
X01114Y-00799*
X01118Y-00806*
X01125Y-0081*
X01133Y-00812*
X0114Y-0081*
X01147Y-00806*
X01151Y-00799*
X01153Y-00792*
X01151Y-00784*
X01147Y-00777*
X0114Y-00773*
X01133Y-00771*
X01131Y-00772*
X01099Y-00739*
Y-00698*
X01141Y-00656*
X01146Y-00658*
X01144Y-00665*
X01146Y-00672*
X0115Y-00679*
X01157Y-00683*
X01165Y-00685*
X01172Y-00683*
X01179Y-00679*
X01183Y-00672*
X01185Y-00665*
X01183Y-00657*
X01179Y-0065*
X01172Y-00646*
X01165Y-00644*
X01158Y-00646*
X01156Y-00641*
X01173Y-00624*
X01191*
X01195Y-00623*
X01198Y-0062*
X01268Y-00551*
X01272Y-00552*
X01279Y-0055*
X01286Y-00546*
X0129Y-00539*
X01292Y-00532*
X01291Y-00528*
X01324Y-00495*
X01327Y-00491*
X01327Y-00489*
X01332Y-00487*
X01333Y-00489*
X0134Y-00493*
X01348Y-00495*
X01355Y-00493*
X01362Y-00489*
X01366Y-00482*
X01368Y-00475*
X01366Y-00467*
X01362Y-0046*
X01355Y-00456*
X01348Y-00454*
X0134Y-00456*
X01333Y-0046*
X01333Y-00461*
X01327Y-0046*
Y-00447*
X01393Y-00381*
X01396Y-00377*
X01397Y-00373*
Y-00271*
X01401Y-00267*
X01404Y-00268*
X01411Y-00266*
X01418Y-00262*
X01422Y-00255*
X01424Y-00248*
X01422Y-0024*
X01418Y-00233*
X01411Y-00229*
X01404Y-00227*
X01396Y-00229*
X01389Y-00233*
X01385Y-0024*
X01384Y-00244*
X01379Y-00246*
X01315Y-00183*
X01314Y-00181*
Y-00175*
X01317Y-00173*
X01321Y-00166*
X01323Y-00159*
X01321Y-00151*
X01317Y-00144*
X0131Y-0014*
X01303Y-00138*
X01295Y-0014*
X01288Y-00144*
X01284Y-00151*
X01282Y-00159*
X01284Y-00166*
X01288Y-00173*
X01291Y-00174*
X0129Y-00179*
X01098*
X01088Y-00169*
X01089Y-00166*
X01087Y-00158*
X01083Y-00151*
X0108Y-00149*
Y-00057*
X01085Y-00055*
X01087Y-00059*
X01094Y-00063*
X01102Y-00065*
X01109Y-00063*
X01116Y-00059*
X0112Y-00052*
X01122Y-00045*
X0112Y-00037*
X01116Y-0003*
X01109Y-00026*
X01102Y-00024*
X01094Y-00026*
X01087Y-0003*
X01085Y-00034*
X0108Y-00033*
Y-00008*
X0108Y-00008*
X01084Y-00001*
X01086Y00006*
X01084Y00013*
X0108Y0002*
X01073Y00024*
X01066Y00026*
X01058Y00024*
X01051Y0002*
X01049Y00017*
X01033*
X01016Y00034*
X01018Y00039*
X01019Y00039*
X01026Y00043*
X0103Y0005*
X01032Y00058*
X0103Y00065*
X01026Y00072*
X01019Y00076*
X01012Y00078*
X01004Y00076*
X00997Y00072*
X00993Y00065*
X00992Y0006*
X00991Y00057*
X00987Y00055*
X00865*
X00863Y00058*
X00856Y00062*
X00849Y00064*
X00841Y00062*
X00834Y00058*
X0083Y00051*
X00828Y00044*
X0083Y00036*
X00834Y00029*
X00841Y00025*
X00849Y00023*
X00856Y00025*
X00863Y00029*
X00865Y00032*
X00986*
X01021Y-00001*
X01024Y-00004*
X01028Y-00005*
Y-00005*
X01049*
X01051Y-00008*
X01057Y-00012*
Y-00149*
X01054Y-00151*
X0105Y-00158*
X01048Y-00166*
X01049Y-00169*
X01041Y-00177*
X00859*
Y-0016*
X00862Y-00158*
X00866Y-00151*
X00868Y-00144*
X00866Y-00136*
X00862Y-00129*
X00855Y-00125*
X00848Y-00123*
X0084Y-00125*
X00833Y-00129*
X00831Y-00132*
X00761*
X00731Y-00103*
X00728Y-001*
X00724Y-00099*
X0066*
Y-0001*
X00676*
X00682Y-00009*
X00687Y-00005*
X00718Y00025*
X00722Y0003*
X00723Y00037*
Y00212*
X00728Y00213*
X00729Y00211*
X00736Y00207*
X00744Y00205*
X00751Y00207*
X00758Y00211*
X00762Y00218*
X00764Y00226*
X00762Y00233*
X00758Y0024*
X00754Y00242*
X00754Y00243*
X00754Y00248*
X00759Y00251*
X00763Y00258*
X00765Y00266*
X00763Y00273*
X00759Y0028*
X00756Y00281*
X00758Y00286*
X0098*
X00984Y00287*
X00988Y0029*
X01036Y00338*
X01041Y00335*
X0104Y00332*
X01042Y00325*
X01046Y00318*
X01053Y00314*
X01061Y00312*
X01068Y00314*
X01075Y00318*
X01079Y00325*
X01081Y00332*
X01079Y0034*
X01075Y00347*
X01068Y00351*
X01061Y00353*
X01058Y00352*
X01055Y00357*
X01079Y00381*
X01082Y00384*
X01083Y00389*
Y00468*
X01334*
X01335Y00463*
X01324Y00458*
X01314Y00451*
X01307Y00441*
X01302Y0043*
X01301Y00419*
X01302Y00407*
X01307Y00396*
X01314Y00386*
X01324Y00379*
X01335Y00374*
X01347Y00373*
X01358Y00374*
X01369Y00379*
X01379Y00386*
X01386Y00396*
X01391Y00407*
X01392Y00419*
X01391Y0043*
X01386Y00441*
X01379Y00451*
X01369Y00458*
X01358Y00463*
X01359Y00468*
X01428*
X0143Y-00502*
G37*
G36*
X-00686Y00363D02*
X-00686Y00363D01*
X-00685*
X-00685Y00362*
X-00686Y00362*
X-00686Y00361*
X-00686Y0036*
X-00686Y00359*
X-00687Y00356*
X-00687Y00338*
X-00702*
X-00703Y00361*
X-00703Y00362*
X-00704Y00362*
X-00704Y00363*
X-00703*
X-00703Y00364*
X-00686*
X-00686Y00363*
G37*
G36*
X-01137Y00317D02*
X-01139Y00317D01*
X-01141Y00316*
X-01143Y00316*
X-01145Y00314*
X-01147Y00313*
X-0115Y00311*
X-01155Y00307*
X-01161Y00301*
X-01166Y00306*
X-01163Y00309*
X-01156Y00317*
X-01154Y0032*
X-01153Y00322*
X-01151Y00324*
X-01151Y00326*
X-0115Y00328*
X-0115Y0033*
X-01137Y00317*
G37*
G36*
X003Y00255D02*
X00299Y00256D01*
X00298Y00257*
X00297Y00257*
X00296Y00258*
X00295Y00258*
X00293Y00259*
X00292Y00259*
X00291Y00259*
X0029Y00259*
X00288Y0026*
Y0027*
X0029Y0027*
X00291Y0027*
X00292Y0027*
X00293Y0027*
X00295Y00271*
X00296Y00271*
X00297Y00272*
X00298Y00272*
X00299Y00273*
X003Y00274*
Y00255*
G37*
G36*
X-0123Y00224D02*
X-01231Y00224D01*
X-01233Y00224*
X-01234Y00223*
X-01236Y00223*
X-01237Y00223*
X-01238Y00222*
X-01239Y00222*
X-0124Y00221*
X-01241Y00221*
X-01242Y0022*
X-01247Y00225*
X-01246Y00226*
X-01246Y00227*
X-01245Y00228*
X-01245Y00229*
X-01244Y0023*
X-01244Y00231*
X-01244Y00233*
X-01243Y00234*
X-01243Y00236*
X-01243Y00237*
X-0123Y00224*
G37*
G36*
X-01145Y00226D02*
X-01146Y00225D01*
X-01147Y00224*
X-01148Y00223*
X-01148Y00222*
X-01149Y00221*
X-01149Y00219*
X-0115Y00218*
X-0115Y00217*
X-0115Y00216*
X-01157*
X-01157Y00217*
X-01157Y00218*
X-01158Y00219*
X-01158Y00221*
X-01159Y00222*
X-01159Y00223*
X-0116Y00224*
X-01161Y00225*
X-01162Y00226*
X-01163Y00228*
X-01144*
X-01145Y00226*
G37*
G36*
X-01188Y00258D02*
X-01188Y00257D01*
X-01187Y00256*
X-01187Y00254*
X-01186Y00253*
X-01186Y00252*
X-01185Y00251*
X-01184Y0025*
X-01183Y00249*
X-01182Y00247*
X-01192Y00238*
X-01182Y00228*
X-01183Y00226*
X-01184Y00225*
X-01185Y00224*
X-01186Y00223*
X-01186Y00222*
X-01187Y00221*
X-01187Y00219*
X-01188Y00218*
X-01188Y00217*
X-01188Y00216*
X-01195*
X-01195Y00217*
X-01195Y00218*
X-01196Y00219*
X-01196Y00221*
X-01197Y00222*
X-01197Y00223*
X-01198Y00224*
X-01199Y00225*
X-012Y00226*
X-01201Y00228*
X-01192Y00238*
X-01201Y00247*
X-012Y00249*
X-01199Y0025*
X-01198Y00251*
X-01197Y00252*
X-01197Y00253*
X-01196Y00254*
X-01196Y00256*
X-01195Y00257*
X-01195Y00258*
X-01195Y00259*
X-01188*
X-01188Y00258*
G37*
G36*
X-00059Y00194D02*
X-0006Y00194D01*
X-0006Y00193*
X-00061Y00192*
X-00061Y00191*
X-00062Y0019*
X-00062Y0019*
X-00062Y00189*
X-00062Y00188*
X-00062Y00187*
X-00062Y00186*
X-00072Y00196*
X-00071Y00196*
X-0007Y00196*
X-00069Y00196*
X-00068Y00196*
X-00067Y00196*
X-00066Y00196*
X-00066Y00197*
X-00065Y00197*
X-00064Y00198*
X-00063Y00199*
X-00059Y00194*
G37*
G36*
X-00019Y00182D02*
X-00018Y00181D01*
X-00017Y00181*
X-00015Y0018*
X-00014Y0018*
X-00013Y0018*
X-00012Y0018*
X-0001Y0018*
X-00008Y0018*
X-00007Y0018*
X-00018Y00165*
X-00018Y00166*
X-0002Y00171*
X-0002Y00173*
X-00021Y00174*
X-00021Y00175*
X-00022Y00176*
X-00022Y00177*
X-00023Y00178*
X-00019Y00183*
X-00019Y00182*
G37*
G36*
X-0019Y00169D02*
X-00189Y00168D01*
X-00188Y00168*
X-00187Y00167*
X-00186Y00167*
X-00184Y00166*
X-00183Y00166*
X-00182Y00166*
X-00181Y00166*
X-00179Y00166*
Y00156*
X-00181Y00155*
X-00182Y00155*
X-00183Y00155*
X-00184Y00155*
X-00186Y00154*
X-00187Y00154*
X-00188Y00153*
X-00189Y00153*
X-0019Y00152*
X-00191Y00151*
Y0017*
X-0019Y00169*
G37*
G36*
X-00051Y0015D02*
X-00051Y0015D01*
X-00052Y0015*
X-00053Y0015*
X-00053Y0015*
X-00054Y00149*
X-00055Y00149*
X-00056Y00148*
X-00057Y00147*
X-00058Y00146*
X-00059Y00145*
X-00064Y00161*
X-00058Y00167*
X-00051Y0015*
G37*
G36*
X00008Y00165D02*
X00009Y00161D01*
X00009Y0016*
X00009Y00158*
X0001Y00157*
X0001Y00156*
X00011Y00155*
X00011Y00154*
X00012Y00153*
X00008Y00149*
X00007Y0015*
X00006Y0015*
X00005Y00151*
X00004Y00151*
X00003Y00152*
X00001Y00152*
X0Y00152*
X-00001Y00153*
X-00003Y00153*
X-00004Y00153*
X00008Y00166*
X00008Y00165*
G37*
G36*
X-00787Y00135D02*
X-00789Y00136D01*
X-0079Y00137*
X-00791Y00138*
X-00792Y00139*
X-00793Y00139*
X-00794Y0014*
X-00796Y0014*
X-00797Y00141*
X-00798Y00141*
X-00799Y00141*
Y00148*
X-00798Y00148*
X-00797Y00148*
X-00796Y00149*
X-00794Y00149*
X-00793Y0015*
X-00792Y0015*
X-00791Y00151*
X-0079Y00152*
X-00789Y00153*
X-00787Y00154*
Y00135*
G37*
G36*
X-00319Y00132D02*
X-00319Y00131D01*
X-00319Y0013*
X-00319Y0013*
X-0032Y00129*
X-0032Y00126*
X-0032Y00124*
X-0032Y00122*
X-00335Y0012*
X-00335Y00121*
X-00335Y00124*
X-00335Y00125*
X-00336Y00126*
X-00336Y00127*
X-00336Y00128*
X-00337Y00128*
X-00337Y00129*
X-00338Y00129*
X-00319Y00132*
X-00319Y00132*
G37*
G36*
X-00015Y00031D02*
X-00015Y0003D01*
X-00016Y0003*
X-00017Y00029*
X-00017Y00028*
X-00017Y00027*
X-00017Y00026*
Y00026*
X-00017Y00025*
X-00017Y00024*
X-00017Y00023*
X-00033Y0003*
X-00032Y0003*
X-00031Y00031*
X-0003Y00031*
X-0003Y00031*
X-00028Y00033*
X-00027Y00034*
X-00024Y00036*
X-00015Y00031*
G37*
G36*
X00101Y00016D02*
X00102Y00016D01*
X00103Y00015*
X00104Y00014*
X00105Y00014*
X00106Y00013*
X00107Y00013*
X00109Y00012*
X0011Y00012*
X00111Y00012*
X00096Y0*
X00096Y00001*
X00096Y00002*
X00096Y00003*
X00096Y00004*
X00096Y00006*
X00095Y00007*
X00095Y00008*
X00094Y00009*
X00093Y0001*
X00092Y00011*
X001Y00017*
X00101Y00016*
G37*
G36*
X-01076Y00013D02*
X-01075Y00012D01*
X-01074Y00011*
X-01073Y0001*
X-01072Y0001*
X-01071Y00009*
X-0107Y00009*
X-01069Y00009*
X-01068Y00009*
X-01066Y00009*
X-0107Y-00001*
X-01071Y-00001*
X-01074Y-00001*
X-01075Y-00001*
X-01077Y-00002*
X-01078Y-00002*
X-01081Y-00003*
X-01082Y-00004*
X-01076Y00014*
X-01076Y00013*
G37*
G36*
X-0014Y00021D02*
X-0014Y00018D01*
X-00139Y00016*
X-00139Y00014*
X-00138Y00012*
X-00137Y00011*
X-00135Y0001*
X-00134Y00009*
X-00132Y00009*
X-00131Y00009*
X-00127Y00009*
Y-00001*
X-00131Y-00001*
X-00132Y-00001*
X-00134Y-00001*
X-00135Y-00002*
X-00137Y-00003*
X-00138Y-00004*
X-00139Y-00006*
X-00139Y-00008*
X-0014Y-0001*
X-0014Y-00013*
X-0014Y-00016*
X-00155Y00004*
X-0014Y00024*
X-0014Y00021*
G37*
G36*
X-01331Y-00005D02*
X-01332Y-00006D01*
X-01333Y-00007*
X-01333Y-00008*
X-01334Y-00009*
X-01335Y-0001*
X-01335Y-00011*
X-01335Y-00013*
X-01336Y-00014*
X-01336Y-00015*
X-01336Y-00016*
X-01349Y-00003*
X-01348Y-00003*
X-01347Y-00003*
X-01346Y-00002*
X-01344Y-00002*
X-01343Y-00002*
X-01342Y-00001*
X-01341Y0*
X-0134Y0*
X-01339Y0*
X-01338Y00001*
X-01331Y-00005*
G37*
G36*
X00296Y00199D02*
Y-00007D01*
Y-00023*
X00227*
X00215Y-00018*
Y00128*
X00187Y00156*
Y00215*
X0028*
X00296Y00199*
G37*
G36*
X-01384Y-00014D02*
X-01384Y-00015D01*
X-01384Y-00016*
X-01384Y-00017*
X-01383Y-00019*
X-01383Y-0002*
X-01382Y-00021*
X-01382Y-00022*
X-01381Y-00023*
X-0138Y-00024*
X-01399*
X-01398Y-00023*
X-01397Y-00022*
X-01397Y-00021*
X-01396Y-0002*
X-01396Y-00019*
X-01395Y-00017*
X-01395Y-00016*
X-01395Y-00015*
X-01395Y-00014*
X-01395Y-00012*
X-01385*
X-01384Y-00014*
G37*
G36*
X-01106Y-0001D02*
X-01105Y-00011D01*
X-01104Y-00012*
X-01103Y-00013*
X-01102Y-00013*
X-01101Y-00014*
X-01099Y-00014*
X-01098Y-00015*
X-01097Y-00015*
X-01096Y-00015*
Y-00022*
X-01097Y-00022*
X-01098Y-00022*
X-01099Y-00023*
X-01101Y-00023*
X-01102Y-00024*
X-01103Y-00024*
X-01104Y-00025*
X-01105Y-00026*
X-01106Y-00027*
X-01108Y-00028*
Y-00009*
X-01106Y-0001*
G37*
G36*
X-00816Y-0005D02*
X-00817Y-00051D01*
X-00818Y-00052*
X-00819Y-00053*
X-00819Y-00054*
X-0082Y-00055*
X-0082Y-00057*
X-00821Y-00058*
X-00821Y-00059*
X-00821Y-0006*
X-00828*
X-00828Y-00059*
X-00828Y-00058*
X-00829Y-00057*
X-00829Y-00055*
X-0083Y-00054*
X-0083Y-00053*
X-00831Y-00052*
X-00832Y-00051*
X-00833Y-0005*
X-00834Y-00048*
X-00815*
X-00816Y-0005*
G37*
G36*
X-01Y-00047D02*
X-00999Y-00048D01*
X-00998Y-00048*
X-00997Y-00049*
X-00996Y-0005*
X-00995Y-0005*
X-00993Y-0005*
X-00992Y-00051*
X-00991Y-00051*
X-0099Y-00051*
X-01003Y-00064*
X-01003Y-00063*
X-01003Y-00062*
X-01004Y-00061*
X-01004Y-00059*
X-01004Y-00058*
X-01005Y-00057*
X-01006Y-00056*
X-01006Y-00055*
X-01007Y-00054*
X-01008Y-00053*
X-01001Y-00046*
X-01Y-00047*
G37*
G36*
X00092Y-00057D02*
X00091Y-00057D01*
X00089Y-00057*
X00088Y-00058*
X00087Y-00059*
X00087Y-0006*
X00086Y-0006*
X00086Y-00061*
X00085Y-00063*
X00085Y-00064*
X00085Y-00065*
X00078Y-00061*
X00078Y-0006*
X00078Y-00058*
X00078Y-00056*
X00077Y-00052*
X00076Y-00049*
X00075Y-00048*
X00092Y-00057*
G37*
G36*
X-01051Y-00113D02*
X-01051Y-00115D01*
X-0105Y-00116*
X-0105Y-00118*
X-0105Y-00119*
X-01049Y-0012*
X-01049Y-00121*
X-01048Y-00122*
X-01048Y-00123*
X-01047Y-00124*
X-01052Y-00129*
X-01053Y-00128*
X-01054Y-00128*
X-01055Y-00127*
X-01056Y-00127*
X-01057Y-00126*
X-01058Y-00126*
X-0106Y-00126*
X-01061Y-00125*
X-01063Y-00125*
X-01064Y-00125*
X-01051Y-00112*
X-01051Y-00113*
G37*
G36*
X-00734Y-00121D02*
X-00736Y-00123D01*
X-00737Y-00124*
X-00738Y-00126*
X-00738Y-00127*
X-00739Y-00128*
X-00739Y-00129*
X-00739Y-0013*
X-0074Y-00131*
X-00746*
X-00746Y-0013*
X-00746Y-00129*
X-00746Y-00128*
X-00747Y-00127*
X-00747Y-00126*
X-00748Y-00124*
X-00749Y-00123*
X-0075Y-00122*
X-00751Y-00121*
X-00752Y-00119*
X-00733*
X-00734Y-00121*
G37*
G36*
X-00123Y-00115D02*
X-0012Y-00118D01*
X-00119Y-00118*
X-00118Y-00119*
X-00118Y-00119*
X-00117Y-0012*
X-00116Y-0012*
X-00116Y-0012*
X-00129Y-00133*
X-00129Y-00133*
X-00129Y-00132*
X-0013Y-00131*
X-0013Y-00131*
X-00131Y-0013*
X-00131Y-00129*
X-00132Y-00128*
X-00134Y-00126*
X-00135Y-00125*
X-00124Y-00114*
X-00123Y-00115*
G37*
G36*
X00156Y-00153D02*
X00155Y-00154D01*
X00154Y-00155*
X00153Y-00156*
X00153Y-00157*
X00152Y-00158*
X00152Y-00159*
X00151Y-00161*
X00151Y-00162*
X0015Y-00163*
X0015Y-00164*
X00139Y-00148*
X00141Y-00148*
X00142Y-00148*
X00143Y-00148*
X00144Y-00148*
X00145Y-00148*
X00146Y-00147*
X00147Y-00147*
X00148Y-00146*
X00149Y-00145*
X0015Y-00145*
X00156Y-00153*
G37*
G36*
X00041Y-00141D02*
X00041Y-00142D01*
X00041Y-00143*
X00041Y-00144*
X00042Y-00146*
X00042Y-00147*
X00043Y-00148*
X00043Y-00149*
X00044Y-0015*
X00045Y-00151*
X00026*
X00027Y-0015*
X00028Y-00149*
X00028Y-00148*
X00029Y-00147*
X00029Y-00146*
X0003Y-00144*
X0003Y-00143*
X0003Y-00142*
X0003Y-00141*
X00031Y-00139*
X00041*
X00041Y-00141*
G37*
G36*
X00318Y-00146D02*
X00319Y-0015D01*
X00319Y-00151*
X00319Y-00153*
X0032Y-00154*
X0032Y-00155*
X00321Y-00156*
X00321Y-00157*
X00322Y-00158*
X00318Y-00162*
X00317Y-00161*
X00316Y-00161*
X00315Y-0016*
X00314Y-0016*
X00313Y-00159*
X00311Y-00159*
X0031Y-00159*
X00308Y-00158*
X00306Y-00158*
X00305Y-00158*
X00318Y-00145*
X00318Y-00146*
G37*
G36*
X-01051Y-0015D02*
X-01051Y-00152D01*
X-0105Y-00153*
X-0105Y-00155*
X-0105Y-00156*
X-01049Y-00157*
X-01049Y-00158*
X-01048Y-00159*
X-01048Y-0016*
X-01047Y-00161*
X-01052Y-00166*
X-01053Y-00165*
X-01054Y-00165*
X-01055Y-00164*
X-01056Y-00164*
X-01057Y-00163*
X-01058Y-00163*
X-0106Y-00163*
X-01061Y-00162*
X-01063Y-00162*
X-01064Y-00162*
X-01051Y-00149*
X-01051Y-0015*
G37*
G36*
X-01065Y-00162D02*
X-01066Y-00162D01*
X-01068Y-00162*
X-01069Y-00163*
X-01071Y-00163*
X-01072Y-00163*
X-01073Y-00164*
X-01074Y-00164*
X-01075Y-00165*
X-01076Y-00165*
X-01077Y-00166*
X-01082Y-00161*
X-01081Y-0016*
X-01081Y-00159*
X-0108Y-00158*
X-0108Y-00157*
X-01079Y-00156*
X-01079Y-00155*
X-01079Y-00153*
X-01078Y-00152*
X-01078Y-0015*
X-01078Y-00149*
X-01065Y-00162*
G37*
G36*
X-00048Y-00164D02*
X-00049Y-00165D01*
X-00049Y-00166*
X-0005Y-00167*
X-0005Y-00168*
X-00051Y-0017*
X-00051Y-00171*
X-00051Y-00172*
X-00051Y-00173*
X-00052Y-00175*
X-00062*
X-00062Y-00173*
X-00062Y-00172*
X-00062Y-00171*
X-00062Y-0017*
X-00063Y-00168*
X-00063Y-00167*
X-00064Y-00166*
X-00064Y-00165*
X-00065Y-00164*
X-00066Y-00163*
X-00047*
X-00048Y-00164*
G37*
G36*
X-00767Y-00175D02*
X-00768Y-00175D01*
X-0077Y-00175*
X-00771Y-00176*
X-00773Y-00176*
X-00774Y-00176*
X-00775Y-00177*
X-00776Y-00177*
X-00777Y-00178*
X-00778Y-00178*
X-00779Y-00179*
X-00784Y-00174*
X-00783Y-00173*
X-00783Y-00172*
X-00782Y-00171*
X-00782Y-0017*
X-00781Y-00169*
X-00781Y-00168*
X-00781Y-00166*
X-0078Y-00165*
X-0078Y-00163*
X-0078Y-00162*
X-00767Y-00175*
G37*
G36*
X-00796Y-00172D02*
X-00797Y-00173D01*
X-00798Y-00174*
X-00799Y-00175*
X-008Y-00176*
X-008Y-00177*
X-00801Y-00179*
X-00801Y-0018*
X-00801Y-00181*
X-00801Y-00182*
X-00808*
X-00808Y-00181*
X-00809Y-0018*
X-00809Y-00179*
X-00809Y-00177*
X-0081Y-00176*
X-00811Y-00175*
X-00811Y-00174*
X-00812Y-00173*
X-00813Y-00172*
X-00814Y-0017*
X-00795*
X-00796Y-00172*
G37*
G36*
X-01051Y-00187D02*
X-01051Y-00189D01*
X-0105Y-0019*
X-0105Y-00192*
X-0105Y-00193*
X-01049Y-00194*
X-01049Y-00195*
X-01048Y-00196*
X-01048Y-00197*
X-01047Y-00198*
X-01052Y-00203*
X-01053Y-00202*
X-01054Y-00202*
X-01055Y-00201*
X-01056Y-00201*
X-01057Y-002*
X-01058Y-002*
X-0106Y-002*
X-01061Y-00199*
X-01063Y-00199*
X-01064Y-00199*
X-01051Y-00186*
X-01051Y-00187*
G37*
G36*
X-00739Y-00195D02*
X-00739Y-00196D01*
X-00739Y-00197*
X-00738Y-00198*
X-00738Y-00199*
X-00737Y-002*
X-00736Y-00202*
X-00735Y-00203*
X-00734Y-00204*
X-00733Y-00205*
X-00752Y-00206*
X-00751Y-00205*
X-00749Y-00202*
X-00748Y-00201*
X-00747Y-002*
X-00747Y-00199*
X-00746Y-00197*
X-00746Y-00196*
X-00746Y-00195*
X-00746Y-00194*
X-0074Y-00194*
X-00739Y-00195*
G37*
G36*
X00313Y-00201D02*
X00311Y-00203D01*
X0031Y-00204*
X00309Y-00206*
X00309Y-00207*
X00308Y-00208*
X00308Y-00209*
X00308Y-0021*
X00308Y-00211*
X00302*
X00301Y-0021*
X00301Y-00209*
X00301Y-00208*
X003Y-00207*
X003Y-00206*
X00299Y-00204*
X00298Y-00203*
X00297Y-00202*
X00296Y-00201*
X00295Y-00199*
X00314*
X00313Y-00201*
G37*
G36*
X-01151Y-00045D02*
Y-00218D01*
X-01296*
Y-00055*
X-01286Y-00045*
X-01151*
G37*
G36*
X-01051Y-00224D02*
X-01051Y-00226D01*
X-0105Y-00227*
X-0105Y-00229*
X-0105Y-0023*
X-01049Y-00231*
X-01049Y-00232*
X-01048Y-00233*
X-01048Y-00234*
X-01047Y-00235*
X-01052Y-0024*
X-01053Y-00239*
X-01054Y-00239*
X-01055Y-00238*
X-01056Y-00238*
X-01057Y-00237*
X-01058Y-00237*
X-0106Y-00237*
X-01061Y-00236*
X-01063Y-00236*
X-01064Y-00236*
X-01051Y-00223*
X-01051Y-00224*
G37*
G36*
X-01285Y-00301D02*
X-01286Y-003D01*
X-01287Y-00299*
X-01288Y-00299*
X-01289Y-00298*
X-0129Y-00298*
X-01292Y-00297*
X-01293Y-00297*
X-01294Y-00297*
X-01295Y-00297*
X-01297Y-00297*
Y-00287*
X-01295Y-00286*
X-01294Y-00286*
X-01293Y-00286*
X-01292Y-00286*
X-0129Y-00285*
X-01289Y-00285*
X-01288Y-00284*
X-01287Y-00284*
X-01286Y-00283*
X-01285Y-00282*
Y-00301*
G37*
G36*
X00317Y-00295D02*
X00316Y-00296D01*
X00316Y-00297*
X00315Y-00298*
X00315Y-00299*
X00314Y-003*
X00314Y-00302*
X00314Y-00303*
X00313Y-00305*
X00313Y-00306*
X00313Y-00308*
X003Y-00295*
X00301Y-00295*
X00305Y-00294*
X00306Y-00294*
X00308Y-00294*
X00309Y-00293*
X0031Y-00293*
X00311Y-00292*
X00312Y-00292*
X00313Y-00291*
X00317Y-00295*
G37*
G36*
X00277Y-00296D02*
X00276Y-00297D01*
X00276Y-00298*
X00275Y-00299*
X00275Y-003*
X00274Y-00301*
X00274Y-00303*
X00274Y-00304*
X00273Y-00306*
X00273Y-00308*
X00273Y-00309*
X0026Y-00296*
X00261Y-00296*
X00265Y-00295*
X00266Y-00295*
X00268Y-00295*
X00269Y-00294*
X0027Y-00294*
X00271Y-00293*
X00272Y-00293*
X00273Y-00292*
X00277Y-00296*
G37*
G36*
X-01237Y-00305D02*
X-01238Y-00305D01*
X-01239Y-00305*
X-0124Y-00306*
X-01242Y-00306*
X-01243Y-00306*
X-01244Y-00307*
X-01245Y-00308*
X-01246Y-00308*
X-01247Y-00309*
X-01248Y-0031*
X-01255Y-00303*
X-01254Y-00302*
X-01253Y-00301*
X-01253Y-003*
X-01252Y-00299*
X-01251Y-00298*
X-01251Y-00297*
X-01251Y-00295*
X-0125Y-00294*
X-0125Y-00293*
X-0125Y-00292*
X-01237Y-00305*
G37*
G36*
X-00276Y-00304D02*
X-00276Y-00305D01*
X-00276Y-00306*
X-00275Y-00307*
X-00275Y-00308*
X-00274Y-0031*
X-00273Y-00311*
X-00272Y-00312*
X-00271Y-00313*
X-0027Y-00315*
X-00289*
X-00288Y-00313*
X-00286Y-00311*
X-00285Y-0031*
X-00284Y-00308*
X-00284Y-00307*
X-00283Y-00306*
X-00283Y-00305*
X-00283Y-00304*
X-00283Y-00303*
X-00277*
X-00276Y-00304*
G37*
G36*
X-00244Y-00305D02*
X-00243Y-00306D01*
X-00243Y-00307*
X-00243Y-00308*
X-00242Y-00309*
X-00241Y-0031*
X-0024Y-00311*
X-00239Y-00312*
X-00238Y-00313*
X-00237Y-00313*
X-00255Y-00319*
X-00255Y-00317*
X-00252Y-00313*
X-00252Y-00311*
X-00251Y-00309*
X-00251Y-00308*
X-00251Y-00306*
X-00251Y-00305*
X-00244Y-00303*
X-00244Y-00305*
G37*
G36*
X-00039Y-00302D02*
X-00038Y-00303D01*
X-00037Y-00303*
X-00036Y-00304*
X-00035Y-00304*
X-00033Y-00305*
X-00032Y-00305*
X-00031Y-00305*
X-0003Y-00305*
X-00028Y-00306*
Y-00316*
X-0003Y-00316*
X-00031Y-00316*
X-00032Y-00316*
X-00033Y-00316*
X-00035Y-00317*
X-00036Y-00317*
X-00037Y-00318*
X-00038Y-00318*
X-00039Y-00319*
X-0004Y-0032*
Y-00301*
X-00039Y-00302*
G37*
G36*
X-00107Y-00343D02*
X-00108Y-00344D01*
X-00109Y-00345*
X-0011Y-00346*
X-0011Y-00347*
X-00111Y-00348*
X-00111Y-00349*
X-00112Y-00351*
X-00112Y-00352*
X-00113Y-00353*
X-00113Y-00354*
X-00124Y-00338*
X-00122Y-00338*
X-00121Y-00338*
X-0012Y-00338*
X-00119Y-00338*
X-00118Y-00338*
X-00117Y-00337*
X-00116Y-00337*
X-00115Y-00336*
X-00114Y-00335*
X-00113Y-00335*
X-00107Y-00343*
G37*
G36*
X-00192Y-00341D02*
X-00193Y-00341D01*
X-00195Y-00342*
X-00196Y-00343*
X-00199Y-00344*
X-002Y-00345*
X-00202Y-00346*
X-00203Y-00347*
X-00212Y-00342*
X-00211Y-00341*
X-0021Y-0034*
X-0021Y-00339*
X-00209Y-00338*
X-00209Y-00337*
X-00208Y-00336*
X-00208Y-00335*
X-00208Y-00334*
X-00208Y-00333*
X-00209Y-00331*
X-00192Y-00341*
G37*
G36*
X00033Y-00332D02*
X00034Y-00332D01*
X00035Y-00333*
X00036Y-00334*
X00037Y-00334*
X00038Y-00335*
X00039Y-00335*
X00041Y-00335*
X00042Y-00336*
X00043Y-00336*
X00029Y-00349*
X00029Y-00347*
X00029Y-00346*
X00029Y-00345*
X00028Y-00344*
X00028Y-00343*
X00027Y-00341*
X00027Y-0034*
X00026Y-00339*
X00025Y-00338*
X00024Y-00337*
X00032Y-00331*
X00033Y-00332*
G37*
G36*
X-00321Y-0035D02*
X-00321Y-0035D01*
X-00325Y-0035*
X-00337Y-0035*
X-00337Y-00335*
X-00336Y-00335*
X-00333Y-00335*
X-00332Y-00335*
X-00331Y-00334*
X-0033Y-00334*
X-0033Y-00334*
X-00329Y-00333*
X-00328Y-00333*
X-00328Y-00332*
X-00321Y-0035*
G37*
G36*
X-00732Y-00333D02*
X-00732Y-00334D01*
X-00731Y-00334*
X-0073Y-00334*
X-00729Y-00334*
X-00728Y-00335*
X-00727Y-00335*
X-00724Y-00335*
X-00723Y-00335*
Y-0035*
X-00724Y-0035*
X-00728Y-0035*
X-00729Y-00351*
X-0073Y-00351*
X-00731Y-00351*
X-00732Y-00351*
X-00732Y-00352*
X-00733Y-00352*
Y-00333*
X-00732Y-00333*
G37*
G36*
X00195Y-00374D02*
X00194Y-00374D01*
X00192Y-00373*
X00191Y-00373*
X00188Y-00373*
X00185Y-00373*
X00184Y-00373*
X00177Y-00363*
X00178Y-00363*
X0018Y-00363*
X00181Y-00362*
X00182Y-00362*
X00183Y-00361*
X00183Y-00361*
X00184Y-0036*
X00185Y-00359*
X00185Y-00358*
X00186Y-00357*
X00195Y-00374*
G37*
G36*
X-01423Y-00369D02*
X-01425Y-00371D01*
X-01426Y-00372*
X-01427Y-00374*
X-01427Y-00375*
X-01428Y-00376*
X-01428Y-00377*
X-01428Y-00378*
X-01429Y-00379*
X-01435*
X-01435Y-00378*
X-01435Y-00377*
X-01435Y-00376*
X-01436Y-00375*
X-01436Y-00374*
X-01437Y-00372*
X-01438Y-00371*
X-01439Y-0037*
X-0144Y-00369*
X-01441Y-00367*
X-01422*
X-01423Y-00369*
G37*
G36*
X00286Y-00379D02*
X00286Y-00379D01*
X00286Y-00379*
X00286Y-00379*
X00286Y-00379*
X00285Y-00379*
X00285Y-00379*
X00284Y-00379*
X00283Y-00379*
X00282Y-00379*
Y-00373*
X00283Y-00372*
X00285Y-00372*
X00285Y-00372*
X00286Y-00372*
X00286Y-00372*
X00286Y-00372*
X00286Y-00372*
X00286Y-00372*
Y-00379*
G37*
G36*
X-01006Y-00367D02*
X-01006Y-0037D01*
X-01005Y-00371*
X-01005Y-00373*
X-01004Y-00374*
X-01004Y-00375*
X-01003Y-00376*
X-01003Y-00377*
X-01002Y-00378*
X-01006Y-00383*
X-01006Y-00382*
X-01007Y-00381*
X-01008Y-00381*
X-0101Y-0038*
X-01011Y-0038*
X-01012Y-0038*
X-01014Y-0038*
X-01015Y-00379*
X-01017Y-0038*
X-01018Y-0038*
X-01006Y-00365*
X-01006Y-00367*
G37*
G36*
X-01046Y-00379D02*
X-01045Y-00383D01*
X-01045Y-00384*
X-01045Y-00386*
X-01044Y-00387*
X-01044Y-00388*
X-01043Y-00389*
X-01043Y-0039*
X-01042Y-00391*
X-01046Y-00395*
X-01047Y-00394*
X-01048Y-00394*
X-01049Y-00393*
X-0105Y-00393*
X-01051Y-00392*
X-01053Y-00392*
X-01054Y-00392*
X-01056Y-00391*
X-01058Y-00391*
X-01059Y-00391*
X-01046Y-00378*
X-01046Y-00379*
G37*
G36*
X-00732Y-00399D02*
X-00731Y-004D01*
X-0073Y-004*
X-00729Y-00401*
X-00728Y-00401*
X-00726Y-00402*
X-00725Y-00402*
X-00724Y-00402*
X-00723Y-00402*
X-00721Y-00403*
Y-00413*
X-00723Y-00413*
X-00724Y-00413*
X-00725Y-00413*
X-00726Y-00413*
X-00728Y-00414*
X-00729Y-00414*
X-0073Y-00415*
X-00731Y-00415*
X-00732Y-00416*
X-00733Y-00417*
Y-00398*
X-00732Y-00399*
G37*
G36*
X-01362Y-00408D02*
X-01364Y-0041D01*
X-01365Y-00411*
X-01366Y-00413*
X-01366Y-00414*
X-01367Y-00415*
X-01367Y-00416*
X-01367Y-00417*
X-01368Y-00418*
X-01374*
X-01374Y-00417*
X-01374Y-00416*
X-01374Y-00415*
X-01375Y-00414*
X-01375Y-00413*
X-01376Y-00411*
X-01377Y-0041*
X-01378Y-00409*
X-01379Y-00408*
X-0138Y-00406*
X-01361*
X-01362Y-00408*
G37*
G36*
X-00771Y-00423D02*
X-00771Y-00425D01*
X-00771Y-00426*
X-0077Y-00427*
X-0077Y-00428*
X-00769Y-00429*
X-00769Y-0043*
X-00768Y-00431*
X-00767Y-00432*
X-00766Y-00433*
X-00786*
X-00785Y-00432*
X-00784Y-00431*
X-00783Y-0043*
X-00783Y-00429*
X-00782Y-00428*
X-00782Y-00427*
X-00781Y-00426*
X-00781Y-00425*
X-00781Y-00423*
X-00781Y-00422*
X-00771*
X-00771Y-00423*
G37*
G36*
X-01041Y-0042D02*
X-0104Y-00421D01*
X-01039Y-00422*
X-01038Y-00423*
X-01037Y-00423*
X-01036Y-00424*
X-01034Y-00424*
X-01033Y-00425*
X-01032Y-00425*
X-01031Y-00425*
Y-00432*
X-01032Y-00432*
X-01033Y-00432*
X-01034Y-00433*
X-01036Y-00433*
X-01037Y-00434*
X-01038Y-00434*
X-01039Y-00435*
X-0104Y-00436*
X-01041Y-00437*
X-01043Y-00438*
Y-00419*
X-01041Y-0042*
G37*
G36*
X-01318Y-00426D02*
X-01317Y-0043D01*
X-01317Y-00431*
X-01317Y-00433*
X-01316Y-00434*
X-01316Y-00435*
X-01315Y-00436*
X-01315Y-00437*
X-01314Y-00438*
X-01318Y-00442*
X-01319Y-00441*
X-0132Y-00441*
X-01321Y-0044*
X-01322Y-0044*
X-01323Y-00439*
X-01325Y-00439*
X-01326Y-00439*
X-01328Y-00438*
X-0133Y-00438*
X-01331Y-00438*
X-01318Y-00425*
X-01318Y-00426*
G37*
G36*
X-00206Y-00431D02*
X-00218Y-00444D01*
X-00218Y-00443*
X-00219Y-00442*
X-00219Y-00442*
X-00219Y-00441*
X-0022Y-00441*
X-00221Y-0044*
X-00222Y-0044*
X-00223Y-0044*
X-00224Y-0044*
X-00226Y-0044*
X-00222Y-0043*
X-00206Y-00431*
G37*
G36*
X-01185Y-00433D02*
X-01184Y-00434D01*
X-01183Y-00434*
X-01182Y-00435*
X-01181Y-00435*
X-01179Y-00435*
X-01178Y-00435*
X-01177Y-00435*
X-01175Y-00435*
X-01174Y-00435*
X-01184Y-00451*
X-01184Y-00449*
X-01186Y-00445*
X-01186Y-00443*
X-01187Y-00442*
X-01188Y-00441*
X-01188Y-0044*
X-01189Y-00439*
X-0119Y-00438*
X-01186Y-00432*
X-01185Y-00433*
G37*
G36*
X-00141Y-00436D02*
X-00139Y-00438D01*
X-00138Y-00439*
X-00136Y-0044*
X-00135Y-0044*
X-00134Y-00441*
X-00133Y-00441*
X-00132Y-00441*
X-00131Y-00442*
Y-00448*
X-00132Y-00448*
X-00133Y-00448*
X-00134Y-00448*
X-00135Y-00449*
X-00136Y-00449*
X-00138Y-0045*
X-00139Y-00451*
X-0014Y-00452*
X-00141Y-00453*
X-00143Y-00454*
Y-00435*
X-00141Y-00436*
G37*
G36*
X-01205Y-00446D02*
X-01205Y-00447D01*
X-01204Y-00448*
X-01204Y-00449*
X-01203Y-0045*
X-01203Y-00451*
X-01202Y-00452*
X-01201Y-00453*
X-012Y-00454*
X-01198Y-00455*
X-01217Y-00458*
X-01216Y-00457*
X-01215Y-00454*
X-01214Y-00453*
X-01213Y-00451*
X-01213Y-0045*
X-01212Y-00449*
X-01212Y-00448*
X-01212Y-00447*
X-01212Y-00446*
X-01205Y-00445*
X-01205Y-00446*
G37*
G36*
X-00729Y-00455D02*
X-00729Y-00456D01*
X-00728Y-00457*
X-00727Y-00458*
X-00726Y-00458*
X-00725Y-00459*
X-00724Y-00459*
X-00723Y-00459*
X-00722Y-00459*
X-0072Y-0046*
X-00725Y-0047*
X-00726Y-0047*
X-00729Y-0047*
X-0073Y-0047*
X-00732Y-0047*
X-00733Y-00471*
X-00736Y-00472*
X-00737Y-00472*
X-0073Y-00454*
X-00729Y-00455*
G37*
G36*
X-00725Y-00485D02*
X-00726Y-00486D01*
X-00728Y-00489*
X-00729Y-00489*
X-00729Y-0049*
X-00729Y-0049*
X-00729Y-00491*
X-00729Y-00491*
X-00729Y-00492*
X-00739Y-00482*
X-00738Y-00482*
X-00738Y-00482*
X-00737Y-00482*
X-00737Y-00482*
X-00736Y-00482*
X-00736Y-00481*
X-00735Y-00481*
X-00733Y-00479*
X-00732Y-00478*
X-00725Y-00485*
G37*
G36*
X-00979Y-00467D02*
X-00979Y-00468D01*
X-00978Y-00469*
X-00978Y-00471*
X-00977Y-00472*
X-00977Y-00473*
X-00976Y-00474*
X-00975Y-00475*
X-00974Y-00476*
X-00973Y-00478*
X-00979*
X-00979Y-00484*
X-00986*
X-00986Y-00484*
X-00986Y-00482*
Y-00478*
X-00992*
X-00991Y-00476*
X-0099Y-00475*
X-00989Y-00474*
X-00988Y-00473*
X-00988Y-00472*
X-00987Y-00471*
X-00987Y-00469*
X-00986Y-00468*
X-00986Y-00467*
X-00986Y-00466*
X-00979*
X-00979Y-00467*
G37*
G36*
X-01377Y-00474D02*
X-01378Y-00475D01*
X-01378Y-00476*
X-01379Y-00477*
X-01379Y-00478*
X-0138Y-0048*
X-0138Y-00481*
X-0138Y-00482*
X-0138Y-00483*
X-01381Y-00485*
X-01391*
X-01391Y-00483*
X-01391Y-00482*
X-01391Y-00481*
X-01391Y-0048*
X-01392Y-00478*
X-01392Y-00477*
X-01393Y-00476*
X-01393Y-00475*
X-01394Y-00474*
X-01395Y-00473*
X-01376*
X-01377Y-00474*
G37*
G36*
X00139Y-00471D02*
X0014Y-00472D01*
X00141Y-00473*
X00142Y-00473*
X00142Y-00473*
X00143Y-00474*
X00144Y-00474*
X00145Y-00474*
X00146Y-00474*
X00146Y-00473*
X00144Y-00476*
X00149Y-00482*
X00144Y-00487*
X00144Y-00486*
X00143Y-00485*
X00139Y-00481*
X00137Y-00484*
X00137Y-00483*
Y-00482*
X00137Y-00481*
X00137Y-00481*
X00137Y-0048*
X00136Y-00479*
X00136Y-00478*
X00135Y-00477*
X00134Y-00476*
X00133Y-00476*
X00138Y-00471*
X00139Y-00471*
G37*
G36*
X-00992Y-00497D02*
X-00993Y-00496D01*
X-00994Y-00495*
X-00995Y-00495*
X-00996Y-00494*
X-00997Y-00494*
X-00999Y-00493*
X-01Y-00493*
X-01001Y-00493*
X-01002Y-00493*
X-01004Y-00493*
Y-00483*
X-01002Y-00482*
X-01001Y-00482*
X-01Y-00482*
X-00999Y-00482*
X-00997Y-00481*
X-00996Y-00481*
X-00995Y-0048*
X-00994Y-0048*
X-00993Y-00479*
X-00992Y-00478*
Y-00497*
G37*
G36*
X-01058Y-00492D02*
X-0106Y-00492D01*
X-01061Y-00493*
X-01062Y-00493*
X-01063Y-00493*
X-01064Y-00494*
X-01065Y-00494*
X-01066Y-00495*
X-01067Y-00496*
X-01068Y-00497*
X-01069Y-00498*
X-01077Y-00491*
X-01076Y-0049*
X-01076Y-00489*
X-01075Y-00488*
X-01074Y-00487*
X-01074Y-00486*
X-01074Y-00485*
X-01073Y-00484*
X-01073Y-00483*
X-01073Y-00481*
X-01073Y-0048*
X-01058Y-00492*
G37*
G36*
X00324Y-00495D02*
X00323Y-00495D01*
X00321Y-00496*
X0032Y-00496*
X0032Y-00496*
X00319Y-00497*
X00318Y-00498*
X00318Y-00498*
X00319Y-00499*
X0032Y-005*
X00321Y-00501*
X00322Y-00502*
X00323Y-00503*
X00304*
X00305Y-00502*
X00306Y-00501*
X00307Y-005*
X00308Y-00499*
X00309Y-00498*
X00309Y-00498*
X00308Y-00497*
X00307Y-00496*
X00307Y-00496*
X00306Y-00496*
X00304Y-00495*
X00303Y-00495*
X00314Y-00488*
X00324Y-00495*
G37*
G36*
X-01097Y-00487D02*
X-01096Y-00488D01*
X-01095Y-00488*
X-01094Y-00489*
X-01093Y-00489*
X-01091Y-0049*
X-0109Y-0049*
X-01089Y-0049*
X-01088Y-0049*
X-01086Y-00491*
Y-00501*
X-01088Y-00501*
X-01089Y-00501*
X-0109Y-00501*
X-01091Y-00501*
X-01093Y-00502*
X-01094Y-00502*
X-01095Y-00503*
X-01096Y-00503*
X-01097Y-00504*
X-01098Y-00505*
Y-00486*
X-01097Y-00487*
G37*
G36*
X00266Y-00516D02*
X00266Y-00515D01*
X00266Y-00515*
X00266Y-00514*
X00265Y-00513*
X00265Y-00513*
X00264Y-00513*
X00264Y-00512*
X00263Y-00512*
X00262Y-00512*
X00262Y-00512*
X00262Y-00505*
X00264Y-00505*
X00268Y-00505*
X00269Y-00505*
X00271Y-00504*
X00272Y-00504*
X00272Y-00503*
X00273Y-00503*
X00266Y-00516*
G37*
G36*
X-00168Y-00499D02*
X-00167Y-005D01*
X-00166Y-00501*
X-00165Y-00502*
X-00164Y-00502*
X-00163Y-00503*
X-00161Y-00503*
X-0016Y-00504*
X-00159Y-00504*
X-00158Y-00504*
Y-00511*
X-00159Y-00511*
X-0016Y-00511*
X-00161Y-00512*
X-00163Y-00512*
X-00164Y-00513*
X-00165Y-00513*
X-00166Y-00514*
X-00167Y-00515*
X-00168Y-00516*
X-0017Y-00517*
Y-00498*
X-00168Y-00499*
G37*
G36*
X-00181Y-00521D02*
X-00183Y-00521D01*
X-00184Y-00521*
X-00186Y-00521*
X-00187Y-00521*
X-00188Y-00522*
X-00189Y-00522*
X-00191Y-00522*
X-00192Y-00523*
X-00193Y-00524*
X-00193Y-00524*
X-00198Y-00519*
X-00197Y-00518*
X-00196Y-00517*
X-00196Y-00516*
X-00195Y-00515*
X-00195Y-00514*
X-00194Y-00513*
X-00194Y-00511*
X-00194Y-0051*
X-00193Y-00506*
X-00181Y-00521*
G37*
G36*
X-00278Y-00506D02*
X-00277Y-00507D01*
X-00276Y-00508*
X-00275Y-00509*
X-00274Y-00509*
X-00273Y-0051*
X-00271Y-0051*
X-0027Y-00511*
X-00269Y-00511*
X-00268Y-00511*
Y-00518*
X-00269Y-00518*
X-0027Y-00518*
X-00271Y-00519*
X-00273Y-00519*
X-00274Y-0052*
X-00275Y-0052*
X-00276Y-00521*
X-00277Y-00522*
X-00278Y-00523*
X-0028Y-00524*
Y-00505*
X-00278Y-00506*
G37*
G36*
X-00764Y-00515D02*
X-00764Y-00515D01*
X-00763Y-00515*
X-00763Y-00516*
X-00762Y-00516*
X-0076Y-00519*
X-00767Y-00526*
X-00768Y-00525*
X-00771Y-00522*
X-00771Y-00522*
X-00764Y-00515*
X-00764Y-00515*
G37*
G36*
X00294Y-00517D02*
X00294Y-00518D01*
X00294Y-0052*
X00294Y-00521*
X00295Y-00523*
X00295Y-00524*
X00296Y-00525*
X00296Y-00526*
X00297Y-00527*
X00298Y-00528*
X00293Y-00533*
X00292Y-00532*
X00291Y-00531*
X0029Y-00531*
X00289Y-0053*
X00288Y-0053*
X00286Y-00529*
X00285Y-00529*
X00283Y-00529*
X00282Y-00529*
X0028Y-00529*
X00294Y-00515*
X00294Y-00517*
G37*
G36*
X-00004Y-00519D02*
X-00003Y-0052D01*
X-00002Y-0052*
X-00001Y-00521*
X0Y-00521*
X00001Y-00522*
X00002Y-00522*
X00003Y-00522*
X00004Y-00522*
X00006Y-00523*
Y-00533*
X00004Y-00533*
X00003Y-00533*
X00002Y-00533*
X00001Y-00533*
X0Y-00534*
X-00001Y-00534*
X-00002Y-00535*
X-00003Y-00535*
X-00004Y-00536*
X-00005Y-00537*
Y-00518*
X-00004Y-00519*
G37*
G36*
X00749Y-00542D02*
X00744Y-00547D01*
X00743Y-00546*
X00742Y-00545*
X00736Y-00539*
X00741Y-00534*
X00749Y-00542*
G37*
G36*
X-01198Y-00542D02*
X-01199Y-00543D01*
X-012Y-00544*
X-01201Y-00545*
X-01201Y-00546*
X-01202Y-00547*
X-01202Y-00549*
X-01203Y-0055*
X-01203Y-00551*
X-01203Y-00552*
X-0121*
X-0121Y-00551*
X-0121Y-0055*
X-01211Y-00549*
X-01211Y-00547*
X-01212Y-00546*
X-01212Y-00545*
X-01213Y-00544*
X-01214Y-00543*
X-01215Y-00542*
X-01216Y-0054*
X-01197*
X-01198Y-00542*
G37*
G36*
X00273Y-00541D02*
X00274Y-00542D01*
X00274Y-00543*
X00275Y-00544*
X00276Y-00545*
X00277Y-00546*
X00278Y-00546*
X00279Y-00546*
X0028Y-00547*
X00281Y-00547*
X00278Y-00553*
X00277Y-00553*
X00276Y-00553*
X00275Y-00553*
X00273Y-00554*
X0027Y-00555*
X00264Y-00556*
X00273Y-00539*
X00273Y-00541*
G37*
G36*
X00728Y-00556D02*
X00723Y-00561D01*
X00722Y-0056*
X00721Y-00559*
X00715Y-00553*
X0072Y-00548*
X00728Y-00556*
G37*
G36*
X-01425Y-00558D02*
X-01435Y-00561D01*
X-01435Y-0056*
X-01435Y-00558*
X-01435Y-00557*
X-01435Y-00556*
X-01436Y-00555*
X-01436Y-00555*
X-01437Y-00554*
X-01438Y-00554*
X-01438Y-00553*
X-01439Y-00553*
X-01425Y-00542*
X-01425Y-00558*
G37*
G36*
X-0118Y-00565D02*
X-01181Y-00565D01*
X-01182Y-00564*
X-01184Y-00564*
X-01185Y-00564*
X-01186Y-00564*
X-01187Y-00565*
X-01188Y-00565*
X-01189Y-00566*
X-0119Y-00566*
X-01191Y-00567*
X-01194Y-0056*
X-01193Y-00559*
X-01193Y-00559*
X-01192Y-00558*
X-01191Y-00555*
X-0119Y-00554*
X-01188Y-00549*
X-01187Y-00548*
X-0118Y-00565*
G37*
G36*
X00253Y-00566D02*
X00255Y-00568D01*
X00256Y-00569*
X00258Y-0057*
X00259Y-0057*
X0026Y-00571*
X00261Y-00571*
X00262Y-00571*
X00263Y-00572*
Y-00578*
X00262Y-00578*
X00261Y-00578*
X0026Y-00578*
X00259Y-00579*
X00258Y-00579*
X00256Y-0058*
X00255Y-00581*
X00254Y-00582*
X00253Y-00583*
X00251Y-00584*
Y-00578*
X00245Y-00578*
Y-00571*
X00245Y-00571*
X00246Y-00571*
X00246Y-00571*
X00248Y-00571*
X00251Y-00571*
Y-00565*
X00253Y-00566*
G37*
G36*
X-01102Y-00578D02*
X-01101Y-00579D01*
X-01101Y-0058*
X-01101Y-00582*
X-01101Y-00583*
X-011Y-00584*
X-011Y-00585*
X-01099Y-00586*
X-01099Y-00587*
X-01098Y-00588*
X-01097Y-00589*
X-01114Y-00588*
X-0112Y-00604*
X-01121Y-00603*
X-01121Y-00602*
X-01122Y-00601*
X-01123Y-006*
X-01124Y-006*
X-01125Y-00599*
X-01126Y-00599*
X-01127Y-00599*
X-01128Y-00598*
X-0113Y-00598*
X-01125Y-00588*
X-01124Y-00588*
X-01121Y-00588*
X-0112Y-00588*
X-01118Y-00587*
X-01116Y-00587*
X-01115Y-00587*
X-01115Y-00586*
X-01114Y-00585*
X-01113Y-00584*
X-01113Y-00583*
X-01112Y-00582*
X-01112Y-00581*
X-01112Y-0058*
X-01112Y-00578*
X-01112Y-00577*
X-01102Y-00578*
G37*
G36*
X00241Y-00588D02*
X0024Y-00588D01*
X00239Y-00588*
X00238Y-00589*
X00236Y-00589*
X00235Y-00589*
X00234Y-0059*
X00233Y-00591*
X00232Y-00591*
X00231Y-00592*
X0023Y-00593*
X00223Y-00586*
X00224Y-00585*
X00225Y-00584*
X00225Y-00583*
X00226Y-00582*
X00227Y-00581*
X00227Y-0058*
X00227Y-00578*
X00228Y-00577*
X00228Y-00576*
X00228Y-00575*
X00241Y-00588*
G37*
G36*
X00307Y-00578D02*
X00308Y-00579D01*
X00309Y-0058*
X0031Y-00581*
X00311Y-00581*
X00312Y-00582*
X00313Y-00582*
X00314Y-00583*
X00315Y-00583*
X00316Y-00583*
X00315Y-0059*
X00314Y-0059*
X00313Y-0059*
X00312Y-0059*
X00311Y-00591*
X0031Y-00591*
X00308Y-00592*
X00307Y-00593*
X00304Y-00594*
X00303Y-00595*
X00306Y-00576*
X00307Y-00578*
G37*
G36*
X-01391Y-00589D02*
X-01391Y-0059D01*
X-01391Y-00591*
X-01391Y-00592*
X-0139Y-00594*
X-0139Y-00595*
X-01389Y-00596*
X-01389Y-00597*
X-01388Y-00598*
X-01387Y-00599*
X-01406*
X-01405Y-00598*
X-01404Y-00597*
X-01404Y-00596*
X-01403Y-00595*
X-01403Y-00594*
X-01402Y-00592*
X-01402Y-00591*
X-01402Y-0059*
X-01402Y-00589*
X-01402Y-00587*
X-01392*
X-01391Y-00589*
G37*
G36*
X-0118Y-00585D02*
X-01179Y-00586D01*
X-01178Y-00586*
X-01177Y-00587*
X-01176Y-00587*
X-01175Y-00588*
X-01173Y-00588*
X-01172Y-00588*
X-01171Y-00588*
X-01169Y-00588*
X-01168Y-00598*
X-01169Y-00598*
X-0117Y-00599*
X-01172Y-00599*
X-01173Y-00599*
X-01174Y-006*
X-01175Y-006*
X-01176Y-00601*
X-01177Y-00602*
X-01178Y-00603*
X-01178Y-00603*
X-01181Y-00584*
X-0118Y-00585*
G37*
G36*
X00144Y-00595D02*
X00145Y-00596D01*
X00146Y-00596*
X00147Y-00597*
X00148Y-00598*
X00149Y-00598*
X00151Y-00598*
X00152Y-00599*
X00153Y-00599*
X00154Y-00599*
X00141Y-00612*
X00141Y-00611*
X00141Y-0061*
X0014Y-00609*
X0014Y-00607*
X0014Y-00606*
X00139Y-00605*
X00138Y-00604*
X00138Y-00603*
X00137Y-00602*
X00136Y-00601*
X00143Y-00594*
X00144Y-00595*
G37*
G36*
X-001Y-00603D02*
X-001Y-00604D01*
X-001Y-00606*
X-00099Y-00607*
X-00099Y-00608*
X-00098Y-00609*
X-00097Y-0061*
X-00096Y-00612*
X-00095Y-00613*
X-00094Y-00614*
X-00113*
X-00112Y-00613*
X-0011Y-0061*
X-00109Y-00609*
X-00108Y-00608*
X-00108Y-00607*
X-00107Y-00606*
X-00107Y-00604*
X-00107Y-00603*
X-00107Y-00602*
X-00101*
X-001Y-00603*
G37*
G36*
X00215Y-00607D02*
X00215Y-00607D01*
X00215Y-00608*
X00216Y-00609*
X00222Y-00614*
X00217Y-00619*
X0021Y-00612*
X00215Y-00607*
X00215Y-00607*
G37*
G36*
X-01099Y-0061D02*
X-011Y-00611D01*
X-01101Y-00612*
X-01102Y-00613*
X-01102Y-00614*
X-01103Y-00615*
X-01103Y-00617*
X-01104Y-00618*
X-01104Y-00619*
X-01104Y-0062*
X-01111*
X-01111Y-00619*
X-01111Y-00618*
X-01112Y-00617*
X-01112Y-00615*
X-01113Y-00614*
X-01113Y-00613*
X-01114Y-00612*
X-01115Y-00611*
X-01116Y-0061*
X-01117Y-00608*
X-01098*
X-01099Y-0061*
G37*
G36*
X0028Y-00602D02*
X00282Y-00604D01*
X00284Y-00605*
X00285Y-00606*
X00286Y-00606*
X00287Y-00606*
X00289Y-00607*
X0029Y-00607*
X00291Y-00607*
X00291Y-00614*
X0029Y-00614*
X00289Y-00614*
X00288Y-00615*
X00287Y-00615*
X00286Y-00616*
X00285Y-00616*
X00283Y-00617*
X00282Y-00618*
X00281Y-00619*
X0028Y-0062*
X00279Y-00601*
X0028Y-00602*
G37*
G36*
X-01235Y-00611D02*
X-01235Y-00612D01*
X-01234Y-00613*
X-01234Y-00615*
X-01233Y-00616*
X-01233Y-00617*
X-01232Y-00618*
X-01231Y-00619*
X-0123Y-0062*
X-01229Y-00622*
X-01248*
X-01247Y-0062*
X-01246Y-00619*
X-01245Y-00618*
X-01244Y-00617*
X-01244Y-00616*
X-01243Y-00615*
X-01243Y-00613*
X-01242Y-00612*
X-01242Y-00611*
X-01242Y-0061*
X-01235*
X-01235Y-00611*
G37*
G36*
X00165Y-00604D02*
X00166Y-00605D01*
X00167Y-00605*
X00168Y-00606*
X00169Y-00606*
X00171Y-00607*
X00172Y-00607*
X00173Y-00607*
X00174Y-00607*
X00176Y-00608*
Y-00618*
X00174Y-00618*
X00173Y-00618*
X00172Y-00618*
X00171Y-00618*
X00169Y-00619*
X00168Y-00619*
X00167Y-0062*
X00166Y-0062*
X00165Y-00621*
X00164Y-00622*
Y-00603*
X00165Y-00604*
G37*
G36*
X-00841Y-00634D02*
X-00838Y-00636D01*
X-00838Y-00637*
X-00838Y-00637*
X-00837Y-00637*
X-00837*
X-00845Y-00642*
X-00845Y-00641*
X-00845Y-00641*
X-00845Y-00641*
X-00845Y-00641*
X-00845Y-0064*
X-00845Y-0064*
X-00846Y-0064*
X-00846Y-00639*
X-00847Y-00638*
X-00842Y-00633*
X-00841Y-00634*
G37*
G36*
X00305Y-00628D02*
X00306Y-00629D01*
X00307Y-0063*
X00308Y-00631*
X00309Y-00631*
X0031Y-00632*
X00312Y-00632*
X00313Y-00633*
X00314Y-00633*
X00315Y-00633*
Y-0064*
X00314Y-0064*
X00313Y-0064*
X00312Y-00641*
X0031Y-00641*
X00309Y-00642*
X00308Y-00642*
X00307Y-00643*
X00306Y-00644*
X00305Y-00645*
X00303Y-00646*
Y-00627*
X00305Y-00628*
G37*
G36*
X-00914Y-00659D02*
X-00916Y-00658D01*
X-00917Y-00657*
X-00918Y-00656*
X-00919Y-00655*
X-0092Y-00655*
X-00921Y-00654*
X-00923Y-00654*
X-00924Y-00653*
X-00925Y-00653*
X-00926Y-00653*
Y-00646*
X-00925Y-00646*
X-00924Y-00646*
X-00923Y-00645*
X-00921Y-00645*
X-0092Y-00644*
X-00919Y-00644*
X-00918Y-00643*
X-00917Y-00642*
X-00916Y-00641*
X-00914Y-0064*
Y-00659*
G37*
G36*
X-01253Y-00649D02*
X-01252Y-00649D01*
X-01251Y-0065*
X-0125Y-0065*
X-01249Y-00651*
X-01247Y-00651*
X-01246Y-00651*
X-01244Y-00652*
X-01242Y-00652*
X-01241Y-00652*
X-01254Y-00665*
X-01254Y-00664*
X-01255Y-0066*
X-01255Y-00659*
X-01255Y-00657*
X-01256Y-00656*
X-01256Y-00655*
X-01257Y-00654*
X-01257Y-00653*
X-01258Y-00652*
X-01254Y-00648*
X-01253Y-00649*
G37*
G36*
X-00869Y-00664D02*
X-0087Y-00664D01*
X-00872Y-00664*
X-00873Y-00665*
X-00875Y-00665*
X-00876Y-00665*
X-00877Y-00666*
X-00878Y-00666*
X-00879Y-00667*
X-0088Y-00667*
X-00881Y-00668*
X-00886Y-00663*
X-00885Y-00662*
X-00885Y-00661*
X-00884Y-0066*
X-00884Y-00659*
X-00883Y-00658*
X-00883Y-00657*
X-00883Y-00655*
X-00882Y-00654*
X-00882Y-00652*
X-00882Y-00651*
X-00869Y-00664*
G37*
G36*
X-00752Y-00652D02*
X-00751Y-00652D01*
X-0075Y-00653*
X-00749Y-00653*
X-00748Y-00654*
X-00747Y-00654*
X-00745Y-00654*
X-00744Y-00655*
X-00742Y-00655*
X-00741Y-00655*
X-00754Y-00668*
X-00754Y-00667*
X-00754Y-00665*
X-00755Y-00664*
X-00755Y-00662*
X-00755Y-00661*
X-00756Y-0066*
X-00756Y-00659*
X-00757Y-00658*
X-00757Y-00657*
X-00758Y-00656*
X-00753Y-00651*
X-00752Y-00652*
G37*
G36*
X-00092Y-00658D02*
X-00092Y-00659D01*
X-00091Y-0066*
X-00091Y-0066*
X-0009Y-00661*
X-0009Y-00662*
X-00089Y-00663*
X-00087Y-00665*
X-00086Y-00666*
X-00097Y-00677*
X-00098Y-00676*
X-00101Y-00673*
X-00102Y-00673*
X-00103Y-00672*
X-00103Y-00672*
X-00104Y-00671*
X-00105Y-00671*
X-00105Y-00671*
X-00092Y-00658*
X-00092Y-00658*
G37*
G36*
X-01424Y-00673D02*
X-01424Y-00674D01*
X-01424Y-00675*
X-01424Y-00676*
X-01423Y-00678*
X-01423Y-00679*
X-01422Y-0068*
X-01422Y-00681*
X-01421Y-00682*
X-0142Y-00683*
X-01439*
X-01438Y-00682*
X-01437Y-00681*
X-01437Y-0068*
X-01436Y-00679*
X-01436Y-00678*
X-01435Y-00676*
X-01435Y-00675*
X-01435Y-00674*
X-01435Y-00673*
X-01435Y-00671*
X-01425*
X-01424Y-00673*
G37*
G36*
X-01253Y-00682D02*
X-01252Y-00683D01*
X-01251Y-00683*
X-0125Y-00684*
X-01248Y-00684*
X-01247Y-00685*
X-01245Y-00685*
X-01242Y-00686*
X-0124Y-00686*
X-01255Y-00698*
X-01255Y-00696*
X-01255Y-00695*
X-01255Y-00693*
X-01255Y-00692*
X-01255Y-0069*
X-01256Y-00689*
X-01256Y-00688*
X-01257Y-00687*
X-01257Y-00686*
X-01258Y-00685*
X-01253Y-00681*
X-01253Y-00682*
G37*
G36*
X-01421Y-00703D02*
X-01422Y-00704D01*
X-01422Y-00705*
X-01423Y-00706*
X-01424Y-00707*
X-01424Y-00708*
X-01425Y-00709*
X-01425Y-0071*
X-01425Y-00711*
X-01425Y-00713*
X-01426Y-00714*
X-01436Y-00713*
X-01436Y-00712*
X-01436Y-00711*
X-01436Y-00709*
X-01436Y-00708*
X-01437Y-00707*
X-01437Y-00706*
X-01438Y-00705*
X-01438Y-00704*
X-01439Y-00703*
X-0144Y-00702*
X-01421Y-00703*
G37*
G36*
X00701Y-00714D02*
X007Y-00714D01*
X007Y-00716*
X007Y-00729*
X0069*
X0069Y-00714*
X00701*
X00701Y-00714*
G37*
G36*
X-01259Y-00717D02*
X-01258Y-00717D01*
X-01257Y-00718*
X-01256Y-00718*
X-01255Y-00719*
X-01253Y-00719*
X-01252Y-00719*
X-0125Y-0072*
X-01249Y-0072*
X-01247Y-0072*
X-01261Y-00733*
X-01261Y-00732*
X-01261Y-00728*
X-01261Y-00727*
X-01261Y-00725*
X-01262Y-00724*
X-01262Y-00723*
X-01263Y-00722*
X-01264Y-00721*
X-01264Y-0072*
X-0126Y-00716*
X-01259Y-00717*
G37*
G36*
X-01376Y-00751D02*
X-01377Y-0075D01*
X-01378Y-00749*
X-01379Y-00749*
X-0138Y-00748*
X-01381Y-00748*
X-01383Y-00747*
X-01384Y-00747*
X-01385Y-00747*
X-01386Y-00747*
X-01388Y-00747*
Y-00737*
X-01386Y-00736*
X-01385Y-00736*
X-01384Y-00736*
X-01383Y-00736*
X-01381Y-00735*
X-0138Y-00735*
X-01379Y-00734*
X-01378Y-00734*
X-01377Y-00733*
X-01376Y-00732*
Y-00751*
G37*
G36*
X-0123Y-00759D02*
X-01229Y-0076D01*
X-01228Y-00761*
X-01227Y-00761*
X-01226Y-00762*
X-01225Y-00763*
X-01223Y-00763*
X-01222Y-00763*
X-01221Y-00764*
X-0122Y-00764*
Y-00771*
X-01221Y-00771*
X-01222Y-00771*
X-01223Y-00771*
X-01225Y-00772*
X-01226Y-00772*
X-01227Y-00773*
X-01228Y-00774*
X-01229Y-00774*
X-0123Y-00776*
X-01232Y-00777*
Y-00757*
X-0123Y-00759*
G37*
G36*
X-01316Y-00792D02*
X-01317Y-00793D01*
X-01317Y-00794*
X-01318Y-00795*
X-01318Y-00796*
X-01319Y-00798*
X-01319Y-00799*
X-01319Y-008*
X-01319Y-00801*
X-0132Y-00803*
X-0133*
X-0133Y-00801*
X-0133Y-008*
X-0133Y-00799*
X-0133Y-00798*
X-01331Y-00796*
X-01331Y-00795*
X-01332Y-00794*
X-01332Y-00793*
X-01333Y-00792*
X-01334Y-00791*
X-01315*
X-01316Y-00792*
G37*
G36*
X-01425Y-00819D02*
X-01425Y-0082D01*
X-01425Y-00821*
X-01425Y-00822*
X-01424Y-00824*
X-01424Y-00825*
X-01423Y-00826*
X-01423Y-00827*
X-01422Y-00828*
X-01421Y-00829*
X-0144*
X-01439Y-00828*
X-01438Y-00827*
X-01438Y-00826*
X-01437Y-00825*
X-01437Y-00824*
X-01436Y-00822*
X-01436Y-00821*
X-01436Y-0082*
X-01436Y-00819*
X-01436Y-00817*
X-01426*
X-01425Y-00819*
G37*
G36*
X-00746Y-00814D02*
X-00745Y-00814D01*
X-00744Y-00815*
X-00743Y-00816*
X-00742Y-00816*
X-00741Y-00817*
X-0074Y-00817*
X-00738Y-00817*
X-00737Y-00817*
X-00736Y-00817*
X-00749Y-00831*
X-00749Y-0083*
X-0075Y-00828*
X-0075Y-00827*
X-0075Y-00826*
X-00751Y-00825*
X-00751Y-00824*
X-00752Y-00823*
X-00752Y-00822*
X-00753Y-00821*
X-00754Y-0082*
X-00747Y-00813*
X-00746Y-00814*
G37*
G36*
X-0132Y-00845D02*
X-01319Y-00846D01*
X-01319Y-00847*
X-01319Y-00849*
X-01319Y-0085*
X-01318Y-00851*
X-01318Y-00852*
X-01317Y-00853*
X-01317Y-00854*
X-01316Y-00855*
X-01315Y-00856*
X-01334Y-00855*
X-01333Y-00854*
X-01333Y-00853*
X-01332Y-00852*
X-01331Y-00851*
X-01331Y-0085*
X-0133Y-00849*
X-0133Y-00848*
X-0133Y-00847*
X-0133Y-00845*
X-0133Y-00844*
X-0132Y-00845*
G37*
G36*
X-01375Y-00978D02*
X-01376Y-00979D01*
X-01376Y-0098*
X-01377Y-00981*
X-01377Y-00982*
X-01378Y-00984*
X-01378Y-00985*
X-01378Y-00986*
X-01378Y-00987*
X-01379Y-00989*
X-01389*
X-01389Y-00987*
X-01389Y-00986*
X-01389Y-00985*
X-01389Y-00984*
X-0139Y-00982*
X-0139Y-00981*
X-01391Y-0098*
X-01391Y-00979*
X-01392Y-00978*
X-01393Y-00977*
X-01374*
X-01375Y-00978*
G37*
G36*
X-01234Y-0101D02*
X-01235Y-01009D01*
X-01236Y-01008*
X-01238Y-01007*
X-01239Y-01006*
X-0124Y-01005*
X-01241Y-01005*
X-01242Y-01004*
X-01243Y-01004*
X-01245Y-01004*
X-01246Y-01004*
Y-00997*
X-01245Y-00997*
X-01243Y-00997*
X-01242Y-00996*
X-01241Y-00996*
X-0124Y-00995*
X-01239Y-00995*
X-01238Y-00994*
X-01236Y-00993*
X-01235Y-00992*
X-01234Y-00991*
Y-0101*
G37*
G36*
X00716Y-01121D02*
X00717Y-01125D01*
X00719Y-01128*
X00794Y-01202*
X00797Y-01204*
X008Y-01205*
X0116*
X01163Y-01204*
X01166Y-01202*
X01171Y-01198*
X01177Y-01199*
X01184Y-01197*
X01191Y-01193*
X01195Y-01186*
X01197Y-01179*
X01195Y-01171*
X01194Y-01169*
X01197Y-01165*
X01227*
X01264Y-01202*
X01263Y-01208*
X01265Y-01215*
X01267Y-01219*
X01266Y-01225*
X01259Y-01227*
X01236Y-01232*
X01225Y-01234*
X00831*
X00822Y-01234*
X00803Y-01234*
X00786Y-01231*
X00768Y-01227*
X00751Y-01221*
X00735Y-01213*
X0072Y-01203*
X00706Y-01192*
X00697Y-01183*
X007Y-01179*
X00708Y-01181*
X00715Y-01179*
X00722Y-01175*
X00726Y-01168*
X00728Y-01161*
X00726Y-01153*
X00722Y-01146*
X00715Y-01142*
X00708Y-0114*
X007Y-01142*
X00693Y-01146*
X00689Y-01153*
X00687Y-01161*
X00688Y-01166*
X00684Y-01168*
X00682Y-01165*
X00672Y-0115*
X00664Y-01134*
X00661Y-01126*
Y-0097*
X00684*
Y-00982*
X00682Y-00983*
X00675Y-00987*
X00671Y-00994*
X00669Y-01002*
X00671Y-01009*
X00675Y-01016*
X00682Y-0102*
X0069Y-01022*
X00697Y-0102*
X00704Y-01016*
X00708Y-01009*
X0071Y-01002*
X00708Y-00994*
X00707Y-00991*
Y-0097*
X00716*
Y-01121*
G37*
G36*
X-01018Y-01039D02*
X-01017Y-01039D01*
X-01016Y-0104*
X-01015Y-0104*
X-01014Y-01041*
X-01012Y-01041*
X-01011Y-01041*
X-01009Y-01042*
X-01007Y-01042*
X-01006Y-01042*
X-01019Y-01055*
X-01019Y-01054*
X-0102Y-0105*
X-0102Y-01049*
X-0102Y-01047*
X-01021Y-01046*
X-01021Y-01045*
X-01022Y-01044*
X-01022Y-01043*
X-01023Y-01042*
X-01019Y-01038*
X-01018Y-01039*
G37*
G36*
X-01161Y-01063D02*
X-01161Y-01063D01*
X-01161Y-01063*
X-01161Y-01063*
X-0116Y-01063*
X-0116Y-01063*
X-01159Y-01063*
X-01158Y-01063*
X-01157Y-01064*
Y-0107*
X-01158Y-0107*
X-0116Y-0107*
X-0116Y-0107*
X-01161Y-0107*
X-01161Y-0107*
X-01161Y-0107*
X-01161Y-0107*
X-01161Y-01071*
Y-01062*
X-01161Y-01063*
G37*
G36*
X-01008Y-00665D02*
X-01001Y-00668D01*
X-00998Y-00671*
X-0085Y-00819*
X-00758Y-00912*
X-00755Y-00914*
X-00753Y-00919*
Y-00925*
X-00755Y-0093*
X-00758Y-00933*
X-00907Y-01082*
X-00908Y-01084*
X-00912Y-01086*
X-00917Y-01087*
X-00922Y-01086*
X-00925Y-01085*
X-01026Y-00969*
X-01028Y-00967*
X-01031Y-00963*
X-01033Y-00958*
X-01035Y-00953*
X-01036Y-00951*
X-01161Y-00826*
X-01163Y-00824*
X-01166Y-00819*
X-01167Y-00813*
X-01165Y-00807*
X-01163Y-00805*
X-01025Y-0067*
X-01022Y-00668*
X-01015Y-00665*
X-01008Y-00665*
G37*
G36*
X-01135Y-0108D02*
X-01133Y-01082D01*
X-01132Y-01083*
X-0113Y-01084*
X-01129Y-01084*
X-01128Y-01085*
X-01127Y-01085*
X-01126Y-01085*
X-01125Y-01086*
Y-01092*
X-01126Y-01092*
X-01127Y-01092*
X-01128Y-01092*
X-01129Y-01093*
X-0113Y-01093*
X-01132Y-01094*
X-01133Y-01095*
X-01134Y-01096*
X-01135Y-01097*
X-01137Y-01098*
Y-01079*
X-01135Y-0108*
G37*
G36*
X-01021Y-0109D02*
X-01023Y-01093D01*
X-01024Y-01094*
X-01025Y-01095*
X-01025Y-01097*
X-01026Y-01098*
X-01026Y-01099*
X-01026Y-011*
X-01026Y-01101*
X-01032*
X-01032Y-011*
X-01033Y-01099*
X-01033Y-01098*
X-01033Y-01097*
X-01034Y-01095*
X-01035Y-01094*
X-01036Y-01093*
X-01037Y-01092*
X-01038Y-0109*
X-01039Y-01089*
X-0102*
X-01021Y-0109*
G37*
G36*
X-01063Y-01112D02*
X-01065Y-01111D01*
X-01067Y-01109*
X-01068Y-01108*
X-0107Y-01107*
X-01071Y-01107*
X-01072Y-01106*
X-01073Y-01106*
X-01074Y-01106*
X-01075Y-01106*
Y-011*
X-01074Y-01099*
X-01073Y-01099*
X-01072Y-01099*
X-01071Y-01098*
X-0107Y-01098*
X-01068Y-01097*
X-01067Y-01096*
X-01066Y-01095*
X-01065Y-01094*
X-01063Y-01093*
Y-01112*
G37*
G36*
X-01182Y-01149D02*
X-01182Y-0115D01*
X-01181Y-01151*
X-01181Y-01153*
X-01181Y-01154*
X-0118Y-01155*
X-01179Y-01156*
X-01179Y-01157*
X-01178Y-01158*
X-01177Y-01159*
X-01184Y-01166*
X-01185Y-01165*
X-01186Y-01164*
X-01187Y-01164*
X-01188Y-01163*
X-01189Y-01162*
X-0119Y-01162*
X-01192Y-01162*
X-01193Y-01161*
X-01194Y-01161*
X-01195Y-01161*
X-01182Y-01148*
X-01182Y-01149*
G37*
G36*
X-01196Y-01161D02*
X-01197Y-01161D01*
X-01198Y-01161*
X-01199Y-01162*
X-01201Y-01162*
X-01202Y-01162*
X-01203Y-01163*
X-01204Y-01164*
X-01205Y-01164*
X-01206Y-01165*
X-01207Y-01166*
X-01214Y-01159*
X-01213Y-01158*
X-01212Y-01157*
X-01212Y-01156*
X-01211Y-01155*
X-0121Y-01154*
X-0121Y-01153*
X-0121Y-01151*
X-01209Y-0115*
X-01209Y-01149*
X-01209Y-01148*
X-01196Y-01161*
G37*
%LNpcb_flex_1-2*%
%LPC*%
G36*
X01239Y00447D02*
X01231Y00446D01*
X01224Y00441*
X0122Y00435*
X01218Y00427*
X0122Y00419*
X01224Y00413*
X01231Y00409*
X01239Y00407*
X01246Y00409*
X01253Y00413*
X01257Y00419*
X01259Y00427*
X01257Y00435*
X01253Y00441*
X01246Y00446*
X01239Y00447*
G37*
G36*
X01134D02*
X01127Y00446D01*
X0112Y00441*
X01116Y00435*
X01114Y00427*
X01116Y00419*
X0112Y00413*
X01127Y00409*
X01134Y00407*
X01142Y00409*
X01149Y00413*
X01153Y00419*
X01155Y00427*
X01153Y00435*
X01149Y00441*
X01142Y00446*
X01134Y00447*
G37*
G36*
X01239Y00393D02*
X01231Y00392D01*
X01224Y00387*
X0122Y00381*
X01218Y00373*
X0122Y00365*
X01224Y00359*
X01231Y00355*
X01239Y00353*
X01246Y00355*
X01253Y00359*
X01257Y00365*
X01259Y00373*
X01257Y00381*
X01253Y00387*
X01246Y00392*
X01239Y00393*
G37*
G36*
X01134D02*
X01127Y00392D01*
X0112Y00387*
X01116Y00381*
X01114Y00373*
X01116Y00365*
X0112Y00359*
X01127Y00355*
X01134Y00353*
X01142Y00355*
X01149Y00359*
X01153Y00365*
X01155Y00373*
X01153Y00381*
X01149Y00387*
X01142Y00392*
X01134Y00393*
G37*
G36*
X01126Y00192D02*
X01118Y0019D01*
X01111Y00186*
X01107Y00179*
X01105Y00172*
X01107Y00164*
X01111Y00157*
X01118Y00153*
X01126Y00151*
X01133Y00153*
X0114Y00157*
X01144Y00164*
X01146Y00172*
X01144Y00179*
X0114Y00186*
X01133Y0019*
X01126Y00192*
G37*
G36*
X01011Y00141D02*
X01003Y00139D01*
X00996Y00135*
X00992Y00128*
X0099Y00121*
X00992Y00113*
X00996Y00106*
X01003Y00102*
X01011Y001*
X01018Y00102*
X01025Y00106*
X01029Y00113*
X01031Y00121*
X01029Y00128*
X01025Y00135*
X01018Y00139*
X01011Y00141*
G37*
G36*
X01089Y00133D02*
X01081Y00132D01*
X01074Y00127*
X0107Y00121*
X01068Y00113*
X0107Y00105*
X01074Y00099*
X01081Y00094*
X01089Y00093*
X01096Y00094*
X01103Y00099*
X01107Y00105*
X01109Y00113*
X01107Y00121*
X01103Y00127*
X01096Y00132*
X01089Y00133*
G37*
G36*
X01188Y00126D02*
X0118Y00124D01*
X01173Y0012*
X01169Y00113*
X01167Y00106*
X01169Y00098*
X01173Y00091*
X01177Y00089*
X01175Y00084*
X01172Y00085*
X01164Y00083*
X01157Y00079*
X01153Y00072*
X01151Y00065*
X01153Y00057*
X01157Y0005*
X01164Y00046*
X01172Y00044*
X01179Y00046*
X01186Y0005*
X0119Y00057*
X01192Y00065*
X0119Y00072*
X01186Y00079*
X01182Y00081*
X01184Y00086*
X01188Y00085*
X01195Y00087*
X01202Y00091*
X01206Y00098*
X01208Y00106*
X01206Y00113*
X01202Y0012*
X01195Y00124*
X01188Y00126*
G37*
G36*
X00932Y00106D02*
X00924Y00104D01*
X00917Y001*
X00913Y00093*
X00911Y00086*
X00913Y00078*
X00917Y00071*
X00924Y00067*
X00932Y00065*
X00939Y00067*
X00946Y00071*
X0095Y00078*
X00952Y00086*
X0095Y00093*
X00946Y001*
X00939Y00104*
X00932Y00106*
G37*
G36*
X01088Y00078D02*
X0108Y00076D01*
X01073Y00072*
X01069Y00065*
X01067Y00058*
X01069Y0005*
X01073Y00043*
X0108Y00039*
X01088Y00037*
X01095Y00039*
X01102Y00043*
X01106Y0005*
X01108Y00058*
X01106Y00065*
X01102Y00072*
X01095Y00076*
X01088Y00078*
G37*
G36*
X00932Y00026D02*
X00924Y00024D01*
X00917Y0002*
X00913Y00013*
X00911Y00006*
X00913Y-00001*
X00917Y-00008*
X00924Y-00012*
X00932Y-00014*
X00939Y-00012*
X00946Y-00008*
X0095Y-00001*
X00952Y00006*
X0095Y00013*
X00946Y0002*
X00939Y00024*
X00932Y00026*
G37*
G36*
X00775D02*
X00767Y00024D01*
X0076Y0002*
X00756Y00013*
X00754Y00006*
X00756Y-00001*
X0076Y-00008*
X00767Y-00012*
X00775Y-00014*
X00782Y-00012*
X00789Y-00008*
X00793Y-00001*
X00795Y00006*
X00793Y00013*
X00789Y0002*
X00782Y00024*
X00775Y00026*
G37*
G36*
X01234Y00023D02*
X01226Y00021D01*
X0122Y00017*
X01216Y0001*
X01214Y00003*
X01216Y-00004*
X0122Y-00011*
X01226Y-00015*
X01234Y-00017*
X01242Y-00015*
X01248Y-00011*
X01253Y-00004*
X01254Y00003*
X01253Y0001*
X01248Y00017*
X01242Y00021*
X01234Y00023*
G37*
G36*
X0133Y00023D02*
X01322Y00021D01*
X01315Y00017*
X01311Y0001*
X01309Y00003*
X01311Y-00004*
X01315Y-00011*
X01322Y-00015*
X0133Y-00017*
X01337Y-00015*
X01344Y-00011*
X01348Y-00004*
X0135Y00003*
X01348Y0001*
X01344Y00017*
X01337Y00021*
X0133Y00023*
G37*
G36*
X01144Y00009D02*
X01136Y00008D01*
X0113Y00003*
X01125Y-00002*
X01124Y-0001*
X01125Y-00018*
X0113Y-00024*
X01136Y-00029*
X01144Y-0003*
X01152Y-00029*
X01158Y-00024*
X01162Y-00018*
X01164Y-0001*
X01162Y-00002*
X01158Y00003*
X01152Y00008*
X01144Y00009*
G37*
G36*
X00934Y-00022D02*
X00926Y-00024D01*
X00919Y-00028*
X00915Y-00035*
X00913Y-00043*
X00915Y-0005*
X00919Y-00057*
X00926Y-00061*
X00934Y-00063*
X00941Y-00061*
X00948Y-00057*
X00952Y-0005*
X00954Y-00043*
X00952Y-00035*
X00948Y-00028*
X00941Y-00024*
X00934Y-00022*
G37*
G36*
X01168Y-00038D02*
X0116Y-0004D01*
X01154Y-00044*
X01149Y-00051*
X01148Y-00058*
X01149Y-00066*
X01154Y-00073*
X0116Y-00077*
X01168Y-00079*
X01176Y-00077*
X01182Y-00073*
X01186Y-00066*
X01188Y-00058*
X01186Y-00051*
X01182Y-00044*
X01176Y-0004*
X01168Y-00038*
G37*
G36*
X00776Y-00075D02*
X00768Y-00077D01*
X00762Y-00081*
X00757Y-00088*
X00756Y-00096*
X00757Y-00103*
X00762Y-0011*
X00768Y-00114*
X00776Y-00116*
X00784Y-00114*
X0079Y-0011*
X00795Y-00103*
X00796Y-00096*
X00795Y-00088*
X0079Y-00081*
X00784Y-00077*
X00776Y-00075*
G37*
G36*
X01349Y-00086D02*
X01341Y-00088D01*
X01334Y-00092*
X0133Y-00099*
X01328Y-00107*
X0133Y-00114*
X01334Y-00121*
X01341Y-00125*
X01349Y-00127*
X01356Y-00125*
X01363Y-00121*
X01367Y-00114*
X01369Y-00107*
X01367Y-00099*
X01363Y-00092*
X01356Y-00088*
X01349Y-00086*
G37*
G36*
X01113Y-00099D02*
X01105Y-00101D01*
X01098Y-00105*
X01094Y-00112*
X01092Y-0012*
X01094Y-00127*
X01098Y-00134*
X01105Y-00138*
X01113Y-0014*
X0112Y-00138*
X01127Y-00134*
X01131Y-00127*
X01133Y-0012*
X01131Y-00112*
X01127Y-00105*
X0112Y-00101*
X01113Y-00099*
G37*
G36*
X00933Y-00106D02*
X00925Y-00108D01*
X00918Y-00112*
X00914Y-00119*
X00912Y-00127*
X00914Y-00134*
X00918Y-00141*
X00925Y-00145*
X00933Y-00147*
X0094Y-00145*
X00947Y-00141*
X00951Y-00134*
X00953Y-00127*
X00951Y-00119*
X00947Y-00112*
X0094Y-00108*
X00933Y-00106*
G37*
G36*
X01401Y-00131D02*
X01393Y-00133D01*
X01386Y-00137*
X01382Y-00144*
X0138Y-00152*
X01382Y-00159*
X01386Y-00166*
X01393Y-0017*
X01401Y-00172*
X01408Y-0017*
X01415Y-00166*
X01419Y-00159*
X01421Y-00152*
X01419Y-00144*
X01415Y-00137*
X01408Y-00133*
X01401Y-00131*
G37*
G36*
X00722Y-00144D02*
X00714Y-00146D01*
X00707Y-0015*
X00703Y-00157*
X00701Y-00165*
X00703Y-00172*
X00707Y-00179*
X00714Y-00183*
X00722Y-00185*
X00729Y-00183*
X00736Y-00179*
X0074Y-00172*
X00742Y-00165*
X0074Y-00157*
X00736Y-0015*
X00729Y-00146*
X00722Y-00144*
G37*
G36*
X00915Y-00239D02*
X00907Y-00241D01*
X009Y-00245*
X00896Y-00252*
X00894Y-0026*
X00896Y-00267*
X009Y-00274*
X00907Y-00278*
X00915Y-0028*
X00922Y-00278*
X00929Y-00274*
X00933Y-00267*
X00935Y-0026*
X00933Y-00252*
X00929Y-00245*
X00922Y-00241*
X00915Y-00239*
G37*
G36*
X01245Y-00244D02*
X01237Y-00246D01*
X0123Y-0025*
X01226Y-00257*
X01224Y-00265*
X01226Y-00272*
X0123Y-00279*
X01237Y-00283*
X01245Y-00285*
X01252Y-00283*
X01259Y-00279*
X01263Y-00272*
X01265Y-00265*
X01263Y-00257*
X01259Y-0025*
X01252Y-00246*
X01245Y-00244*
G37*
G36*
X01171Y-00247D02*
X01163Y-00249D01*
X01156Y-00253*
X01152Y-0026*
X0115Y-00268*
X01152Y-00275*
X01156Y-00282*
X01163Y-00286*
X01171Y-00288*
X01178Y-00286*
X01185Y-00282*
X01189Y-00275*
X01191Y-00268*
X01189Y-0026*
X01185Y-00253*
X01178Y-00249*
X01171Y-00247*
G37*
G36*
X00964Y-00264D02*
X00956Y-00266D01*
X00949Y-0027*
X00945Y-00277*
X00943Y-00285*
X00945Y-00292*
X00949Y-00299*
X00956Y-00303*
X00964Y-00305*
X00971Y-00303*
X00978Y-00299*
X00982Y-00292*
X00984Y-00285*
X00982Y-00277*
X00978Y-0027*
X00971Y-00266*
X00964Y-00264*
G37*
G36*
X01095Y-00277D02*
X01087Y-00279D01*
X01081Y-00283*
X01076Y-0029*
X01075Y-00298*
X01076Y-00305*
X01081Y-00312*
X01087Y-00316*
X01095Y-00318*
X01103Y-00316*
X01109Y-00312*
X01114Y-00305*
X01115Y-00298*
X01114Y-0029*
X01109Y-00283*
X01103Y-00279*
X01095Y-00277*
G37*
G36*
X01043Y-00285D02*
X01035Y-00287D01*
X01029Y-00291*
X01024Y-00298*
X01023Y-00305*
X01024Y-00313*
X01029Y-0032*
X01035Y-00324*
X01043Y-00325*
X01051Y-00324*
X01057Y-0032*
X01062Y-00313*
X01063Y-00305*
X01062Y-00298*
X01057Y-00291*
X01051Y-00287*
X01043Y-00285*
G37*
G36*
X00989Y-00326D02*
X00981Y-00328D01*
X00974Y-00332*
X0097Y-00339*
X00968Y-00347*
X0097Y-00354*
X00974Y-00361*
X00981Y-00365*
X00989Y-00367*
X00996Y-00365*
X01003Y-00361*
X01007Y-00354*
X01009Y-00347*
X01007Y-00339*
X01003Y-00332*
X00996Y-00328*
X00989Y-00326*
G37*
G36*
X00881Y-00327D02*
X00873Y-00329D01*
X00866Y-00333*
X00862Y-0034*
X0086Y-00348*
X00862Y-00355*
X00866Y-00362*
X00873Y-00366*
X00881Y-00368*
X00888Y-00366*
X00895Y-00362*
X00899Y-00355*
X00901Y-00348*
X00899Y-0034*
X00895Y-00333*
X00888Y-00329*
X00881Y-00327*
G37*
G36*
X01328Y-00355D02*
X0132Y-00357D01*
X01313Y-00361*
X01309Y-00368*
X01307Y-00376*
X01309Y-00383*
X01313Y-0039*
X0132Y-00394*
X01328Y-00396*
X01335Y-00394*
X01342Y-0039*
X01346Y-00383*
X01348Y-00376*
X01346Y-00368*
X01342Y-00361*
X01335Y-00357*
X01328Y-00355*
G37*
G36*
X00763D02*
X00755Y-00357D01*
X00748Y-00361*
X00744Y-00368*
X00742Y-00376*
X00744Y-00383*
X00748Y-0039*
X00755Y-00394*
X00763Y-00396*
X0077Y-00394*
X00777Y-0039*
X00781Y-00383*
X00783Y-00376*
X00781Y-00368*
X00777Y-00361*
X0077Y-00357*
X00763Y-00355*
G37*
G36*
X01158Y-00427D02*
X0115Y-00429D01*
X01143Y-00433*
X01139Y-0044*
X01137Y-00448*
X01139Y-00455*
X01143Y-00462*
X0115Y-00466*
X01158Y-00468*
X01165Y-00466*
X01172Y-00462*
X01176Y-00455*
X01178Y-00448*
X01176Y-0044*
X01172Y-00433*
X01165Y-00429*
X01158Y-00427*
G37*
G36*
X01066Y-00475D02*
X01058Y-00477D01*
X01051Y-00481*
X01047Y-00488*
X01045Y-00496*
X01047Y-00503*
X01051Y-0051*
X01058Y-00514*
X01066Y-00516*
X01073Y-00514*
X0108Y-0051*
X01084Y-00503*
X01086Y-00496*
X01084Y-00488*
X0108Y-00481*
X01073Y-00477*
X01066Y-00475*
G37*
G36*
X01165Y-00519D02*
X01157Y-00521D01*
X0115Y-00525*
X01146Y-00532*
X01144Y-0054*
X01146Y-00547*
X0115Y-00554*
X01157Y-00558*
X01165Y-0056*
X01172Y-00558*
X01179Y-00554*
X0118Y-00552*
X01186*
X01187Y-00555*
X01194Y-00559*
X01202Y-00561*
X01209Y-00559*
X01216Y-00555*
X0122Y-00548*
X01222Y-00541*
X0122Y-00533*
X01216Y-00526*
X01209Y-00522*
X01202Y-0052*
X01194Y-00522*
X01187Y-00526*
X01186Y-00528*
X0118*
X01179Y-00525*
X01172Y-00521*
X01165Y-00519*
G37*
G36*
X01081Y-00529D02*
X01073Y-00531D01*
X01066Y-00535*
X01062Y-00542*
X0106Y-0055*
X01062Y-00557*
X01066Y-00564*
X01073Y-00568*
X01081Y-0057*
X01088Y-00568*
X01095Y-00564*
X01099Y-00557*
X01101Y-0055*
X01099Y-00542*
X01095Y-00535*
X01088Y-00531*
X01081Y-00529*
G37*
G36*
X00975Y-00538D02*
X00967Y-0054D01*
X0096Y-00544*
X00956Y-00551*
X00954Y-00559*
X00956Y-00566*
X0096Y-00573*
X00967Y-00577*
X00975Y-00579*
X00982Y-00577*
X00989Y-00573*
X00993Y-00566*
X00995Y-00559*
X00993Y-00551*
X00989Y-00544*
X00982Y-0054*
X00975Y-00538*
G37*
G36*
X00923Y-00547D02*
X00915Y-00549D01*
X00908Y-00553*
X00904Y-0056*
X00902Y-00568*
X00904Y-00575*
X00908Y-00582*
X00915Y-00586*
X00923Y-00588*
X0093Y-00586*
X00937Y-00582*
X00941Y-00575*
X00943Y-00568*
X00941Y-0056*
X00937Y-00553*
X0093Y-00549*
X00923Y-00547*
G37*
G36*
X01144Y-00564D02*
X01136Y-00566D01*
X01129Y-0057*
X01125Y-00577*
X01123Y-00585*
X01125Y-00592*
X01129Y-00599*
X01136Y-00603*
X01144Y-00605*
X01151Y-00603*
X01158Y-00599*
X01162Y-00592*
X01164Y-00585*
X01162Y-00577*
X01158Y-0057*
X01151Y-00566*
X01144Y-00564*
G37*
G36*
X01329Y-00571D02*
X01321Y-00573D01*
X01314Y-00577*
X0131Y-00584*
X01308Y-00592*
X0131Y-00599*
X01314Y-00606*
X01321Y-0061*
X01329Y-00612*
X01336Y-0061*
X01343Y-00606*
X01347Y-00599*
X01349Y-00592*
X01347Y-00584*
X01343Y-00577*
X01336Y-00573*
X01329Y-00571*
G37*
G36*
X01066Y-00582D02*
X01058Y-00584D01*
X01051Y-00588*
X01047Y-00595*
X01045Y-00603*
X01047Y-0061*
X01051Y-00617*
X01058Y-00621*
X01066Y-00623*
X01073Y-00621*
X0108Y-00617*
X01084Y-0061*
X01086Y-00603*
X01084Y-00595*
X0108Y-00588*
X01073Y-00584*
X01066Y-00582*
G37*
G36*
X01405Y-00601D02*
X01397Y-00603D01*
X0139Y-00607*
X01386Y-00614*
X01384Y-00622*
X01386Y-00629*
X0139Y-00636*
X01397Y-0064*
X01405Y-00642*
X01412Y-0064*
X01419Y-00636*
X01423Y-00629*
X01425Y-00622*
X01423Y-00614*
X01419Y-00607*
X01412Y-00603*
X01405Y-00601*
G37*
G36*
X00975Y-00613D02*
X00967Y-00614D01*
X0096Y-00619*
X00956Y-00625*
X00954Y-00633*
X00956Y-0064*
X0096Y-00647*
X00967Y-00651*
X00975Y-00653*
X00982Y-00651*
X00989Y-00647*
X00993Y-0064*
X00995Y-00633*
X00993Y-00625*
X00989Y-00619*
X00982Y-00614*
X00975Y-00613*
G37*
G36*
X01329Y-00632D02*
X01321Y-00634D01*
X01314Y-00638*
X0131Y-00645*
X01308Y-00653*
X0131Y-0066*
X01314Y-00667*
X01321Y-00671*
X01329Y-00673*
X01336Y-00671*
X01343Y-00667*
X01347Y-0066*
X01349Y-00653*
X01347Y-00645*
X01343Y-00638*
X01336Y-00634*
X01329Y-00632*
G37*
G36*
X01067Y-00637D02*
X01059Y-00639D01*
X01052Y-00643*
X01048Y-0065*
X01046Y-00658*
X01048Y-00665*
X01052Y-00672*
X01059Y-00676*
X01067Y-00678*
X01074Y-00676*
X01081Y-00672*
X01085Y-00665*
X01087Y-00658*
X01085Y-0065*
X01081Y-00643*
X01074Y-00639*
X01067Y-00637*
G37*
G36*
X01403Y-00656D02*
X01395Y-00658D01*
X01388Y-00662*
X01384Y-00669*
X01382Y-00677*
X01384Y-00684*
X01388Y-00691*
X01395Y-00695*
X01403Y-00697*
X0141Y-00695*
X01417Y-00691*
X01421Y-00684*
X01423Y-00677*
X01421Y-00669*
X01417Y-00662*
X0141Y-00658*
X01403Y-00656*
G37*
G36*
X01306Y-00683D02*
X01298Y-00685D01*
X01291Y-00689*
X01287Y-00696*
X01285Y-00704*
X01287Y-00711*
X01291Y-00718*
X01298Y-00722*
X01306Y-00724*
X01313Y-00722*
X0132Y-00718*
X01324Y-00711*
X01326Y-00704*
X01324Y-00696*
X0132Y-00689*
X01313Y-00685*
X01306Y-00683*
G37*
G36*
X01135Y-00682D02*
X01127Y-00684D01*
X0112Y-00688*
X01116Y-00695*
X01114Y-00703*
X01116Y-0071*
X0112Y-00717*
X01127Y-00721*
X01135Y-00723*
X01142Y-00721*
X01149Y-00717*
X01152Y-00712*
X01157Y-00714*
X01156Y-00716*
X01158Y-00723*
X01162Y-0073*
X01169Y-00734*
X01177Y-00736*
X01184Y-00734*
X01191Y-0073*
X01195Y-00723*
X01197Y-00716*
X01195Y-00708*
X01191Y-00701*
X01184Y-00697*
X01177Y-00695*
X01169Y-00697*
X01162Y-00701*
X01159Y-00706*
X01154Y-00704*
X01155Y-00703*
X01153Y-00695*
X01149Y-00688*
X01142Y-00684*
X01135Y-00682*
G37*
G36*
X01259Y-00704D02*
X01251Y-00706D01*
X01244Y-0071*
X0124Y-00717*
X01238Y-00725*
X0124Y-00732*
X01244Y-00739*
X01251Y-00743*
X01259Y-00745*
X01266Y-00743*
X01273Y-00739*
X01277Y-00732*
X01279Y-00725*
X01277Y-00717*
X01273Y-0071*
X01266Y-00706*
X01259Y-00704*
G37*
G36*
X0139Y-00714D02*
X01382Y-00716D01*
X01375Y-0072*
X01371Y-00727*
X01369Y-00735*
X01371Y-00742*
X01375Y-00749*
X01382Y-00753*
X0139Y-00755*
X01397Y-00753*
X01404Y-00749*
X01408Y-00742*
X0141Y-00735*
X01408Y-00727*
X01404Y-0072*
X01397Y-00716*
X0139Y-00714*
G37*
G36*
X00899Y-00738D02*
X00891Y-0074D01*
X00884Y-00744*
X0088Y-00751*
X00878Y-00759*
X0088Y-00766*
X00884Y-00773*
X00891Y-00777*
X00899Y-00779*
X00906Y-00777*
X00913Y-00773*
X00917Y-00766*
X00919Y-00759*
X00917Y-00751*
X00913Y-00744*
X00906Y-0074*
X00899Y-00738*
G37*
G36*
X01384Y-00768D02*
X01376Y-0077D01*
X01369Y-00774*
X01365Y-00781*
X01363Y-00789*
X01365Y-00796*
X01369Y-00803*
X01376Y-00807*
X01384Y-00809*
X01391Y-00807*
X01398Y-00803*
X01402Y-00796*
X01404Y-00789*
X01402Y-00781*
X01398Y-00774*
X01391Y-0077*
X01384Y-00768*
G37*
G36*
X01252Y-00974D02*
X01241D01*
X01241Y-00975*
X01239Y-00975*
X01232Y-00979*
X01228Y-00986*
X01226Y-00994*
X01228Y-01001*
X01232Y-01008*
X01239Y-01012*
X01247Y-01014*
X01254Y-01012*
X01261Y-01008*
X01265Y-01001*
X01267Y-00994*
X01265Y-00986*
X01261Y-00979*
X01254Y-00975*
X01252Y-00975*
X01252Y-00974*
G37*
G36*
X01208Y-01015D02*
X012Y-01017D01*
X01193Y-01021*
X01189Y-01028*
X01187Y-01036*
X01189Y-01043*
X01193Y-0105*
X012Y-01054*
X01208Y-01056*
X01215Y-01054*
X01222Y-0105*
X01226Y-01043*
X01228Y-01036*
X01226Y-01028*
X01222Y-01021*
X01215Y-01017*
X01208Y-01015*
G37*
G36*
X00935Y-01032D02*
X00928Y-01034D01*
X00922Y-01037*
X00918Y-01043*
X00917Y-0105*
X00917Y-01055*
X00855Y-01117*
X00852Y-01115*
X00846Y-01113*
X00839Y-01115*
X00833Y-01119*
X00829Y-01125*
X00827Y-01132*
X00829Y-01138*
X00833Y-01144*
X00839Y-01148*
X00846Y-0115*
X00852Y-01148*
X00858Y-01144*
X00862Y-01138*
X00863Y-01135*
X0093Y-01068*
X00935Y-01068*
X00942Y-01067*
X00948Y-01063*
X00951Y-01057*
X00953Y-01052*
X01066*
X01071Y-01057*
X01074Y-01059*
X01075Y-01059*
X01078Y-01063*
X01084Y-01067*
X01091Y-01069*
X01097Y-01067*
X01103Y-01063*
X01107Y-01057*
X01109Y-01051*
X01107Y-01044*
X01103Y-01038*
X01097Y-01034*
X01091Y-01032*
X01084Y-01034*
X01078Y-01038*
X01078Y-01038*
X01076Y-01036*
X01073Y-01034*
X0107Y-01033*
X00943*
X00941Y-01034*
X00935Y-01032*
G37*
G36*
X01027Y-01105D02*
X01019Y-01107D01*
X01012Y-01111*
X01008Y-01118*
X01006Y-01126*
X01008Y-01133*
X01012Y-0114*
X01019Y-01144*
X01027Y-01146*
X01034Y-01144*
X01041Y-0114*
X01045Y-01133*
X01047Y-01126*
X01045Y-01118*
X01041Y-01111*
X01034Y-01107*
X01027Y-01105*
G37*
%LNpcb_flex_1-3*%
%LPD*%
G36*
X00945Y-01045D02*
X00943Y-01047D01*
X00943Y-01047*
X00943Y-01048*
X00943Y-01048*
X00942Y-01048*
X0094Y-01051*
X00939Y-01051*
X00937Y-01053*
X00932Y-01048*
X00934Y-01046*
X00934Y-01045*
X00934Y-01045*
X00935Y-01045*
X00935Y-01045*
X00938Y-01042*
X00938Y-01042*
X0094Y-0104*
X00945Y-01045*
G37*
G36*
X01081Y-01047D02*
X01081Y-01047D01*
X01082Y-01047*
X01087Y-01047*
X01091Y-01047*
Y-01054*
X01081Y-01054*
Y-01047*
X01081Y-01047*
G37*
G36*
X00851Y-01136D02*
X0085Y-01135D01*
X0085Y-01135*
X0085Y-01135*
X00849Y-01135*
X00848Y-01135*
X00847Y-01135*
X00846Y-01135*
Y-01128*
X00846Y-01128*
X0085Y-01128*
X0085Y-01128*
X0085Y-01128*
X00851Y-01128*
Y-01136*
G37*
G54D10*
X0066Y-00599D02*
X00739Y-00678D01*
X00345Y-00599D02*
X0066D01*
X00333Y-00611D02*
X00345Y-00599D01*
X0066Y-00547D02*
X00765Y-00652D01*
X00354Y-00547D02*
X0066D01*
X00338Y-00562D02*
X00354Y-00547D01*
X00739Y-01116D02*
Y-00678D01*
X0066Y-00645D02*
X00713Y-00698D01*
Y-01011D02*
Y-00698D01*
X00752Y-0111D02*
Y-00662D01*
X00658Y-00568D02*
X00752Y-00662D01*
X00354Y-00568D02*
X00658D01*
X00347Y-00621D02*
X00659D01*
X00331Y-00637D02*
X00347Y-00621D01*
X00294Y-00637D02*
X00331D01*
X00659Y-00621D02*
X00726Y-00688D01*
Y-01121D02*
Y-00688D01*
X00279Y-00611D02*
X00333D01*
X00269Y-00601D02*
X00279Y-00611D01*
X00336Y-00586D02*
X00354Y-00568D01*
X00336Y-00587D02*
Y-00586D01*
X00297Y-00587D02*
X00336D01*
X00765Y-01069D02*
Y-00652D01*
X00314Y-00492D02*
X00694D01*
X00254D02*
X00314D01*
Y-00514D02*
Y-00492D01*
X00694D02*
X00749Y-00547D01*
X00675Y-00508D02*
X00728Y-00561D01*
X00354Y-00508D02*
X00675D01*
X00324Y-00537D02*
X00354Y-00508D01*
X00302Y-00537D02*
X00324D01*
X-01249Y-01D02*
X-01224D01*
X-01267Y-00982D02*
X-01249Y-01D01*
X-01267Y-00982D02*
Y-00746D01*
X-00825Y00145D02*
X-00778D01*
X-00835Y00135D02*
X-00825Y00145D01*
X-01369Y00135D02*
X-00835D01*
X-01037Y-00282D02*
Y-00251D01*
X-01065Y-00223D02*
X-01037Y-00251D01*
X0116Y-01196D02*
X01177Y-01179D01*
X00335Y-00352D02*
X00336Y-00353D01*
X00286Y-00352D02*
X00335D01*
X00269Y-00369D02*
X00286Y-00352D01*
X00082Y-00179D02*
Y-0005D01*
X00062Y-00199D02*
X00082Y-00179D01*
X-00003Y-00199D02*
X00062D01*
X-00022Y-0018D02*
X-00003Y-00199D01*
X-00068Y-0013D02*
X-00033D01*
X-0008Y-00142D02*
X-00068Y-0013D01*
X-0008Y-00154D02*
Y-00142D01*
X-00095Y-00169D02*
X-0008Y-00154D01*
X-00231Y-00169D02*
X-00095D01*
X-00835Y-00651D02*
Y-00646D01*
X-00844Y-00636D02*
X-00835Y-00646D01*
X-00844Y-00636D02*
Y-00056D01*
X-00983Y-00488D02*
Y-00458D01*
X-01012Y-00429D02*
X-00983Y-00458D01*
X-01053Y-00429D02*
X-01012D01*
X-00825Y-00126D02*
Y-00039D01*
X-00831Y-00132D02*
X-00825Y-00126D01*
X-00831Y-00615D02*
Y-00132D01*
X-01204Y00148D02*
X-01154Y00198D01*
Y00238*
X-0136Y-00376D02*
X-01324D01*
X-01455Y-0028D02*
X-0136Y-00376D01*
X-01455Y-0028D02*
Y00103D01*
X-01354Y-00363D02*
X-01282D01*
X-01442Y-00274D02*
X-01354Y-00363D01*
X-01442Y-00274D02*
Y00098D01*
X-01324Y-00376D02*
X-01295Y-00404D01*
X-01282Y-00363D02*
X-01209Y-00436D01*
X-01274Y-0035D02*
X-01175Y-00448D01*
X-01348Y-0035D02*
X-01274D01*
X-01429Y-00268D02*
X-01348Y-0035D01*
X-01429Y-00268D02*
Y00093D01*
X-01342Y-00337D02*
X-0111D01*
X-01416Y-00262D02*
X-01342Y-00337D01*
X-01416Y-00262D02*
Y00087D01*
X-01295Y-00468D02*
Y-00404D01*
X-01209Y-00467D02*
Y-00436D01*
X-0111Y-00337D02*
X-01088Y-00315D01*
X-01326Y-00687D02*
X-01267Y-00746D01*
X-01326Y-00687D02*
Y-00667D01*
X-01108Y-00673D02*
Y-00599D01*
X-01202Y-00767D02*
X-01108Y-00673D01*
X-01144Y-00389D02*
X-01037Y-00282D01*
X-01144Y-00475D02*
Y-00389D01*
X-01163Y-00494D02*
X-01144Y-00475D01*
X-01131Y-00395D02*
X-01024Y-00288D01*
X-01131Y-00483D02*
Y-00395D01*
X-01155Y-00507D02*
X-01131Y-00483D01*
X-01234Y-00494D02*
X-01163D01*
X-01228Y-00507D02*
X-01155D01*
X-01231Y-0051D02*
X-01228Y-00507D01*
X-01175Y-00553D02*
Y-00546D01*
X-01266Y-00614D02*
X-01207Y-00555D01*
Y-00542*
X-01326Y-00667D02*
X-01305Y-00646D01*
X-01175Y-00448D02*
X-01171D01*
X-01239Y-0061D02*
X-01175Y-00546D01*
X-01242Y-007D02*
Y-00697D01*
X-01239Y-00632D02*
Y-0061D01*
X-01231Y-00561D02*
Y-0051D01*
X-01277Y-00607D02*
X-01231Y-00561D01*
X-01244Y-00556D02*
Y-00504D01*
X-01279Y-00591D02*
X-01244Y-00556D01*
X01114Y-0117D02*
X01141Y-01142D01*
X01231Y-01155D02*
X01284Y-01208D01*
X01127Y-01183D02*
X01154Y-01155D01*
X01231*
X01141Y-01142D02*
X0128D01*
X01284Y-01146*
X0081Y-01209D02*
X01041D01*
X01087Y-01157D02*
X01129Y-01115D01*
X-00198Y-0055D02*
X-0018Y-00532D01*
X-00253Y-0055D02*
X-00198D01*
X-00261Y-00557D02*
X-00253Y-0055D01*
X-0018Y-00532D02*
X-00087D01*
X-0018Y-00508D02*
X-0009D01*
X-00223Y-00473D02*
X00136D01*
X-00257Y-00535D02*
X-00208D01*
X-00266Y-00544D02*
X-00257Y-00535D01*
X-00208D02*
X-00181Y-00508D01*
X-0018*
X-00265Y-00515D02*
X-00223Y-00473D01*
X00817Y-01157D02*
X01087D01*
X00811Y-0117D02*
X01114D01*
X00806Y-01183D02*
X01127D01*
X008Y-01196D02*
X0116D01*
X0081Y-0121D02*
X0081Y-01209D01*
X-00249Y-00326D02*
X-00244D01*
X-0009Y-00508D02*
X-00068Y-00486D01*
X-00796Y-00557D02*
X-00261D01*
X-00791Y-00544D02*
X-00266D01*
X-0029Y-00515D02*
X-00265D01*
X-00813Y-00541D02*
X-00796Y-00557D01*
X-01208Y-00542D02*
X-01207D01*
X-00772Y-00638D02*
X-00741Y-00669D01*
X01078Y-01051D02*
X01091D01*
X00846Y-01132D02*
X00854D01*
X00935Y-0105D02*
X00943Y-01043D01*
X00765Y-01105D02*
X00817Y-01157D01*
X00795Y-01209D02*
X00809D01*
X0081Y-0121*
X-008Y-00535D02*
X-00791Y-00544D01*
X-00813Y-00541D02*
Y-00332D01*
X-008Y-00535D02*
Y-00338D01*
X-00896Y-00678D02*
X-00869Y-00651D01*
X-0093Y-0065D02*
X-00905D01*
X-00809Y-00638D02*
X-00772D01*
X-00923Y-00678D02*
X-00896D01*
X-00971Y-0063D02*
X-00923Y-00678D01*
X-01011Y-00333D02*
X-00928Y-00415D01*
X-00998Y-00327D02*
X-00915Y-0041D01*
X-01088Y-00315D02*
Y-00172D01*
X-00915Y-00564D02*
Y-0041D01*
X-00928Y-00559D02*
Y-00415D01*
X-00971Y-00601D02*
X-00928Y-00559D01*
X-00955Y-00604D02*
X-00915Y-00564D01*
X-00955Y-00625D02*
Y-00604D01*
X-00971Y-0063D02*
Y-00601D01*
X-00831Y-00615D02*
X-00809Y-00638D01*
X-00882Y-00019D02*
X-00844Y-00056D01*
X-01118Y-00019D02*
X-00882D01*
X-00805Y-00193D02*
Y-00161D01*
X-00792Y-00187D02*
X-00767Y-00162D01*
X-01024Y-00288D02*
Y-00227D01*
X-00998Y-00327D02*
Y-00179D01*
X-01011Y-00333D02*
Y-00203D01*
X-01065Y-00186D02*
X-01024Y-00227D01*
X-01065Y-00112D02*
X-00998Y-00179D01*
X-01065Y-00149D02*
X-01011Y-00203D01*
X-01088Y-00172D02*
X-01065Y-00149D01*
X-00955Y-00625D02*
X-0093Y-0065D01*
X-008Y-00338D02*
X-00792Y-0033D01*
Y-00187*
X-00813Y-00332D02*
X-00805Y-00324D01*
Y-00194*
X-00087Y-00532D02*
X-00055Y-00501D01*
X-01244Y-00504D02*
X-01234Y-00494D01*
X00181Y-00401D02*
X00211D01*
X-00055Y-00501D02*
X00099D01*
X00121Y-00523*
X-00068Y-00486D02*
X00113D01*
X00137Y-0051*
X00286Y-00333D02*
X00334D01*
X00186Y-00385D02*
X00208D01*
X00222Y-0037*
X00237Y-00356*
X00263*
X00286Y-00333*
X00211Y-00401D02*
X00242Y-00369D01*
X00269*
X-00249Y-00326D02*
X-00247Y-00324D01*
Y-00185*
X-00231Y-00169*
X-00022Y-0018D02*
Y-00141D01*
X-00033Y-0013D02*
X-00022Y-00141D01*
X-01192Y00182D02*
Y00276D01*
X-01138Y0033*
X00136Y-00473D02*
X00149Y-00487D01*
X00137Y-0051D02*
X00236D01*
X00254Y-00492*
X00262Y-00509D02*
X00273D01*
X00121Y-00523D02*
X00247D01*
X00262Y-00509*
X0028Y-00515D02*
X00302Y-00537D01*
X00273Y-00509D02*
X0028Y-00515D01*
X-01416Y00087D02*
X-01369Y00135D01*
X-01374Y00148D02*
X-01204D01*
X-01379Y00161D02*
X-01213D01*
X-01192Y00182*
X-01385Y00174D02*
X-01294D01*
X-0123Y00238*
X-01429Y00093D02*
X-01374Y00148D01*
X-01442Y00098D02*
X-01379Y00161D01*
X-01455Y00103D02*
X-01385Y00174D01*
X-01242Y-00767D02*
X-01202D01*
X00713Y-01011D02*
X00713Y-01011D01*
X00713Y-01126D02*
X00795Y-01209D01*
X00726Y-01121D02*
X008Y-01196D01*
X00739Y-01116D02*
X00806Y-01183D01*
X00752Y-0111D02*
X00811Y-0117D01*
X00713Y-01126D02*
Y-01011D01*
X00765Y-01105D02*
Y-01069D01*
X013Y-01115D02*
X01335Y-0115D01*
X01129Y-01115D02*
X013D01*
G54D11*
X00826Y01012D02*
D01*
X00828Y01011*
X00829Y01011*
X00831Y0101*
X00832Y0101*
X00834Y01009*
X00836Y01009*
X00837Y01009*
X00839Y01009*
X00841Y01009*
X00842Y01009*
X00844Y01009*
X00845Y0101*
X00847Y0101*
X00848Y01011*
X0085Y01012*
X00851Y01012*
X00113Y-00385D02*
X00186D01*
X00108Y-0039D02*
X00113Y-00385D01*
X00817Y00491D02*
X00846Y00462D01*
X00817D02*
X0094D01*
X00817D02*
Y01012D01*
Y00529D02*
X00884Y00462D01*
X00817Y00567D02*
X00923Y00462D01*
X00817Y00606D02*
X0094Y00482D01*
X00817Y0048D02*
X0094Y00603D01*
X00817Y00556D02*
X0094Y0068D01*
X00817Y00518D02*
X0094Y00642D01*
X00817Y00644D02*
X0094Y0052D01*
X00817Y00824D02*
X0094Y00947D01*
X00817Y00671D02*
X0094Y00794D01*
X00817Y01012D02*
X00826D01*
X00817Y00949D02*
X0094Y00826D01*
X00817Y00862D02*
X0094Y00985D01*
X00817Y00595D02*
X0094Y00718D01*
X00817Y00682D02*
X0094Y00558D01*
X00817Y00758D02*
X0094Y00635D01*
X00817Y0072D02*
X0094Y00597D01*
X00817Y00633D02*
X0094Y00756D01*
X00817Y00709D02*
X0094Y00833D01*
X00817Y00796D02*
X0094Y00673D01*
X00817Y00873D02*
X0094Y00749D01*
X00817Y00835D02*
X0094Y00711D01*
X00817Y00747D02*
X0094Y00871D01*
X00875Y00462D02*
X0094Y00527D01*
X00913Y00462D02*
X0094Y00489D01*
X00836Y00462D02*
X0094Y00565D01*
Y00462D02*
Y01012D01*
X00836Y00462D02*
X0094Y00565D01*
X00817Y009D02*
X00929Y01012D01*
X00817Y00987D02*
X0094Y00864D01*
X00817Y00938D02*
X00891Y01012D01*
X00817Y00976D02*
X00853Y01012D01*
X00817Y00785D02*
X0094Y00909D01*
X00817Y00911D02*
X0094Y00787D01*
X00833Y0101D02*
X0094Y00902D01*
X00851Y01012D02*
X0094D01*
X00868D02*
X0094Y0094D01*
X00906Y01012D02*
X0094Y00978D01*
G54D12*
X-00728Y-00692D02*
X-00163D01*
X01316Y-00487D02*
Y-00442D01*
X01191Y-00613D02*
X01316Y-00487D01*
X01169Y-00613D02*
X01191D01*
X0032Y00345D02*
X0034Y00325D01*
X00007Y00345D02*
X0032D01*
X-00026Y00378D02*
X00007Y00345D01*
X-00134Y00378D02*
X-00026D01*
X-00197Y00316D02*
X-00134Y00378D01*
X00674Y-00332D02*
X00719Y-00376D01*
Y-00429D02*
Y-00376D01*
Y-00429D02*
X00747Y-00457D01*
X00664Y-00353D02*
X00689Y-00378D01*
Y-00451D02*
Y-00378D01*
Y-00451D02*
X00733Y-00496D01*
X00747Y-00457D02*
X00782D01*
X-01274Y00105D02*
X-00799D01*
X-0139Y-0001D02*
X-01274Y00105D01*
X-0139Y-00034D02*
Y-0001D01*
X-01265Y-0032D02*
X-01237Y-00292D01*
X-01292Y-0032D02*
X-01265D01*
X-00815Y01215D02*
X-008Y0123D01*
X-01115Y01215D02*
X-00815D01*
X-008Y0123D02*
Y0127D01*
X00733Y-00496D02*
X00798D01*
X01094Y-00191D02*
X01304D01*
X01308*
X01303Y-0019D02*
X01304Y-00191D01*
X01303Y-0019D02*
Y-00159D01*
X01308Y-00191D02*
X01386Y-00269D01*
X00848Y-00315D02*
Y-00144D01*
X00757D02*
X00848D01*
X00204Y-00613D02*
X00242Y-00575D01*
X00155Y-00613D02*
X00204D01*
X00336Y-00353D02*
X00664D01*
X-00057Y-00253D02*
Y-00154D01*
X-00093Y-00289D02*
X-00057Y-00253D01*
X-00093Y-00322D02*
Y-00289D01*
X-00358Y-00014D02*
X-00272Y00071D01*
X-00288Y00077D02*
Y00378D01*
X-00364Y00001D02*
X-00288Y00077D01*
X-00371Y00017D02*
X-00304Y00084D01*
X-01048Y-00972D02*
X-00977Y-01043D01*
X-01048Y-00972D02*
Y-00962D01*
X-01183Y-00827D02*
X-01048Y-00962D01*
X-01183Y-00827D02*
Y-00806D01*
X-0077Y-00797D02*
X-00736Y-00831D01*
X-00842Y-00797D02*
X-0077D01*
X-00993Y-00646D02*
X-00842Y-00797D01*
X-01023Y-00646D02*
X-00993D01*
X-01183Y-00806D02*
X-01023Y-00646D01*
X-01386Y-00486D02*
Y-00464D01*
X-01397Y-00497D02*
X-01386Y-00486D01*
X-01397Y-00609D02*
Y-00497D01*
X-00977Y-0109D02*
Y-01043D01*
X-01066Y-01179D02*
X-00977Y-0109D01*
X-01165Y-01179D02*
X-01066D01*
X-0143Y-00693D02*
Y-00549D01*
X-00127Y-00352D02*
X-00123D01*
X-00093Y-00322*
X00092Y-00383D02*
X00107Y-00368D01*
X-00179Y-00383D02*
X00092D01*
X00105Y-00415D02*
X0012Y-004D01*
X00099Y-00399D02*
X00108Y-0039D01*
X-00229Y-00367D02*
X-00196Y-00333D01*
X-00324Y-00367D02*
X-00229D01*
X-00196Y-00333D02*
Y-00328D01*
X-00314Y-00383D02*
X-00179D01*
X-00301Y-00399D02*
X00099D01*
X-00225Y004D02*
X-00198Y00373D01*
Y00348D02*
Y00373D01*
X-00216Y0033D02*
X-00198Y00348D01*
X-00225Y004D02*
Y00447D01*
X-00216Y00231D02*
Y0033D01*
X-00174Y00161D02*
X-00143Y00192D01*
X-00201Y00161D02*
X-00174D01*
X-00237Y00175D02*
X-00197Y00215D01*
X-00237Y00061D02*
Y00175D01*
X-00254Y00192D02*
X-00216Y00231D01*
X-00254Y00066D02*
Y00192D01*
X-00229Y00362D02*
X-00226D01*
X-01108Y-00496D02*
X-01075D01*
X-01107Y-00563D02*
X-0105Y-00506D01*
X-01107Y-00593D02*
Y-00563D01*
X-0105Y-00506D02*
X-0105D01*
X-0106Y-00481D02*
Y-00479D01*
X-01075Y-00496D02*
X-0106Y-00481D01*
X-0105Y-00506D02*
X-01036Y-00492D01*
X-0119Y-00596D02*
X-01187Y-00593D01*
X-01107*
X-01036Y-00492D02*
X-01032Y-00488D01*
X-01036Y-00492D02*
Y-00492D01*
X-01032Y-00488D02*
X-00983D01*
X-01196Y-01148D02*
X-01165Y-01179D01*
X-01227D02*
X-01196Y-01148D01*
X-01262Y-01179D02*
X-01227D01*
X-00205Y-00445D02*
Y-00435D01*
X-00294Y-00415D02*
X00105D01*
X-00339Y-00408D02*
X-00314Y-00383D01*
X-00367Y-00465D02*
X-00301Y-00399D01*
X-0036Y-00481D02*
X-00294Y-00415D01*
X-00292Y-00435D02*
X-00205D01*
X-00354Y-00497D02*
X-00292Y-00435D01*
X-00347Y-0039D02*
X-00324Y-00367D01*
X-00212Y-0044D02*
X-00202Y-0045D01*
X01118Y01027D02*
X01164Y01073D01*
Y01195*
X0121Y01241*
Y01282*
X01181Y01311D02*
X0121Y01282D01*
X01115Y01311D02*
X01181D01*
X01094Y0129D02*
X01115Y01311D01*
X-00284Y00405D02*
Y00456D01*
X-00304Y00385D02*
X-00284Y00405D01*
X-00029Y00017D02*
Y00024D01*
X-00058Y00004D02*
X00036Y-0009D01*
X-00018Y00035D02*
X00075D01*
X-00029Y00024D02*
X-00018Y00035D01*
X01316Y-00442D02*
X01386Y-00373D01*
X01316Y-00442D02*
X01316Y-00442D01*
X01046Y01042D02*
Y01141D01*
X-01243Y00089D02*
X-00805D01*
X-0135Y-00017D02*
X-01243Y00089D01*
X-01211Y00073D02*
X-00812D01*
X-0133Y-00045D02*
X-01211Y00073D01*
X-01204Y00057D02*
X-00818D01*
X-01312Y-00049D02*
X-01204Y00057D01*
X00005Y-00311D02*
X00043Y-00348D01*
X-0005Y-00311D02*
X00005D01*
X01088Y-00693D02*
X01169Y-00613D01*
X01088Y-00744D02*
Y-00693D01*
X01386Y-00373D02*
Y-00269D01*
X01046Y-00189D02*
X01069Y-00166D01*
X00849Y-00189D02*
X01046D01*
X01069Y-00166D02*
X01094Y-00191D01*
X-00738Y-00465D02*
X-00367D01*
X-0072Y-00481D02*
X-0036D01*
X-00707Y-00497D02*
X-00354D01*
X-00733Y-00523D02*
X-00707Y-00497D01*
X-00705Y-0039D02*
X-00347D01*
X-00743Y-00408D02*
X-00339D01*
X-0072Y-00481D02*
X-0072Y-00481D01*
X-00721Y-00481D02*
X-0072D01*
X-00722Y-00481D02*
X-00721Y-00481D01*
X-00724Y-00481D02*
X-00722D01*
X-00724Y-00481D02*
X-00724Y-00481D01*
X-00725Y-00481D02*
X-00724D01*
X-00726Y-00481D02*
X-00725Y-00481D01*
X-00728Y-00481D02*
X-00726D01*
X-01157Y00022D02*
X-01149D01*
X-0123Y-0007D02*
X-0118D01*
X-0128D02*
X-0123D01*
X-00717Y-00378D02*
X-00705Y-0039D01*
X-00756Y-00378D02*
X-00717D01*
X-00776Y-00398D02*
X-00756Y-00378D01*
X-00776Y-00443D02*
Y-00398D01*
X0107Y-01043D02*
X01078Y-01051D01*
X00943Y-01043D02*
X0107D01*
X00827Y-00336D02*
X00848Y-00315D01*
X0068Y00043D02*
Y00277D01*
X00664Y00027D02*
X0068Y00043D01*
X00355Y00027D02*
X00664D01*
X01069Y-00166D02*
Y00003D01*
X01066Y00006D02*
X01069Y00003D01*
X0099Y00044D02*
X01028Y00006D01*
X00849Y00044D02*
X0099D01*
X01028Y00006D02*
X01066D01*
X-00764Y-00523D02*
X-00733D01*
X0068Y00277D02*
X00701Y00298D01*
X0098*
X-00728Y-00482D02*
X-00728Y-00481D01*
X-00729Y-00482D02*
X-00728D01*
X-00743Y-00496D02*
X-00729Y-00482D01*
X0069Y-01002D02*
X00695Y-00996D01*
X-01085Y00004D02*
X-01053D01*
X-00799Y00105D02*
X-0079Y00097D01*
X-00796Y00081D02*
X-00796D01*
X-00805Y00089D02*
X-00796Y00081D01*
X-00803Y00065D02*
X-00803D01*
X-00812Y00073D02*
X-00803Y00065D01*
X-00818Y00057D02*
X-00809Y00048D01*
X-00743Y-0046D02*
X-00738Y-00465D01*
X-00777Y-0051D02*
X-00764Y-00523D01*
X-01329Y-00283D02*
X-01292Y-0032D01*
X-01298Y-00292D02*
X-01276D01*
X-01329Y-00283D02*
Y-00281D01*
X-01312Y-00278D02*
X-01298Y-00292D01*
X-0133Y-0028D02*
X-01329Y-00281D01*
X-01035Y-01186D02*
Y-01185D01*
X01019Y01073D02*
Y01078D01*
X00994Y01103D02*
X01019Y01078D01*
X00998Y01052D02*
X01019Y01073D01*
X00919D02*
X00949Y01103D01*
X-00225Y00447D02*
Y01047D01*
X-00257Y00426D02*
Y0106D01*
X-00241Y00426D02*
Y01053D01*
X0085Y-00648D02*
X00861D01*
X00749Y-00547D02*
X0085Y-00648D01*
X00728Y-00561D02*
X00864Y-00697D01*
X01088Y-00744D02*
X01133Y-00789D01*
Y-00792D02*
Y-00789D01*
X00043Y-0035D02*
Y-00348D01*
X-0133Y-0028D02*
Y-00045D01*
X-01312Y-00278D02*
Y-00049D01*
X-01089Y00008D02*
X-01085Y00004D01*
X-00015Y-00528D02*
X0007D01*
X0012Y-004D02*
X0018D01*
X00107Y-00368D02*
X00192D01*
X00199Y-00361*
X00724Y-00111D02*
X00757Y-00144D01*
X00299Y-00111D02*
X00724D01*
X00075Y00035D02*
X00111Y0D01*
X00141Y-00162D02*
X00172Y-00131D01*
X00279D02*
X00299Y-00111D01*
X0011Y0D02*
X00111Y0D01*
X00172Y-00131D02*
X00279D01*
X00695Y-00996D02*
Y-00708D01*
X00336Y-00332D02*
X00674D01*
X-00241Y01053D02*
X-00225Y01069D01*
X00225Y0121D02*
X0025Y01185D01*
Y01063D02*
Y01185D01*
X00203Y01273D02*
X0022Y0129D01*
X0019Y0113D02*
X0022D01*
X-00225Y01069D02*
Y0115D01*
X-0028Y01083D02*
X-00257Y0106D01*
X-00225Y01047D02*
X-002Y01072D01*
Y01175*
X-0025D02*
X-00225Y0115D01*
X-00285Y01273D02*
X00203D01*
X-0028Y01083D02*
Y0125D01*
X-00275Y01255*
X-00296Y01262D02*
X-00285Y01273D01*
X0018Y0114D02*
X0019Y0113D01*
X-00275Y01255D02*
X00175D01*
X0018Y0125*
Y0114D02*
Y0125D01*
X-0114Y01105D02*
X-01085Y0105D01*
X-0114Y01105D02*
Y0119D01*
X-01115Y01215*
X-00267Y0003D02*
X-00251Y00046D01*
X-00344Y-00046D02*
X-00267Y0003D01*
X-00809Y00049D02*
X-0073Y-0003D01*
X-00351*
X-00803Y00065D02*
X-00723Y-00014D01*
X-00358*
X-00796Y00081D02*
X-00716Y00001D01*
X-00364*
X-0071Y00017D02*
X-00371D01*
X-01053Y00004D02*
X-0102Y00037D01*
X-0082*
X-00736Y-00046D02*
X-00344D01*
X-0082Y00037D02*
X-00736Y-00046D01*
X0114Y01241D02*
X01169Y0127D01*
X00949Y01103D02*
X00994D01*
X01083Y01178D02*
X01111D01*
X01046Y01141D02*
X01083Y01178D01*
X-01006Y01268D02*
X-00897D01*
X-00875Y0129*
X00963Y01268D02*
X01072D01*
X01094Y0129*
X00149Y-00487D02*
X00151D01*
X-00296Y01044D02*
Y01262D01*
Y01044D02*
X-00284Y01032D01*
X00829Y01105D02*
Y01201D01*
X00869Y01241*
X0114*
X-00148Y00004D02*
X-00058D01*
X00036Y-00161D02*
Y-0009D01*
X0007Y-00528D02*
X00155Y-00613D01*
X0011Y-00001D02*
Y0D01*
X-0079Y00097D02*
X-0079D01*
X-0071Y00017*
X-01155Y-00045D02*
X-0101D01*
X-0099Y-00065*
X-0118Y-0007D02*
X-01155Y-00045D01*
X-01325Y-00865D02*
Y-00782D01*
X-01431Y-00694D02*
X-0143Y-00693D01*
X-01439Y-0054D02*
X-0143Y-00549D01*
Y-00742D02*
X-01367D01*
X-01431Y-00741D02*
X-0143Y-00742D01*
X-01431Y-00839D02*
Y-00741D01*
Y-00694*
X00854Y-01132D02*
X00935Y-0105D01*
X-01384Y-01057D02*
X-01262Y-01179D01*
X-01384Y-01057D02*
Y-00968D01*
X-00251Y00046D02*
X-00237Y00061D01*
X-00351Y-0003D02*
X-00254Y00066D01*
X-00272Y00071D02*
Y00371D01*
X-00304Y00084D02*
Y00385D01*
X-00288Y00378D02*
X-00257Y0041D01*
Y00426*
X-00272Y00371D02*
X-00241Y00403D01*
Y00426*
X-00143Y00192D02*
Y00227D01*
X-00105Y00265*
X-00197Y00215D02*
Y00316D01*
X0034Y00042D02*
X00355Y00027D01*
X0034Y00042D02*
Y00325D01*
X-00105Y00265D02*
X0031D01*
X0114Y01135D02*
Y01241D01*
X0098Y00298D02*
X01071Y00389D01*
Y01066*
X0114Y01135*
G54D13*
X-01006Y-01056D02*
D01*
X-01006Y-01055*
X-01006Y-01055*
X-01006Y-01054*
X-01006Y-01054*
X-01006Y-01053*
X-01006Y-01053*
X-01006Y-01053*
X-01006Y-01052*
X-01007Y-01052*
X-01007Y-01052*
X-01007Y-01051*
X-01008Y-01051*
X-01008Y-01051*
X-01008Y-0105*
X-01009Y-0105*
X-01009Y-0105*
X-01009Y-0105*
X-0101Y-0105*
X-0101Y-0105*
X-01011Y-01049*
X-01011Y-01049*
X-01011Y-01049*
X-01012Y-01049*
X-01006Y-01056D02*
D01*
X-01006Y-01055*
X-01006Y-01055*
X-01006Y-01055*
X-01006Y-01055*
X-01006Y-01054*
X-01006Y-01054*
X-01006Y-01054*
X-01006Y-01054*
X-01006Y-01054*
X-01006Y-01054*
X-01006Y-01053*
X-01006Y-01053*
X-01007Y-01053*
X-01007Y-01053*
X-01007Y-01053*
X-01007Y-01053*
X-01007Y-01053*
X-01008Y-01053*
X-01008Y-01053*
X-01008Y-01053*
X-01008Y-01053*
X-01008Y-01053*
X-01009Y-01053*
X00343Y-00645D02*
X0066D01*
X00328Y-00659D02*
X00343Y-00645D01*
X00262Y-00659D02*
X00328D01*
X00285Y-00562D02*
X00338D01*
X00779Y-00995D02*
Y-0064D01*
X00662Y-00523D02*
X00779Y-0064D01*
X00357Y-00523D02*
X00662D01*
X00329Y-0055D02*
X00357Y-00523D01*
X00267Y-0055D02*
X00329D01*
X00261Y-00544D02*
X00267Y-0055D01*
X-01029Y-01119D02*
Y-01079D01*
X-01065Y-01155D02*
X-01029Y-01119D01*
X00822Y-01069D02*
Y-01038D01*
X00779Y-00995D02*
X00822Y-01038D01*
X00277Y-00381D02*
X00282Y-00376D01*
X00247Y-00381D02*
X00277D01*
X00282Y-00376D02*
X003D01*
X00082Y-0005D02*
X00088Y-00043D01*
X00051Y-00184D02*
X00063Y-00172D01*
X00001Y-00184D02*
X00051D01*
X-00008Y-00175D02*
X00001Y-00184D01*
X-00026Y-00118D02*
X-00008Y-00137D01*
Y-00175D02*
Y-00137D01*
X-00077Y-00118D02*
X-00026D01*
X-00093Y-00134D02*
X-00077Y-00118D01*
X-00093Y-00146D02*
Y-00134D01*
X-00103Y-00156D02*
X-00093Y-00146D01*
X-00237Y-00156D02*
X-00103D01*
X00126Y-00027D02*
X00137Y-00016D01*
X00104Y-00027D02*
X00126D01*
X00098Y-0002D02*
X00104Y-00027D01*
X00137Y-00016D02*
Y00069D01*
X-01371Y-0042D02*
Y-00397D01*
X-01432Y-00422D02*
Y-00358D01*
Y-00422D02*
X-01415Y-00439D01*
X-01376*
X-0109Y-01103D02*
X-01054D01*
X-01112Y-01125D02*
X-0109Y-01103D01*
X-01371Y-0042D02*
X-01327Y-00464D01*
X-0136Y-00487D02*
Y-00455D01*
X-01376Y-00439D02*
X-0136Y-00455D01*
X-01338Y-0043D02*
X-01332Y-00424D01*
Y-00425D02*
X-01315Y-00442D01*
Y-00638D02*
Y-00442D01*
X-01332Y-00425D02*
Y-00424D01*
X-01303Y-00644D02*
Y-00476D01*
X-01295Y-00468*
X-01377Y-00504D02*
X-0136Y-00487D01*
X-01377Y-00545D02*
Y-00504D01*
Y-00545D02*
X-01353Y-00569D01*
Y-0064D02*
Y-00569D01*
X-01327Y-00633D02*
Y-00464D01*
X-01398Y-00685D02*
X-01353Y-0064D01*
X-01398Y-00706D02*
Y-00685D01*
Y-00706D02*
X-01386Y-00718D01*
X-01352*
X-01341Y-00729*
Y-00757D02*
Y-00729D01*
X-01355Y-00771D02*
X-01341Y-00757D01*
X-01355Y-01035D02*
Y-00771D01*
Y-01035D02*
X-01268Y-01121D01*
X-01186*
X-01292Y-01023D02*
Y-00759D01*
X-0135Y-007D02*
X-01292Y-00759D01*
X-0135Y-007D02*
Y-00657D01*
X-0128Y-01018D02*
Y-00753D01*
X-01338Y-00694D02*
X-0128Y-00753D01*
X-01338Y-00694D02*
Y-00662D01*
X-0117Y-01138D02*
X-01122D01*
X-01186Y-01121D02*
X-0117Y-01138D01*
X-01162Y-01125D02*
X-01112D01*
X-01184Y-01104D02*
X-01162Y-01125D01*
X-01211Y-01104D02*
X-01184D01*
X-01156Y-01113D02*
X-0112D01*
X-01179Y-01091D02*
X-01156Y-01113D01*
X-01207Y-01091D02*
X-01179D01*
X-0128Y-01018D02*
X-01207Y-01091D01*
X-01292Y-01023D02*
X-01211Y-01104D01*
X-01122Y-01138D02*
X-01105Y-01155D01*
X-01065*
X-01042Y-01035D02*
X-01027D01*
X-0112Y-01113D02*
X-01042Y-01035D01*
X-01114Y-01089D02*
X-01066Y-0104D01*
X-01147Y-01089D02*
X-01114D01*
X-00075Y00183D02*
X-00061Y00197D01*
X-00038*
X-00008Y00167*
X00095Y-00445D02*
X00126Y-00414D01*
X-00159Y-00445D02*
X00095D01*
X-00159D02*
X-00153Y-00439D01*
X00066Y0014D02*
X00137Y00069D01*
X-01213Y-00798D02*
X-00953Y-00538D01*
X-01201Y-00803D02*
X-00941Y-00543D01*
X-01266Y-00641D02*
X-01241Y-00666D01*
X-01278Y-00646D02*
Y-00608D01*
Y-00646D02*
X-01264Y-00661D01*
X-01276Y-00704D02*
Y-00666D01*
X-0129Y-00652D02*
X-01276Y-00666D01*
X-0129Y-00652D02*
Y-00602D01*
X-01305Y-00646D02*
X-01303Y-00644D01*
X-01338Y-00662D02*
X-01315Y-00638D01*
X-0135Y-00657D02*
X-01327Y-00633D01*
X-01264Y-00675D02*
Y-00661D01*
Y-00675D02*
X-01242Y-00697D01*
X-01276Y-00704D02*
X-01247Y-00734D01*
X-01175Y-01067D02*
X-01157D01*
X-01156Y-01066D02*
X-01078Y-00987D01*
X-01066Y-0104D02*
Y-0097D01*
X-01201Y-00835D02*
X-01066Y-0097D01*
X-01213Y-00839D02*
X-01078Y-00974D01*
X-01213Y-00839D02*
Y-00798D01*
X-01201Y-00835D02*
Y-00803D01*
X-01157Y-01067D02*
X-01156Y-01065D01*
X-01156Y-01066*
X-00104Y-00546D02*
Y-00535D01*
X-00104Y-00624D02*
Y-00545D01*
X-00104Y-00546*
X-00153Y-00445D02*
Y-00439D01*
X-0028Y-00325D02*
Y-00199D01*
X-0129Y-00602D02*
X-01279Y-00591D01*
X-01278Y-00608D02*
X-01277Y-00607D01*
X-01266Y-00641D02*
Y-00614D01*
X-00953Y-00538D02*
Y-00449D01*
X-00941Y-00543D02*
Y-00444D01*
X-01018Y-00366D02*
X-00941Y-00444D01*
X-0102Y-00366D02*
X-01018D01*
X-01002Y-004D02*
X-00953Y-00449D01*
X-01038Y-004D02*
X-01002D01*
X-0106Y-00378D02*
X-01038Y-004D01*
X-00805Y-00193D02*
X-00805Y-00194D01*
X00126Y-00414D02*
X00215D01*
X00305Y-00265D02*
Y-0019D01*
X00327Y-00281D02*
Y-00167D01*
X00299Y-00308D02*
X00327Y-00281D01*
X00137Y-00162D02*
X00141D01*
X00305Y-00145D02*
X00327Y-00167D01*
X00334Y-00333D02*
X00336Y-00332D01*
X0026Y-0031D02*
X00305Y-00265D01*
X00299Y-00308D02*
X003D01*
X00215Y-00414D02*
X00247Y-00381D01*
X0026Y-0031D02*
X00266D01*
X00242Y-00575D02*
X00272D01*
X00285Y-00562*
X0026Y-00544D02*
X00261D01*
X-01027Y-01035D02*
X-01012Y-01049D01*
X-00743Y-00215D02*
Y-0011D01*
Y-00215D02*
X-00742Y-00216D01*
X-01078Y-00987D02*
Y-00974D01*
X00766Y-0107D02*
X00786D01*
X00765Y-01069D02*
X00766Y-0107D01*
X00295Y-00585D02*
X00297Y-00587D01*
X0021Y-00607D02*
X00262Y-00659D01*
X00063Y-0003D02*
X00072Y-0002D01*
X00063Y-00172D02*
Y-0003D01*
X00072Y-0002D02*
X00098D01*
X-0028Y-00199D02*
X-00237Y-00156D01*
X-00008Y00167D02*
X-00005D01*
X00022Y0014*
X00066*
G54D70*
X-00087Y-00676D02*
X00343D01*
X00655Y-00668D02*
X00695Y-00708D01*
X00351Y-00668D02*
X00655D01*
X00343Y-00676D02*
X00351Y-00668D01*
X-00106Y-00658D02*
X-00087Y-00676D01*
X-00053Y00163D02*
X-00046D01*
X-00085Y00131D02*
X-00053Y00163D01*
X-00328Y00086D02*
Y00141D01*
X-00378Y00035D02*
X-00328Y00086D01*
X-00743Y-00343D02*
X-00328D01*
X-00722Y00069D02*
Y0022D01*
X-00695Y00248D02*
Y00373D01*
X-00722Y0022D02*
X-00695Y00248D01*
X-00148Y-00101D02*
Y00004D01*
Y00089*
Y-00101D02*
X-00116Y-00134D01*
X-00722Y00069D02*
X-00688Y00035D01*
X-00378*
X-00148Y00089D02*
X-00107Y00131D01*
X-00085*
G54D74*
X0072Y00263D02*
X0074D01*
X00707Y0025D02*
X0072Y00263D01*
X00707Y00037D02*
Y0025D01*
X-00317Y-00286D02*
Y-00236D01*
X-00347Y-00096D02*
X-00301Y-0005D01*
X-00347Y-00206D02*
Y-00096D01*
X-00303Y-0017D02*
Y-00131D01*
X-00316Y-00183D02*
X-00303Y-0017D01*
X-00347Y-00206D02*
X-00317Y-00236D01*
X-00247Y00344D02*
X-00229Y00362D01*
X-00247Y00238D02*
Y00344D01*
X-002Y-00028D02*
Y00083D01*
X-00303Y-00131D02*
X-002Y-00028D01*
X01024Y0102D02*
X01046Y01042D01*
X01024Y00411D02*
Y0102D01*
X00341Y00006D02*
X00676D01*
X00707Y00037*
X00686Y004D02*
X0072Y00366D01*
X00979*
X01024Y00411*
X0077Y00426D02*
X00792Y00448D01*
X0077Y004D02*
Y00426D01*
X0081Y004D02*
Y00418D01*
X-00869Y00998D02*
Y01006D01*
X00829Y00437D02*
X00957D01*
X0081Y00418D02*
X00829Y00437D01*
X00957D02*
X00969Y00449D01*
X0094Y0047D02*
Y01052D01*
X00998Y00437D02*
Y01052D01*
X-00027Y00098D02*
X-00009Y0008D01*
X00313Y00033D02*
Y0021D01*
Y00033D02*
X00341Y00006D01*
X00919Y01073D02*
X0094Y01052D01*
X-00087Y00098D02*
X-00027D01*
X-00009Y0007D02*
X-00006D01*
X-00009D02*
Y0008D01*
X0085Y004D02*
X00858Y00408D01*
X00969*
X00998Y00437*
X00209Y00402D02*
Y00469D01*
X-00199Y00083D02*
X-00112Y0017D01*
Y00196*
X-00106Y00058D02*
Y00079D01*
X-00087Y00098*
X00285Y00238D02*
X00313Y0021D01*
X-00112Y00196D02*
X-00069Y00238D01*
X-00003Y00202D02*
Y00237D01*
X-00069Y00238D02*
X00285D01*
X00135Y003D02*
X0031D01*
X00209Y00402D02*
X00219Y00392D01*
G54D75*
X00228Y-00669D02*
Y-00662D01*
X-00942Y-01092D02*
X-00914Y-01064D01*
X-0078Y-00932D02*
X-00752Y-00904D01*
X00105Y01126D02*
Y0115D01*
G54D78*
X00034Y01125D02*
X00148D01*
X-00001Y01089D02*
X00034Y01125D01*
X-00805Y0112D02*
Y01175D01*
X-00869Y01056D02*
X-00805Y0112D01*
X-00869Y01006D02*
Y01056D01*
X00209Y00469D02*
Y01064D01*
X00148Y01125D02*
X00209Y01064D01*
G54D79*
X-00358Y00175D02*
D01*
X-00359Y00173*
X-00361Y00171*
X-00362Y00169*
X-00363Y00167*
X-00364Y00165*
X-00365Y00163*
X-00366Y0016*
X-00367Y00158*
X-00367Y00156*
X-00367Y00153*
X-00367Y00151*
X-00368Y0015*
X-00378Y00073D02*
D01*
X-00376Y00075*
X-00375Y00077*
X-00373Y00079*
X-00372Y00081*
X-00371Y00083*
X-0037Y00086*
X-00369Y00088*
X-00368Y0009*
X-00368Y00093*
X-00368Y00095*
X-00368Y00098*
X-00368Y00099*
X-0035Y00178D02*
D01*
X-00351Y00177*
X-00352Y00177*
X-00352Y00177*
X-00353Y00177*
X-00354Y00177*
X-00354Y00177*
X-00355Y00176*
X-00356Y00176*
X-00356Y00176*
X-00357Y00175*
X-00357Y00175*
X-00358Y00175*
X-00368Y00099D02*
Y0015D01*
X-0039Y00062D02*
X-00378Y00073D01*
X-00865Y00454D02*
X-0071D01*
X-0087Y00459D02*
X-00865Y00454D01*
X-0071D02*
X-00695Y00439D01*
Y00155D02*
X-00691Y00151D01*
Y00075D02*
Y00151D01*
X-01034Y00304D02*
X-0099Y0026D01*
X-0092D02*
Y00293D01*
X-00968Y00341D02*
X-0092Y00293D01*
X-00968Y00341D02*
Y00458D01*
X-0087Y00997D02*
X-00869Y00998D01*
X-00695Y00373D02*
Y00439D01*
X00792Y00448D02*
X00823Y00479D01*
Y01*
X-01Y0032D02*
X-00955Y00275D01*
X00969Y00449D02*
Y01078D01*
X-01Y0032D02*
Y01077D01*
X-00968Y00458D02*
Y01055D01*
X-0095Y01073*
X-00284Y00456D02*
Y01032D01*
X-00691Y00075D02*
X-00678Y00062D01*
X-0039*
X-0105Y01073D02*
X-01034Y01057D01*
Y00304D02*
Y01057D01*
X01118Y00458D02*
Y01027D01*
X-0087Y00459D02*
Y00997D01*
Y01006*
X-01085Y0046D02*
Y0105D01*
X-0112Y00425D02*
X-01085Y0046D01*
X-01138Y0033D02*
X-0112Y00348D01*
Y00425*
X0025Y0041D02*
Y01063D01*
X-0035Y00178D02*
X-00333D01*
G54D90*
X00303Y00523D02*
D01*
X00303Y0052*
X00303Y00517*
X00303Y00514*
X00304Y00511*
X00305Y00509*
X00306Y00506*
X00307Y00504*
X00309Y00501*
X0031Y00499*
X00312Y00497*
X00314Y00495*
X00316Y00493*
X00318Y00491*
X0032Y00489*
X00323Y00488*
X00325Y00487*
X00328Y00485*
X0033Y00484*
X00333Y00484*
X00336Y00483*
X00338Y00483*
X00341Y00483*
X00343Y00483*
X-00433Y00089D02*
D01*
X-0043Y00089*
X-00427Y00089*
X-00424Y00089*
X-00421Y0009*
X-00419Y00091*
X-00416Y00092*
X-00414Y00093*
X-00411Y00095*
X-00409Y00096*
X-00407Y00098*
X-00405Y001*
X-00403Y00102*
X-00401Y00104*
X-00399Y00106*
X-00398Y00109*
X-00397Y00111*
X-00395Y00114*
X-00394Y00116*
X-00394Y00119*
X-00393Y00122*
X-00393Y00124*
X-00393Y00127*
X-00393Y00129*
X-00366Y00483D02*
D01*
X-00363Y00483*
X-0036Y00483*
X-00357Y00483*
X-00354Y00484*
X-00352Y00485*
X-00349Y00486*
X-00347Y00487*
X-00344Y00489*
X-00342Y0049*
X-0034Y00492*
X-00338Y00494*
X-00336Y00496*
X-00334Y00498*
X-00332Y005*
X-00331Y00503*
X-0033Y00505*
X-00328Y00508*
X-00327Y0051*
X-00327Y00513*
X-00326Y00516*
X-00326Y00518*
X-00326Y00521*
X-00326Y00523*
X0037Y00129D02*
D01*
X0037Y00126*
X0037Y00123*
X0037Y0012*
X00371Y00117*
X00372Y00115*
X00373Y00112*
X00374Y0011*
X00376Y00107*
X00377Y00105*
X00379Y00103*
X00381Y00101*
X00383Y00099*
X00385Y00097*
X00387Y00095*
X0039Y00094*
X00392Y00093*
X00395Y00091*
X00397Y0009*
X004Y0009*
X00403Y00089*
X00405Y00089*
X00408Y00089*
X0041Y00089*
X0037Y00129D02*
D01*
X0037Y00126*
X0037Y00123*
X0037Y0012*
X00371Y00117*
X00372Y00115*
X00373Y00112*
X00374Y0011*
X00376Y00107*
X00377Y00105*
X00379Y00103*
X00381Y00101*
X00383Y00099*
X00385Y00097*
X00387Y00095*
X0039Y00094*
X00392Y00093*
X00395Y00091*
X00397Y0009*
X004Y0009*
X00403Y00089*
X00405Y00089*
X00408Y00089*
X0041Y00089*
X-00366Y00483D02*
D01*
X-00363Y00483*
X-0036Y00483*
X-00357Y00483*
X-00354Y00484*
X-00352Y00485*
X-00349Y00486*
X-00347Y00487*
X-00344Y00489*
X-00342Y0049*
X-0034Y00492*
X-00338Y00494*
X-00336Y00496*
X-00334Y00498*
X-00332Y005*
X-00331Y00503*
X-0033Y00505*
X-00328Y00508*
X-00327Y0051*
X-00327Y00513*
X-00326Y00516*
X-00326Y00518*
X-00326Y00521*
X-00326Y00523*
X-00433Y00089D02*
D01*
X-0043Y00089*
X-00427Y00089*
X-00424Y00089*
X-00421Y0009*
X-00419Y00091*
X-00416Y00092*
X-00414Y00093*
X-00411Y00095*
X-00409Y00096*
X-00407Y00098*
X-00405Y001*
X-00403Y00102*
X-00401Y00104*
X-00399Y00106*
X-00398Y00109*
X-00397Y00111*
X-00395Y00114*
X-00394Y00116*
X-00394Y00119*
X-00393Y00122*
X-00393Y00124*
X-00393Y00127*
X-00393Y00129*
X00303Y00523D02*
D01*
X00303Y0052*
X00303Y00517*
X00303Y00514*
X00304Y00511*
X00305Y00509*
X00306Y00506*
X00307Y00504*
X00309Y00501*
X0031Y00499*
X00312Y00497*
X00314Y00495*
X00316Y00493*
X00318Y00491*
X0032Y00489*
X00323Y00488*
X00325Y00487*
X00328Y00485*
X0033Y00484*
X00333Y00484*
X00336Y00483*
X00338Y00483*
X00341Y00483*
X00343Y00483*
X00633Y-01105D02*
D01*
X00641Y-01123*
X0065Y-01142*
X0066Y-01159*
X00672Y-01176*
X00672Y-01177*
X00679Y-01186D02*
D01*
X00686Y-01194*
X00694Y-01202*
X00702Y-0121*
X00711Y-01217*
X0072Y-01223*
X0073Y-01229*
X0074Y-01234*
X0075Y-01238*
X00761Y-01242*
X00771Y-01245*
X00782Y-01247*
X00793Y-01248*
X00805Y-01248*
X00806Y-01248*
X01248Y-01247D02*
D01*
X01261Y-01245*
X01274Y-01242*
X01286Y-01238*
X01299Y-01233*
X01311Y-01228*
X01322Y-01221*
X01333Y-01214*
X01344Y-01206*
X01354Y-01197*
X0136Y-01191*
X01419Y-0112D02*
D01*
X01424Y-01112*
X01429Y-01103*
X01433Y-01093*
X01436Y-01083*
X01439Y-01074*
X01441Y-01063*
X01442Y-01053*
X01442Y-01043*
X01443Y-0104*
X-00829Y-01249D02*
D01*
X-00818Y-01248*
X-00807Y-01247*
X-00796Y-01245*
X-00785Y-01242*
X-00774Y-01239*
X-00764Y-01235*
X-00754Y-0123*
X-00744Y-01224*
X-00735Y-01218*
X-00726Y-01211*
X-00718Y-01204*
X-0071Y-01196*
X-00703Y-01187*
X-00702Y-01186*
X-01383Y-01191D02*
D01*
X-01373Y-012*
X-01363Y-01209*
X-01352Y-01217*
X-01341Y-01224*
X-01329Y-0123*
X-01317Y-01235*
X-01304Y-0124*
X-01292Y-01243*
X-01279Y-01246*
X-01271Y-01247*
X-01466Y-0104D02*
D01*
X-01465Y-0105*
X-01464Y-01061*
X-01462Y-01071*
X-0146Y-01081*
X-01457Y-0109*
X-01453Y-011*
X-01448Y-01109*
X-01443Y-01118*
X-01442Y-0112*
X01443Y00429D02*
D01*
X01442Y00435*
X01442Y00442*
X0144Y00448*
X01439Y00454*
X01437Y00461*
X01434Y00467*
X01431Y00473*
X01428Y00478*
X01425Y00484*
X01421Y00489*
X01416Y00494*
X01411Y00498*
X01406Y00503*
X01401Y00506*
X01396Y0051*
X0139Y00513*
X01384Y00516*
X01378Y00518*
X01371Y0052*
X01365Y00521*
X01358Y00522*
X01352Y00522*
X01349Y00523*
X00756Y00483D02*
D01*
X00758Y00483*
X00761Y00483*
X00764Y00483*
X00767Y00484*
X00769Y00485*
X00772Y00486*
X00774Y00487*
X00777Y00489*
X00779Y0049*
X00781Y00492*
X00783Y00494*
X00785Y00496*
X00787Y00498*
X00789Y005*
X0079Y00503*
X00791Y00505*
X00793Y00508*
X00794Y0051*
X00794Y00513*
X00795Y00516*
X00795Y00518*
X00795Y00521*
X00796Y00523*
X0115D02*
D01*
X0115Y0052*
X0115Y00517*
X0115Y00514*
X01151Y00511*
X01152Y00509*
X01153Y00506*
X01154Y00504*
X01156Y00501*
X01157Y00499*
X01159Y00497*
X01161Y00495*
X01163Y00493*
X01165Y00491*
X01167Y00489*
X0117Y00488*
X01172Y00487*
X01175Y00485*
X01177Y00484*
X0118Y00484*
X01183Y00483*
X01185Y00483*
X01188Y00483*
X01191*
X01194Y00483*
X01196Y00483*
X01199Y00484*
X01202Y00484*
X01204Y00485*
X01207Y00487*
X0121Y00488*
X01212Y00489*
X01214Y00491*
X01216Y00493*
X01218Y00495*
X0122Y00497*
X01222Y00499*
X01223Y00501*
X01225Y00504*
X01226Y00506*
X01227Y00509*
X01228Y00511*
X01229Y00514*
X01229Y00517*
X01229Y0052*
X0123Y00523*
X-01253D02*
D01*
X-01252Y0052*
X-01252Y00517*
X-01252Y00514*
X-01251Y00511*
X-0125Y00509*
X-01249Y00506*
X-01248Y00504*
X-01246Y00501*
X-01245Y00499*
X-01243Y00497*
X-01241Y00495*
X-01239Y00493*
X-01237Y00491*
X-01235Y00489*
X-01233Y00488*
X-0123Y00487*
X-01227Y00485*
X-01225Y00484*
X-01222Y00484*
X-01219Y00483*
X-01217Y00483*
X-01214Y00483*
X-01211*
X-01208Y00483*
X-01206Y00483*
X-01203Y00484*
X-012Y00484*
X-01198Y00485*
X-01195Y00487*
X-01192Y00488*
X-0119Y00489*
X-01188Y00491*
X-01186Y00493*
X-01184Y00495*
X-01182Y00497*
X-0118Y00499*
X-01179Y00501*
X-01177Y00504*
X-01176Y00506*
X-01175Y00509*
X-01174Y00511*
X-01173Y00514*
X-01173Y00517*
X-01173Y0052*
X-01173Y00523*
X-01372D02*
D01*
X-01378Y00522*
X-01385Y00522*
X-01391Y0052*
X-01397Y00519*
X-01404Y00517*
X-0141Y00514*
X-01416Y00511*
X-01421Y00508*
X-01427Y00505*
X-01432Y00501*
X-01437Y00496*
X-01441Y00491*
X-01446Y00486*
X-01449Y00481*
X-01453Y00475*
X-01456Y0047*
X-01459Y00464*
X-01461Y00458*
X-01463Y00451*
X-01464Y00445*
X-01465Y00438*
X-01465Y00432*
X-01466Y00429*
X-00819Y00522D02*
D01*
X-00818Y00519*
X-00818Y00516*
X-00818Y00514*
X-00817Y00511*
X-00816Y00508*
X-00815Y00506*
X-00814Y00503*
X-00813Y00501*
X-00811Y00499*
X-00809Y00497*
X-00807Y00494*
X-00806Y00493*
X-00803Y00491*
X-00801Y00489*
X-00799Y00488*
X-00796Y00486*
X-00794Y00485*
X-00791Y00484*
X-00789Y00484*
X-00786Y00483*
X-00783Y00483*
X-00781Y00483*
X-00779Y00483*
X-00669Y00129D02*
D01*
X-00668Y00126*
X-00668Y00123*
X-00668Y0012*
X-00667Y00117*
X-00666Y00115*
X-00665Y00112*
X-00664Y0011*
X-00662Y00107*
X-00661Y00105*
X-00659Y00103*
X-00657Y00101*
X-00655Y00099*
X-00653Y00097*
X-00651Y00095*
X-00648Y00094*
X-00646Y00093*
X-00643Y00091*
X-00641Y0009*
X-00638Y0009*
X-00635Y00089*
X-00633Y00089*
X-0063Y00089*
X-00629Y00089*
X00606D02*
D01*
X00609Y00089*
X00612Y00089*
X00614Y00089*
X00617Y0009*
X0062Y00091*
X00622Y00092*
X00625Y00093*
X00627Y00094*
X00629Y00096*
X00631Y00098*
X00634Y001*
X00635Y00101*
X00637Y00104*
X00639Y00106*
X0064Y00108*
X00642Y00111*
X00643Y00113*
X00644Y00116*
X00644Y00118*
X00645Y00121*
X00645Y00124*
X00645Y00126*
X00646Y00128*
X00606Y00089D02*
D01*
X00609Y00089*
X00612Y00089*
X00614Y00089*
X00617Y0009*
X0062Y00091*
X00622Y00092*
X00625Y00093*
X00627Y00094*
X00629Y00096*
X00631Y00098*
X00634Y001*
X00635Y00101*
X00637Y00104*
X00639Y00106*
X0064Y00108*
X00642Y00111*
X00643Y00113*
X00644Y00116*
X00644Y00118*
X00645Y00121*
X00645Y00124*
X00645Y00126*
X00646Y00128*
X-00669Y00129D02*
D01*
X-00668Y00126*
X-00668Y00123*
X-00668Y0012*
X-00667Y00117*
X-00666Y00115*
X-00665Y00112*
X-00664Y0011*
X-00662Y00107*
X-00661Y00105*
X-00659Y00103*
X-00657Y00101*
X-00655Y00099*
X-00653Y00097*
X-00651Y00095*
X-00648Y00094*
X-00646Y00093*
X-00643Y00091*
X-00641Y0009*
X-00638Y0009*
X-00635Y00089*
X-00633Y00089*
X-0063Y00089*
X-00629Y00089*
X-00819Y00522D02*
D01*
X-00818Y00519*
X-00818Y00516*
X-00818Y00514*
X-00817Y00511*
X-00816Y00508*
X-00815Y00506*
X-00814Y00503*
X-00813Y00501*
X-00811Y00499*
X-00809Y00497*
X-00807Y00494*
X-00806Y00493*
X-00803Y00491*
X-00801Y00489*
X-00799Y00488*
X-00796Y00486*
X-00794Y00485*
X-00791Y00484*
X-00789Y00484*
X-00786Y00483*
X-00783Y00483*
X-00781Y00483*
X-00779Y00483*
X-01372Y00523D02*
D01*
X-01378Y00522*
X-01385Y00522*
X-01391Y0052*
X-01397Y00519*
X-01404Y00517*
X-0141Y00514*
X-01416Y00511*
X-01421Y00508*
X-01427Y00505*
X-01432Y00501*
X-01437Y00496*
X-01441Y00491*
X-01446Y00486*
X-01449Y00481*
X-01453Y00475*
X-01456Y0047*
X-01459Y00464*
X-01461Y00458*
X-01463Y00451*
X-01464Y00445*
X-01465Y00438*
X-01465Y00432*
X-01466Y00429*
X-01253Y00523D02*
D01*
X-01252Y0052*
X-01252Y00517*
X-01252Y00514*
X-01251Y00511*
X-0125Y00509*
X-01249Y00506*
X-01248Y00504*
X-01246Y00501*
X-01245Y00499*
X-01243Y00497*
X-01241Y00495*
X-01239Y00493*
X-01237Y00491*
X-01235Y00489*
X-01233Y00488*
X-0123Y00487*
X-01227Y00485*
X-01225Y00484*
X-01222Y00484*
X-01219Y00483*
X-01217Y00483*
X-01214Y00483*
X-01211*
X-01208Y00483*
X-01206Y00483*
X-01203Y00484*
X-012Y00484*
X-01198Y00485*
X-01195Y00487*
X-01192Y00488*
X-0119Y00489*
X-01188Y00491*
X-01186Y00493*
X-01184Y00495*
X-01182Y00497*
X-0118Y00499*
X-01179Y00501*
X-01177Y00504*
X-01176Y00506*
X-01175Y00509*
X-01174Y00511*
X-01173Y00514*
X-01173Y00517*
X-01173Y0052*
X-01173Y00523*
X0115D02*
D01*
X0115Y0052*
X0115Y00517*
X0115Y00514*
X01151Y00511*
X01152Y00509*
X01153Y00506*
X01154Y00504*
X01156Y00501*
X01157Y00499*
X01159Y00497*
X01161Y00495*
X01163Y00493*
X01165Y00491*
X01167Y00489*
X0117Y00488*
X01172Y00487*
X01175Y00485*
X01177Y00484*
X0118Y00484*
X01183Y00483*
X01185Y00483*
X01188Y00483*
X01191*
X01194Y00483*
X01196Y00483*
X01199Y00484*
X01202Y00484*
X01204Y00485*
X01207Y00487*
X0121Y00488*
X01212Y00489*
X01214Y00491*
X01216Y00493*
X01218Y00495*
X0122Y00497*
X01222Y00499*
X01223Y00501*
X01225Y00504*
X01226Y00506*
X01227Y00509*
X01228Y00511*
X01229Y00514*
X01229Y00517*
X01229Y0052*
X0123Y00523*
X00756Y00483D02*
D01*
X00758Y00483*
X00761Y00483*
X00764Y00483*
X00767Y00484*
X00769Y00485*
X00772Y00486*
X00774Y00487*
X00777Y00489*
X00779Y0049*
X00781Y00492*
X00783Y00494*
X00785Y00496*
X00787Y00498*
X00789Y005*
X0079Y00503*
X00791Y00505*
X00793Y00508*
X00794Y0051*
X00794Y00513*
X00795Y00516*
X00795Y00518*
X00795Y00521*
X00796Y00523*
X01443Y00429D02*
D01*
X01442Y00435*
X01442Y00442*
X0144Y00448*
X01439Y00454*
X01437Y00461*
X01434Y00467*
X01431Y00473*
X01428Y00478*
X01425Y00484*
X01421Y00489*
X01416Y00494*
X01411Y00498*
X01406Y00503*
X01401Y00506*
X01396Y0051*
X0139Y00513*
X01384Y00516*
X01378Y00518*
X01371Y0052*
X01365Y00521*
X01358Y00522*
X01352Y00522*
X01349Y00523*
X-01466Y-0104D02*
D01*
X-01465Y-0105*
X-01464Y-01061*
X-01462Y-01071*
X-0146Y-01081*
X-01457Y-0109*
X-01453Y-011*
X-01448Y-01109*
X-01443Y-01118*
X-01442Y-0112*
X-01383Y-01191D02*
D01*
X-01373Y-012*
X-01363Y-01209*
X-01352Y-01217*
X-01341Y-01224*
X-01329Y-0123*
X-01317Y-01235*
X-01304Y-0124*
X-01292Y-01243*
X-01279Y-01246*
X-01271Y-01247*
X-00829Y-01249D02*
D01*
X-00818Y-01248*
X-00807Y-01247*
X-00796Y-01245*
X-00785Y-01242*
X-00774Y-01239*
X-00764Y-01235*
X-00754Y-0123*
X-00744Y-01224*
X-00735Y-01218*
X-00726Y-01211*
X-00718Y-01204*
X-0071Y-01196*
X-00703Y-01187*
X-00702Y-01186*
X01419Y-0112D02*
D01*
X01424Y-01112*
X01429Y-01103*
X01433Y-01093*
X01436Y-01083*
X01439Y-01074*
X01441Y-01063*
X01442Y-01053*
X01442Y-01043*
X01443Y-0104*
X01248Y-01247D02*
D01*
X01261Y-01245*
X01274Y-01242*
X01286Y-01238*
X01299Y-01233*
X01311Y-01228*
X01322Y-01221*
X01333Y-01214*
X01344Y-01206*
X01354Y-01197*
X0136Y-01191*
X00679Y-01186D02*
D01*
X00686Y-01194*
X00694Y-01202*
X00702Y-0121*
X00711Y-01217*
X0072Y-01223*
X0073Y-01229*
X0074Y-01234*
X0075Y-01238*
X00761Y-01242*
X00771Y-01245*
X00782Y-01247*
X00793Y-01248*
X00805Y-01248*
X00806Y-01248*
X00633Y-01105D02*
D01*
X00641Y-01123*
X0065Y-01142*
X0066Y-01159*
X00672Y-01176*
X00672Y-01177*
X00303Y00523D02*
D01*
X00303Y0052*
X00303Y00517*
X00303Y00514*
X00304Y00511*
X00305Y00509*
X00306Y00506*
X00307Y00504*
X00309Y00501*
X0031Y00499*
X00312Y00497*
X00314Y00495*
X00316Y00493*
X00318Y00491*
X0032Y00489*
X00323Y00488*
X00325Y00487*
X00328Y00485*
X0033Y00484*
X00333Y00484*
X00336Y00483*
X00338Y00483*
X00341Y00483*
X00343Y00483*
X-00433Y00089D02*
D01*
X-0043Y00089*
X-00427Y00089*
X-00424Y00089*
X-00421Y0009*
X-00419Y00091*
X-00416Y00092*
X-00414Y00093*
X-00411Y00095*
X-00409Y00096*
X-00407Y00098*
X-00405Y001*
X-00403Y00102*
X-00401Y00104*
X-00399Y00106*
X-00398Y00109*
X-00397Y00111*
X-00395Y00114*
X-00394Y00116*
X-00394Y00119*
X-00393Y00122*
X-00393Y00124*
X-00393Y00127*
X-00393Y00129*
X-00366Y00483D02*
D01*
X-00363Y00483*
X-0036Y00483*
X-00357Y00483*
X-00354Y00484*
X-00352Y00485*
X-00349Y00486*
X-00347Y00487*
X-00344Y00489*
X-00342Y0049*
X-0034Y00492*
X-00338Y00494*
X-00336Y00496*
X-00334Y00498*
X-00332Y005*
X-00331Y00503*
X-0033Y00505*
X-00328Y00508*
X-00327Y0051*
X-00327Y00513*
X-00326Y00516*
X-00326Y00518*
X-00326Y00521*
X-00326Y00523*
X0037Y00129D02*
D01*
X0037Y00126*
X0037Y00123*
X0037Y0012*
X00371Y00117*
X00372Y00115*
X00373Y00112*
X00374Y0011*
X00376Y00107*
X00377Y00105*
X00379Y00103*
X00381Y00101*
X00383Y00099*
X00385Y00097*
X00387Y00095*
X0039Y00094*
X00392Y00093*
X00395Y00091*
X00397Y0009*
X004Y0009*
X00403Y00089*
X00405Y00089*
X00408Y00089*
X0041Y00089*
X0037Y00129D02*
D01*
X0037Y00126*
X0037Y00123*
X0037Y0012*
X00371Y00117*
X00372Y00115*
X00373Y00112*
X00374Y0011*
X00376Y00107*
X00377Y00105*
X00379Y00103*
X00381Y00101*
X00383Y00099*
X00385Y00097*
X00387Y00095*
X0039Y00094*
X00392Y00093*
X00395Y00091*
X00397Y0009*
X004Y0009*
X00403Y00089*
X00405Y00089*
X00408Y00089*
X0041Y00089*
X-00366Y00483D02*
D01*
X-00363Y00483*
X-0036Y00483*
X-00357Y00483*
X-00354Y00484*
X-00352Y00485*
X-00349Y00486*
X-00347Y00487*
X-00344Y00489*
X-00342Y0049*
X-0034Y00492*
X-00338Y00494*
X-00336Y00496*
X-00334Y00498*
X-00332Y005*
X-00331Y00503*
X-0033Y00505*
X-00328Y00508*
X-00327Y0051*
X-00327Y00513*
X-00326Y00516*
X-00326Y00518*
X-00326Y00521*
X-00326Y00523*
X-00433Y00089D02*
D01*
X-0043Y00089*
X-00427Y00089*
X-00424Y00089*
X-00421Y0009*
X-00419Y00091*
X-00416Y00092*
X-00414Y00093*
X-00411Y00095*
X-00409Y00096*
X-00407Y00098*
X-00405Y001*
X-00403Y00102*
X-00401Y00104*
X-00399Y00106*
X-00398Y00109*
X-00397Y00111*
X-00395Y00114*
X-00394Y00116*
X-00394Y00119*
X-00393Y00122*
X-00393Y00124*
X-00393Y00127*
X-00393Y00129*
X00303Y00523D02*
D01*
X00303Y0052*
X00303Y00517*
X00303Y00514*
X00304Y00511*
X00305Y00509*
X00306Y00506*
X00307Y00504*
X00309Y00501*
X0031Y00499*
X00312Y00497*
X00314Y00495*
X00316Y00493*
X00318Y00491*
X0032Y00489*
X00323Y00488*
X00325Y00487*
X00328Y00485*
X0033Y00484*
X00333Y00484*
X00336Y00483*
X00338Y00483*
X00341Y00483*
X00343Y00483*
X0119Y00995D02*
D01*
X01187Y00994*
X01184Y00994*
X01181Y00994*
X01178Y00993*
X01176Y00992*
X01173Y00991*
X01171Y0099*
X01168Y00988*
X01166Y00987*
X01164Y00985*
X01162Y00983*
X0116Y00981*
X01158Y00979*
X01156Y00977*
X01155Y00975*
X01154Y00972*
X01152Y00969*
X01151Y00967*
X01151Y00964*
X0115Y00961*
X0115Y00959*
X0115Y00956*
X0115Y00955*
X00796D02*
D01*
X00795Y00957*
X00795Y0096*
X00795Y00963*
X00794Y00966*
X00793Y00968*
X00792Y00971*
X00791Y00973*
X00789Y00976*
X00788Y00978*
X00786Y0098*
X00784Y00982*
X00782Y00984*
X0078Y00986*
X00778Y00988*
X00776Y00989*
X00773Y0099*
X0077Y00992*
X00768Y00993*
X00765Y00993*
X00762Y00994*
X0076Y00994*
X00757Y00994*
X00756Y00995*
X-00779D02*
D01*
X-00781Y00994*
X-00784Y00994*
X-00787Y00994*
X-0079Y00993*
X-00792Y00992*
X-00795Y00991*
X-00797Y0099*
X-008Y00988*
X-00802Y00987*
X-00804Y00985*
X-00806Y00983*
X-00808Y00981*
X-0081Y00979*
X-00812Y00977*
X-00813Y00975*
X-00814Y00972*
X-00816Y00969*
X-00817Y00967*
X-00817Y00964*
X-00818Y00961*
X-00818Y00959*
X-00818Y00956*
X-00819Y00955*
X-01173D02*
D01*
X-01173Y00957*
X-01173Y0096*
X-01173Y00963*
X-01174Y00966*
X-01175Y00968*
X-01176Y00971*
X-01177Y00973*
X-01179Y00976*
X-0118Y00978*
X-01182Y0098*
X-01184Y00982*
X-01186Y00984*
X-01188Y00986*
X-0119Y00988*
X-01193Y00989*
X-01195Y0099*
X-01198Y00992*
X-012Y00993*
X-01203Y00993*
X-01206Y00994*
X-01208Y00994*
X-01211Y00994*
X-01213Y00995*
X-01173Y00955D02*
D01*
X-01173Y00957*
X-01173Y0096*
X-01173Y00963*
X-01174Y00966*
X-01175Y00968*
X-01176Y00971*
X-01177Y00973*
X-01179Y00976*
X-0118Y00978*
X-01182Y0098*
X-01184Y00982*
X-01186Y00984*
X-01188Y00986*
X-0119Y00988*
X-01193Y00989*
X-01195Y0099*
X-01198Y00992*
X-012Y00993*
X-01203Y00993*
X-01206Y00994*
X-01208Y00994*
X-01211Y00994*
X-01213Y00995*
X-00779D02*
D01*
X-00781Y00994*
X-00784Y00994*
X-00787Y00994*
X-0079Y00993*
X-00792Y00992*
X-00795Y00991*
X-00797Y0099*
X-008Y00988*
X-00802Y00987*
X-00804Y00985*
X-00806Y00983*
X-00808Y00981*
X-0081Y00979*
X-00812Y00977*
X-00813Y00975*
X-00814Y00972*
X-00816Y00969*
X-00817Y00967*
X-00817Y00964*
X-00818Y00961*
X-00818Y00959*
X-00818Y00956*
X-00819Y00955*
X00796D02*
D01*
X00795Y00957*
X00795Y0096*
X00795Y00963*
X00794Y00966*
X00793Y00968*
X00792Y00971*
X00791Y00973*
X00789Y00976*
X00788Y00978*
X00786Y0098*
X00784Y00982*
X00782Y00984*
X0078Y00986*
X00778Y00988*
X00776Y00989*
X00773Y0099*
X0077Y00992*
X00768Y00993*
X00765Y00993*
X00762Y00994*
X0076Y00994*
X00757Y00994*
X00756Y00995*
X0119D02*
D01*
X01187Y00994*
X01184Y00994*
X01181Y00994*
X01178Y00993*
X01176Y00992*
X01173Y00991*
X01171Y0099*
X01168Y00988*
X01166Y00987*
X01164Y00985*
X01162Y00983*
X0116Y00981*
X01158Y00979*
X01156Y00977*
X01155Y00975*
X01154Y00972*
X01152Y00969*
X01151Y00967*
X01151Y00964*
X0115Y00961*
X0115Y00959*
X0115Y00956*
X0115Y00955*
X-00702Y-01186D02*
D01*
X-00688Y-01164*
X-00674Y-01142*
X-00663Y-01118*
X-00653Y-01094*
X-00652Y-01093*
X-00393Y-00707D02*
X0037D01*
X-00393Y00483D02*
X0037D01*
X00343D02*
X0037D01*
X-00393Y-00707D02*
Y00483D01*
X0037Y-00707D02*
Y00483D01*
X00343D02*
X0037D01*
X-00393D02*
X0037D01*
X00672Y-01177D02*
X00679Y-01186D01*
X00806Y-01249D02*
X01238D01*
X01248Y-01247*
X01396Y-01154D02*
X01396Y-01154D01*
X01419Y-0112*
X01359Y-01192D02*
X01396Y-01154D01*
X-00326Y00523D02*
Y01068D01*
X-00819Y00522D02*
Y00955D01*
X-01173Y00523D02*
Y00955D01*
X-00702Y-01186D02*
D01*
X-01261Y-01249D02*
X-00829D01*
X-01271Y-01247D02*
X-01261Y-01249D01*
X-01419Y-01154D02*
X-01419Y-01154D01*
X-01442Y-0112D02*
X-01419Y-01154D01*
X-01419Y-01154D02*
X-01382Y-01192D01*
X01443Y-0104D02*
Y00429D01*
X0115Y00523D02*
Y00955D01*
X01288Y00995D02*
Y01387D01*
X00658D02*
X01288D01*
X00658Y00995D02*
Y01387D01*
X00796Y00523D02*
Y00955D01*
X-00681Y00995D02*
Y0119D01*
X00303Y00523D02*
Y01387D01*
X-01311D02*
X-00681D01*
X-01311Y00995D02*
Y0119D01*
X-01372Y00523D02*
X-01253D01*
X-01466Y-0104D02*
Y00429D01*
X-00779Y00483D02*
X-00669D01*
X0123Y00523D02*
X01349D01*
X0123Y00511D02*
Y00523D01*
X-00669Y-01133D02*
Y00483D01*
X00646Y-00747D02*
Y00483D01*
X0041Y00089D02*
X00606D01*
X-00629D02*
X-00429D01*
X00646Y00483D02*
X00756D01*
X-00326Y01387D02*
X00303D01*
X-00326Y01068D02*
Y01387D01*
X01288Y00995D02*
Y01387D01*
X00658D02*
X01288D01*
X00658Y00995D02*
Y01387D01*
Y00995D02*
Y01387D01*
X01288*
Y00995D02*
Y01387D01*
X-00326Y01387D02*
X00303D01*
X00646Y00483D02*
X00756D01*
X-00629Y00089D02*
X-00429D01*
X0041D02*
X00606D01*
X00646Y-00747D02*
Y00483D01*
X-00669Y-01133D02*
Y00483D01*
X0123Y00511D02*
Y00523D01*
X01349*
X-00779Y00483D02*
X-00669D01*
X-01466Y-0104D02*
Y00429D01*
X-01372Y00523D02*
X-01253D01*
X-01311Y00995D02*
Y01387D01*
X00303Y00523D02*
Y01387D01*
X-00681Y00995D02*
Y01387D01*
X00796Y00523D02*
Y00955D01*
X00658Y00995D02*
Y01387D01*
X01288*
Y00995D02*
Y01387D01*
X0115Y00523D02*
Y00955D01*
X01443Y-0104D02*
Y00429D01*
X-01419Y-01154D02*
X-01382Y-01192D01*
X-01442Y-0112D02*
X-01419Y-01154D01*
X-01419Y-01154*
X-01271Y-01247D02*
X-01261Y-01249D01*
X-00829*
X-00702Y-01186D02*
X-00695Y-01177D01*
X-01173Y00523D02*
Y00955D01*
X-00819Y00522D02*
Y00955D01*
X-00326Y00523D02*
Y01068D01*
X01359Y-01192D02*
X01396Y-01154D01*
X01396Y-01154D02*
X01419Y-0112D01*
X01396Y-01154D02*
X01396Y-01154D01*
X01238Y-01249D02*
X01248Y-01247D01*
X00806Y-01249D02*
X01238D01*
X00672Y-01177D02*
X00679Y-01186D01*
X-00393Y00483D02*
X0037D01*
X00343D02*
X0037D01*
Y-00707D02*
Y00483D01*
X-00393Y-00707D02*
Y00483D01*
X00343D02*
X0037D01*
X-00393D02*
X0037D01*
X-00393Y-00707D02*
X0037D01*
X-00779Y00995D02*
X-00681D01*
X-01311D02*
X-01213D01*
X0119D02*
X01288D01*
Y01006D02*
Y01387D01*
X00658Y00995D02*
Y01387D01*
X00658Y00995D02*
X00756D01*
X-00681D02*
Y01387D01*
X-01311Y00995D02*
Y01387D01*
Y00995D02*
X01288D01*
X-01311Y01387D02*
X01288D01*
X0119Y00995D02*
X01288D01*
X00658D02*
X00756D01*
X01288D02*
Y01387D01*
X00658Y01006D02*
Y01387D01*
Y01006D02*
Y01387D01*
X01288Y01006D02*
Y01387D01*
X00658Y00995D02*
X00756D01*
X0119D02*
X01288D01*
X-01311Y01006D02*
Y01387D01*
X-00681Y01006D02*
Y01387D01*
X00658Y00995D02*
X00756D01*
X00658Y01006D02*
Y01387D01*
X01288Y01006D02*
Y01387D01*
X0119Y00995D02*
X01288D01*
X-01311D02*
X-01213D01*
X-00779D02*
X-00681D01*
G54D91*
X-00629Y-00707D02*
D01*
X-00631Y-00707*
X-00634Y-00707*
X-00637Y-00708*
X-0064Y-00708*
X-00642Y-00709*
X-00645Y-0071*
X-00647Y-00711*
X-0065Y-00713*
X-00652Y-00714*
X-00654Y-00716*
X-00656Y-00718*
X-00658Y-0072*
X-0066Y-00722*
X-00662Y-00724*
X-00663Y-00727*
X-00664Y-00729*
X-00666Y-00732*
X-00667Y-00734*
X-00667Y-00737*
X-00668Y-0074*
X-00668Y-00743*
X-00668Y-00745*
X-00669Y-00747*
X00646Y-00747D02*
D01*
X00645Y-00744*
X00645Y-00741*
X00645Y-00738*
X00644Y-00735*
X00643Y-00733*
X00642Y-0073*
X00641Y-00728*
X00639Y-00725*
X00638Y-00723*
X00636Y-00721*
X00634Y-00719*
X00632Y-00717*
X0063Y-00715*
X00628Y-00713*
X00626Y-00712*
X00623Y-00711*
X0062Y-00709*
X00618Y-00708*
X00615Y-00708*
X00612Y-00707*
X0061Y-00707*
X00607Y-00707*
X00606Y-00707*
X00646Y-00747D02*
D01*
X00645Y-00744*
X00645Y-00741*
X00645Y-00738*
X00644Y-00735*
X00643Y-00733*
X00642Y-0073*
X00641Y-00728*
X00639Y-00725*
X00638Y-00723*
X00636Y-00721*
X00634Y-00719*
X00632Y-00717*
X0063Y-00715*
X00628Y-00713*
X00626Y-00712*
X00623Y-00711*
X0062Y-00709*
X00618Y-00708*
X00615Y-00708*
X00612Y-00707*
X0061Y-00707*
X00607Y-00707*
X00606Y-00707*
X-00629Y-00707D02*
D01*
X-00631Y-00707*
X-00634Y-00707*
X-00637Y-00708*
X-0064Y-00708*
X-00642Y-00709*
X-00645Y-0071*
X-00647Y-00711*
X-0065Y-00713*
X-00652Y-00714*
X-00654Y-00716*
X-00656Y-00718*
X-00658Y-0072*
X-0066Y-00722*
X-00662Y-00724*
X-00663Y-00727*
X-00664Y-00729*
X-00666Y-00732*
X-00667Y-00734*
X-00667Y-00737*
X-00668Y-0074*
X-00668Y-00743*
X-00668Y-00745*
X-00669Y-00747*
X00646Y-01133D02*
Y-00747D01*
X-0063Y-00707D02*
X-00393D01*
X0037D02*
X00607D01*
X0037D02*
X00607D01*
X-0063D02*
X-00393D01*
X00646Y-01133D02*
Y-00747D01*
G54D94*
X01223Y-00713D03*
Y-00821D03*
X01111Y-00376D03*
X0141Y-00388D03*
X01272Y-00532D03*
X01263Y-00434D03*
X-00318Y-00286D03*
X003Y-00376D03*
X-01371Y-00397D03*
X-01332Y-00425D03*
X-01147Y-01089D03*
X-01397Y-00609D03*
X-00046Y00163D03*
X-00127Y-00352D03*
X-00294Y-00049D03*
X-00196Y-00328D03*
X-00316Y-00183D03*
X-00247Y00238D03*
X-00201Y00161D03*
X-00226Y00362D03*
X-00333Y00178D03*
X-0033Y00141D03*
X-01108Y-00599D03*
Y-00496D03*
X-0106Y-00479D03*
X-01207Y-00467D03*
Y-00531D03*
X-01175Y-00553D03*
X-01241Y-00666D03*
X-01171Y-00448D03*
X-01242Y-007D03*
X-01239Y-00632D03*
X-0119Y-00596D03*
X-01054Y-01103D03*
X-01196Y-01148D03*
X-01175Y-01067D03*
X-01029Y-01079D03*
X-01224Y-01D03*
X-01006Y-01056D03*
X01177Y-01179D03*
X-0018Y-00508D03*
X01284Y-01144D03*
Y-01208D03*
X-00153Y-00445D03*
X-00205D03*
X-00244Y-00326D03*
X-0028Y-00325D03*
X-00029Y00017D03*
X-00104Y-00624D03*
X00155Y-00613D03*
X-00106Y-00658D03*
X0027Y-00612D03*
X-01386Y-00464D03*
X01197Y-00397D03*
X-00741Y-00669D03*
X-01149Y00022D03*
X-0123Y-0019D03*
X-0118Y-0013D03*
X-0128D03*
X01002Y-0095D03*
X00962Y-01072D03*
X01023Y-00565D03*
X00804Y-00251D03*
X00805Y-0085D03*
X00782Y-00457D03*
X00798Y-00496D03*
X01129Y-00265D03*
X00827Y-00336D03*
X00849Y00044D03*
X00977Y-00162D03*
X01069Y-00166D03*
X-01053Y-00429D03*
X-00695Y00155D03*
X-00743Y-00343D03*
X00686Y004D03*
X00745Y00266D03*
X-00743Y-00408D03*
X-00736Y-00831D03*
X00861Y-00648D03*
X00864Y-00697D03*
X00846Y-01132D03*
X-00869Y-00651D03*
X-00905Y-0065D03*
X-0102Y-00366D03*
X-0106Y-00378D03*
X-01089Y00008D03*
X-0123Y00238D03*
X-01192D03*
X-00743Y-0011D03*
X-00776Y-00443D03*
X-00743Y-0046D03*
X-00767Y-00162D03*
X-00805Y-00161D03*
X-00825Y-00039D03*
X-00983Y-00488D03*
X-00777Y-0051D03*
X-00743Y-00496D03*
X0081Y004D03*
X0069Y-01002D03*
X01066Y00006D03*
X00975Y-0068D03*
X00848Y-00144D03*
X01253Y-00057D03*
X00957Y-00096D03*
X00985Y00007D03*
X-0099Y-00065D03*
X011Y-0095D03*
X00935Y-0105D03*
X0115Y-0095D03*
X012D03*
X0125D03*
X013D03*
X0135D03*
X014D03*
X009Y-0085D03*
X0085D03*
X009Y-009D03*
Y-0095D03*
X-01432Y-00358D03*
X-01276Y-00292D03*
X-01237D03*
X-01065Y-00186D03*
X-0123Y-0013D03*
X-0128Y-0019D03*
X-0118D03*
X-0123Y-0007D03*
X-0118D03*
X-0128D03*
X-01065Y-00149D03*
Y-00223D03*
Y-00112D03*
X-01118Y-00019D03*
X0095Y-0095D03*
X01091Y-01051D03*
X0105Y-0095D03*
X-00695Y00373D03*
X00718Y-00283D03*
X-00742Y-00216D03*
X00777Y-00045D03*
X0084Y-00045D03*
X0077Y004D03*
X-0092Y0026D03*
X0085Y004D03*
X-0099Y0026D03*
X-00955Y00275D03*
X-0105Y01073D03*
X-0095D03*
X-00781Y-00932D03*
X-00835Y-00651D03*
X-0104Y-0091D03*
X-01035Y-01186D03*
X-00752Y-00904D03*
X-00809Y-0096D03*
X-00942Y-01092D03*
X-00914Y-01064D03*
X-0105Y-0073D03*
X-0143Y-00693D03*
X-01014Y-00879D03*
X-0096Y-00822D03*
X-00984Y-00849D03*
X-01138Y-00818D03*
X-01Y01078D03*
X-00001Y01089D03*
X01133Y-00792D03*
X01303Y-00159D03*
X01265D03*
X-00865Y-00938D03*
X-00015Y-00528D03*
X00043Y-0035D03*
X-0005Y-00311D03*
X-0139Y-00034D03*
X-0135Y-00017D03*
X-01439Y-0054D03*
X-0029Y-00515D03*
X-01154Y00238D03*
X00151Y-00487D03*
X00199Y-00361D03*
X00305Y-0019D03*
X-00009Y0007D03*
X00137Y-00162D03*
X00036Y-00161D03*
X00305Y-00145D03*
X003Y-00308D03*
X00294Y-00637D03*
X0026Y-0031D03*
X-00316Y-00338D03*
X-00116Y-00134D03*
X00225Y0121D03*
X0022Y0129D03*
Y0113D03*
X00105Y0115D03*
X-0025Y01175D03*
X-002D03*
X-00875Y0129D03*
X-008Y0127D03*
X-0114Y01105D03*
X-00805Y01175D03*
X-01006Y01268D03*
X00963D03*
X00829Y01105D03*
X01169Y0127D03*
X01094Y0129D03*
X00969Y01078D03*
X01019Y01073D03*
X00919D03*
X00944Y01103D03*
X00994D03*
X01111Y01178D03*
X0025Y0041D03*
X00228Y-00662D03*
X00242Y-00575D03*
X00295Y-00585D03*
X00314Y-00514D03*
X0028Y-00515D03*
X0026Y-00544D03*
X0011Y-00001D03*
X00088Y-00043D03*
X00282Y00179D03*
X-00057Y-00154D03*
X-00778Y00145D03*
X-01107Y-00787D03*
X-01078Y-00758D03*
X-01242Y-00767D03*
X-01247Y-00734D03*
X-01431Y-00839D03*
X-01325Y-00782D03*
X-01326Y-00866D03*
X-01367Y-00742D03*
X00786Y-0107D03*
X00822Y-01069D03*
X00892Y-01058D03*
X-01384Y-00968D03*
X01335Y-0115D03*
X-00075Y00183D03*
X-00106Y00058D03*
X-00005Y00167D03*
X-00003Y00202D03*
X0031Y003D03*
Y00265D03*
X00135Y003D03*
X00219Y00392D03*
M02*