%FSTAX23Y23*%
%MOIN*%
%SFA1B1*%

%IPPOS*%
%ADD90C,0.001000*%
%ADD91C,0.000500*%
%ADD115C,0.003940*%
%LNpcb_flex_1-1*%
%LPD*%
G54D90*
X00303Y00523D02*
D01*
X00303Y0052*
X00303Y00517*
X00303Y00514*
X00304Y00511*
X00305Y00509*
X00306Y00506*
X00307Y00504*
X00309Y00501*
X0031Y00499*
X00312Y00497*
X00314Y00495*
X00316Y00493*
X00318Y00491*
X0032Y00489*
X00323Y00488*
X00325Y00487*
X00328Y00485*
X0033Y00484*
X00333Y00484*
X00336Y00483*
X00338Y00483*
X00341Y00483*
X00343Y00483*
X-00433Y00089D02*
D01*
X-0043Y00089*
X-00427Y00089*
X-00424Y00089*
X-00421Y0009*
X-00419Y00091*
X-00416Y00092*
X-00414Y00093*
X-00411Y00095*
X-00409Y00096*
X-00407Y00098*
X-00405Y001*
X-00403Y00102*
X-00401Y00104*
X-00399Y00106*
X-00398Y00109*
X-00397Y00111*
X-00395Y00114*
X-00394Y00116*
X-00394Y00119*
X-00393Y00122*
X-00393Y00124*
X-00393Y00127*
X-00393Y00129*
X-00366Y00483D02*
D01*
X-00363Y00483*
X-0036Y00483*
X-00357Y00483*
X-00354Y00484*
X-00352Y00485*
X-00349Y00486*
X-00347Y00487*
X-00344Y00489*
X-00342Y0049*
X-0034Y00492*
X-00338Y00494*
X-00336Y00496*
X-00334Y00498*
X-00332Y005*
X-00331Y00503*
X-0033Y00505*
X-00328Y00508*
X-00327Y0051*
X-00327Y00513*
X-00326Y00516*
X-00326Y00518*
X-00326Y00521*
X-00326Y00523*
X0037Y00129D02*
D01*
X0037Y00126*
X0037Y00123*
X0037Y0012*
X00371Y00117*
X00372Y00115*
X00373Y00112*
X00374Y0011*
X00376Y00107*
X00377Y00105*
X00379Y00103*
X00381Y00101*
X00383Y00099*
X00385Y00097*
X00387Y00095*
X0039Y00094*
X00392Y00093*
X00395Y00091*
X00397Y0009*
X004Y0009*
X00403Y00089*
X00405Y00089*
X00408Y00089*
X0041Y00089*
X0037Y00129D02*
D01*
X0037Y00126*
X0037Y00123*
X0037Y0012*
X00371Y00117*
X00372Y00115*
X00373Y00112*
X00374Y0011*
X00376Y00107*
X00377Y00105*
X00379Y00103*
X00381Y00101*
X00383Y00099*
X00385Y00097*
X00387Y00095*
X0039Y00094*
X00392Y00093*
X00395Y00091*
X00397Y0009*
X004Y0009*
X00403Y00089*
X00405Y00089*
X00408Y00089*
X0041Y00089*
X-00366Y00483D02*
D01*
X-00363Y00483*
X-0036Y00483*
X-00357Y00483*
X-00354Y00484*
X-00352Y00485*
X-00349Y00486*
X-00347Y00487*
X-00344Y00489*
X-00342Y0049*
X-0034Y00492*
X-00338Y00494*
X-00336Y00496*
X-00334Y00498*
X-00332Y005*
X-00331Y00503*
X-0033Y00505*
X-00328Y00508*
X-00327Y0051*
X-00327Y00513*
X-00326Y00516*
X-00326Y00518*
X-00326Y00521*
X-00326Y00523*
X-00433Y00089D02*
D01*
X-0043Y00089*
X-00427Y00089*
X-00424Y00089*
X-00421Y0009*
X-00419Y00091*
X-00416Y00092*
X-00414Y00093*
X-00411Y00095*
X-00409Y00096*
X-00407Y00098*
X-00405Y001*
X-00403Y00102*
X-00401Y00104*
X-00399Y00106*
X-00398Y00109*
X-00397Y00111*
X-00395Y00114*
X-00394Y00116*
X-00394Y00119*
X-00393Y00122*
X-00393Y00124*
X-00393Y00127*
X-00393Y00129*
X00303Y00523D02*
D01*
X00303Y0052*
X00303Y00517*
X00303Y00514*
X00304Y00511*
X00305Y00509*
X00306Y00506*
X00307Y00504*
X00309Y00501*
X0031Y00499*
X00312Y00497*
X00314Y00495*
X00316Y00493*
X00318Y00491*
X0032Y00489*
X00323Y00488*
X00325Y00487*
X00328Y00485*
X0033Y00484*
X00333Y00484*
X00336Y00483*
X00338Y00483*
X00341Y00483*
X00343Y00483*
X00633Y-01105D02*
D01*
X00641Y-01123*
X0065Y-01142*
X0066Y-01159*
X00672Y-01176*
X00672Y-01177*
X00679Y-01186D02*
D01*
X00686Y-01194*
X00694Y-01202*
X00702Y-0121*
X00711Y-01217*
X0072Y-01223*
X0073Y-01229*
X0074Y-01234*
X0075Y-01238*
X00761Y-01242*
X00771Y-01245*
X00782Y-01247*
X00793Y-01248*
X00805Y-01248*
X00806Y-01248*
X01248Y-01247D02*
D01*
X01261Y-01245*
X01274Y-01242*
X01286Y-01238*
X01299Y-01233*
X01311Y-01228*
X01322Y-01221*
X01333Y-01214*
X01344Y-01206*
X01354Y-01197*
X0136Y-01191*
X01419Y-0112D02*
D01*
X01424Y-01112*
X01429Y-01103*
X01433Y-01093*
X01436Y-01083*
X01439Y-01074*
X01441Y-01063*
X01442Y-01053*
X01442Y-01043*
X01443Y-0104*
X-00829Y-01249D02*
D01*
X-00818Y-01248*
X-00807Y-01247*
X-00796Y-01245*
X-00785Y-01242*
X-00774Y-01239*
X-00764Y-01235*
X-00754Y-0123*
X-00744Y-01224*
X-00735Y-01218*
X-00726Y-01211*
X-00718Y-01204*
X-0071Y-01196*
X-00703Y-01187*
X-00702Y-01186*
X-01383Y-01191D02*
D01*
X-01373Y-012*
X-01363Y-01209*
X-01352Y-01217*
X-01341Y-01224*
X-01329Y-0123*
X-01317Y-01235*
X-01304Y-0124*
X-01292Y-01243*
X-01279Y-01246*
X-01271Y-01247*
X-01466Y-0104D02*
D01*
X-01465Y-0105*
X-01464Y-01061*
X-01462Y-01071*
X-0146Y-01081*
X-01457Y-0109*
X-01453Y-011*
X-01448Y-01109*
X-01443Y-01118*
X-01442Y-0112*
X01443Y00429D02*
D01*
X01442Y00435*
X01442Y00442*
X0144Y00448*
X01439Y00454*
X01437Y00461*
X01434Y00467*
X01431Y00473*
X01428Y00478*
X01425Y00484*
X01421Y00489*
X01416Y00494*
X01411Y00498*
X01406Y00503*
X01401Y00506*
X01396Y0051*
X0139Y00513*
X01384Y00516*
X01378Y00518*
X01371Y0052*
X01365Y00521*
X01358Y00522*
X01352Y00522*
X01349Y00523*
X00756Y00483D02*
D01*
X00758Y00483*
X00761Y00483*
X00764Y00483*
X00767Y00484*
X00769Y00485*
X00772Y00486*
X00774Y00487*
X00777Y00489*
X00779Y0049*
X00781Y00492*
X00783Y00494*
X00785Y00496*
X00787Y00498*
X00789Y005*
X0079Y00503*
X00791Y00505*
X00793Y00508*
X00794Y0051*
X00794Y00513*
X00795Y00516*
X00795Y00518*
X00795Y00521*
X00796Y00523*
X0115D02*
D01*
X0115Y0052*
X0115Y00517*
X0115Y00514*
X01151Y00511*
X01152Y00509*
X01153Y00506*
X01154Y00504*
X01156Y00501*
X01157Y00499*
X01159Y00497*
X01161Y00495*
X01163Y00493*
X01165Y00491*
X01167Y00489*
X0117Y00488*
X01172Y00487*
X01175Y00485*
X01177Y00484*
X0118Y00484*
X01183Y00483*
X01185Y00483*
X01188Y00483*
X01191*
X01194Y00483*
X01196Y00483*
X01199Y00484*
X01202Y00484*
X01204Y00485*
X01207Y00487*
X0121Y00488*
X01212Y00489*
X01214Y00491*
X01216Y00493*
X01218Y00495*
X0122Y00497*
X01222Y00499*
X01223Y00501*
X01225Y00504*
X01226Y00506*
X01227Y00509*
X01228Y00511*
X01229Y00514*
X01229Y00517*
X01229Y0052*
X0123Y00523*
X-01253D02*
D01*
X-01252Y0052*
X-01252Y00517*
X-01252Y00514*
X-01251Y00511*
X-0125Y00509*
X-01249Y00506*
X-01248Y00504*
X-01246Y00501*
X-01245Y00499*
X-01243Y00497*
X-01241Y00495*
X-01239Y00493*
X-01237Y00491*
X-01235Y00489*
X-01233Y00488*
X-0123Y00487*
X-01227Y00485*
X-01225Y00484*
X-01222Y00484*
X-01219Y00483*
X-01217Y00483*
X-01214Y00483*
X-01211*
X-01208Y00483*
X-01206Y00483*
X-01203Y00484*
X-012Y00484*
X-01198Y00485*
X-01195Y00487*
X-01192Y00488*
X-0119Y00489*
X-01188Y00491*
X-01186Y00493*
X-01184Y00495*
X-01182Y00497*
X-0118Y00499*
X-01179Y00501*
X-01177Y00504*
X-01176Y00506*
X-01175Y00509*
X-01174Y00511*
X-01173Y00514*
X-01173Y00517*
X-01173Y0052*
X-01173Y00523*
X-01372D02*
D01*
X-01378Y00522*
X-01385Y00522*
X-01391Y0052*
X-01397Y00519*
X-01404Y00517*
X-0141Y00514*
X-01416Y00511*
X-01421Y00508*
X-01427Y00505*
X-01432Y00501*
X-01437Y00496*
X-01441Y00491*
X-01446Y00486*
X-01449Y00481*
X-01453Y00475*
X-01456Y0047*
X-01459Y00464*
X-01461Y00458*
X-01463Y00451*
X-01464Y00445*
X-01465Y00438*
X-01465Y00432*
X-01466Y00429*
X-00819Y00522D02*
D01*
X-00818Y00519*
X-00818Y00516*
X-00818Y00514*
X-00817Y00511*
X-00816Y00508*
X-00815Y00506*
X-00814Y00503*
X-00813Y00501*
X-00811Y00499*
X-00809Y00497*
X-00807Y00494*
X-00806Y00493*
X-00803Y00491*
X-00801Y00489*
X-00799Y00488*
X-00796Y00486*
X-00794Y00485*
X-00791Y00484*
X-00789Y00484*
X-00786Y00483*
X-00783Y00483*
X-00781Y00483*
X-00779Y00483*
X-00669Y00129D02*
D01*
X-00668Y00126*
X-00668Y00123*
X-00668Y0012*
X-00667Y00117*
X-00666Y00115*
X-00665Y00112*
X-00664Y0011*
X-00662Y00107*
X-00661Y00105*
X-00659Y00103*
X-00657Y00101*
X-00655Y00099*
X-00653Y00097*
X-00651Y00095*
X-00648Y00094*
X-00646Y00093*
X-00643Y00091*
X-00641Y0009*
X-00638Y0009*
X-00635Y00089*
X-00633Y00089*
X-0063Y00089*
X-00629Y00089*
X00606D02*
D01*
X00609Y00089*
X00612Y00089*
X00614Y00089*
X00617Y0009*
X0062Y00091*
X00622Y00092*
X00625Y00093*
X00627Y00094*
X00629Y00096*
X00631Y00098*
X00634Y001*
X00635Y00101*
X00637Y00104*
X00639Y00106*
X0064Y00108*
X00642Y00111*
X00643Y00113*
X00644Y00116*
X00644Y00118*
X00645Y00121*
X00645Y00124*
X00645Y00126*
X00646Y00128*
X00606Y00089D02*
D01*
X00609Y00089*
X00612Y00089*
X00614Y00089*
X00617Y0009*
X0062Y00091*
X00622Y00092*
X00625Y00093*
X00627Y00094*
X00629Y00096*
X00631Y00098*
X00634Y001*
X00635Y00101*
X00637Y00104*
X00639Y00106*
X0064Y00108*
X00642Y00111*
X00643Y00113*
X00644Y00116*
X00644Y00118*
X00645Y00121*
X00645Y00124*
X00645Y00126*
X00646Y00128*
X-00669Y00129D02*
D01*
X-00668Y00126*
X-00668Y00123*
X-00668Y0012*
X-00667Y00117*
X-00666Y00115*
X-00665Y00112*
X-00664Y0011*
X-00662Y00107*
X-00661Y00105*
X-00659Y00103*
X-00657Y00101*
X-00655Y00099*
X-00653Y00097*
X-00651Y00095*
X-00648Y00094*
X-00646Y00093*
X-00643Y00091*
X-00641Y0009*
X-00638Y0009*
X-00635Y00089*
X-00633Y00089*
X-0063Y00089*
X-00629Y00089*
X-00819Y00522D02*
D01*
X-00818Y00519*
X-00818Y00516*
X-00818Y00514*
X-00817Y00511*
X-00816Y00508*
X-00815Y00506*
X-00814Y00503*
X-00813Y00501*
X-00811Y00499*
X-00809Y00497*
X-00807Y00494*
X-00806Y00493*
X-00803Y00491*
X-00801Y00489*
X-00799Y00488*
X-00796Y00486*
X-00794Y00485*
X-00791Y00484*
X-00789Y00484*
X-00786Y00483*
X-00783Y00483*
X-00781Y00483*
X-00779Y00483*
X-01372Y00523D02*
D01*
X-01378Y00522*
X-01385Y00522*
X-01391Y0052*
X-01397Y00519*
X-01404Y00517*
X-0141Y00514*
X-01416Y00511*
X-01421Y00508*
X-01427Y00505*
X-01432Y00501*
X-01437Y00496*
X-01441Y00491*
X-01446Y00486*
X-01449Y00481*
X-01453Y00475*
X-01456Y0047*
X-01459Y00464*
X-01461Y00458*
X-01463Y00451*
X-01464Y00445*
X-01465Y00438*
X-01465Y00432*
X-01466Y00429*
X-01253Y00523D02*
D01*
X-01252Y0052*
X-01252Y00517*
X-01252Y00514*
X-01251Y00511*
X-0125Y00509*
X-01249Y00506*
X-01248Y00504*
X-01246Y00501*
X-01245Y00499*
X-01243Y00497*
X-01241Y00495*
X-01239Y00493*
X-01237Y00491*
X-01235Y00489*
X-01233Y00488*
X-0123Y00487*
X-01227Y00485*
X-01225Y00484*
X-01222Y00484*
X-01219Y00483*
X-01217Y00483*
X-01214Y00483*
X-01211*
X-01208Y00483*
X-01206Y00483*
X-01203Y00484*
X-012Y00484*
X-01198Y00485*
X-01195Y00487*
X-01192Y00488*
X-0119Y00489*
X-01188Y00491*
X-01186Y00493*
X-01184Y00495*
X-01182Y00497*
X-0118Y00499*
X-01179Y00501*
X-01177Y00504*
X-01176Y00506*
X-01175Y00509*
X-01174Y00511*
X-01173Y00514*
X-01173Y00517*
X-01173Y0052*
X-01173Y00523*
X0115D02*
D01*
X0115Y0052*
X0115Y00517*
X0115Y00514*
X01151Y00511*
X01152Y00509*
X01153Y00506*
X01154Y00504*
X01156Y00501*
X01157Y00499*
X01159Y00497*
X01161Y00495*
X01163Y00493*
X01165Y00491*
X01167Y00489*
X0117Y00488*
X01172Y00487*
X01175Y00485*
X01177Y00484*
X0118Y00484*
X01183Y00483*
X01185Y00483*
X01188Y00483*
X01191*
X01194Y00483*
X01196Y00483*
X01199Y00484*
X01202Y00484*
X01204Y00485*
X01207Y00487*
X0121Y00488*
X01212Y00489*
X01214Y00491*
X01216Y00493*
X01218Y00495*
X0122Y00497*
X01222Y00499*
X01223Y00501*
X01225Y00504*
X01226Y00506*
X01227Y00509*
X01228Y00511*
X01229Y00514*
X01229Y00517*
X01229Y0052*
X0123Y00523*
X00756Y00483D02*
D01*
X00758Y00483*
X00761Y00483*
X00764Y00483*
X00767Y00484*
X00769Y00485*
X00772Y00486*
X00774Y00487*
X00777Y00489*
X00779Y0049*
X00781Y00492*
X00783Y00494*
X00785Y00496*
X00787Y00498*
X00789Y005*
X0079Y00503*
X00791Y00505*
X00793Y00508*
X00794Y0051*
X00794Y00513*
X00795Y00516*
X00795Y00518*
X00795Y00521*
X00796Y00523*
X01443Y00429D02*
D01*
X01442Y00435*
X01442Y00442*
X0144Y00448*
X01439Y00454*
X01437Y00461*
X01434Y00467*
X01431Y00473*
X01428Y00478*
X01425Y00484*
X01421Y00489*
X01416Y00494*
X01411Y00498*
X01406Y00503*
X01401Y00506*
X01396Y0051*
X0139Y00513*
X01384Y00516*
X01378Y00518*
X01371Y0052*
X01365Y00521*
X01358Y00522*
X01352Y00522*
X01349Y00523*
X-01466Y-0104D02*
D01*
X-01465Y-0105*
X-01464Y-01061*
X-01462Y-01071*
X-0146Y-01081*
X-01457Y-0109*
X-01453Y-011*
X-01448Y-01109*
X-01443Y-01118*
X-01442Y-0112*
X-01383Y-01191D02*
D01*
X-01373Y-012*
X-01363Y-01209*
X-01352Y-01217*
X-01341Y-01224*
X-01329Y-0123*
X-01317Y-01235*
X-01304Y-0124*
X-01292Y-01243*
X-01279Y-01246*
X-01271Y-01247*
X-00829Y-01249D02*
D01*
X-00818Y-01248*
X-00807Y-01247*
X-00796Y-01245*
X-00785Y-01242*
X-00774Y-01239*
X-00764Y-01235*
X-00754Y-0123*
X-00744Y-01224*
X-00735Y-01218*
X-00726Y-01211*
X-00718Y-01204*
X-0071Y-01196*
X-00703Y-01187*
X-00702Y-01186*
X01419Y-0112D02*
D01*
X01424Y-01112*
X01429Y-01103*
X01433Y-01093*
X01436Y-01083*
X01439Y-01074*
X01441Y-01063*
X01442Y-01053*
X01442Y-01043*
X01443Y-0104*
X01248Y-01247D02*
D01*
X01261Y-01245*
X01274Y-01242*
X01286Y-01238*
X01299Y-01233*
X01311Y-01228*
X01322Y-01221*
X01333Y-01214*
X01344Y-01206*
X01354Y-01197*
X0136Y-01191*
X00679Y-01186D02*
D01*
X00686Y-01194*
X00694Y-01202*
X00702Y-0121*
X00711Y-01217*
X0072Y-01223*
X0073Y-01229*
X0074Y-01234*
X0075Y-01238*
X00761Y-01242*
X00771Y-01245*
X00782Y-01247*
X00793Y-01248*
X00805Y-01248*
X00806Y-01248*
X00633Y-01105D02*
D01*
X00641Y-01123*
X0065Y-01142*
X0066Y-01159*
X00672Y-01176*
X00672Y-01177*
X00303Y00523D02*
D01*
X00303Y0052*
X00303Y00517*
X00303Y00514*
X00304Y00511*
X00305Y00509*
X00306Y00506*
X00307Y00504*
X00309Y00501*
X0031Y00499*
X00312Y00497*
X00314Y00495*
X00316Y00493*
X00318Y00491*
X0032Y00489*
X00323Y00488*
X00325Y00487*
X00328Y00485*
X0033Y00484*
X00333Y00484*
X00336Y00483*
X00338Y00483*
X00341Y00483*
X00343Y00483*
X-00433Y00089D02*
D01*
X-0043Y00089*
X-00427Y00089*
X-00424Y00089*
X-00421Y0009*
X-00419Y00091*
X-00416Y00092*
X-00414Y00093*
X-00411Y00095*
X-00409Y00096*
X-00407Y00098*
X-00405Y001*
X-00403Y00102*
X-00401Y00104*
X-00399Y00106*
X-00398Y00109*
X-00397Y00111*
X-00395Y00114*
X-00394Y00116*
X-00394Y00119*
X-00393Y00122*
X-00393Y00124*
X-00393Y00127*
X-00393Y00129*
X-00366Y00483D02*
D01*
X-00363Y00483*
X-0036Y00483*
X-00357Y00483*
X-00354Y00484*
X-00352Y00485*
X-00349Y00486*
X-00347Y00487*
X-00344Y00489*
X-00342Y0049*
X-0034Y00492*
X-00338Y00494*
X-00336Y00496*
X-00334Y00498*
X-00332Y005*
X-00331Y00503*
X-0033Y00505*
X-00328Y00508*
X-00327Y0051*
X-00327Y00513*
X-00326Y00516*
X-00326Y00518*
X-00326Y00521*
X-00326Y00523*
X0037Y00129D02*
D01*
X0037Y00126*
X0037Y00123*
X0037Y0012*
X00371Y00117*
X00372Y00115*
X00373Y00112*
X00374Y0011*
X00376Y00107*
X00377Y00105*
X00379Y00103*
X00381Y00101*
X00383Y00099*
X00385Y00097*
X00387Y00095*
X0039Y00094*
X00392Y00093*
X00395Y00091*
X00397Y0009*
X004Y0009*
X00403Y00089*
X00405Y00089*
X00408Y00089*
X0041Y00089*
X0037Y00129D02*
D01*
X0037Y00126*
X0037Y00123*
X0037Y0012*
X00371Y00117*
X00372Y00115*
X00373Y00112*
X00374Y0011*
X00376Y00107*
X00377Y00105*
X00379Y00103*
X00381Y00101*
X00383Y00099*
X00385Y00097*
X00387Y00095*
X0039Y00094*
X00392Y00093*
X00395Y00091*
X00397Y0009*
X004Y0009*
X00403Y00089*
X00405Y00089*
X00408Y00089*
X0041Y00089*
X-00366Y00483D02*
D01*
X-00363Y00483*
X-0036Y00483*
X-00357Y00483*
X-00354Y00484*
X-00352Y00485*
X-00349Y00486*
X-00347Y00487*
X-00344Y00489*
X-00342Y0049*
X-0034Y00492*
X-00338Y00494*
X-00336Y00496*
X-00334Y00498*
X-00332Y005*
X-00331Y00503*
X-0033Y00505*
X-00328Y00508*
X-00327Y0051*
X-00327Y00513*
X-00326Y00516*
X-00326Y00518*
X-00326Y00521*
X-00326Y00523*
X-00433Y00089D02*
D01*
X-0043Y00089*
X-00427Y00089*
X-00424Y00089*
X-00421Y0009*
X-00419Y00091*
X-00416Y00092*
X-00414Y00093*
X-00411Y00095*
X-00409Y00096*
X-00407Y00098*
X-00405Y001*
X-00403Y00102*
X-00401Y00104*
X-00399Y00106*
X-00398Y00109*
X-00397Y00111*
X-00395Y00114*
X-00394Y00116*
X-00394Y00119*
X-00393Y00122*
X-00393Y00124*
X-00393Y00127*
X-00393Y00129*
X00303Y00523D02*
D01*
X00303Y0052*
X00303Y00517*
X00303Y00514*
X00304Y00511*
X00305Y00509*
X00306Y00506*
X00307Y00504*
X00309Y00501*
X0031Y00499*
X00312Y00497*
X00314Y00495*
X00316Y00493*
X00318Y00491*
X0032Y00489*
X00323Y00488*
X00325Y00487*
X00328Y00485*
X0033Y00484*
X00333Y00484*
X00336Y00483*
X00338Y00483*
X00341Y00483*
X00343Y00483*
X0119Y00995D02*
D01*
X01187Y00994*
X01184Y00994*
X01181Y00994*
X01178Y00993*
X01176Y00992*
X01173Y00991*
X01171Y0099*
X01168Y00988*
X01166Y00987*
X01164Y00985*
X01162Y00983*
X0116Y00981*
X01158Y00979*
X01156Y00977*
X01155Y00975*
X01154Y00972*
X01152Y00969*
X01151Y00967*
X01151Y00964*
X0115Y00961*
X0115Y00959*
X0115Y00956*
X0115Y00955*
X00796D02*
D01*
X00795Y00957*
X00795Y0096*
X00795Y00963*
X00794Y00966*
X00793Y00968*
X00792Y00971*
X00791Y00973*
X00789Y00976*
X00788Y00978*
X00786Y0098*
X00784Y00982*
X00782Y00984*
X0078Y00986*
X00778Y00988*
X00776Y00989*
X00773Y0099*
X0077Y00992*
X00768Y00993*
X00765Y00993*
X00762Y00994*
X0076Y00994*
X00757Y00994*
X00756Y00995*
X-00779D02*
D01*
X-00781Y00994*
X-00784Y00994*
X-00787Y00994*
X-0079Y00993*
X-00792Y00992*
X-00795Y00991*
X-00797Y0099*
X-008Y00988*
X-00802Y00987*
X-00804Y00985*
X-00806Y00983*
X-00808Y00981*
X-0081Y00979*
X-00812Y00977*
X-00813Y00975*
X-00814Y00972*
X-00816Y00969*
X-00817Y00967*
X-00817Y00964*
X-00818Y00961*
X-00818Y00959*
X-00818Y00956*
X-00819Y00955*
X-01173D02*
D01*
X-01173Y00957*
X-01173Y0096*
X-01173Y00963*
X-01174Y00966*
X-01175Y00968*
X-01176Y00971*
X-01177Y00973*
X-01179Y00976*
X-0118Y00978*
X-01182Y0098*
X-01184Y00982*
X-01186Y00984*
X-01188Y00986*
X-0119Y00988*
X-01193Y00989*
X-01195Y0099*
X-01198Y00992*
X-012Y00993*
X-01203Y00993*
X-01206Y00994*
X-01208Y00994*
X-01211Y00994*
X-01213Y00995*
X-01173Y00955D02*
D01*
X-01173Y00957*
X-01173Y0096*
X-01173Y00963*
X-01174Y00966*
X-01175Y00968*
X-01176Y00971*
X-01177Y00973*
X-01179Y00976*
X-0118Y00978*
X-01182Y0098*
X-01184Y00982*
X-01186Y00984*
X-01188Y00986*
X-0119Y00988*
X-01193Y00989*
X-01195Y0099*
X-01198Y00992*
X-012Y00993*
X-01203Y00993*
X-01206Y00994*
X-01208Y00994*
X-01211Y00994*
X-01213Y00995*
X-00779D02*
D01*
X-00781Y00994*
X-00784Y00994*
X-00787Y00994*
X-0079Y00993*
X-00792Y00992*
X-00795Y00991*
X-00797Y0099*
X-008Y00988*
X-00802Y00987*
X-00804Y00985*
X-00806Y00983*
X-00808Y00981*
X-0081Y00979*
X-00812Y00977*
X-00813Y00975*
X-00814Y00972*
X-00816Y00969*
X-00817Y00967*
X-00817Y00964*
X-00818Y00961*
X-00818Y00959*
X-00818Y00956*
X-00819Y00955*
X00796D02*
D01*
X00795Y00957*
X00795Y0096*
X00795Y00963*
X00794Y00966*
X00793Y00968*
X00792Y00971*
X00791Y00973*
X00789Y00976*
X00788Y00978*
X00786Y0098*
X00784Y00982*
X00782Y00984*
X0078Y00986*
X00778Y00988*
X00776Y00989*
X00773Y0099*
X0077Y00992*
X00768Y00993*
X00765Y00993*
X00762Y00994*
X0076Y00994*
X00757Y00994*
X00756Y00995*
X0119D02*
D01*
X01187Y00994*
X01184Y00994*
X01181Y00994*
X01178Y00993*
X01176Y00992*
X01173Y00991*
X01171Y0099*
X01168Y00988*
X01166Y00987*
X01164Y00985*
X01162Y00983*
X0116Y00981*
X01158Y00979*
X01156Y00977*
X01155Y00975*
X01154Y00972*
X01152Y00969*
X01151Y00967*
X01151Y00964*
X0115Y00961*
X0115Y00959*
X0115Y00956*
X0115Y00955*
X-00702Y-01186D02*
D01*
X-00688Y-01164*
X-00674Y-01142*
X-00663Y-01118*
X-00653Y-01094*
X-00652Y-01093*
X-00393Y-00707D02*
X0037D01*
X-00393Y00483D02*
X0037D01*
X00343D02*
X0037D01*
X-00393Y-00707D02*
Y00483D01*
X0037Y-00707D02*
Y00483D01*
X00343D02*
X0037D01*
X-00393D02*
X0037D01*
X00672Y-01177D02*
X00679Y-01186D01*
X00806Y-01249D02*
X01238D01*
X01248Y-01247*
X01396Y-01154D02*
X01396Y-01154D01*
X01419Y-0112*
X01359Y-01192D02*
X01396Y-01154D01*
X-00326Y00523D02*
Y01068D01*
X-00819Y00522D02*
Y00955D01*
X-01173Y00523D02*
Y00955D01*
X-00702Y-01186D02*
D01*
X-01261Y-01249D02*
X-00829D01*
X-01271Y-01247D02*
X-01261Y-01249D01*
X-01419Y-01154D02*
X-01419Y-01154D01*
X-01442Y-0112D02*
X-01419Y-01154D01*
X-01419Y-01154D02*
X-01382Y-01192D01*
X01443Y-0104D02*
Y00429D01*
X0115Y00523D02*
Y00955D01*
X01288Y00995D02*
Y01387D01*
X00658D02*
X01288D01*
X00658Y00995D02*
Y01387D01*
X00796Y00523D02*
Y00955D01*
X-00681Y00995D02*
Y0119D01*
X00303Y00523D02*
Y01387D01*
X-01311D02*
X-00681D01*
X-01311Y00995D02*
Y0119D01*
X-01372Y00523D02*
X-01253D01*
X-01466Y-0104D02*
Y00429D01*
X-00779Y00483D02*
X-00669D01*
X0123Y00523D02*
X01349D01*
X0123Y00511D02*
Y00523D01*
X-00669Y-01133D02*
Y00483D01*
X00646Y-00747D02*
Y00483D01*
X0041Y00089D02*
X00606D01*
X-00629D02*
X-00429D01*
X00646Y00483D02*
X00756D01*
X-00326Y01387D02*
X00303D01*
X-00326Y01068D02*
Y01387D01*
X01288Y00995D02*
Y01387D01*
X00658D02*
X01288D01*
X00658Y00995D02*
Y01387D01*
Y00995D02*
Y01387D01*
X01288*
Y00995D02*
Y01387D01*
X-00326Y01387D02*
X00303D01*
X00646Y00483D02*
X00756D01*
X-00629Y00089D02*
X-00429D01*
X0041D02*
X00606D01*
X00646Y-00747D02*
Y00483D01*
X-00669Y-01133D02*
Y00483D01*
X0123Y00511D02*
Y00523D01*
X01349*
X-00779Y00483D02*
X-00669D01*
X-01466Y-0104D02*
Y00429D01*
X-01372Y00523D02*
X-01253D01*
X-01311Y00995D02*
Y01387D01*
X00303Y00523D02*
Y01387D01*
X-00681Y00995D02*
Y01387D01*
X00796Y00523D02*
Y00955D01*
X00658Y00995D02*
Y01387D01*
X01288*
Y00995D02*
Y01387D01*
X0115Y00523D02*
Y00955D01*
X01443Y-0104D02*
Y00429D01*
X-01419Y-01154D02*
X-01382Y-01192D01*
X-01442Y-0112D02*
X-01419Y-01154D01*
X-01419Y-01154*
X-01271Y-01247D02*
X-01261Y-01249D01*
X-00829*
X-00702Y-01186D02*
X-00695Y-01177D01*
X-01173Y00523D02*
Y00955D01*
X-00819Y00522D02*
Y00955D01*
X-00326Y00523D02*
Y01068D01*
X01359Y-01192D02*
X01396Y-01154D01*
X01396Y-01154D02*
X01419Y-0112D01*
X01396Y-01154D02*
X01396Y-01154D01*
X01238Y-01249D02*
X01248Y-01247D01*
X00806Y-01249D02*
X01238D01*
X00672Y-01177D02*
X00679Y-01186D01*
X-00393Y00483D02*
X0037D01*
X00343D02*
X0037D01*
Y-00707D02*
Y00483D01*
X-00393Y-00707D02*
Y00483D01*
X00343D02*
X0037D01*
X-00393D02*
X0037D01*
X-00393Y-00707D02*
X0037D01*
X-00779Y00995D02*
X-00681D01*
X-01311D02*
X-01213D01*
X0119D02*
X01288D01*
Y01006D02*
Y01387D01*
X00658Y00995D02*
Y01387D01*
X00658Y00995D02*
X00756D01*
X-00681D02*
Y01387D01*
X-01311Y00995D02*
Y01387D01*
Y00995D02*
X01288D01*
X-01311Y01387D02*
X01288D01*
X0119Y00995D02*
X01288D01*
X00658D02*
X00756D01*
X01288D02*
Y01387D01*
X00658Y01006D02*
Y01387D01*
Y01006D02*
Y01387D01*
X01288Y01006D02*
Y01387D01*
X00658Y00995D02*
X00756D01*
X0119D02*
X01288D01*
X-01311Y01006D02*
Y01387D01*
X-00681Y01006D02*
Y01387D01*
X00658Y00995D02*
X00756D01*
X00658Y01006D02*
Y01387D01*
X01288Y01006D02*
Y01387D01*
X0119Y00995D02*
X01288D01*
X-01311D02*
X-01213D01*
X-00779D02*
X-00681D01*
G54D91*
X-00629Y-00707D02*
D01*
X-00631Y-00707*
X-00634Y-00707*
X-00637Y-00708*
X-0064Y-00708*
X-00642Y-00709*
X-00645Y-0071*
X-00647Y-00711*
X-0065Y-00713*
X-00652Y-00714*
X-00654Y-00716*
X-00656Y-00718*
X-00658Y-0072*
X-0066Y-00722*
X-00662Y-00724*
X-00663Y-00727*
X-00664Y-00729*
X-00666Y-00732*
X-00667Y-00734*
X-00667Y-00737*
X-00668Y-0074*
X-00668Y-00743*
X-00668Y-00745*
X-00669Y-00747*
X00646Y-00747D02*
D01*
X00645Y-00744*
X00645Y-00741*
X00645Y-00738*
X00644Y-00735*
X00643Y-00733*
X00642Y-0073*
X00641Y-00728*
X00639Y-00725*
X00638Y-00723*
X00636Y-00721*
X00634Y-00719*
X00632Y-00717*
X0063Y-00715*
X00628Y-00713*
X00626Y-00712*
X00623Y-00711*
X0062Y-00709*
X00618Y-00708*
X00615Y-00708*
X00612Y-00707*
X0061Y-00707*
X00607Y-00707*
X00606Y-00707*
X00646Y-00747D02*
D01*
X00645Y-00744*
X00645Y-00741*
X00645Y-00738*
X00644Y-00735*
X00643Y-00733*
X00642Y-0073*
X00641Y-00728*
X00639Y-00725*
X00638Y-00723*
X00636Y-00721*
X00634Y-00719*
X00632Y-00717*
X0063Y-00715*
X00628Y-00713*
X00626Y-00712*
X00623Y-00711*
X0062Y-00709*
X00618Y-00708*
X00615Y-00708*
X00612Y-00707*
X0061Y-00707*
X00607Y-00707*
X00606Y-00707*
X-00629Y-00707D02*
D01*
X-00631Y-00707*
X-00634Y-00707*
X-00637Y-00708*
X-0064Y-00708*
X-00642Y-00709*
X-00645Y-0071*
X-00647Y-00711*
X-0065Y-00713*
X-00652Y-00714*
X-00654Y-00716*
X-00656Y-00718*
X-00658Y-0072*
X-0066Y-00722*
X-00662Y-00724*
X-00663Y-00727*
X-00664Y-00729*
X-00666Y-00732*
X-00667Y-00734*
X-00667Y-00737*
X-00668Y-0074*
X-00668Y-00743*
X-00668Y-00745*
X-00669Y-00747*
X00646Y-01133D02*
Y-00747D01*
X-0063Y-00707D02*
X-00393D01*
X0037D02*
X00607D01*
X0037D02*
X00607D01*
X-0063D02*
X-00393D01*
X00646Y-01133D02*
Y-00747D01*
G54D115*
X01385Y-00615D02*
Y-00596D01*
X01346D02*
X01385D01*
X01346Y-00615D02*
Y-00596D01*
Y-00615D02*
X01385D01*
X0082Y-01148D02*
X00859D01*
X0082Y-01167D02*
Y-01148D01*
Y-01167D02*
X00859D01*
Y-01148*
X0082Y-0109D02*
X00859D01*
X0082Y-01109D02*
Y-0109D01*
Y-01109D02*
X00859D01*
Y-0109*
X00664Y-00984D02*
X00715D01*
X00664D02*
Y-00873D01*
X00715*
Y-00984D02*
Y-00873D01*
X00745Y-01029D02*
X00784D01*
X00745Y-01048D02*
Y-01029D01*
Y-01048D02*
X00784D01*
Y-01029*
X00729Y-01148D02*
Y-01019D01*
X00662D02*
X00729D01*
X00662Y-01148D02*
Y-01019D01*
Y-01148D02*
X00729D01*
X0082Y-01219D02*
X00859D01*
Y-012*
X0082D02*
X00859D01*
X0082Y-01219D02*
Y-012D01*
X01158Y-01108D02*
Y-01057D01*
X01269*
Y-01108D02*
Y-01057D01*
X01158Y-01108D02*
X01269D01*
X0082Y-01029D02*
X00859D01*
X0082Y-01048D02*
Y-01029D01*
Y-01048D02*
X00859D01*
Y-01029*
X-01391Y-00668D02*
Y-00629D01*
X-0141D02*
X-01391D01*
X-0141Y-00668D02*
Y-00629D01*
Y-00668D02*
X-01391D01*
X-0129Y-00975D02*
X-01239D01*
Y-01086D02*
Y-00975D01*
X-0129Y-01086D02*
X-01239D01*
X-0129D02*
Y-00975D01*
X-01331Y-0075D02*
Y-00711D01*
X-01351D02*
X-01331D01*
X-01351Y-0075D02*
Y-00711D01*
Y-0075D02*
X-01331D01*
X-01446Y-0059D02*
X-01317D01*
Y-00523*
X-01446D02*
X-01317D01*
X-01446Y-0059D02*
Y-00523D01*
X-00711Y-00596D02*
Y-00557D01*
Y-00596D02*
X-00692D01*
Y-00557*
X-00711D02*
X-00692D01*
X-00709Y-00752D02*
Y-00713D01*
Y-00752D02*
X-0069D01*
Y-00713*
X-00709D02*
X-0069D01*
X-0084Y-00754D02*
Y-00715D01*
X-00859D02*
X-0084D01*
X-00859Y-00754D02*
Y-00715D01*
Y-00754D02*
X-0084D01*
X-00973Y-01004D02*
X-00946Y-00977D01*
X-00973Y-01004D02*
X-00959Y-01018D01*
X-00932Y-00991*
X-00946Y-00977D02*
X-00932Y-00991D01*
X-01121Y-01008D02*
X-01094Y-00981D01*
X-01121Y-01008D02*
X-01107Y-01022D01*
X-0108Y-00995*
X-01094Y-00981D02*
X-0108Y-00995D01*
X-0127Y-00707D02*
Y-00668D01*
X-01289D02*
X-0127D01*
X-01289Y-00707D02*
Y-00668D01*
Y-00707D02*
X-0127D01*
X-01072Y-00608D02*
X-01045Y-00635D01*
X-01086Y-00622D02*
X-01072Y-00608D01*
X-01086Y-00622D02*
X-01059Y-00649D01*
X-01045Y-00635*
X-0125Y-00797D02*
X-01223Y-0077D01*
X-0125Y-00797D02*
X-01236Y-00811D01*
X-01209Y-00784*
X-01223Y-0077D02*
X-01209Y-00784D01*
X-01329Y-00525D02*
Y-00474D01*
X-0144Y-00525D02*
X-01329D01*
X-0144D02*
Y-00474D01*
X-01329*
X-0088Y-00903D02*
X-00853Y-00876D01*
X-0088Y-00903D02*
X-00866Y-00917D01*
X-00839Y-0089*
X-00853Y-00876D02*
X-00839Y-0089D01*
X-00969Y-00144D02*
X-0093D01*
Y-00125*
X-00969D02*
X-0093D01*
X-00969Y-00144D02*
Y-00125D01*
X-01387Y00047D02*
Y00086D01*
Y00047D02*
X-01368D01*
Y00086*
X-01387D02*
X-01368D01*
X-00969Y00014D02*
X-0093D01*
X-00969Y-00004D02*
Y00014D01*
Y-00004D02*
X-0093D01*
Y00014*
X01105Y-00773D02*
Y-00733D01*
Y-00773D02*
X01124D01*
Y-00733*
X01105D02*
X01124D01*
X-00969Y-00074D02*
X-0093D01*
Y-00055*
X-00969D02*
X-0093D01*
X-00969Y-00074D02*
Y-00055D01*
X-01353Y00047D02*
Y00086D01*
Y00047D02*
X-01334D01*
Y00086*
X-01353D02*
X-01334D01*
X01007Y-00001D02*
X01046D01*
Y00017*
X01007D02*
X01046D01*
X01007Y-00001D02*
Y00017D01*
X-01142Y00047D02*
Y00087D01*
Y00047D02*
X-01122D01*
Y00087*
X-01142D02*
X-01122D01*
X01004Y-00168D02*
X01043D01*
Y-00149*
X01004D02*
X01043D01*
X01004Y-00168D02*
Y-00149D01*
X-01421Y-00182D02*
Y-00143D01*
X-0144D02*
X-01421D01*
X-0144Y-00182D02*
Y-00143D01*
Y-00182D02*
X-01421D01*
X01264Y-00505D02*
Y-00465D01*
Y-00505D02*
X01283D01*
Y-00465*
X01264D02*
X01283D01*
X-01385Y-00182D02*
Y-00143D01*
X-01405D02*
X-01385D01*
X-01405Y-00182D02*
Y-00143D01*
Y-00182D02*
X-01385D01*
X01196Y-00773D02*
Y-00733D01*
X01177D02*
X01196D01*
X01177Y-00773D02*
Y-00733D01*
Y-00773D02*
X01196D01*
X-01385Y-00255D02*
Y-00216D01*
X-01404D02*
X-01385D01*
X-01404Y-00255D02*
Y-00216D01*
Y-00255D02*
X-01385D01*
X01264Y-00141D02*
X01303D01*
Y-00122*
X01264D02*
X01303D01*
X01264Y-00141D02*
Y-00122D01*
X-01122Y00121D02*
Y00161D01*
X-01142D02*
X-01122D01*
X-01142Y00121D02*
Y00161D01*
Y00121D02*
X-01122D01*
X01111Y00017D02*
X0115D01*
X01111Y-00001D02*
Y00017D01*
Y-00001D02*
X0115D01*
Y00017*
X-01334Y00121D02*
Y0016D01*
X-01353D02*
X-01334D01*
X-01353Y00121D02*
Y0016D01*
Y00121D02*
X-01334D01*
X00922Y-00031D02*
Y00007D01*
X00903D02*
X00922D01*
X00903Y-00031D02*
Y00007D01*
Y-00031D02*
X00922D01*
X01345Y-00264D02*
X01384D01*
Y-00245*
X01345D02*
X01384D01*
X01345Y-00264D02*
Y-00245D01*
X00888Y-00064D02*
Y-00025D01*
X00869D02*
X00888D01*
X00869Y-00064D02*
Y-00025D01*
Y-00064D02*
X00888D01*
X00922Y-00097D02*
Y-00058D01*
X00903D02*
X00922D01*
X00903Y-00097D02*
Y-00058D01*
Y-00097D02*
X00922D01*
X01345Y-0056D02*
X01385D01*
X01345Y-00579D02*
Y-0056D01*
Y-00579D02*
X01385D01*
Y-0056*
X00903Y-00698D02*
X00942D01*
X00903Y-00717D02*
Y-00698D01*
Y-00717D02*
X00942D01*
Y-00698*
X01095Y-00613D02*
X01134D01*
Y-00593*
X01095D02*
X01134D01*
X01095Y-00613D02*
Y-00593D01*
X01111Y-00087D02*
X0115D01*
X01111Y-00106D02*
Y-00087D01*
Y-00106D02*
X0115D01*
Y-00087*
X01194Y-00329D02*
Y-0029D01*
X01175D02*
X01194D01*
X01175Y-00329D02*
Y-0029D01*
Y-00329D02*
X01194D01*
X01345Y-00178D02*
X01384D01*
Y-00159*
X01345D02*
X01384D01*
X01345Y-00178D02*
Y-00159D01*
X01111Y00115D02*
X0115D01*
X01111Y00096D02*
Y00115D01*
Y00096D02*
X0115D01*
Y00115*
X01357Y-00773D02*
Y-00733D01*
Y-00773D02*
X01376D01*
Y-00733*
X01357D02*
X01376D01*
X01351Y-00633D02*
X0139D01*
X01351Y-00652D02*
Y-00633D01*
Y-00652D02*
X0139D01*
Y-00633*
X00987Y-00333D02*
X01027D01*
Y-00314*
X00987D02*
X01027D01*
X00987Y-00333D02*
Y-00314D01*
X01111Y00074D02*
X0115D01*
X01111Y00055D02*
Y00074D01*
Y00055D02*
X0115D01*
Y00074*
X-01038Y-00589D02*
X-01011Y-00616D01*
X-01052Y-00603D02*
X-01038Y-00589D01*
X-01052Y-00603D02*
X-01025Y-0063D01*
X-01011Y-00616*
X-01405Y-00109D02*
Y-0007D01*
Y-00109D02*
X-01385D01*
Y-0007*
X-01405D02*
X-01385D01*
X01141Y-00773D02*
Y-00733D01*
Y-00773D02*
X0116D01*
Y-00733*
X01141D02*
X0116D01*
X-00963Y-00514D02*
X-00936Y-00541D01*
X-00977Y-00528D02*
X-00963Y-00514D01*
X-00977Y-00528D02*
X-0095Y-00555D01*
X-00936Y-00541*
X01095Y-00629D02*
X01134D01*
X01095Y-00649D02*
Y-00629D01*
Y-00649D02*
X01134D01*
Y-00629*
X01095Y-00666D02*
X01134D01*
X01095Y-00686D02*
Y-00666D01*
Y-00686D02*
X01134D01*
Y-00666*
X01232Y-00792D02*
Y-00752D01*
X01213D02*
X01232D01*
X01213Y-00792D02*
Y-00752D01*
Y-00792D02*
X01232D01*
X0084Y-00003D02*
X00879D01*
Y00015*
X0084D02*
X00879D01*
X0084Y-00003D02*
Y00015D01*
X01111Y-00036D02*
X0115D01*
Y-00017*
X01111D02*
X0115D01*
X01111Y-00036D02*
Y-00017D01*
X01345Y-00543D02*
X01385D01*
Y-00524*
X01345D02*
X01385D01*
X01345Y-00543D02*
Y-00524D01*
X01095Y-00557D02*
X01134D01*
X01095Y-00577D02*
Y-00557D01*
Y-00577D02*
X01134D01*
Y-00557*
X01111Y-00052D02*
X0115D01*
X01111Y-00071D02*
Y-00052D01*
Y-00071D02*
X0115D01*
Y-00052*
X01345Y-00202D02*
X01384D01*
X01345Y-00221D02*
Y-00202D01*
Y-00221D02*
X01384D01*
Y-00202*
X0084Y-00105D02*
X00879D01*
Y-00086*
X0084D02*
X00879D01*
X0084Y-00105D02*
Y-00086D01*
X01182Y-00141D02*
X01221D01*
Y-00122*
X01182D02*
X01221D01*
X01182Y-00141D02*
Y-00122D01*
Y-00178D02*
X01221D01*
Y-00159*
X01182D02*
X01221D01*
X01182Y-00178D02*
Y-00159D01*
X01316Y-0033D02*
Y-0029D01*
X01297D02*
X01316D01*
X01297Y-0033D02*
Y-0029D01*
Y-0033D02*
X01316D01*
X01345Y-00122D02*
X01384D01*
X01345Y-00141D02*
Y-00122D01*
Y-00141D02*
X01384D01*
Y-00122*
X01345Y-00488D02*
X01385D01*
X01345Y-00507D02*
Y-00488D01*
Y-00507D02*
X01385D01*
Y-00488*
X01343Y-00695D02*
X01382D01*
Y-00676*
X01343D02*
X01382D01*
X01343Y-00695D02*
Y-00676D01*
X01095Y-00521D02*
X01134D01*
X01095Y-00541D02*
Y-00521D01*
Y-00541D02*
X01134D01*
Y-00521*
X0134Y-00773D02*
Y-00733D01*
X01321D02*
X0134D01*
X01321Y-00773D02*
Y-00733D01*
Y-00773D02*
X0134D01*
X01304D02*
Y-00733D01*
X01285D02*
X01304D01*
X01285Y-00773D02*
Y-00733D01*
Y-00773D02*
X01304D01*
X01229Y-00504D02*
Y-00465D01*
Y-00504D02*
X01248D01*
Y-00465*
X01229D02*
X01248D01*
X01193Y-00504D02*
Y-00465D01*
Y-00504D02*
X01212D01*
Y-00465*
X01193D02*
X01212D01*
X01268Y-00792D02*
Y-00752D01*
X01249D02*
X01268D01*
X01249Y-00792D02*
Y-00752D01*
Y-00792D02*
X01268D01*
X01095Y-00485D02*
X01134D01*
X01095Y-00505D02*
Y-00485D01*
Y-00505D02*
X01134D01*
Y-00485*
X01027Y00115D02*
X01066D01*
X01027Y00096D02*
Y00115D01*
Y00096D02*
X01066D01*
Y00115*
X01057Y-00333D02*
X01097D01*
Y-00314*
X01057D02*
X01097D01*
X01057Y-00333D02*
Y-00314D01*
X00956Y00115D02*
X00995D01*
X00956Y00096D02*
Y00115D01*
Y00096D02*
X00995D01*
Y00115*
X00987Y-00298D02*
X01027D01*
Y-00279*
X00987D02*
X01027D01*
X00987Y-00298D02*
Y-00279D01*
X01027Y00074D02*
X01066D01*
X01027Y00055D02*
Y00074D01*
Y00055D02*
X01066D01*
Y00074*
X00956D02*
X00995D01*
X00956Y00055D02*
Y00074D01*
Y00055D02*
X00995D01*
Y00074*
X01256Y-0025D02*
Y-00211D01*
Y-0025D02*
X01275D01*
Y-00211*
X01256D02*
X01275D01*
Y-00329D02*
Y-0029D01*
X01256D02*
X01275D01*
X01256Y-00329D02*
Y-0029D01*
Y-00329D02*
X01275D01*
X01214D02*
Y-0029D01*
Y-00329D02*
X01233D01*
Y-0029*
X01214D02*
X01233D01*
X00879Y-00294D02*
X00918D01*
Y-00275*
X00879D02*
X00918D01*
X00879Y-00294D02*
Y-00275D01*
Y-00226D02*
X00918D01*
X00879Y-00245D02*
Y-00226D01*
Y-00245D02*
X00918D01*
Y-00226*
X00878Y-00181D02*
X00917D01*
X00878Y-002D02*
Y-00181D01*
Y-002D02*
X00917D01*
Y-00181*
X00879Y-0033D02*
X00918D01*
Y-00311*
X00879D02*
X00918D01*
X00879Y-0033D02*
Y-00311D01*
X-00951Y-01027D02*
X-00924Y-01D01*
X-00951Y-01027D02*
X-00937Y-01041D01*
X-0091Y-01014*
X-00924Y-01D02*
X-0091Y-01014D01*
X-00877Y-00754D02*
Y-00715D01*
X-00896D02*
X-00877D01*
X-00896Y-00754D02*
Y-00715D01*
Y-00754D02*
X-00877D01*
X-00858Y-00597D02*
Y-00558D01*
Y-00597D02*
X-00839D01*
Y-00558*
X-00858D02*
X-00839D01*
X00996Y-00565D02*
X01047D01*
Y-00676D02*
Y-00565D01*
X00996Y-00676D02*
X01047D01*
X00996D02*
Y-00565D01*
X00776Y-00681D02*
Y-00551D01*
Y-00681D02*
X00843D01*
Y-00551*
X00776D02*
X00843D01*
X-01084Y-01045D02*
X-01057Y-01018D01*
X-01071Y-01004D02*
X-01057Y-01018D01*
X-01098Y-01031D02*
X-01071Y-01004D01*
X-01098Y-01031D02*
X-01084Y-01045D01*
X-01027Y-00578D02*
X-01Y-00605D01*
X-00986Y-00591*
X-01013Y-00564D02*
X-00986Y-00591D01*
X-01027Y-00578D02*
X-01013Y-00564D01*
X-01002Y-00553D02*
X-00975Y-0058D01*
X-00961Y-00566*
X-00988Y-00539D02*
X-00961Y-00566D01*
X-01002Y-00553D02*
X-00988Y-00539D01*
X-01264Y-00596D02*
Y-00557D01*
X-01283D02*
X-01264D01*
X-01283Y-00596D02*
Y-00557D01*
Y-00596D02*
X-01264D01*
X-01402Y-00749D02*
Y-0071D01*
Y-00749D02*
X-01383D01*
Y-0071*
X-01402D02*
X-01383D01*
X-00275Y-00443D02*
X-00236D01*
Y-00424*
X-00275D02*
X-00236D01*
X-00275Y-00443D02*
Y-00424D01*
X-00224Y-00419D02*
Y-00352D01*
X-00353Y-00419D02*
X-00224D01*
X-00353D02*
Y-00352D01*
X-00224*
X00192Y-00523D02*
Y-00484D01*
Y-00523D02*
X00211D01*
Y-00484*
X00192D02*
X00211D01*
X00211Y-00594D02*
Y-00555D01*
X00192D02*
X00211D01*
X00192Y-00594D02*
Y-00555D01*
Y-00594D02*
X00211D01*
X-00342Y-00443D02*
X-00303D01*
Y-00424*
X-00342D02*
X-00303D01*
X-00342Y-00443D02*
Y-00424D01*
X00172Y-00221D02*
Y-00182D01*
X00153D02*
X00172D01*
X00153Y-00221D02*
Y-00182D01*
Y-00221D02*
X00172D01*
X00217D02*
Y-00182D01*
X00198D02*
X00217D01*
X00198Y-00221D02*
Y-00182D01*
Y-00221D02*
X00217D01*
X-00052D02*
Y-00182D01*
X-00071D02*
X-00052D01*
X-00071Y-00221D02*
Y-00182D01*
Y-00221D02*
X-00052D01*
X00009Y00412D02*
X00049D01*
Y00432*
X00009D02*
X00049D01*
X00009Y00412D02*
Y00432D01*
X00049Y00179D02*
Y00218D01*
X00029D02*
X00049D01*
X00029Y00179D02*
Y00218D01*
Y00179D02*
X00049D01*
X-00168Y00193D02*
X-00129D01*
X-00168Y00174D02*
Y00193D01*
Y00174D02*
X-00129D01*
Y00193*
X00181Y00223D02*
Y00274D01*
X00291*
Y00223D02*
Y00274D01*
X00181Y00223D02*
X00291D01*
X00181Y00323D02*
Y00374D01*
X00291*
Y00323D02*
Y00374D01*
X00181Y00323D02*
X00291D01*
X00181Y00273D02*
Y00324D01*
X00291*
Y00273D02*
Y00324D01*
X00181Y00273D02*
X00291D01*
X-00276Y00211D02*
Y0034D01*
X-00343D02*
X-00276D01*
X-00343Y00211D02*
Y0034D01*
Y00211D02*
X-00276D01*
X-00194Y00255D02*
X-00155D01*
Y00274*
X-00194D02*
X-00155D01*
X-00194Y00255D02*
Y00274D01*
X-00193Y00375D02*
X-00154D01*
X-00193Y00355D02*
Y00375D01*
Y00355D02*
X-00154D01*
Y00375*
X-00026Y-00221D02*
Y-00182D01*
Y-00221D02*
X-00007D01*
Y-00182*
X-00026D02*
X-00007D01*
X-00124Y00255D02*
X-00085D01*
Y00274*
X-00124D02*
X-00085D01*
X-00124Y00255D02*
Y00274D01*
X-00189Y00089D02*
Y0014D01*
X-003Y00089D02*
X-00189D01*
X-003D02*
Y0014D01*
X-00189*
X-00221Y00028D02*
Y00067D01*
X-0024D02*
X-00221D01*
X-0024Y00028D02*
Y00067D01*
Y00028D02*
X-00221D01*
X-00158D02*
Y00067D01*
X-00177D02*
X-00158D01*
X-00177Y00028D02*
Y00067D01*
Y00028D02*
X-00158D01*
X-00253D02*
Y00067D01*
X-00272D02*
X-00253D01*
X-00272Y00028D02*
Y00067D01*
Y00028D02*
X-00253D01*
X00262Y-00221D02*
Y-00182D01*
X00243D02*
X00262D01*
X00243Y-00221D02*
Y-00182D01*
Y-00221D02*
X00262D01*
X-00097D02*
Y-00182D01*
X-00116D02*
X-00097D01*
X-00116Y-00221D02*
Y-00182D01*
Y-00221D02*
X-00097D01*
X-00187D02*
Y-00182D01*
X-00206D02*
X-00187D01*
X-00206Y-00221D02*
Y-00182D01*
Y-00221D02*
X-00187D01*
X-00232D02*
Y-00182D01*
X-00251D02*
X-00232D01*
X-00251Y-00221D02*
Y-00182D01*
Y-00221D02*
X-00232D01*
X00127D02*
Y-00182D01*
X00108D02*
X00127D01*
X00108Y-00221D02*
Y-00182D01*
Y-00221D02*
X00127D01*
X-00142D02*
Y-00182D01*
X-00161D02*
X-00142D01*
X-00161Y-00221D02*
Y-00182D01*
Y-00221D02*
X-00142D01*
X-00277D02*
Y-00182D01*
X-00296D02*
X-00277D01*
X-00296Y-00221D02*
Y-00182D01*
Y-00221D02*
X-00277D01*
X0022Y00139D02*
X00259D01*
Y00158*
X0022D02*
X00259D01*
X0022Y00139D02*
Y00158D01*
X00107Y00017D02*
Y00056D01*
X00126*
Y00017D02*
Y00056D01*
X00107Y00017D02*
X00126D01*
X00024D02*
Y00056D01*
Y00017D02*
X00043D01*
Y00056*
X00024D02*
X00043D01*
X00064Y00017D02*
Y00056D01*
Y00017D02*
X00083D01*
Y00056*
X00064D02*
X00083D01*
X00221Y00176D02*
X0026D01*
Y00195*
X00221D02*
X0026D01*
X00221Y00176D02*
Y00195D01*
X00214Y00017D02*
Y00056D01*
X00195D02*
X00214D01*
X00195Y00017D02*
Y00056D01*
Y00017D02*
X00214D01*
X00233D02*
Y00056D01*
Y00017D02*
X00252D01*
Y00056*
X00233D02*
X00252D01*
X00077Y00195D02*
X00116D01*
X00077Y00176D02*
Y00195D01*
Y00176D02*
X00116D01*
Y00195*
X0017Y00018D02*
Y00057D01*
X00151D02*
X0017D01*
X00151Y00018D02*
Y00057D01*
Y00018D02*
X0017D01*
X0Y00108D02*
X00039D01*
X0Y00089D02*
Y00108D01*
Y00089D02*
X00039D01*
Y00108*
X0Y00132D02*
X00039D01*
Y00151*
X0D02*
X00039D01*
X0Y00132D02*
Y00151D01*
X00149Y00176D02*
X00188D01*
Y00195*
X00149D02*
X00188D01*
X00149Y00176D02*
Y00195D01*
X00037Y-00221D02*
Y-00182D01*
X00018D02*
X00037D01*
X00018Y-00221D02*
Y-00182D01*
Y-00221D02*
X00037D01*
X00082D02*
Y-00182D01*
X00063D02*
X00082D01*
X00063Y-00221D02*
Y-00182D01*
Y-00221D02*
X00082D01*
X-00151Y-0063D02*
Y-00591D01*
X-00132*
Y-0063D02*
Y-00591D01*
X-00151Y-0063D02*
X-00132D01*
X01003Y01155D02*
Y01194D01*
X00984D02*
X01003D01*
X00984Y01155D02*
Y01194D01*
Y01155D02*
X01003D01*
X01054Y01229D02*
Y01268D01*
X01035D02*
X01054D01*
X01035Y01229D02*
Y01268D01*
Y01229D02*
X01054D01*
X00903Y01166D02*
X01033D01*
X00903D02*
Y01233D01*
X01033*
Y01166D02*
Y01233D01*
X01103Y0123D02*
Y01269D01*
X01084D02*
X01103D01*
X01084Y0123D02*
Y01269D01*
Y0123D02*
X01103D01*
X01029Y01208D02*
X01158D01*
X01029Y01141D02*
Y01208D01*
Y01141D02*
X01158D01*
Y01208*
X-00939D02*
X-0081D01*
X-00939Y01141D02*
Y01208D01*
Y01141D02*
X-0081D01*
Y01208*
X01003Y01231D02*
Y0127D01*
X00984D02*
X01003D01*
X00984Y01231D02*
Y0127D01*
Y01231D02*
X01003D01*
X-00834Y0123D02*
Y01269D01*
Y0123D02*
X-00815D01*
Y01269*
X-00834D02*
X-00815D01*
X01134Y0123D02*
Y01269D01*
Y0123D02*
X01153D01*
Y01269*
X01134D02*
X01153D01*
X-00876Y00312D02*
X-00747D01*
X-00876D02*
Y00379D01*
X-00747*
Y00312D02*
Y00379D01*
X-00965Y01155D02*
Y01194D01*
X-00984D02*
X-00965D01*
X-00984Y01155D02*
Y01194D01*
Y01155D02*
X-00965D01*
X00719Y00375D02*
X00849D01*
Y00309D02*
Y00375D01*
X00719Y00309D02*
X00849D01*
X00719D02*
Y00375D01*
X-00915Y0123D02*
Y01269D01*
X-00934D02*
X-00915D01*
X-00934Y0123D02*
Y01269D01*
Y0123D02*
X-00915D01*
X-01065Y01166D02*
X-00935D01*
X-01065D02*
Y01233D01*
X-00935*
Y01166D02*
Y01233D01*
X-00965Y0123D02*
Y01269D01*
X-00984D02*
X-00965D01*
X-00984Y0123D02*
Y01269D01*
Y0123D02*
X-00965D01*
X-00865D02*
Y01269D01*
X-00884D02*
X-00865D01*
X-00884Y0123D02*
Y01269D01*
Y0123D02*
X-00865D01*
X0014Y-00079D02*
X00191D01*
Y00031*
X0014D02*
X00191D01*
X0014Y-00079D02*
Y00031D01*
X-00052Y00274D02*
X-00012D01*
Y00254D02*
Y00274D01*
X-00052Y00254D02*
X-00012D01*
X-00052D02*
Y00274D01*
X00203Y00184D02*
X00242D01*
Y00165D02*
Y00184D01*
X00203Y00165D02*
X00242D01*
X00203D02*
Y00184D01*
X00127Y-0063D02*
Y-00591D01*
X00108Y-0063D02*
X00127D01*
X00108D02*
Y-00591D01*
X00127*
X-00105Y-00273D02*
Y-00234D01*
X-00086*
Y-00273D02*
Y-00234D01*
X-00105Y-00273D02*
X-00086D01*
X-00073D02*
Y-00234D01*
X-00054*
Y-00273D02*
Y-00234D01*
X-00073Y-00273D02*
X-00054D01*
X00088Y-0028D02*
Y-00241D01*
X00069Y-0028D02*
X00088D01*
X00069D02*
Y-00241D01*
X00088*
X00056Y-0028D02*
Y-00241D01*
X00037Y-0028D02*
X00056D01*
X00037D02*
Y-00241D01*
X00056*
X00087Y-00355D02*
Y-00316D01*
X00068Y-00355D02*
X00087D01*
X00068D02*
Y-00316D01*
X00087*
X-00104Y-00352D02*
Y-00313D01*
X-00085*
Y-00352D02*
Y-00313D01*
X-00104Y-00352D02*
X-00085D01*
X00107Y-0043D02*
Y-00391D01*
X00126*
Y-0043D02*
Y-00391D01*
X00107Y-0043D02*
X00126D01*
X00143D02*
Y-00391D01*
X00162*
Y-0043D02*
Y-00391D01*
X00143Y-0043D02*
X00162D01*
X00031Y-00335D02*
Y-00206D01*
X-00035Y-00335D02*
X00031D01*
X-00035D02*
Y-00206D01*
X00031*
X00008Y-00186D02*
Y-00147D01*
X-0001Y-00186D02*
X00008D01*
X-0001D02*
Y-00147D01*
X00008*
X00164Y-00227D02*
X00294D01*
Y-00294D02*
Y-00227D01*
X00164Y-00294D02*
X00294D01*
X00164D02*
Y-00227D01*
X-01425Y-01123D02*
X-01306D01*
Y-01068*
X-01425D02*
X-01306D01*
X-01425Y-01123D02*
Y-01068D01*
Y-01039D02*
X-01306D01*
Y-00984*
X-01425D02*
X-01306D01*
X-01425Y-01039D02*
Y-00984D01*
X01284Y-01069D02*
X01403D01*
X01284Y-01124D02*
Y-01069D01*
Y-01124D02*
X01403D01*
Y-01069*
X01284Y-00985D02*
X01403D01*
X01284Y-0104D02*
Y-00985D01*
Y-0104D02*
X01403D01*
Y-00985*
X-00176Y00103D02*
Y00142D01*
Y00103D02*
X-00157D01*
Y00142*
X-00176D02*
X-00157D01*
X01316Y-0025D02*
Y-00211D01*
X01297D02*
X01316D01*
X01297Y-0025D02*
Y-00211D01*
Y-0025D02*
X01316D01*
X01193Y-00251D02*
Y-00211D01*
X01174D02*
X01193D01*
X01174Y-00251D02*
Y-00211D01*
Y-00251D02*
X01193D01*
X01234Y-0025D02*
Y-00211D01*
X01215D02*
X01234D01*
X01215Y-0025D02*
Y-00211D01*
Y-0025D02*
X01234D01*
X00224Y-00555D02*
Y-00516D01*
X00205Y-00555D02*
X00224D01*
X00205D02*
Y-00516D01*
X00224*
X-00325Y-00253D02*
Y-00214D01*
X-00306*
Y-00253D02*
Y-00214D01*
X-00325Y-00253D02*
X-00306D01*
X-00259Y00432D02*
X-0024D01*
X-00259Y00393D02*
Y00432D01*
Y00393D02*
X-0024D01*
Y00432*
X-00298D02*
X-00279D01*
X-00298Y00393D02*
Y00432D01*
Y00393D02*
X-00279D01*
Y00432*
X-00318Y00393D02*
Y00432D01*
X-00337Y00393D02*
X-00318D01*
X-00337D02*
Y00432D01*
X-00318*
M02*