%FSTAX23Y23*%
%MOIN*%
%SFA1B1*%

%IPPOS*%
%ADD12C,0.010000*%
%ADD13C,0.006000*%
%ADD90C,0.001000*%
%ADD91C,0.000500*%
%ADD111C,0.007870*%
%ADD116C,0.009840*%
%ADD120C,0.000790*%
%ADD147R,0.762520X0.013740*%
%ADD228C,0.023620*%
%ADD229C,0.050000*%
%ADD230C,0.001970*%
%LNpcb_flex_1-1*%
%LPD*%
G54D12*
X0024Y01246D02*
D01*
X0024Y01247*
X0024Y01248*
X0024Y01249*
X0024Y0125*
X00239Y01251*
X00239Y01252*
X00238Y01253*
X00238Y01254*
X00237Y01255*
X00237Y01256*
X00236Y01257*
X00235Y01257*
X00234Y01258*
X00233Y01259*
X00232Y01259*
X00231Y0126*
X0023Y0126*
X00229Y01261*
X00228Y01261*
X00227Y01261*
X00226Y01261*
X00225Y01261*
X00224*
X00223Y01261*
X00222Y01261*
X00221Y01261*
X0022Y01261*
X00219Y0126*
X00218Y0126*
X00217Y01259*
X00216Y01259*
X00215Y01258*
X00214Y01257*
X00213Y01257*
X00212Y01256*
X00212Y01255*
X00211Y01254*
X00211Y01253*
X0021Y01252*
X0021Y01251*
X00209Y0125*
X00209Y01249*
X00209Y01248*
X00209Y01247*
X00209Y01246*
X00209Y01245*
X00209Y01243*
X00209Y01242*
X00209Y01241*
X0021Y0124*
X0021Y01239*
X00211Y01238*
X00211Y01237*
X00212Y01236*
X00212Y01236*
X00213Y01235*
X00214Y01234*
X00215Y01233*
X00216Y01233*
X00217Y01232*
X00218Y01232*
X00219Y01231*
X0022Y01231*
X00221Y0123*
X00222Y0123*
X00223Y0123*
X00224Y0123*
X00225*
X00226Y0123*
X00227Y0123*
X00228Y0123*
X00229Y01231*
X0023Y01231*
X00231Y01232*
X00232Y01232*
X00233Y01233*
X00234Y01233*
X00235Y01234*
X00236Y01235*
X00237Y01236*
X00237Y01236*
X00238Y01237*
X00238Y01238*
X00239Y01239*
X00239Y0124*
X0024Y01241*
X0024Y01242*
X0024Y01243*
X0024Y01245*
X0024Y01246*
X-00158Y00313D02*
Y00336D01*
Y00313D02*
X-00147D01*
X00125D02*
X00136D01*
Y00336*
X-01474Y-00894D02*
X-01435D01*
X-00529Y00286D02*
Y00326D01*
X-00568D02*
X-00529D01*
X-01474Y00286D02*
Y00326D01*
X-01435*
X-01159Y00389D02*
X-01124D01*
X-01194D02*
X-01159D01*
Y00349D02*
Y00428D01*
X00508Y-00893D02*
X00547D01*
X01453Y00287D02*
Y00327D01*
X01414D02*
X01453D01*
X00508Y00287D02*
Y00327D01*
X00547*
X00823Y0039D02*
X00858D01*
X00788D02*
X00823D01*
Y0035D02*
Y00429D01*
X00165Y01261D02*
X00284D01*
Y01143D02*
Y01261D01*
X00165Y01143D02*
X00284D01*
X00165D02*
Y01261D01*
G54D13*
X-0028Y01009D02*
X-00221D01*
X-0028Y01135D02*
X-0022D01*
Y01016D02*
Y01135D01*
X-0028Y01016D02*
X-0022D01*
X-0028D02*
Y01135D01*
Y01235D02*
Y01354D01*
Y01235D02*
X-0022D01*
Y01354*
X-0028D02*
X-0022D01*
X-0028Y01228D02*
X-00221D01*
G54D90*
X00303Y00523D02*
D01*
X00303Y0052*
X00303Y00517*
X00303Y00514*
X00304Y00511*
X00305Y00509*
X00306Y00506*
X00307Y00504*
X00309Y00501*
X0031Y00499*
X00312Y00497*
X00314Y00495*
X00316Y00493*
X00318Y00491*
X0032Y00489*
X00323Y00488*
X00325Y00487*
X00328Y00485*
X0033Y00484*
X00333Y00484*
X00336Y00483*
X00338Y00483*
X00341Y00483*
X00343Y00483*
X-00433Y00089D02*
D01*
X-0043Y00089*
X-00427Y00089*
X-00424Y00089*
X-00421Y0009*
X-00419Y00091*
X-00416Y00092*
X-00414Y00093*
X-00411Y00095*
X-00409Y00096*
X-00407Y00098*
X-00405Y001*
X-00403Y00102*
X-00401Y00104*
X-00399Y00106*
X-00398Y00109*
X-00397Y00111*
X-00395Y00114*
X-00394Y00116*
X-00394Y00119*
X-00393Y00122*
X-00393Y00124*
X-00393Y00127*
X-00393Y00129*
X-00366Y00483D02*
D01*
X-00363Y00483*
X-0036Y00483*
X-00357Y00483*
X-00354Y00484*
X-00352Y00485*
X-00349Y00486*
X-00347Y00487*
X-00344Y00489*
X-00342Y0049*
X-0034Y00492*
X-00338Y00494*
X-00336Y00496*
X-00334Y00498*
X-00332Y005*
X-00331Y00503*
X-0033Y00505*
X-00328Y00508*
X-00327Y0051*
X-00327Y00513*
X-00326Y00516*
X-00326Y00518*
X-00326Y00521*
X-00326Y00523*
X0037Y00129D02*
D01*
X0037Y00126*
X0037Y00123*
X0037Y0012*
X00371Y00117*
X00372Y00115*
X00373Y00112*
X00374Y0011*
X00376Y00107*
X00377Y00105*
X00379Y00103*
X00381Y00101*
X00383Y00099*
X00385Y00097*
X00387Y00095*
X0039Y00094*
X00392Y00093*
X00395Y00091*
X00397Y0009*
X004Y0009*
X00403Y00089*
X00405Y00089*
X00408Y00089*
X0041Y00089*
X0037Y00129D02*
D01*
X0037Y00126*
X0037Y00123*
X0037Y0012*
X00371Y00117*
X00372Y00115*
X00373Y00112*
X00374Y0011*
X00376Y00107*
X00377Y00105*
X00379Y00103*
X00381Y00101*
X00383Y00099*
X00385Y00097*
X00387Y00095*
X0039Y00094*
X00392Y00093*
X00395Y00091*
X00397Y0009*
X004Y0009*
X00403Y00089*
X00405Y00089*
X00408Y00089*
X0041Y00089*
X-00366Y00483D02*
D01*
X-00363Y00483*
X-0036Y00483*
X-00357Y00483*
X-00354Y00484*
X-00352Y00485*
X-00349Y00486*
X-00347Y00487*
X-00344Y00489*
X-00342Y0049*
X-0034Y00492*
X-00338Y00494*
X-00336Y00496*
X-00334Y00498*
X-00332Y005*
X-00331Y00503*
X-0033Y00505*
X-00328Y00508*
X-00327Y0051*
X-00327Y00513*
X-00326Y00516*
X-00326Y00518*
X-00326Y00521*
X-00326Y00523*
X-00433Y00089D02*
D01*
X-0043Y00089*
X-00427Y00089*
X-00424Y00089*
X-00421Y0009*
X-00419Y00091*
X-00416Y00092*
X-00414Y00093*
X-00411Y00095*
X-00409Y00096*
X-00407Y00098*
X-00405Y001*
X-00403Y00102*
X-00401Y00104*
X-00399Y00106*
X-00398Y00109*
X-00397Y00111*
X-00395Y00114*
X-00394Y00116*
X-00394Y00119*
X-00393Y00122*
X-00393Y00124*
X-00393Y00127*
X-00393Y00129*
X00303Y00523D02*
D01*
X00303Y0052*
X00303Y00517*
X00303Y00514*
X00304Y00511*
X00305Y00509*
X00306Y00506*
X00307Y00504*
X00309Y00501*
X0031Y00499*
X00312Y00497*
X00314Y00495*
X00316Y00493*
X00318Y00491*
X0032Y00489*
X00323Y00488*
X00325Y00487*
X00328Y00485*
X0033Y00484*
X00333Y00484*
X00336Y00483*
X00338Y00483*
X00341Y00483*
X00343Y00483*
X00633Y-01105D02*
D01*
X00641Y-01123*
X0065Y-01142*
X0066Y-01159*
X00672Y-01176*
X00672Y-01177*
X00679Y-01186D02*
D01*
X00686Y-01194*
X00694Y-01202*
X00702Y-0121*
X00711Y-01217*
X0072Y-01223*
X0073Y-01229*
X0074Y-01234*
X0075Y-01238*
X00761Y-01242*
X00771Y-01245*
X00782Y-01247*
X00793Y-01248*
X00805Y-01248*
X00806Y-01248*
X01248Y-01247D02*
D01*
X01261Y-01245*
X01274Y-01242*
X01286Y-01238*
X01299Y-01233*
X01311Y-01228*
X01322Y-01221*
X01333Y-01214*
X01344Y-01206*
X01354Y-01197*
X0136Y-01191*
X01419Y-0112D02*
D01*
X01424Y-01112*
X01429Y-01103*
X01433Y-01093*
X01436Y-01083*
X01439Y-01074*
X01441Y-01063*
X01442Y-01053*
X01442Y-01043*
X01443Y-0104*
X-00829Y-01249D02*
D01*
X-00818Y-01248*
X-00807Y-01247*
X-00796Y-01245*
X-00785Y-01242*
X-00774Y-01239*
X-00764Y-01235*
X-00754Y-0123*
X-00744Y-01224*
X-00735Y-01218*
X-00726Y-01211*
X-00718Y-01204*
X-0071Y-01196*
X-00703Y-01187*
X-00702Y-01186*
X-01383Y-01191D02*
D01*
X-01373Y-012*
X-01363Y-01209*
X-01352Y-01217*
X-01341Y-01224*
X-01329Y-0123*
X-01317Y-01235*
X-01304Y-0124*
X-01292Y-01243*
X-01279Y-01246*
X-01271Y-01247*
X-01466Y-0104D02*
D01*
X-01465Y-0105*
X-01464Y-01061*
X-01462Y-01071*
X-0146Y-01081*
X-01457Y-0109*
X-01453Y-011*
X-01448Y-01109*
X-01443Y-01118*
X-01442Y-0112*
X01443Y00429D02*
D01*
X01442Y00435*
X01442Y00442*
X0144Y00448*
X01439Y00454*
X01437Y00461*
X01434Y00467*
X01431Y00473*
X01428Y00478*
X01425Y00484*
X01421Y00489*
X01416Y00494*
X01411Y00498*
X01406Y00503*
X01401Y00506*
X01396Y0051*
X0139Y00513*
X01384Y00516*
X01378Y00518*
X01371Y0052*
X01365Y00521*
X01358Y00522*
X01352Y00522*
X01349Y00523*
X00756Y00483D02*
D01*
X00758Y00483*
X00761Y00483*
X00764Y00483*
X00767Y00484*
X00769Y00485*
X00772Y00486*
X00774Y00487*
X00777Y00489*
X00779Y0049*
X00781Y00492*
X00783Y00494*
X00785Y00496*
X00787Y00498*
X00789Y005*
X0079Y00503*
X00791Y00505*
X00793Y00508*
X00794Y0051*
X00794Y00513*
X00795Y00516*
X00795Y00518*
X00795Y00521*
X00796Y00523*
X0115D02*
D01*
X0115Y0052*
X0115Y00517*
X0115Y00514*
X01151Y00511*
X01152Y00509*
X01153Y00506*
X01154Y00504*
X01156Y00501*
X01157Y00499*
X01159Y00497*
X01161Y00495*
X01163Y00493*
X01165Y00491*
X01167Y00489*
X0117Y00488*
X01172Y00487*
X01175Y00485*
X01177Y00484*
X0118Y00484*
X01183Y00483*
X01185Y00483*
X01188Y00483*
X01191*
X01194Y00483*
X01196Y00483*
X01199Y00484*
X01202Y00484*
X01204Y00485*
X01207Y00487*
X0121Y00488*
X01212Y00489*
X01214Y00491*
X01216Y00493*
X01218Y00495*
X0122Y00497*
X01222Y00499*
X01223Y00501*
X01225Y00504*
X01226Y00506*
X01227Y00509*
X01228Y00511*
X01229Y00514*
X01229Y00517*
X01229Y0052*
X0123Y00523*
X-01253D02*
D01*
X-01252Y0052*
X-01252Y00517*
X-01252Y00514*
X-01251Y00511*
X-0125Y00509*
X-01249Y00506*
X-01248Y00504*
X-01246Y00501*
X-01245Y00499*
X-01243Y00497*
X-01241Y00495*
X-01239Y00493*
X-01237Y00491*
X-01235Y00489*
X-01233Y00488*
X-0123Y00487*
X-01227Y00485*
X-01225Y00484*
X-01222Y00484*
X-01219Y00483*
X-01217Y00483*
X-01214Y00483*
X-01211*
X-01208Y00483*
X-01206Y00483*
X-01203Y00484*
X-012Y00484*
X-01198Y00485*
X-01195Y00487*
X-01192Y00488*
X-0119Y00489*
X-01188Y00491*
X-01186Y00493*
X-01184Y00495*
X-01182Y00497*
X-0118Y00499*
X-01179Y00501*
X-01177Y00504*
X-01176Y00506*
X-01175Y00509*
X-01174Y00511*
X-01173Y00514*
X-01173Y00517*
X-01173Y0052*
X-01173Y00523*
X-01372D02*
D01*
X-01378Y00522*
X-01385Y00522*
X-01391Y0052*
X-01397Y00519*
X-01404Y00517*
X-0141Y00514*
X-01416Y00511*
X-01421Y00508*
X-01427Y00505*
X-01432Y00501*
X-01437Y00496*
X-01441Y00491*
X-01446Y00486*
X-01449Y00481*
X-01453Y00475*
X-01456Y0047*
X-01459Y00464*
X-01461Y00458*
X-01463Y00451*
X-01464Y00445*
X-01465Y00438*
X-01465Y00432*
X-01466Y00429*
X-00819Y00522D02*
D01*
X-00818Y00519*
X-00818Y00516*
X-00818Y00514*
X-00817Y00511*
X-00816Y00508*
X-00815Y00506*
X-00814Y00503*
X-00813Y00501*
X-00811Y00499*
X-00809Y00497*
X-00807Y00494*
X-00806Y00493*
X-00803Y00491*
X-00801Y00489*
X-00799Y00488*
X-00796Y00486*
X-00794Y00485*
X-00791Y00484*
X-00789Y00484*
X-00786Y00483*
X-00783Y00483*
X-00781Y00483*
X-00779Y00483*
X-00669Y00129D02*
D01*
X-00668Y00126*
X-00668Y00123*
X-00668Y0012*
X-00667Y00117*
X-00666Y00115*
X-00665Y00112*
X-00664Y0011*
X-00662Y00107*
X-00661Y00105*
X-00659Y00103*
X-00657Y00101*
X-00655Y00099*
X-00653Y00097*
X-00651Y00095*
X-00648Y00094*
X-00646Y00093*
X-00643Y00091*
X-00641Y0009*
X-00638Y0009*
X-00635Y00089*
X-00633Y00089*
X-0063Y00089*
X-00629Y00089*
X00606D02*
D01*
X00609Y00089*
X00612Y00089*
X00614Y00089*
X00617Y0009*
X0062Y00091*
X00622Y00092*
X00625Y00093*
X00627Y00094*
X00629Y00096*
X00631Y00098*
X00634Y001*
X00635Y00101*
X00637Y00104*
X00639Y00106*
X0064Y00108*
X00642Y00111*
X00643Y00113*
X00644Y00116*
X00644Y00118*
X00645Y00121*
X00645Y00124*
X00645Y00126*
X00646Y00128*
X00606Y00089D02*
D01*
X00609Y00089*
X00612Y00089*
X00614Y00089*
X00617Y0009*
X0062Y00091*
X00622Y00092*
X00625Y00093*
X00627Y00094*
X00629Y00096*
X00631Y00098*
X00634Y001*
X00635Y00101*
X00637Y00104*
X00639Y00106*
X0064Y00108*
X00642Y00111*
X00643Y00113*
X00644Y00116*
X00644Y00118*
X00645Y00121*
X00645Y00124*
X00645Y00126*
X00646Y00128*
X-00669Y00129D02*
D01*
X-00668Y00126*
X-00668Y00123*
X-00668Y0012*
X-00667Y00117*
X-00666Y00115*
X-00665Y00112*
X-00664Y0011*
X-00662Y00107*
X-00661Y00105*
X-00659Y00103*
X-00657Y00101*
X-00655Y00099*
X-00653Y00097*
X-00651Y00095*
X-00648Y00094*
X-00646Y00093*
X-00643Y00091*
X-00641Y0009*
X-00638Y0009*
X-00635Y00089*
X-00633Y00089*
X-0063Y00089*
X-00629Y00089*
X-00819Y00522D02*
D01*
X-00818Y00519*
X-00818Y00516*
X-00818Y00514*
X-00817Y00511*
X-00816Y00508*
X-00815Y00506*
X-00814Y00503*
X-00813Y00501*
X-00811Y00499*
X-00809Y00497*
X-00807Y00494*
X-00806Y00493*
X-00803Y00491*
X-00801Y00489*
X-00799Y00488*
X-00796Y00486*
X-00794Y00485*
X-00791Y00484*
X-00789Y00484*
X-00786Y00483*
X-00783Y00483*
X-00781Y00483*
X-00779Y00483*
X-01372Y00523D02*
D01*
X-01378Y00522*
X-01385Y00522*
X-01391Y0052*
X-01397Y00519*
X-01404Y00517*
X-0141Y00514*
X-01416Y00511*
X-01421Y00508*
X-01427Y00505*
X-01432Y00501*
X-01437Y00496*
X-01441Y00491*
X-01446Y00486*
X-01449Y00481*
X-01453Y00475*
X-01456Y0047*
X-01459Y00464*
X-01461Y00458*
X-01463Y00451*
X-01464Y00445*
X-01465Y00438*
X-01465Y00432*
X-01466Y00429*
X-01253Y00523D02*
D01*
X-01252Y0052*
X-01252Y00517*
X-01252Y00514*
X-01251Y00511*
X-0125Y00509*
X-01249Y00506*
X-01248Y00504*
X-01246Y00501*
X-01245Y00499*
X-01243Y00497*
X-01241Y00495*
X-01239Y00493*
X-01237Y00491*
X-01235Y00489*
X-01233Y00488*
X-0123Y00487*
X-01227Y00485*
X-01225Y00484*
X-01222Y00484*
X-01219Y00483*
X-01217Y00483*
X-01214Y00483*
X-01211*
X-01208Y00483*
X-01206Y00483*
X-01203Y00484*
X-012Y00484*
X-01198Y00485*
X-01195Y00487*
X-01192Y00488*
X-0119Y00489*
X-01188Y00491*
X-01186Y00493*
X-01184Y00495*
X-01182Y00497*
X-0118Y00499*
X-01179Y00501*
X-01177Y00504*
X-01176Y00506*
X-01175Y00509*
X-01174Y00511*
X-01173Y00514*
X-01173Y00517*
X-01173Y0052*
X-01173Y00523*
X0115D02*
D01*
X0115Y0052*
X0115Y00517*
X0115Y00514*
X01151Y00511*
X01152Y00509*
X01153Y00506*
X01154Y00504*
X01156Y00501*
X01157Y00499*
X01159Y00497*
X01161Y00495*
X01163Y00493*
X01165Y00491*
X01167Y00489*
X0117Y00488*
X01172Y00487*
X01175Y00485*
X01177Y00484*
X0118Y00484*
X01183Y00483*
X01185Y00483*
X01188Y00483*
X01191*
X01194Y00483*
X01196Y00483*
X01199Y00484*
X01202Y00484*
X01204Y00485*
X01207Y00487*
X0121Y00488*
X01212Y00489*
X01214Y00491*
X01216Y00493*
X01218Y00495*
X0122Y00497*
X01222Y00499*
X01223Y00501*
X01225Y00504*
X01226Y00506*
X01227Y00509*
X01228Y00511*
X01229Y00514*
X01229Y00517*
X01229Y0052*
X0123Y00523*
X00756Y00483D02*
D01*
X00758Y00483*
X00761Y00483*
X00764Y00483*
X00767Y00484*
X00769Y00485*
X00772Y00486*
X00774Y00487*
X00777Y00489*
X00779Y0049*
X00781Y00492*
X00783Y00494*
X00785Y00496*
X00787Y00498*
X00789Y005*
X0079Y00503*
X00791Y00505*
X00793Y00508*
X00794Y0051*
X00794Y00513*
X00795Y00516*
X00795Y00518*
X00795Y00521*
X00796Y00523*
X01443Y00429D02*
D01*
X01442Y00435*
X01442Y00442*
X0144Y00448*
X01439Y00454*
X01437Y00461*
X01434Y00467*
X01431Y00473*
X01428Y00478*
X01425Y00484*
X01421Y00489*
X01416Y00494*
X01411Y00498*
X01406Y00503*
X01401Y00506*
X01396Y0051*
X0139Y00513*
X01384Y00516*
X01378Y00518*
X01371Y0052*
X01365Y00521*
X01358Y00522*
X01352Y00522*
X01349Y00523*
X-01466Y-0104D02*
D01*
X-01465Y-0105*
X-01464Y-01061*
X-01462Y-01071*
X-0146Y-01081*
X-01457Y-0109*
X-01453Y-011*
X-01448Y-01109*
X-01443Y-01118*
X-01442Y-0112*
X-01383Y-01191D02*
D01*
X-01373Y-012*
X-01363Y-01209*
X-01352Y-01217*
X-01341Y-01224*
X-01329Y-0123*
X-01317Y-01235*
X-01304Y-0124*
X-01292Y-01243*
X-01279Y-01246*
X-01271Y-01247*
X-00829Y-01249D02*
D01*
X-00818Y-01248*
X-00807Y-01247*
X-00796Y-01245*
X-00785Y-01242*
X-00774Y-01239*
X-00764Y-01235*
X-00754Y-0123*
X-00744Y-01224*
X-00735Y-01218*
X-00726Y-01211*
X-00718Y-01204*
X-0071Y-01196*
X-00703Y-01187*
X-00702Y-01186*
X01419Y-0112D02*
D01*
X01424Y-01112*
X01429Y-01103*
X01433Y-01093*
X01436Y-01083*
X01439Y-01074*
X01441Y-01063*
X01442Y-01053*
X01442Y-01043*
X01443Y-0104*
X01248Y-01247D02*
D01*
X01261Y-01245*
X01274Y-01242*
X01286Y-01238*
X01299Y-01233*
X01311Y-01228*
X01322Y-01221*
X01333Y-01214*
X01344Y-01206*
X01354Y-01197*
X0136Y-01191*
X00679Y-01186D02*
D01*
X00686Y-01194*
X00694Y-01202*
X00702Y-0121*
X00711Y-01217*
X0072Y-01223*
X0073Y-01229*
X0074Y-01234*
X0075Y-01238*
X00761Y-01242*
X00771Y-01245*
X00782Y-01247*
X00793Y-01248*
X00805Y-01248*
X00806Y-01248*
X00633Y-01105D02*
D01*
X00641Y-01123*
X0065Y-01142*
X0066Y-01159*
X00672Y-01176*
X00672Y-01177*
X00303Y00523D02*
D01*
X00303Y0052*
X00303Y00517*
X00303Y00514*
X00304Y00511*
X00305Y00509*
X00306Y00506*
X00307Y00504*
X00309Y00501*
X0031Y00499*
X00312Y00497*
X00314Y00495*
X00316Y00493*
X00318Y00491*
X0032Y00489*
X00323Y00488*
X00325Y00487*
X00328Y00485*
X0033Y00484*
X00333Y00484*
X00336Y00483*
X00338Y00483*
X00341Y00483*
X00343Y00483*
X-00433Y00089D02*
D01*
X-0043Y00089*
X-00427Y00089*
X-00424Y00089*
X-00421Y0009*
X-00419Y00091*
X-00416Y00092*
X-00414Y00093*
X-00411Y00095*
X-00409Y00096*
X-00407Y00098*
X-00405Y001*
X-00403Y00102*
X-00401Y00104*
X-00399Y00106*
X-00398Y00109*
X-00397Y00111*
X-00395Y00114*
X-00394Y00116*
X-00394Y00119*
X-00393Y00122*
X-00393Y00124*
X-00393Y00127*
X-00393Y00129*
X-00366Y00483D02*
D01*
X-00363Y00483*
X-0036Y00483*
X-00357Y00483*
X-00354Y00484*
X-00352Y00485*
X-00349Y00486*
X-00347Y00487*
X-00344Y00489*
X-00342Y0049*
X-0034Y00492*
X-00338Y00494*
X-00336Y00496*
X-00334Y00498*
X-00332Y005*
X-00331Y00503*
X-0033Y00505*
X-00328Y00508*
X-00327Y0051*
X-00327Y00513*
X-00326Y00516*
X-00326Y00518*
X-00326Y00521*
X-00326Y00523*
X0037Y00129D02*
D01*
X0037Y00126*
X0037Y00123*
X0037Y0012*
X00371Y00117*
X00372Y00115*
X00373Y00112*
X00374Y0011*
X00376Y00107*
X00377Y00105*
X00379Y00103*
X00381Y00101*
X00383Y00099*
X00385Y00097*
X00387Y00095*
X0039Y00094*
X00392Y00093*
X00395Y00091*
X00397Y0009*
X004Y0009*
X00403Y00089*
X00405Y00089*
X00408Y00089*
X0041Y00089*
X0037Y00129D02*
D01*
X0037Y00126*
X0037Y00123*
X0037Y0012*
X00371Y00117*
X00372Y00115*
X00373Y00112*
X00374Y0011*
X00376Y00107*
X00377Y00105*
X00379Y00103*
X00381Y00101*
X00383Y00099*
X00385Y00097*
X00387Y00095*
X0039Y00094*
X00392Y00093*
X00395Y00091*
X00397Y0009*
X004Y0009*
X00403Y00089*
X00405Y00089*
X00408Y00089*
X0041Y00089*
X-00366Y00483D02*
D01*
X-00363Y00483*
X-0036Y00483*
X-00357Y00483*
X-00354Y00484*
X-00352Y00485*
X-00349Y00486*
X-00347Y00487*
X-00344Y00489*
X-00342Y0049*
X-0034Y00492*
X-00338Y00494*
X-00336Y00496*
X-00334Y00498*
X-00332Y005*
X-00331Y00503*
X-0033Y00505*
X-00328Y00508*
X-00327Y0051*
X-00327Y00513*
X-00326Y00516*
X-00326Y00518*
X-00326Y00521*
X-00326Y00523*
X-00433Y00089D02*
D01*
X-0043Y00089*
X-00427Y00089*
X-00424Y00089*
X-00421Y0009*
X-00419Y00091*
X-00416Y00092*
X-00414Y00093*
X-00411Y00095*
X-00409Y00096*
X-00407Y00098*
X-00405Y001*
X-00403Y00102*
X-00401Y00104*
X-00399Y00106*
X-00398Y00109*
X-00397Y00111*
X-00395Y00114*
X-00394Y00116*
X-00394Y00119*
X-00393Y00122*
X-00393Y00124*
X-00393Y00127*
X-00393Y00129*
X00303Y00523D02*
D01*
X00303Y0052*
X00303Y00517*
X00303Y00514*
X00304Y00511*
X00305Y00509*
X00306Y00506*
X00307Y00504*
X00309Y00501*
X0031Y00499*
X00312Y00497*
X00314Y00495*
X00316Y00493*
X00318Y00491*
X0032Y00489*
X00323Y00488*
X00325Y00487*
X00328Y00485*
X0033Y00484*
X00333Y00484*
X00336Y00483*
X00338Y00483*
X00341Y00483*
X00343Y00483*
X0119Y00995D02*
D01*
X01187Y00994*
X01184Y00994*
X01181Y00994*
X01178Y00993*
X01176Y00992*
X01173Y00991*
X01171Y0099*
X01168Y00988*
X01166Y00987*
X01164Y00985*
X01162Y00983*
X0116Y00981*
X01158Y00979*
X01156Y00977*
X01155Y00975*
X01154Y00972*
X01152Y00969*
X01151Y00967*
X01151Y00964*
X0115Y00961*
X0115Y00959*
X0115Y00956*
X0115Y00955*
X00796D02*
D01*
X00795Y00957*
X00795Y0096*
X00795Y00963*
X00794Y00966*
X00793Y00968*
X00792Y00971*
X00791Y00973*
X00789Y00976*
X00788Y00978*
X00786Y0098*
X00784Y00982*
X00782Y00984*
X0078Y00986*
X00778Y00988*
X00776Y00989*
X00773Y0099*
X0077Y00992*
X00768Y00993*
X00765Y00993*
X00762Y00994*
X0076Y00994*
X00757Y00994*
X00756Y00995*
X-00779D02*
D01*
X-00781Y00994*
X-00784Y00994*
X-00787Y00994*
X-0079Y00993*
X-00792Y00992*
X-00795Y00991*
X-00797Y0099*
X-008Y00988*
X-00802Y00987*
X-00804Y00985*
X-00806Y00983*
X-00808Y00981*
X-0081Y00979*
X-00812Y00977*
X-00813Y00975*
X-00814Y00972*
X-00816Y00969*
X-00817Y00967*
X-00817Y00964*
X-00818Y00961*
X-00818Y00959*
X-00818Y00956*
X-00819Y00955*
X-01173D02*
D01*
X-01173Y00957*
X-01173Y0096*
X-01173Y00963*
X-01174Y00966*
X-01175Y00968*
X-01176Y00971*
X-01177Y00973*
X-01179Y00976*
X-0118Y00978*
X-01182Y0098*
X-01184Y00982*
X-01186Y00984*
X-01188Y00986*
X-0119Y00988*
X-01193Y00989*
X-01195Y0099*
X-01198Y00992*
X-012Y00993*
X-01203Y00993*
X-01206Y00994*
X-01208Y00994*
X-01211Y00994*
X-01213Y00995*
X-01173Y00955D02*
D01*
X-01173Y00957*
X-01173Y0096*
X-01173Y00963*
X-01174Y00966*
X-01175Y00968*
X-01176Y00971*
X-01177Y00973*
X-01179Y00976*
X-0118Y00978*
X-01182Y0098*
X-01184Y00982*
X-01186Y00984*
X-01188Y00986*
X-0119Y00988*
X-01193Y00989*
X-01195Y0099*
X-01198Y00992*
X-012Y00993*
X-01203Y00993*
X-01206Y00994*
X-01208Y00994*
X-01211Y00994*
X-01213Y00995*
X-00779D02*
D01*
X-00781Y00994*
X-00784Y00994*
X-00787Y00994*
X-0079Y00993*
X-00792Y00992*
X-00795Y00991*
X-00797Y0099*
X-008Y00988*
X-00802Y00987*
X-00804Y00985*
X-00806Y00983*
X-00808Y00981*
X-0081Y00979*
X-00812Y00977*
X-00813Y00975*
X-00814Y00972*
X-00816Y00969*
X-00817Y00967*
X-00817Y00964*
X-00818Y00961*
X-00818Y00959*
X-00818Y00956*
X-00819Y00955*
X00796D02*
D01*
X00795Y00957*
X00795Y0096*
X00795Y00963*
X00794Y00966*
X00793Y00968*
X00792Y00971*
X00791Y00973*
X00789Y00976*
X00788Y00978*
X00786Y0098*
X00784Y00982*
X00782Y00984*
X0078Y00986*
X00778Y00988*
X00776Y00989*
X00773Y0099*
X0077Y00992*
X00768Y00993*
X00765Y00993*
X00762Y00994*
X0076Y00994*
X00757Y00994*
X00756Y00995*
X0119D02*
D01*
X01187Y00994*
X01184Y00994*
X01181Y00994*
X01178Y00993*
X01176Y00992*
X01173Y00991*
X01171Y0099*
X01168Y00988*
X01166Y00987*
X01164Y00985*
X01162Y00983*
X0116Y00981*
X01158Y00979*
X01156Y00977*
X01155Y00975*
X01154Y00972*
X01152Y00969*
X01151Y00967*
X01151Y00964*
X0115Y00961*
X0115Y00959*
X0115Y00956*
X0115Y00955*
X-00702Y-01186D02*
D01*
X-00688Y-01164*
X-00674Y-01142*
X-00663Y-01118*
X-00653Y-01094*
X-00652Y-01093*
X-00393Y-00707D02*
X0037D01*
X-00393Y00483D02*
X0037D01*
X00343D02*
X0037D01*
X-00393Y-00707D02*
Y00483D01*
X0037Y-00707D02*
Y00483D01*
X00343D02*
X0037D01*
X-00393D02*
X0037D01*
X00672Y-01177D02*
X00679Y-01186D01*
X00806Y-01249D02*
X01238D01*
X01248Y-01247*
X01396Y-01154D02*
X01396Y-01154D01*
X01419Y-0112*
X01359Y-01192D02*
X01396Y-01154D01*
X-00326Y00523D02*
Y01068D01*
X-00819Y00522D02*
Y00955D01*
X-01173Y00523D02*
Y00955D01*
X-00702Y-01186D02*
D01*
X-01261Y-01249D02*
X-00829D01*
X-01271Y-01247D02*
X-01261Y-01249D01*
X-01419Y-01154D02*
X-01419Y-01154D01*
X-01442Y-0112D02*
X-01419Y-01154D01*
X-01419Y-01154D02*
X-01382Y-01192D01*
X01443Y-0104D02*
Y00429D01*
X0115Y00523D02*
Y00955D01*
X01288Y00995D02*
Y01387D01*
X00658D02*
X01288D01*
X00658Y00995D02*
Y01387D01*
X00796Y00523D02*
Y00955D01*
X-00681Y00995D02*
Y0119D01*
X00303Y00523D02*
Y01387D01*
X-01311D02*
X-00681D01*
X-01311Y00995D02*
Y0119D01*
X-01372Y00523D02*
X-01253D01*
X-01466Y-0104D02*
Y00429D01*
X-00779Y00483D02*
X-00669D01*
X0123Y00523D02*
X01349D01*
X0123Y00511D02*
Y00523D01*
X-00669Y-01133D02*
Y00483D01*
X00646Y-00747D02*
Y00483D01*
X0041Y00089D02*
X00606D01*
X-00629D02*
X-00429D01*
X00646Y00483D02*
X00756D01*
X-00326Y01387D02*
X00303D01*
X-00326Y01068D02*
Y01387D01*
X01288Y00995D02*
Y01387D01*
X00658D02*
X01288D01*
X00658Y00995D02*
Y01387D01*
Y00995D02*
Y01387D01*
X01288*
Y00995D02*
Y01387D01*
X-00326Y01387D02*
X00303D01*
X00646Y00483D02*
X00756D01*
X-00629Y00089D02*
X-00429D01*
X0041D02*
X00606D01*
X00646Y-00747D02*
Y00483D01*
X-00669Y-01133D02*
Y00483D01*
X0123Y00511D02*
Y00523D01*
X01349*
X-00779Y00483D02*
X-00669D01*
X-01466Y-0104D02*
Y00429D01*
X-01372Y00523D02*
X-01253D01*
X-01311Y00995D02*
Y01387D01*
X00303Y00523D02*
Y01387D01*
X-00681Y00995D02*
Y01387D01*
X00796Y00523D02*
Y00955D01*
X00658Y00995D02*
Y01387D01*
X01288*
Y00995D02*
Y01387D01*
X0115Y00523D02*
Y00955D01*
X01443Y-0104D02*
Y00429D01*
X-01419Y-01154D02*
X-01382Y-01192D01*
X-01442Y-0112D02*
X-01419Y-01154D01*
X-01419Y-01154*
X-01271Y-01247D02*
X-01261Y-01249D01*
X-00829*
X-00702Y-01186D02*
X-00695Y-01177D01*
X-01173Y00523D02*
Y00955D01*
X-00819Y00522D02*
Y00955D01*
X-00326Y00523D02*
Y01068D01*
X01359Y-01192D02*
X01396Y-01154D01*
X01396Y-01154D02*
X01419Y-0112D01*
X01396Y-01154D02*
X01396Y-01154D01*
X01238Y-01249D02*
X01248Y-01247D01*
X00806Y-01249D02*
X01238D01*
X00672Y-01177D02*
X00679Y-01186D01*
X-00393Y00483D02*
X0037D01*
X00343D02*
X0037D01*
Y-00707D02*
Y00483D01*
X-00393Y-00707D02*
Y00483D01*
X00343D02*
X0037D01*
X-00393D02*
X0037D01*
X-00393Y-00707D02*
X0037D01*
X-00779Y00995D02*
X-00681D01*
X-01311D02*
X-01213D01*
X0119D02*
X01288D01*
Y01006D02*
Y01387D01*
X00658Y00995D02*
Y01387D01*
X00658Y00995D02*
X00756D01*
X-00681D02*
Y01387D01*
X-01311Y00995D02*
Y01387D01*
Y00995D02*
X01288D01*
X-01311Y01387D02*
X01288D01*
X0119Y00995D02*
X01288D01*
X00658D02*
X00756D01*
X01288D02*
Y01387D01*
X00658Y01006D02*
Y01387D01*
Y01006D02*
Y01387D01*
X01288Y01006D02*
Y01387D01*
X00658Y00995D02*
X00756D01*
X0119D02*
X01288D01*
X-01311Y01006D02*
Y01387D01*
X-00681Y01006D02*
Y01387D01*
X00658Y00995D02*
X00756D01*
X00658Y01006D02*
Y01387D01*
X01288Y01006D02*
Y01387D01*
X0119Y00995D02*
X01288D01*
X-01311D02*
X-01213D01*
X-00779D02*
X-00681D01*
G54D91*
X-00629Y-00707D02*
D01*
X-00631Y-00707*
X-00634Y-00707*
X-00637Y-00708*
X-0064Y-00708*
X-00642Y-00709*
X-00645Y-0071*
X-00647Y-00711*
X-0065Y-00713*
X-00652Y-00714*
X-00654Y-00716*
X-00656Y-00718*
X-00658Y-0072*
X-0066Y-00722*
X-00662Y-00724*
X-00663Y-00727*
X-00664Y-00729*
X-00666Y-00732*
X-00667Y-00734*
X-00667Y-00737*
X-00668Y-0074*
X-00668Y-00743*
X-00668Y-00745*
X-00669Y-00747*
X00646Y-00747D02*
D01*
X00645Y-00744*
X00645Y-00741*
X00645Y-00738*
X00644Y-00735*
X00643Y-00733*
X00642Y-0073*
X00641Y-00728*
X00639Y-00725*
X00638Y-00723*
X00636Y-00721*
X00634Y-00719*
X00632Y-00717*
X0063Y-00715*
X00628Y-00713*
X00626Y-00712*
X00623Y-00711*
X0062Y-00709*
X00618Y-00708*
X00615Y-00708*
X00612Y-00707*
X0061Y-00707*
X00607Y-00707*
X00606Y-00707*
X00646Y-00747D02*
D01*
X00645Y-00744*
X00645Y-00741*
X00645Y-00738*
X00644Y-00735*
X00643Y-00733*
X00642Y-0073*
X00641Y-00728*
X00639Y-00725*
X00638Y-00723*
X00636Y-00721*
X00634Y-00719*
X00632Y-00717*
X0063Y-00715*
X00628Y-00713*
X00626Y-00712*
X00623Y-00711*
X0062Y-00709*
X00618Y-00708*
X00615Y-00708*
X00612Y-00707*
X0061Y-00707*
X00607Y-00707*
X00606Y-00707*
X-00629Y-00707D02*
D01*
X-00631Y-00707*
X-00634Y-00707*
X-00637Y-00708*
X-0064Y-00708*
X-00642Y-00709*
X-00645Y-0071*
X-00647Y-00711*
X-0065Y-00713*
X-00652Y-00714*
X-00654Y-00716*
X-00656Y-00718*
X-00658Y-0072*
X-0066Y-00722*
X-00662Y-00724*
X-00663Y-00727*
X-00664Y-00729*
X-00666Y-00732*
X-00667Y-00734*
X-00667Y-00737*
X-00668Y-0074*
X-00668Y-00743*
X-00668Y-00745*
X-00669Y-00747*
X00646Y-01133D02*
Y-00747D01*
X-0063Y-00707D02*
X-00393D01*
X0037D02*
X00607D01*
X0037D02*
X00607D01*
X-0063D02*
X-00393D01*
X00646Y-01133D02*
Y-00747D01*
G54D111*
X01177Y00484D02*
X01192D01*
X01177Y00287D02*
X01192D01*
X-01217Y00484D02*
X-01202D01*
X-01217Y00287D02*
X-01202D01*
X00968Y01178D02*
Y01221D01*
X-00812Y00324D02*
Y00368D01*
X00784Y0032D02*
Y00364D01*
X-01Y01178D02*
Y01221D01*
X-00369Y-00111D02*
Y00025D01*
X-0025Y-00115D02*
Y00025D01*
X0Y00206D02*
X00083D01*
X0Y00143D02*
X00083D01*
X0D02*
Y00206D01*
X00083Y00143D02*
Y00206D01*
X-00023Y-00271D02*
X00019D01*
X00229Y-00282D02*
Y-00239D01*
X00054Y-00576D02*
X00074D01*
Y-00556*
X-00098Y-00576D02*
X-00078D01*
X-00098D02*
Y-00556D01*
Y-00423D02*
Y-00403D01*
X-00078*
X00054D02*
X00074D01*
Y-00423D02*
Y-00403D01*
X-00165Y00112D02*
Y00257D01*
X-00366Y00112D02*
Y00257D01*
Y00112D02*
X-00165D01*
X-00366Y00257D02*
X-00165D01*
X-00134Y00154D02*
X-00015D01*
X-00134Y00189D02*
X-00015D01*
Y00154D02*
Y00189D01*
X-00134Y00154D02*
Y00189D01*
G54D116*
X-00238Y00014D02*
D01*
X-00238Y00014*
X-00238Y00014*
X-00238Y00015*
X-00238Y00015*
X-00238Y00015*
X-00238Y00016*
X-00238Y00016*
X-00238Y00016*
X-00239Y00017*
X-00239Y00017*
X-00239Y00017*
X-00239Y00017*
X-0024Y00018*
X-0024Y00018*
X-0024Y00018*
X-0024Y00018*
X-00241Y00018*
X-00241Y00018*
X-00241Y00018*
X-00242Y00018*
X-00242Y00019*
X-00242Y00019*
X-00243*
X-00243Y00019*
X-00243Y00018*
X-00244Y00018*
X-00244Y00018*
X-00244Y00018*
X-00245Y00018*
X-00245Y00018*
X-00245Y00018*
X-00246Y00018*
X-00246Y00017*
X-00246Y00017*
X-00246Y00017*
X-00247Y00017*
X-00247Y00016*
X-00247Y00016*
X-00247Y00016*
X-00247Y00015*
X-00247Y00015*
X-00247Y00015*
X-00247Y00014*
X-00248Y00014*
X-00248Y00014*
X-00248Y00013*
X-00247Y00013*
X-00247Y00013*
X-00247Y00012*
X-00247Y00012*
X-00247Y00012*
X-00247Y00011*
X-00247Y00011*
X-00247Y00011*
X-00246Y0001*
X-00246Y0001*
X-00246Y0001*
X-00246Y0001*
X-00245Y0001*
X-00245Y00009*
X-00245Y00009*
X-00244Y00009*
X-00244Y00009*
X-00244Y00009*
X-00243Y00009*
X-00243Y00009*
X-00243Y00009*
X-00242*
X-00242Y00009*
X-00242Y00009*
X-00241Y00009*
X-00241Y00009*
X-00241Y00009*
X-0024Y00009*
X-0024Y00009*
X-0024Y0001*
X-0024Y0001*
X-00239Y0001*
X-00239Y0001*
X-00239Y0001*
X-00239Y00011*
X-00238Y00011*
X-00238Y00011*
X-00238Y00012*
X-00238Y00012*
X-00238Y00012*
X-00238Y00013*
X-00238Y00013*
X-00238Y00013*
X-00238Y00014*
X-00009Y00236D02*
D01*
X-00009Y00236*
X-00009Y00236*
X-00009Y00237*
X-00009Y00237*
X-00009Y00237*
X-00009Y00238*
X-00009Y00238*
X-00009Y00238*
X-0001Y00238*
X-0001Y00239*
X-0001Y00239*
X-0001Y00239*
X-00011Y00239*
X-00011Y0024*
X-00011Y0024*
X-00011Y0024*
X-00012Y0024*
X-00012Y0024*
X-00012Y0024*
X-00013Y0024*
X-00013Y0024*
X-00013Y0024*
X-00014*
X-00014Y0024*
X-00014Y0024*
X-00015Y0024*
X-00015Y0024*
X-00015Y0024*
X-00016Y0024*
X-00016Y0024*
X-00016Y0024*
X-00017Y00239*
X-00017Y00239*
X-00017Y00239*
X-00017Y00239*
X-00018Y00238*
X-00018Y00238*
X-00018Y00238*
X-00018Y00238*
X-00018Y00237*
X-00018Y00237*
X-00018Y00237*
X-00018Y00236*
X-00019Y00236*
X-00019Y00236*
X-00019Y00235*
X-00018Y00235*
X-00018Y00234*
X-00018Y00234*
X-00018Y00234*
X-00018Y00234*
X-00018Y00233*
X-00018Y00233*
X-00018Y00233*
X-00017Y00232*
X-00017Y00232*
X-00017Y00232*
X-00017Y00232*
X-00016Y00231*
X-00016Y00231*
X-00016Y00231*
X-00015Y00231*
X-00015Y00231*
X-00015Y00231*
X-00014Y00231*
X-00014Y00231*
X-00014Y00231*
X-00013*
X-00013Y00231*
X-00013Y00231*
X-00012Y00231*
X-00012Y00231*
X-00012Y00231*
X-00011Y00231*
X-00011Y00231*
X-00011Y00231*
X-00011Y00232*
X-0001Y00232*
X-0001Y00232*
X-0001Y00232*
X-0001Y00233*
X-00009Y00233*
X-00009Y00233*
X-00009Y00234*
X-00009Y00234*
X-00009Y00234*
X-00009Y00234*
X-00009Y00235*
X-00009Y00235*
X-00009Y00236*
X00092Y-00427D02*
D01*
X00092Y-00426*
X00092Y-00426*
X00092Y-00426*
X00092Y-00426*
X00092Y-00426*
X00092Y-00425*
X00092Y-00425*
X00092Y-00425*
X00092Y-00425*
X00092Y-00425*
X00091Y-00425*
X00091Y-00424*
X00091Y-00424*
X00091Y-00424*
X00091Y-00424*
X00091Y-00424*
X00091Y-00424*
X0009Y-00424*
X0009Y-00424*
X0009Y-00424*
X0009Y-00424*
X0009Y-00424*
X00089*
X00089Y-00424*
X00089Y-00424*
X00089Y-00424*
X00089Y-00424*
X00088Y-00424*
X00088Y-00424*
X00088Y-00424*
X00088Y-00424*
X00088Y-00424*
X00088Y-00424*
X00088Y-00425*
X00087Y-00425*
X00087Y-00425*
X00087Y-00425*
X00087Y-00425*
X00087Y-00425*
X00087Y-00426*
X00087Y-00426*
X00087Y-00426*
X00087Y-00426*
X00087Y-00426*
X00087Y-00427*
X00087Y-00427*
X00087Y-00427*
X00087Y-00427*
X00087Y-00427*
X00087Y-00427*
X00087Y-00428*
X00087Y-00428*
X00087Y-00428*
X00087Y-00428*
X00087Y-00428*
X00088Y-00428*
X00088Y-00429*
X00088Y-00429*
X00088Y-00429*
X00088Y-00429*
X00088Y-00429*
X00088Y-00429*
X00089Y-00429*
X00089Y-00429*
X00089Y-00429*
X00089Y-00429*
X00089Y-00429*
X0009*
X0009Y-00429*
X0009Y-00429*
X0009Y-00429*
X0009Y-00429*
X00091Y-00429*
X00091Y-00429*
X00091Y-00429*
X00091Y-00429*
X00091Y-00429*
X00091Y-00429*
X00091Y-00428*
X00092Y-00428*
X00092Y-00428*
X00092Y-00428*
X00092Y-00428*
X00092Y-00428*
X00092Y-00427*
X00092Y-00427*
X00092Y-00427*
X00092Y-00427*
X00092Y-00427*
X00092Y-00427*
X-00379Y00295D02*
D01*
X-00379Y00295*
X-00379Y00295*
X-00379Y00296*
X-00379Y00296*
X-00379Y00296*
X-00379Y00297*
X-00379Y00297*
X-00379Y00297*
X-0038Y00298*
X-0038Y00298*
X-0038Y00298*
X-0038Y00298*
X-00381Y00299*
X-00381Y00299*
X-00381Y00299*
X-00381Y00299*
X-00382Y00299*
X-00382Y00299*
X-00382Y003*
X-00383Y003*
X-00383Y003*
X-00383Y003*
X-00384*
X-00384Y003*
X-00384Y003*
X-00385Y003*
X-00385Y00299*
X-00385Y00299*
X-00386Y00299*
X-00386Y00299*
X-00386Y00299*
X-00387Y00299*
X-00387Y00298*
X-00387Y00298*
X-00387Y00298*
X-00388Y00298*
X-00388Y00297*
X-00388Y00297*
X-00388Y00297*
X-00388Y00296*
X-00388Y00296*
X-00388Y00296*
X-00388Y00295*
X-00389Y00295*
X-00389Y00295*
X-00389Y00294*
X-00388Y00294*
X-00388Y00294*
X-00388Y00293*
X-00388Y00293*
X-00388Y00293*
X-00388Y00292*
X-00388Y00292*
X-00388Y00292*
X-00387Y00292*
X-00387Y00291*
X-00387Y00291*
X-00387Y00291*
X-00386Y00291*
X-00386Y0029*
X-00386Y0029*
X-00385Y0029*
X-00385Y0029*
X-00385Y0029*
X-00384Y0029*
X-00384Y0029*
X-00384Y0029*
X-00383*
X-00383Y0029*
X-00383Y0029*
X-00382Y0029*
X-00382Y0029*
X-00382Y0029*
X-00381Y0029*
X-00381Y0029*
X-00381Y00291*
X-00381Y00291*
X-0038Y00291*
X-0038Y00291*
X-0038Y00292*
X-0038Y00292*
X-00379Y00292*
X-00379Y00292*
X-00379Y00293*
X-00379Y00293*
X-00379Y00293*
X-00379Y00294*
X-00379Y00294*
X-00379Y00294*
X-00379Y00295*
X-00142Y00223D02*
D01*
X-00142Y00223*
X-00142Y00223*
X-00143Y00224*
X-00143Y00224*
X-00143Y00224*
X-00143Y00225*
X-00143Y00225*
X-00143Y00225*
X-00143Y00226*
X-00144Y00226*
X-00144Y00226*
X-00144Y00226*
X-00144Y00227*
X-00145Y00227*
X-00145Y00227*
X-00145Y00227*
X-00145Y00227*
X-00146Y00227*
X-00146Y00227*
X-00146Y00228*
X-00147Y00228*
X-00147Y00228*
X-00148*
X-00148Y00228*
X-00148Y00228*
X-00149Y00227*
X-00149Y00227*
X-00149Y00227*
X-00149Y00227*
X-0015Y00227*
X-0015Y00227*
X-0015Y00227*
X-00151Y00226*
X-00151Y00226*
X-00151Y00226*
X-00151Y00226*
X-00152Y00225*
X-00152Y00225*
X-00152Y00225*
X-00152Y00224*
X-00152Y00224*
X-00152Y00224*
X-00152Y00223*
X-00152Y00223*
X-00152Y00223*
X-00152Y00222*
X-00152Y00222*
X-00152Y00222*
X-00152Y00221*
X-00152Y00221*
X-00152Y00221*
X-00152Y0022*
X-00152Y0022*
X-00151Y0022*
X-00151Y0022*
X-00151Y00219*
X-00151Y00219*
X-0015Y00219*
X-0015Y00219*
X-0015Y00218*
X-00149Y00218*
X-00149Y00218*
X-00149Y00218*
X-00149Y00218*
X-00148Y00218*
X-00148Y00218*
X-00148Y00218*
X-00147*
X-00147Y00218*
X-00146Y00218*
X-00146Y00218*
X-00146Y00218*
X-00145Y00218*
X-00145Y00218*
X-00145Y00218*
X-00145Y00219*
X-00144Y00219*
X-00144Y00219*
X-00144Y00219*
X-00144Y0022*
X-00143Y0022*
X-00143Y0022*
X-00143Y0022*
X-00143Y00221*
X-00143Y00221*
X-00143Y00221*
X-00143Y00222*
X-00142Y00222*
X-00142Y00222*
X-00142Y00223*
G54D120*
X0119Y00397D02*
X01181D01*
Y00392*
X01182Y00391*
X01185*
X01187Y00392*
Y00397*
Y00394D02*
X0119Y00391D01*
X01181Y00388D02*
Y00382D01*
Y00385*
X0119*
Y00373D02*
Y00379D01*
X01184Y00373*
X01182*
X01181Y00375*
Y00378*
X01182Y00379*
X0119Y00371D02*
X01188D01*
Y00369*
X0119*
Y00371*
Y00363D02*
Y0036D01*
Y00362*
X01181*
X01182Y00363*
X01181Y0035D02*
X01182Y00353D01*
X01185Y00356*
X01188*
X0119Y00355*
Y00352*
X01188Y0035*
X01187*
X01185Y00352*
Y00356*
X-01207Y00364D02*
X-01215D01*
Y00359*
X-01214Y00358*
X-01211*
X-01209Y00359*
Y00364*
Y00361D02*
X-01207Y00358D01*
X-01215Y00355D02*
Y00349D01*
Y00352*
X-01207*
Y00346D02*
Y00343D01*
Y00345*
X-01215*
X-01214Y00346*
X-01207Y00339D02*
X-01208D01*
Y00338*
X-01207*
Y00339*
Y00332D02*
Y00329D01*
Y0033*
X-01215*
X-01214Y00332*
X-01215Y00319D02*
X-01214Y00322D01*
X-01211Y00325*
X-01208*
X-01207Y00323*
Y0032*
X-01208Y00319*
X-01209*
X-01211Y0032*
Y00325*
X00235Y-0054D02*
Y-00531D01*
X0023*
X00229Y-00532*
Y-00535*
X0023Y-00537*
X00235*
X00232D02*
X00229Y-0054D01*
X00226D02*
X00223D01*
X00224*
Y-00531*
X00226Y-00532*
X00219D02*
X00217Y-00531D01*
X00214*
X00213Y-00532*
Y-00538*
X00214Y-0054*
X00217*
X00219Y-00538*
Y-00532*
X0021Y-0054D02*
Y-00538D01*
X00209*
Y-0054*
X0021*
X00203D02*
X002D01*
X00201*
Y-00531*
X00203Y-00532*
X00196Y-00538D02*
X00194Y-0054D01*
X00191*
X0019Y-00538*
Y-00532*
X00191Y-00531*
X00194*
X00196Y-00532*
Y-00534*
X00194Y-00535*
X0019*
X-00217Y0041D02*
Y00418D01*
X-00221*
X-00222Y00417*
Y00414*
X-00221Y00412*
X-00217*
X-00219D02*
X-00222Y0041D01*
X-00225D02*
X-00228D01*
X-00227*
Y00418*
X-00225Y00417*
X-00237Y0041D02*
Y00418D01*
X-00232Y00414*
X-00238*
X-00241Y0041D02*
Y00411D01*
X-00242*
Y0041*
X-00241*
X-00248D02*
X-00251D01*
X-0025*
Y00418*
X-00248Y00417*
X-00255Y00411D02*
X-00257Y0041D01*
X-0026*
X-00261Y00411*
Y00417*
X-0026Y00418*
X-00257*
X-00255Y00417*
Y00415*
X-00257Y00414*
X-00261*
X-00267Y0041D02*
Y00418D01*
X-00271*
X-00272Y00417*
Y00414*
X-00271Y00412*
X-00267*
X-00269D02*
X-00272Y0041D01*
X-00275D02*
X-00278D01*
X-00277*
Y00418*
X-00275Y00417*
X-00282D02*
X-00284Y00418D01*
X-00287*
X-00288Y00417*
Y00415*
X-00287Y00414*
X-00285*
X-00287*
X-00288Y00412*
Y00411*
X-00287Y0041*
X-00284*
X-00282Y00411*
X-00291Y0041D02*
Y00411D01*
X-00292*
Y0041*
X-00291*
X-00298D02*
X-00301D01*
X-003*
Y00418*
X-00298Y00417*
X-00305Y00411D02*
X-00307Y0041D01*
X-0031*
X-00311Y00411*
Y00417*
X-0031Y00418*
X-00307*
X-00305Y00417*
Y00415*
X-00307Y00414*
X-00311*
X-00732Y-00005D02*
X-00737D01*
X-00734*
Y-00014*
X-0074D02*
Y-00005D01*
X-00744*
X-00746Y-00006*
Y-00009*
X-00744Y-00011*
X-0074*
X-00749Y-00014D02*
X-00752D01*
X-0075*
Y-00005*
X-00749Y-00006*
X-00756Y-00014D02*
X-00759D01*
X-00757*
Y-00005*
X-00756Y-00006*
X-00763Y-00014D02*
Y-00012D01*
X-00765*
Y-00014*
X-00763*
X-00776Y-00005D02*
X-0077D01*
Y-00009*
X-00773Y-00008*
X-00775*
X-00776Y-00009*
Y-00012*
X-00775Y-00014*
X-00772*
X-0077Y-00012*
X-00834Y-00068D02*
X-00839D01*
X-00836*
Y-00077*
X-00842D02*
Y-00068D01*
X-00846*
X-00848Y-00069*
Y-00072*
X-00846Y-00074*
X-00842*
X-00851Y-00077D02*
X-00854D01*
X-00852*
Y-00068*
X-00851Y-00069*
X-00858D02*
X-00859Y-00068D01*
X-00862*
X-00864Y-00069*
Y-00075*
X-00862Y-00077*
X-00859*
X-00858Y-00075*
Y-00069*
X-00867Y-00077D02*
Y-00075D01*
X-00868*
Y-00077*
X-00867*
X-0088Y-00068D02*
X-00874D01*
Y-00072*
X-00877Y-00071*
X-00878*
X-0088Y-00072*
Y-00075*
X-00878Y-00077*
X-00875*
X-00874Y-00075*
X-00844Y-00351D02*
X-00849D01*
X-00846*
Y-0036*
X-00852D02*
Y-00351D01*
X-00856*
X-00858Y-00352*
Y-00355*
X-00856Y-00357*
X-00852*
X-00865Y-0036D02*
Y-00351D01*
X-00861Y-00355*
X-00867*
X-00869Y-0036D02*
Y-00358D01*
X-00871*
Y-0036*
X-00869*
X-00877D02*
X-0088D01*
X-00878*
Y-00351*
X-00877Y-00352*
X-0089Y-00351D02*
X-00884D01*
Y-00355*
X-00887Y-00354*
X-00888*
X-0089Y-00355*
Y-00358*
X-00888Y-0036*
X-00885*
X-00884Y-00358*
X-0002Y-00627D02*
X-00025D01*
X-00022*
Y-00636*
X-00028D02*
Y-00627D01*
X-00032*
X-00034Y-00628*
Y-00631*
X-00032Y-00633*
X-00028*
X-00037Y-00628D02*
X-00038Y-00627D01*
X-00041*
X-00043Y-00628*
Y-0063*
X-00041Y-00631*
X-0004*
X-00041*
X-00043Y-00633*
Y-00634*
X-00041Y-00636*
X-00038*
X-00037Y-00634*
X-00045Y-00636D02*
Y-00634D01*
X-00047*
Y-00636*
X-00045*
X-00053D02*
X-00056D01*
X-00054*
Y-00627*
X-00053Y-00628*
X-00066Y-00627D02*
X-0006D01*
Y-00631*
X-00063Y-0063*
X-00064*
X-00066Y-00631*
Y-00634*
X-00064Y-00636*
X-00061*
X-0006Y-00634*
X-00126Y-00576D02*
Y-00567D01*
X-0013*
X-00131Y-00569*
Y-00572*
X-0013Y-00573*
X-00126*
X-00128D02*
X-00131Y-00576D01*
X-0014D02*
X-00134D01*
X-0014Y-0057*
Y-00569*
X-00138Y-00567*
X-00136*
X-00134Y-00569*
X-00143Y-00576D02*
Y-00575D01*
X-00144*
Y-00576*
X-00143*
X-0015D02*
X-00153D01*
X-00151*
Y-00567*
X-0015Y-00569*
X-00157Y-00576D02*
X-0016D01*
X-00159*
Y-00567*
X-00157Y-00569*
X-00322Y00417D02*
X-00321Y00418D01*
X-00318*
X-00317Y00417*
Y00411*
X-00318Y0041*
X-00321*
X-00322Y00411*
X-00325Y0041D02*
X-00328D01*
X-00327*
Y00418*
X-00325Y00417*
X-00332Y0041D02*
X-00335D01*
X-00334*
Y00418*
X-00332Y00417*
X-0034Y0041D02*
Y00411D01*
X-00341*
Y0041*
X-0034*
X-00347D02*
X-0035D01*
X-00348*
Y00418*
X-00347Y00417*
X-00354Y00411D02*
X-00355Y0041D01*
X-00358*
X-0036Y00411*
Y00417*
X-00358Y00418*
X-00355*
X-00354Y00417*
Y00415*
X-00355Y00414*
X-0036*
X-00051Y0004D02*
X-00056D01*
X-00053*
Y00032*
X-00059D02*
Y0004D01*
X-00063*
X-00065Y00039*
Y00036*
X-00063Y00034*
X-00059*
X-00068Y00032D02*
X-00071D01*
X-00069*
Y0004*
X-00068Y00039*
X-00075D02*
X-00076Y0004D01*
X-00079*
X-00081Y00039*
Y00033*
X-00079Y00032*
X-00076*
X-00075Y00033*
Y00039*
X-00084Y00032D02*
Y00033D01*
X-00085*
Y00032*
X-00084*
X-00097D02*
X-00091D01*
X-00097Y00037*
Y00039*
X-00095Y0004*
X-00092*
X-00091Y00039*
X-00959Y-00358D02*
X-00964D01*
X-00961*
Y-00367*
X-00967D02*
Y-00358D01*
X-00971*
X-00973Y-00359*
Y-00362*
X-00971Y-00364*
X-00967*
X-00976Y-00365D02*
X-00977Y-00367D01*
X-0098*
X-00982Y-00365*
Y-00359*
X-0098Y-00358*
X-00977*
X-00976Y-00359*
Y-00361*
X-00977Y-00362*
X-00982*
X-00984Y-00367D02*
Y-00365D01*
X-00986*
Y-00367*
X-00984*
X-00997Y-00358D02*
X-00992D01*
Y-00362*
X-00995Y-00361*
X-00996*
X-00997Y-00362*
Y-00365*
X-00996Y-00367*
X-00993*
X-00992Y-00365*
X-01085Y-00359D02*
X-01091D01*
X-01088*
Y-00368*
X-01094D02*
Y-00359D01*
X-01098*
X-01099Y-0036*
Y-00363*
X-01098Y-00365*
X-01094*
X-01102Y-0036D02*
X-01104Y-00359D01*
X-01107*
X-01108Y-0036*
Y-00362*
X-01107Y-00363*
X-01108Y-00365*
Y-00366*
X-01107Y-00368*
X-01104*
X-01102Y-00366*
Y-00365*
X-01104Y-00363*
X-01102Y-00362*
Y-0036*
X-01104Y-00363D02*
X-01107D01*
X-01111Y-00368D02*
Y-00366D01*
X-01112*
Y-00368*
X-01111*
X-01124Y-00359D02*
X-01118D01*
Y-00363*
X-01121Y-00362*
X-01122*
X-01124Y-00363*
Y-00366*
X-01122Y-00368*
X-0112*
X-01118Y-00366*
X-01363Y-00378D02*
X-01368D01*
X-01365*
Y-00387*
X-01371D02*
Y-00378D01*
X-01375*
X-01377Y-00379*
Y-00382*
X-01375Y-00384*
X-01371*
X-0138Y-00378D02*
X-01386D01*
Y-00379*
X-0138Y-00385*
Y-00387*
X-01388D02*
Y-00385D01*
X-0139*
Y-00387*
X-01388*
X-01401Y-00378D02*
X-01396D01*
Y-00382*
X-01399Y-00381*
X-014*
X-01401Y-00382*
Y-00385*
X-014Y-00387*
X-01397*
X-01396Y-00385*
X-01389Y-00261D02*
X-01394D01*
X-01391*
Y-0027*
X-01397D02*
Y-00261D01*
X-01401*
X-01403Y-00262*
Y-00265*
X-01401Y-00267*
X-01397*
X-01412Y-00261D02*
X-01409Y-00262D01*
X-01406Y-00265*
Y-00268*
X-01407Y-0027*
X-0141*
X-01412Y-00268*
Y-00267*
X-0141Y-00265*
X-01406*
X-01414Y-0027D02*
Y-00268D01*
X-01416*
Y-0027*
X-01414*
X-01427Y-00261D02*
X-01422D01*
Y-00265*
X-01425Y-00264*
X-01426*
X-01427Y-00265*
Y-00268*
X-01426Y-0027*
X-01423*
X-01422Y-00268*
X01017Y-00308D02*
X01011D01*
X01014*
Y-00317*
X01008D02*
Y-00308D01*
X01004*
X01003Y-0031*
Y-00313*
X01004Y-00314*
X01008*
X00996Y-00317D02*
Y-00308D01*
X01Y-00313*
X00994*
X00991Y-0031D02*
X0099Y-00308D01*
X00987*
X00985Y-0031*
Y-00315*
X00987Y-00317*
X0099*
X00991Y-00315*
Y-0031*
X00983Y-00317D02*
Y-00315D01*
X00981*
Y-00317*
X00983*
X00975D02*
X00972D01*
X00974*
Y-00308*
X00975Y-0031*
X00968Y-00308D02*
X00962D01*
Y-0031*
X00968Y-00315*
Y-00317*
X01249Y-00457D02*
X01243D01*
X01246*
Y-00466*
X0124D02*
Y-00457D01*
X01236*
X01234Y-00458*
Y-00461*
X01236Y-00463*
X0124*
X01231Y-00458D02*
X0123Y-00457D01*
X01227*
X01225Y-00458*
Y-0046*
X01227Y-00461*
X01228*
X01227*
X01225Y-00463*
Y-00464*
X01227Y-00466*
X0123*
X01231Y-00464*
X01223D02*
X01221Y-00466D01*
X01218*
X01217Y-00464*
Y-00458*
X01218Y-00457*
X01221*
X01223Y-00458*
Y-0046*
X01221Y-00461*
X01217*
X01214Y-00466D02*
Y-00464D01*
X01212*
Y-00466*
X01214*
X01207D02*
X01204D01*
X01205*
Y-00457*
X01207Y-00458*
X01199Y-00457D02*
X01194D01*
Y-00458*
X01199Y-00464*
Y-00466*
X01392Y-0066D02*
X01386D01*
X01389*
Y-00669*
X01383D02*
Y-0066D01*
X01379*
X01377Y-00661*
Y-00664*
X01379Y-00666*
X01383*
X01374Y-00661D02*
X01373Y-0066D01*
X0137*
X01368Y-00661*
Y-00663*
X0137Y-00664*
X01371*
X0137*
X01368Y-00666*
Y-00667*
X0137Y-00669*
X01373*
X01374Y-00667*
X01366Y-00661D02*
X01364Y-0066D01*
X01361*
X0136Y-00661*
Y-00663*
X01361Y-00664*
X0136Y-00666*
Y-00667*
X01361Y-00669*
X01364*
X01366Y-00667*
Y-00666*
X01364Y-00664*
X01366Y-00663*
Y-00661*
X01364Y-00664D02*
X01361D01*
X01357Y-00669D02*
Y-00667D01*
X01355*
Y-00669*
X01357*
X0135D02*
X01347D01*
X01348*
Y-0066*
X0135Y-00661*
X01342Y-0066D02*
X01337D01*
Y-00661*
X01342Y-00667*
Y-00669*
X01296Y-00575D02*
X0129D01*
X01293*
Y-00584*
X01287D02*
Y-00575D01*
X01283*
X01281Y-00576*
Y-00579*
X01283Y-00581*
X01287*
X01278Y-00576D02*
X01277Y-00575D01*
X01274*
X01272Y-00576*
Y-00578*
X01274Y-00579*
X01275*
X01274*
X01272Y-00581*
Y-00582*
X01274Y-00584*
X01277*
X01278Y-00582*
X0127Y-00575D02*
X01264D01*
Y-00576*
X0127Y-00582*
Y-00584*
X01261D02*
Y-00582D01*
X01259*
Y-00584*
X01261*
X01254D02*
X01251D01*
X01252*
Y-00575*
X01254Y-00576*
X01246Y-00575D02*
X01241D01*
Y-00576*
X01246Y-00582*
Y-00584*
X01239Y-00055D02*
X01233D01*
X01236*
Y-00064*
X0123D02*
Y-00055D01*
X01226*
X01224Y-00056*
Y-00059*
X01226Y-00061*
X0123*
X01221Y-00056D02*
X0122Y-00055D01*
X01217*
X01215Y-00056*
Y-00058*
X01217Y-00059*
X01218*
X01217*
X01215Y-00061*
Y-00062*
X01217Y-00064*
X0122*
X01221Y-00062*
X01207Y-00055D02*
X0121Y-00056D01*
X01213Y-00059*
Y-00062*
X01211Y-00064*
X01208*
X01207Y-00062*
Y-00061*
X01208Y-00059*
X01213*
X01204Y-00064D02*
Y-00062D01*
X01202*
Y-00064*
X01204*
X01197D02*
X01194D01*
X01195*
Y-00055*
X01197Y-00056*
X01189Y-00055D02*
X01184D01*
Y-00056*
X01189Y-00062*
Y-00064*
X01346Y-00767D02*
X01341D01*
X01344*
Y-00776*
X01338D02*
Y-00767D01*
X01333*
X01332Y-00768*
Y-00771*
X01333Y-00773*
X01338*
X01329Y-00768D02*
X01328Y-00767D01*
X01325*
X01323Y-00768*
Y-0077*
X01325Y-00771*
X01326*
X01325*
X01323Y-00773*
Y-00774*
X01325Y-00776*
X01328*
X01329Y-00774*
X01315Y-00767D02*
X0132D01*
Y-00771*
X01318Y-0077*
X01316*
X01315Y-00771*
Y-00774*
X01316Y-00776*
X01319*
X0132Y-00774*
X01312Y-00776D02*
Y-00774D01*
X0131*
Y-00776*
X01312*
X01305D02*
X01302D01*
X01303*
Y-00767*
X01305Y-00768*
X01297Y-00767D02*
X01292D01*
Y-00768*
X01297Y-00774*
Y-00776*
X0091Y-0005D02*
X00904D01*
X00907*
Y-00059*
X00901D02*
Y-0005D01*
X00897*
X00895Y-00051*
Y-00054*
X00897Y-00056*
X00901*
X00892Y-00051D02*
X00891Y-0005D01*
X00888*
X00886Y-00051*
Y-00053*
X00888Y-00054*
X00889*
X00888*
X00886Y-00056*
Y-00057*
X00888Y-00059*
X00891*
X00892Y-00057*
X00879Y-00059D02*
Y-0005D01*
X00884Y-00054*
X00878*
X00875Y-00059D02*
Y-00057D01*
X00873*
Y-00059*
X00875*
X00868D02*
X00865D01*
X00866*
Y-0005*
X00868Y-00051*
X0086Y-0005D02*
X00855D01*
Y-00051*
X0086Y-00057*
Y-00059*
X00782Y-00683D02*
X00776D01*
X00779*
Y-00691*
X00773D02*
Y-00683D01*
X00769*
X00767Y-00684*
Y-00687*
X00769Y-00689*
X00773*
X00764Y-00684D02*
X00763Y-00683D01*
X0076*
X00758Y-00684*
Y-00686*
X0076Y-00687*
X00761*
X0076*
X00758Y-00689*
Y-0069*
X0076Y-00691*
X00763*
X00764Y-0069*
X00756Y-00684D02*
X00754Y-00683D01*
X00751*
X0075Y-00684*
Y-00686*
X00751Y-00687*
X00753*
X00751*
X0075Y-00689*
Y-0069*
X00751Y-00691*
X00754*
X00756Y-0069*
X00747Y-00691D02*
Y-0069D01*
X00746*
Y-00691*
X00747*
X0074D02*
X00737D01*
X00738*
Y-00683*
X0074Y-00684*
X00733Y-00683D02*
X00727D01*
Y-00684*
X00733Y-0069*
Y-00691*
X01221Y-00566D02*
X01215D01*
X01218*
Y-00575*
X01212D02*
Y-00566D01*
X01208*
X01206Y-00567*
Y-0057*
X01208Y-00572*
X01212*
X01203Y-00567D02*
X01202Y-00566D01*
X01199*
X01197Y-00567*
Y-00569*
X01199Y-0057*
X012*
X01199*
X01197Y-00572*
Y-00573*
X01199Y-00575*
X01202*
X01203Y-00573*
X01189Y-00575D02*
X01195D01*
X01189Y-00569*
Y-00567*
X0119Y-00566*
X01193*
X01195Y-00567*
X01186Y-00575D02*
Y-00573D01*
X01184*
Y-00575*
X01186*
X01179D02*
X01176D01*
X01177*
Y-00566*
X01179Y-00567*
X01171Y-00566D02*
X01166D01*
Y-00567*
X01171Y-00573*
Y-00575*
X01378Y-00521D02*
X01372D01*
X01375*
Y-0053*
X01369D02*
Y-00521D01*
X01365*
X01363Y-00522*
Y-00525*
X01365Y-00527*
X01369*
X0136Y-00522D02*
X01359Y-00521D01*
X01356*
X01354Y-00522*
Y-00524*
X01356Y-00525*
X01357*
X01356*
X01354Y-00527*
Y-00528*
X01356Y-0053*
X01359*
X0136Y-00528*
X01352Y-0053D02*
X01349D01*
X0135*
Y-00521*
X01352Y-00522*
X01344Y-0053D02*
Y-00528D01*
X01343*
Y-0053*
X01344*
X01337D02*
X01334D01*
X01336*
Y-00521*
X01337Y-00522*
X0133Y-00521D02*
X01324D01*
Y-00522*
X0133Y-00528*
Y-0053*
X01237Y-00151D02*
X01231D01*
X01234*
Y-0016*
X01228D02*
Y-00151D01*
X01224*
X01222Y-00152*
Y-00155*
X01224Y-00157*
X01228*
X01219Y-00152D02*
X01218Y-00151D01*
X01215*
X01213Y-00152*
Y-00154*
X01215Y-00155*
X01216*
X01215*
X01213Y-00157*
Y-00158*
X01215Y-0016*
X01218*
X01219Y-00158*
X01211Y-00152D02*
X01209Y-00151D01*
X01206*
X01205Y-00152*
Y-00158*
X01206Y-0016*
X01209*
X01211Y-00158*
Y-00152*
X01202Y-0016D02*
Y-00158D01*
X012*
Y-0016*
X01202*
X01195D02*
X01192D01*
X01193*
Y-00151*
X01195Y-00152*
X01187Y-00151D02*
X01182D01*
Y-00152*
X01187Y-00158*
Y-0016*
X01241Y-00286D02*
X01235D01*
X01238*
Y-00295*
X01232D02*
Y-00286D01*
X01228*
X01226Y-00287*
Y-0029*
X01228Y-00292*
X01232*
X01217Y-00295D02*
X01223D01*
X01217Y-00289*
Y-00287*
X01219Y-00286*
X01222*
X01223Y-00287*
X01215Y-00293D02*
X01213Y-00295D01*
X0121*
X01209Y-00293*
Y-00287*
X0121Y-00286*
X01213*
X01215Y-00287*
Y-00289*
X01213Y-0029*
X01209*
X01206Y-00295D02*
Y-00293D01*
X01204*
Y-00295*
X01206*
X01199D02*
X01196D01*
X01197*
Y-00286*
X01199Y-00287*
X01191Y-00286D02*
X01186D01*
Y-00287*
X01191Y-00293*
Y-00295*
X01394Y00067D02*
X01388D01*
X01391*
Y00059*
X01385D02*
Y00067D01*
X01381*
X01379Y00066*
Y00063*
X01381Y00061*
X01385*
X0137Y00059D02*
X01376D01*
X0137Y00064*
Y00066*
X01372Y00067*
X01375*
X01376Y00066*
X01368D02*
X01366Y00067D01*
X01363*
X01362Y00066*
Y00064*
X01363Y00063*
X01362Y00061*
Y0006*
X01363Y00059*
X01366*
X01368Y0006*
Y00061*
X01366Y00063*
X01368Y00064*
Y00066*
X01366Y00063D02*
X01363D01*
X01359Y00059D02*
Y0006D01*
X01357*
Y00059*
X01359*
X01352D02*
X01349D01*
X0135*
Y00067*
X01352Y00066*
X01344Y00067D02*
X01339D01*
Y00066*
X01344Y0006*
Y00059*
X01296Y00073D02*
X0129D01*
X01293*
Y00065*
X01287D02*
Y00073D01*
X01283*
X01281Y00072*
Y00069*
X01283Y00067*
X01287*
X01272Y00065D02*
X01278D01*
X01272Y0007*
Y00072*
X01274Y00073*
X01277*
X01278Y00072*
X0127Y00073D02*
X01264D01*
Y00072*
X0127Y00066*
Y00065*
X01261D02*
Y00066D01*
X01259*
Y00065*
X01261*
X01254D02*
X01251D01*
X01252*
Y00073*
X01254Y00072*
X01246Y00073D02*
X01241D01*
Y00072*
X01246Y00066*
Y00065*
X00904Y00083D02*
X00898D01*
X00901*
Y00074*
X00895D02*
Y00083D01*
X00891*
X00889Y00082*
Y00079*
X00891Y00077*
X00895*
X0088Y00074D02*
X00886D01*
X0088Y0008*
Y00082*
X00882Y00083*
X00885*
X00886Y00082*
X00872Y00083D02*
X00875Y00082D01*
X00878Y00079*
Y00076*
X00876Y00074*
X00873*
X00872Y00076*
Y00077*
X00873Y00079*
X00878*
X00869Y00074D02*
Y00076D01*
X00867*
Y00074*
X00869*
X00862D02*
X00859D01*
X0086*
Y00083*
X00862Y00082*
X00854Y00083D02*
X00849D01*
Y00082*
X00854Y00076*
Y00074*
X01153Y0008D02*
X01147D01*
X0115*
Y00072*
X01144D02*
Y0008D01*
X0114*
X01138Y00079*
Y00076*
X0114Y00075*
X01144*
X0113Y00072D02*
X01135D01*
X0113Y00078*
Y00079*
X01131Y0008*
X01134*
X01135Y00079*
X01121Y0008D02*
X01127D01*
Y00076*
X01124Y00078*
X01122*
X01121Y00076*
Y00073*
X01122Y00072*
X01125*
X01127Y00073*
X01118Y00072D02*
Y00073D01*
X01117*
Y00072*
X01118*
X01111D02*
X01108D01*
X01109*
Y0008*
X01111Y00079*
X01104Y0008D02*
X01098D01*
Y00079*
X01104Y00073*
Y00072*
X01198Y-00764D02*
X01192D01*
X01195*
Y-00773*
X01189D02*
Y-00764D01*
X01185*
X01183Y-00765*
Y-00768*
X01185Y-0077*
X01189*
X01174Y-00773D02*
X0118D01*
X01174Y-00767*
Y-00765*
X01176Y-00764*
X01179*
X0118Y-00765*
X01167Y-00773D02*
Y-00764D01*
X01172Y-00768*
X01166*
X01163Y-00773D02*
Y-00771D01*
X01161*
Y-00773*
X01163*
X01156D02*
X01153D01*
X01154*
Y-00764*
X01156Y-00765*
X01148Y-00764D02*
X01143D01*
Y-00765*
X01148Y-00771*
Y-00773*
X01315Y-01001D02*
X01309D01*
X01312*
Y-0101*
X01306D02*
Y-01001D01*
X01302*
X013Y-01002*
Y-01005*
X01302Y-01007*
X01306*
X01291Y-01001D02*
X01294Y-01002D01*
X01297Y-01005*
Y-01008*
X01296Y-0101*
X01293*
X01291Y-01008*
Y-01007*
X01293Y-01005*
X01297*
X01289Y-0101D02*
Y-01008D01*
X01287*
Y-0101*
X01289*
X01281D02*
X01278D01*
X0128*
Y-01001*
X01281Y-01002*
X01268Y-01001D02*
X01274D01*
Y-01005*
X01271Y-01004*
X0127*
X01268Y-01005*
Y-01008*
X0127Y-0101*
X01273*
X01274Y-01008*
X-01263Y-00966D02*
X-01268D01*
X-01265*
Y-00975*
X-01271D02*
Y-00966D01*
X-01275*
X-01277Y-00967*
Y-0097*
X-01275Y-00972*
X-01271*
X-01286Y-00966D02*
X-0128D01*
Y-0097*
X-01283Y-00969*
X-01284*
X-01286Y-0097*
Y-00973*
X-01284Y-00975*
X-01281*
X-0128Y-00973*
X-01288Y-00975D02*
Y-00973D01*
X-0129*
Y-00975*
X-01288*
X-01296D02*
X-01299D01*
X-01297*
Y-00966*
X-01296Y-00967*
X-01309Y-00966D02*
X-01303D01*
Y-0097*
X-01306Y-00969*
X-01307*
X-01309Y-0097*
Y-00973*
X-01307Y-00975*
X-01304*
X-01303Y-00973*
X-01259Y00043D02*
X-01264D01*
X-01261*
Y00035*
X-01267D02*
Y00043D01*
X-01271*
X-01273Y00042*
Y00039*
X-01271Y00037*
X-01267*
X-01282Y00043D02*
X-01276D01*
Y00039*
X-01279Y0004*
X-0128*
X-01282Y00039*
Y00036*
X-0128Y00035*
X-01277*
X-01276Y00036*
X-01284Y00035D02*
Y00036D01*
X-01286*
Y00035*
X-01284*
X-01292D02*
X-01295D01*
X-01293*
Y00043*
X-01292Y00042*
X-01299D02*
X-013Y00043D01*
X-01303*
X-01305Y00042*
Y0004*
X-01303Y00039*
X-01302*
X-01303*
X-01305Y00037*
Y00036*
X-01303Y00035*
X-013*
X-01299Y00036*
X-01325Y-00051D02*
X-0133D01*
X-01327*
Y-0006*
X-01333D02*
Y-00051D01*
X-01337*
X-01339Y-00052*
Y-00055*
X-01337Y-00057*
X-01333*
X-01346Y-0006D02*
Y-00051D01*
X-01342Y-00055*
X-01348*
X-0135Y-0006D02*
Y-00058D01*
X-01352*
Y-0006*
X-0135*
X-01358D02*
X-01361D01*
X-01359*
Y-00051*
X-01358Y-00052*
X-01365D02*
X-01366Y-00051D01*
X-01369*
X-01371Y-00052*
Y-00054*
X-01369Y-00055*
X-01368*
X-01369*
X-01371Y-00057*
Y-00058*
X-01369Y-0006*
X-01366*
X-01365Y-00058*
X-01142Y-00224D02*
X-01147D01*
X-01144*
Y-00233*
X-0115D02*
Y-00224D01*
X-01154*
X-01156Y-00225*
Y-00228*
X-01154Y-0023*
X-0115*
X-01159Y-00225D02*
X-0116Y-00224D01*
X-01163*
X-01165Y-00225*
Y-00227*
X-01163Y-00228*
X-01162*
X-01163*
X-01165Y-0023*
Y-00231*
X-01163Y-00233*
X-0116*
X-01159Y-00231*
X-01167Y-00233D02*
Y-00231D01*
X-01169*
Y-00233*
X-01167*
X-01175D02*
X-01178D01*
X-01176*
Y-00224*
X-01175Y-00225*
X-01182D02*
X-01183Y-00224D01*
X-01186*
X-01188Y-00225*
Y-00227*
X-01186Y-00228*
X-01185*
X-01186*
X-01188Y-0023*
Y-00231*
X-01186Y-00233*
X-01183*
X-01182Y-00231*
X00757Y-00994D02*
X00751D01*
X00754*
Y-01003*
X00748D02*
Y-00994D01*
X00744*
X00742Y-00995*
Y-00998*
X00744Y-01*
X00748*
X00739Y-00995D02*
X00738Y-00994D01*
X00735*
X00733Y-00995*
Y-00997*
X00735Y-00998*
X00736*
X00735*
X00733Y-01*
Y-01001*
X00735Y-01003*
X00738*
X00739Y-01001*
X00731Y-01003D02*
Y-01001D01*
X00729*
Y-01003*
X00731*
X00723D02*
X0072D01*
X00722*
Y-00994*
X00723Y-00995*
X00716Y-01003D02*
X00713D01*
X00715*
Y-00994*
X00716Y-00995*
X-01324Y-00175D02*
X-01329D01*
X-01326*
Y-00184*
X-01332D02*
Y-00175D01*
X-01336*
X-01338Y-00176*
Y-00179*
X-01336Y-00181*
X-01332*
X-01347Y-00184D02*
X-01341D01*
X-01347Y-00178*
Y-00176*
X-01345Y-00175*
X-01342*
X-01341Y-00176*
X-01349Y-00184D02*
Y-00182D01*
X-01351*
Y-00184*
X-01349*
X-01357D02*
X-0136D01*
X-01358*
Y-00175*
X-01357Y-00176*
X-01364D02*
X-01365Y-00175D01*
X-01368*
X-0137Y-00176*
Y-00178*
X-01368Y-00179*
X-01367*
X-01368*
X-0137Y-00181*
Y-00182*
X-01368Y-00184*
X-01365*
X-01364Y-00182*
X-00015Y0042D02*
Y00423D01*
Y00421*
X-00008*
X-00007Y00423*
Y00424*
X-00008Y00426*
X-00007Y00417D02*
Y00414D01*
Y00415*
X-00015*
X-00014Y00417*
X-00007Y0041D02*
X-00008D01*
Y00408*
X-00007*
Y0041*
Y00397D02*
Y00402D01*
X-00012Y00397*
X-00014*
X-00015Y00398*
Y00401*
X-00014Y00402*
X00982Y01213D02*
X00973D01*
Y01208*
X00974Y01207*
X00977*
X00979Y01208*
Y01213*
Y0121D02*
X00982Y01207D01*
X00973Y01204D02*
Y01198D01*
Y01201*
X00982*
Y01195D02*
Y01192D01*
Y01194*
X00973*
X00974Y01195*
X00982Y01188D02*
X0098D01*
Y01187*
X00982*
Y01188*
Y01181D02*
Y01178D01*
Y01179*
X00973*
X00974Y01181*
X00982Y01169D02*
X00973D01*
X00977Y01174*
Y01168*
X-01157Y00119D02*
X-01162D01*
X-01159*
Y00111*
X-01165D02*
Y00119D01*
X-01169*
X-01171Y00118*
Y00115*
X-01169Y00113*
X-01165*
X-0118Y00111D02*
X-01174D01*
X-0118Y00116*
Y00118*
X-01178Y00119*
X-01175*
X-01174Y00118*
X-01182Y00111D02*
Y00112D01*
X-01184*
Y00111*
X-01182*
X-01195D02*
X-0119D01*
X-01195Y00116*
Y00118*
X-01194Y00119*
X-01191*
X-0119Y00118*
X-00926Y-00455D02*
X-00931D01*
X-00928*
Y-00464*
X-00934D02*
Y-00455D01*
X-00938*
X-0094Y-00456*
Y-00459*
X-00938Y-00461*
X-00934*
X-00943Y-00456D02*
X-00944Y-00455D01*
X-00947*
X-00949Y-00456*
Y-00458*
X-00947Y-00459*
X-00946*
X-00947*
X-00949Y-00461*
Y-00462*
X-00947Y-00464*
X-00944*
X-00943Y-00462*
X-00951Y-00464D02*
Y-00462D01*
X-00953*
Y-00464*
X-00951*
X-00964D02*
X-00959D01*
X-00964Y-00458*
Y-00456*
X-00963Y-00455*
X-0096*
X-00959Y-00456*
X00972Y-0078D02*
X00966D01*
X00969*
Y-00789*
X00963D02*
Y-0078D01*
X00959*
X00957Y-00781*
Y-00784*
X00959Y-00786*
X00963*
X00948Y-00789D02*
X00954D01*
X00948Y-00783*
Y-00781*
X0095Y-0078*
X00953*
X00954Y-00781*
X00946D02*
X00944Y-0078D01*
X00941*
X0094Y-00781*
Y-00783*
X00941Y-00784*
X00943*
X00941*
X0094Y-00786*
Y-00787*
X00941Y-00789*
X00944*
X00946Y-00787*
X00937Y-00789D02*
Y-00787D01*
X00935*
Y-00789*
X00937*
X0093D02*
X00927D01*
X00928*
Y-0078*
X0093Y-00781*
X00922Y-0078D02*
X00917D01*
Y-00781*
X00922Y-00787*
Y-00789*
X00745Y00002D02*
X00739D01*
X00742*
Y-00006*
X00736D02*
Y00002D01*
X00732*
X0073Y0*
Y-00002*
X00732Y-00003*
X00736*
X00721Y-00006D02*
X00727D01*
X00721Y0*
Y0*
X00723Y00002*
X00726*
X00727Y0*
X00713Y-00006D02*
X00719D01*
X00713Y0*
Y0*
X00714Y00002*
X00717*
X00719Y0*
X0071Y-00006D02*
Y-00005D01*
X00708*
Y-00006*
X0071*
X00703D02*
X007D01*
X00701*
Y00002*
X00703Y0*
X00695Y00002D02*
X0069D01*
Y0*
X00695Y-00005*
Y-00006*
X00757Y-01082D02*
X00751D01*
X00754*
Y-01091*
X00748D02*
Y-01082D01*
X00744*
X00742Y-01083*
Y-01086*
X00744Y-01088*
X00748*
X00733Y-01091D02*
X00739D01*
X00733Y-01085*
Y-01083*
X00735Y-01082*
X00738*
X00739Y-01083*
X00731Y-01091D02*
Y-01089D01*
X00729*
Y-01091*
X00731*
X00723D02*
X0072D01*
X00722*
Y-01082*
X00723Y-01083*
X00716Y-01089D02*
X00715Y-01091D01*
X00712*
X0071Y-01089*
Y-01083*
X00712Y-01082*
X00715*
X00716Y-01083*
Y-01085*
X00715Y-01086*
X0071*
X-01367Y-00544D02*
X-01373D01*
X-0137*
Y-00553*
X-01376D02*
Y-00544D01*
X-0138*
X-01381Y-00546*
Y-00548*
X-0138Y-0055*
X-01376*
X-01384Y-00553D02*
X-01387D01*
X-01386*
Y-00544*
X-01384Y-00546*
X-01391Y-00553D02*
Y-00551D01*
X-01393*
Y-00553*
X-01391*
X-01399D02*
X-01402D01*
X-014*
Y-00544*
X-01399Y-00546*
X-01406Y-00551D02*
X-01407Y-00553D01*
X-0141*
X-01412Y-00551*
Y-00546*
X-0141Y-00544*
X-01407*
X-01406Y-00546*
Y-00547*
X-01407Y-00548*
X-01412*
X00865Y-00527D02*
X00859D01*
X00862*
Y-00536*
X00856D02*
Y-00527D01*
X00852*
X0085Y-00528*
Y-00531*
X00852Y-00533*
X00856*
X00847Y-00536D02*
X00844D01*
X00846*
Y-00527*
X00847Y-00528*
X0084Y-00536D02*
Y-00534D01*
X00839*
Y-00536*
X0084*
X00833D02*
X0083D01*
X00831*
Y-00527*
X00833Y-00528*
X00826Y-00527D02*
X0082D01*
Y-00528*
X00826Y-00534*
Y-00536*
X00801Y00095D02*
X00795D01*
X00798*
Y00087*
X00792D02*
Y00095D01*
X00788*
X00786Y00094*
Y00091*
X00788Y00089*
X00792*
X00777Y00087D02*
X00783D01*
X00777Y00092*
Y00094*
X00779Y00095*
X00782*
X00783Y00094*
X00775Y00087D02*
Y00088D01*
X00773*
Y00087*
X00775*
X00767D02*
X00764D01*
X00766*
Y00095*
X00767Y00094*
X0076Y00095D02*
X00754D01*
Y00094*
X0076Y00088*
Y00087*
X0134Y-00298D02*
X01334D01*
X01337*
Y-00307*
X01332D02*
Y-00298D01*
X01327*
X01326Y-00299*
Y-00302*
X01327Y-00304*
X01332*
X01323Y-00299D02*
X01321Y-00298D01*
X01319*
X01317Y-00299*
Y-00301*
X01319Y-00302*
X0132*
X01319*
X01317Y-00304*
Y-00305*
X01319Y-00307*
X01321*
X01323Y-00305*
X01314Y-00307D02*
Y-00305D01*
X01313*
Y-00307*
X01314*
X01307D02*
X01304D01*
X01306*
Y-00298*
X01307Y-00299*
X013Y-00298D02*
X01294D01*
Y-00299*
X013Y-00305*
Y-00307*
X01374Y-00167D02*
X01368D01*
X01371*
Y-00176*
X01366D02*
Y-00167D01*
X01361*
X0136Y-00169*
Y-00172*
X01361Y-00173*
X01366*
X01353Y-00176D02*
Y-00167D01*
X01357Y-00172*
X01351*
X01348Y-00176D02*
Y-00174D01*
X01347*
Y-00176*
X01348*
X01341D02*
X01338D01*
X0134*
Y-00167*
X01341Y-00169*
X01334Y-00167D02*
X01328D01*
Y-00169*
X01334Y-00174*
Y-00176*
X0133Y-00052D02*
X01324D01*
X01327*
Y-00061*
X01321D02*
Y-00052D01*
X01317*
X01315Y-00053*
Y-00056*
X01317Y-00058*
X01321*
X01306Y-00052D02*
X01312D01*
Y-00056*
X01309Y-00055*
X01308*
X01306Y-00056*
Y-00059*
X01308Y-00061*
X01311*
X01312Y-00059*
X01304Y-00061D02*
Y-00059D01*
X01302*
Y-00061*
X01304*
X01296D02*
X01293D01*
X01295*
Y-00052*
X01296Y-00053*
X01289Y-00052D02*
X01283D01*
Y-00053*
X01289Y-00059*
Y-00061*
X01397Y-00396D02*
X01391D01*
X01394*
Y-00405*
X01388D02*
Y-00396D01*
X01384*
X01382Y-00397*
Y-004*
X01384Y-00402*
X01388*
X01373Y-00396D02*
X01376Y-00397D01*
X01379Y-004*
Y-00403*
X01378Y-00405*
X01375*
X01373Y-00403*
Y-00402*
X01375Y-004*
X01379*
X01371Y-00405D02*
Y-00403D01*
X01369*
Y-00405*
X01371*
X01363D02*
X0136D01*
X01362*
Y-00396*
X01363Y-00397*
X01356Y-00396D02*
X0135D01*
Y-00397*
X01356Y-00403*
Y-00405*
X0084Y-00104D02*
X00834D01*
X00837*
Y-00113*
X00831D02*
Y-00104D01*
X00827*
X00825Y-00105*
Y-00108*
X00827Y-0011*
X00831*
X00822Y-00104D02*
X00816D01*
Y-00105*
X00822Y-00111*
Y-00113*
X00814D02*
Y-00111D01*
X00812*
Y-00113*
X00814*
X00806D02*
X00803D01*
X00805*
Y-00104*
X00806Y-00105*
X00799Y-00104D02*
X00793D01*
Y-00105*
X00799Y-00111*
Y-00113*
X01153Y-00383D02*
X01147D01*
X0115*
Y-00392*
X01144D02*
Y-00383D01*
X0114*
X01138Y-00384*
Y-00387*
X0114Y-00389*
X01144*
X01135Y-00384D02*
X01134Y-00383D01*
X01131*
X01129Y-00384*
Y-00386*
X01131Y-00387*
X01129Y-00389*
Y-0039*
X01131Y-00392*
X01134*
X01135Y-0039*
Y-00389*
X01134Y-00387*
X01135Y-00386*
Y-00384*
X01134Y-00387D02*
X01131D01*
X01127Y-00392D02*
Y-0039D01*
X01125*
Y-00392*
X01127*
X01119D02*
X01116D01*
X01118*
Y-00383*
X01119Y-00384*
X01112Y-00383D02*
X01106D01*
Y-00384*
X01112Y-0039*
Y-00392*
X01284Y-00337D02*
X01278D01*
X01281*
Y-00346*
X01275D02*
Y-00337D01*
X01271*
X01269Y-00338*
Y-00341*
X01271Y-00343*
X01275*
X01266Y-00344D02*
X01265Y-00346D01*
X01262*
X0126Y-00344*
Y-00338*
X01262Y-00337*
X01265*
X01266Y-00338*
Y-0034*
X01265Y-00341*
X0126*
X01258Y-00346D02*
Y-00344D01*
X01256*
Y-00346*
X01258*
X0125D02*
X01247D01*
X01249*
Y-00337*
X0125Y-00338*
X01243Y-00337D02*
X01237D01*
Y-00338*
X01243Y-00344*
Y-00346*
X01076Y00194D02*
X0107D01*
X01073*
Y00186*
X01067D02*
Y00194D01*
X01063*
X01061Y00193*
Y0019*
X01063Y00189*
X01067*
X01059Y00186D02*
X01056D01*
X01057*
Y00194*
X01059Y00193*
X01046Y00194D02*
X01051D01*
Y0019*
X01048Y00192*
X01047*
X01046Y0019*
Y00187*
X01047Y00186*
X0105*
X01051Y00187*
X01043Y00186D02*
Y00187D01*
X01041*
Y00186*
X01043*
X01035D02*
X01033D01*
X01034*
Y00194*
X01035Y00193*
X01028Y00194D02*
X01022D01*
Y00193*
X01028Y00187*
Y00186*
X00988Y002D02*
X00983D01*
X00986*
Y00191*
X0098D02*
Y002D01*
X00975*
X00974Y00198*
Y00195*
X00975Y00194*
X0098*
X00971Y00191D02*
X00968D01*
X0097*
Y002*
X00971Y00198*
X00958Y002D02*
X00961Y00198D01*
X00964Y00195*
Y00192*
X00962Y00191*
X0096*
X00958Y00192*
Y00194*
X0096Y00195*
X00964*
X00955Y00191D02*
Y00192D01*
X00954*
Y00191*
X00955*
X00948D02*
X00945D01*
X00947*
Y002*
X00948Y00198*
X00941Y002D02*
X00935D01*
Y00198*
X00941Y00192*
Y00191*
X01204Y00263D02*
X01198D01*
X01201*
Y00255*
X01195D02*
Y00263D01*
X01191*
X01189Y00262*
Y00259*
X01191Y00257*
X01195*
X01186Y00255D02*
X01183D01*
X01185*
Y00263*
X01186Y00262*
X01179D02*
X01178Y00263D01*
X01175*
X01173Y00262*
Y0026*
X01175Y00259*
X01173Y00257*
Y00256*
X01175Y00255*
X01178*
X01179Y00256*
Y00257*
X01178Y00259*
X01179Y0026*
Y00262*
X01178Y00259D02*
X01175D01*
X0117Y00255D02*
Y00256D01*
X01169*
Y00255*
X0117*
X01163D02*
X0116D01*
X01162*
Y00263*
X01163Y00262*
X01156Y00263D02*
X0115D01*
Y00262*
X01156Y00256*
Y00255*
X01059Y00086D02*
X01053D01*
X01056*
Y00078*
X0105D02*
Y00086D01*
X01046*
X01044Y00085*
Y00082*
X01046Y0008*
X0105*
X01035Y00078D02*
X01041D01*
X01035Y00083*
Y00085*
X01037Y00086*
X0104*
X01041Y00085*
X01033Y00078D02*
X0103D01*
X01031*
Y00086*
X01033Y00085*
X01025Y00078D02*
Y00079D01*
X01024*
Y00078*
X01025*
X01018D02*
X01015D01*
X01017*
Y00086*
X01018Y00085*
X01011Y00086D02*
X01005D01*
Y00085*
X01011Y00079*
Y00078*
X00807Y-00198D02*
X00801D01*
X00804*
Y-00207*
X00798D02*
Y-00198D01*
X00794*
X00792Y-00199*
Y-00202*
X00794Y-00204*
X00798*
X00783Y-00207D02*
X00789D01*
X00783Y-00201*
Y-00199*
X00785Y-00198*
X00788*
X00789Y-00199*
X00781D02*
X00779Y-00198D01*
X00776*
X00775Y-00199*
Y-00205*
X00776Y-00207*
X00779*
X00781Y-00205*
Y-00199*
X00772Y-00207D02*
Y-00205D01*
X0077*
Y-00207*
X00772*
X00765D02*
X00762D01*
X00763*
Y-00198*
X00765Y-00199*
X00757Y-00198D02*
X00752D01*
Y-00199*
X00757Y-00205*
Y-00207*
X01251Y00178D02*
X01245D01*
X01248*
Y0017*
X01242D02*
Y00178D01*
X01238*
X01236Y00177*
Y00174*
X01238Y00172*
X01242*
X01233Y0017D02*
X0123D01*
X01232*
Y00178*
X01233Y00177*
X01222Y0017D02*
Y00178D01*
X01226Y00174*
X0122*
X01217Y0017D02*
Y00171D01*
X01216*
Y0017*
X01217*
X0121D02*
X01207D01*
X01209*
Y00178*
X0121Y00177*
X01203Y00178D02*
X01197D01*
Y00177*
X01203Y00171*
Y0017*
X01088Y-00071D02*
X01082D01*
X01085*
Y-0008*
X01079D02*
Y-00071D01*
X01075*
X01073Y-00072*
Y-00075*
X01075Y-00077*
X01079*
X0107Y-0008D02*
X01067D01*
X01069*
Y-00071*
X0107Y-00072*
X01063Y-00071D02*
X01057D01*
Y-00072*
X01063Y-00078*
Y-0008*
X01054D02*
Y-00078D01*
X01053*
Y-0008*
X01054*
X01047D02*
X01044D01*
X01046*
Y-00071*
X01047Y-00072*
X0104Y-00071D02*
X01034D01*
Y-00072*
X0104Y-00078*
Y-0008*
X-00988Y00295D02*
Y00287D01*
X-00992*
X-00993Y00288*
Y00289*
X-00992Y00291*
X-00988*
X-00992*
X-00993Y00292*
Y00294*
X-00992Y00295*
X-00988*
X-00996Y00287D02*
Y00292D01*
X-00999Y00295*
X-01002Y00292*
Y00287*
Y00291*
X-00996*
X-01005Y00295D02*
X-01011D01*
X-01008*
Y00287*
X-01013D02*
X-01016D01*
X-01015*
Y00295*
X-01013Y00294*
X-01021Y00287D02*
Y00288D01*
X-01022*
Y00287*
X-01021*
X-01028D02*
X-01031D01*
X-01029*
Y00295*
X-01028Y00294*
X-01041Y00295D02*
X-01038Y00294D01*
X-01035Y00291*
Y00288*
X-01037Y00287*
X-01039*
X-01041Y00288*
Y00289*
X-01039Y00291*
X-01035*
X00994Y00295D02*
Y00287D01*
X00989*
X00988Y00288*
Y00289*
X00989Y00291*
X00994*
X00989*
X00988Y00292*
Y00294*
X00989Y00295*
X00994*
X00985Y00287D02*
Y00292D01*
X00982Y00295*
X00979Y00292*
Y00287*
Y00291*
X00985*
X00976Y00295D02*
X0097D01*
X00973*
Y00287*
X00962D02*
X00968D01*
X00962Y00292*
Y00294*
X00963Y00295*
X00966*
X00968Y00294*
X00959Y00287D02*
Y00288D01*
X00957*
Y00287*
X00959*
X00952D02*
X00949D01*
X0095*
Y00295*
X00952Y00294*
X00939Y00295D02*
X00942Y00294D01*
X00944Y00291*
Y00288*
X00943Y00287*
X0094*
X00939Y00288*
Y00289*
X0094Y00291*
X00944*
X-00887Y01068D02*
X-00892D01*
X-00889*
Y0106*
X-00895D02*
Y01068D01*
X-00899*
X-00901Y01067*
Y01064*
X-00899Y01062*
X-00895*
X-00904Y0106D02*
X-00907D01*
X-00905*
Y01068*
X-00904Y01067*
X-00911Y0106D02*
Y01061D01*
X-00912*
Y0106*
X-00911*
X-00918D02*
X-00921D01*
X-0092*
Y01068*
X-00918Y01067*
X-00931Y0106D02*
X-00925D01*
X-00931Y01065*
Y01067*
X-0093Y01068*
X-00927*
X-00925Y01067*
X0002Y01007D02*
X00014D01*
X00017*
Y00999*
X00011D02*
Y01007D01*
X00007*
X00005Y01006*
Y01003*
X00007Y01001*
X00011*
X00002Y00999D02*
X0D01*
X00001*
Y01007*
X00002Y01006*
X-00004Y00999D02*
Y01D01*
X-00005*
Y00999*
X-00004*
X-00011D02*
X-00014D01*
X-00013*
Y01007*
X-00011Y01006*
X-00018D02*
X-0002Y01007D01*
X-00023*
X-00024Y01006*
Y01004*
X-00023Y01003*
X-00021*
X-00023*
X-00024Y01001*
Y01*
X-00023Y00999*
X-0002*
X-00018Y01*
X01082Y01068D02*
X01076D01*
X01079*
Y0106*
X01073D02*
Y01068D01*
X01069*
X01067Y01067*
Y01064*
X01069Y01062*
X01073*
X01064Y0106D02*
X01061D01*
X01063*
Y01068*
X01064Y01067*
X01057Y0106D02*
Y01061D01*
X01056*
Y0106*
X01057*
X0105D02*
X01047D01*
X01048*
Y01068*
X0105Y01067*
X01038Y0106D02*
Y01068D01*
X01043Y01064*
X01037*
X00831Y-00356D02*
X00825D01*
X00828*
Y-00365*
X00822D02*
Y-00356D01*
X00818*
X00816Y-00357*
Y-0036*
X00818Y-00362*
X00822*
X00813Y-00365D02*
X0081D01*
X00812*
Y-00356*
X00813Y-00357*
X00806Y-00363D02*
X00805Y-00365D01*
X00802*
X008Y-00363*
Y-00357*
X00802Y-00356*
X00805*
X00806Y-00357*
Y-00359*
X00805Y-0036*
X008*
X00797Y-00365D02*
Y-00363D01*
X00796*
Y-00365*
X00797*
X0079D02*
X00787D01*
X00789*
Y-00356*
X0079Y-00357*
X00783Y-00356D02*
X00777D01*
Y-00357*
X00783Y-00363*
Y-00365*
X-00798Y0036D02*
X-00806D01*
Y00356*
X-00805Y00354*
X-00802*
X-008Y00356*
Y0036*
Y00357D02*
X-00798Y00354D01*
Y00351D02*
Y00348D01*
Y0035*
X-00806*
X-00805Y00351*
X-00798Y00344D02*
X-00799D01*
Y00343*
X-00798*
Y00344*
Y00337D02*
Y00334D01*
Y00335*
X-00806*
X-00805Y00337*
X-00806Y00324D02*
X-00805Y00327D01*
X-00802Y0033*
X-00799*
X-00798Y00328*
Y00325*
X-00799Y00324*
X-008*
X-00802Y00325*
Y0033*
X00775Y00354D02*
X00766D01*
Y0035*
X00768Y00348*
X00771*
X00772Y0035*
Y00354*
Y00351D02*
X00775Y00348D01*
Y0034D02*
Y00345D01*
X00769Y0034*
X00768*
X00766Y00341*
Y00344*
X00768Y00345*
X00775Y00337D02*
X00774D01*
Y00335*
X00775*
Y00337*
Y00329D02*
Y00327D01*
Y00328*
X00766*
X00768Y00329*
X00766Y00317D02*
X00768Y00319D01*
X00771Y00322*
X00774*
X00775Y00321*
Y00318*
X00774Y00317*
X00772*
X00771Y00318*
Y00322*
X-00986Y01214D02*
X-00994D01*
Y01209*
X-00993Y01208*
X-0099*
X-00988Y01209*
Y01214*
Y01211D02*
X-00986Y01208D01*
X-00994Y01205D02*
Y01199D01*
Y01202*
X-00986*
Y01196D02*
Y01193D01*
Y01195*
X-00994*
X-00993Y01196*
X-00986Y01189D02*
X-00987D01*
Y01188*
X-00986*
Y01189*
Y01182D02*
Y01179D01*
Y0118*
X-00994*
X-00993Y01182*
X-00986Y01169D02*
Y01175D01*
X-00991Y01169*
X-00993*
X-00994Y0117*
Y01173*
X-00993Y01175*
X00945Y-0067D02*
X00939D01*
X00942*
Y-00679*
X00936D02*
Y-0067D01*
X00932*
X0093Y-00671*
Y-00674*
X00932Y-00676*
X00936*
X00927Y-00679D02*
X00924D01*
X00926*
Y-0067*
X00927Y-00671*
X0092D02*
X00919Y-0067D01*
X00916*
X00914Y-00671*
Y-00677*
X00916Y-00679*
X00919*
X0092Y-00677*
Y-00671*
X00911Y-00679D02*
Y-00677D01*
X0091*
Y-00679*
X00911*
X00904D02*
X00901D01*
X00903*
Y-0067*
X00904Y-00671*
X00897Y-0067D02*
X00891D01*
Y-00671*
X00897Y-00677*
Y-00679*
X00997Y-0047D02*
X00991D01*
X00994*
Y-00479*
X00988D02*
Y-0047D01*
X00984*
X00982Y-00471*
Y-00474*
X00984Y-00476*
X00988*
X00979Y-00479D02*
X00976D01*
X00978*
Y-0047*
X00979Y-00471*
X00972Y-00479D02*
X00969D01*
X00971*
Y-0047*
X00972Y-00471*
X00965Y-00479D02*
Y-00477D01*
X00963*
Y-00479*
X00965*
X00958D02*
X00955D01*
X00956*
Y-0047*
X00958Y-00471*
X0095Y-0047D02*
X00945D01*
Y-00471*
X0095Y-00477*
Y-00479*
X00954Y-00352D02*
X00948D01*
X00951*
Y-00361*
X00945D02*
Y-00352D01*
X00941*
X00939Y-00353*
Y-00356*
X00941Y-00358*
X00945*
X00936Y-00361D02*
X00933D01*
X00935*
Y-00352*
X00936Y-00353*
X00923Y-00361D02*
X00929D01*
X00923Y-00355*
Y-00353*
X00925Y-00352*
X00928*
X00929Y-00353*
X0092Y-00361D02*
Y-00359D01*
X00919*
Y-00361*
X0092*
X00913D02*
X0091D01*
X00912*
Y-00352*
X00913Y-00353*
X00906Y-00352D02*
X009D01*
Y-00353*
X00906Y-00359*
Y-00361*
X01143Y-00663D02*
X01137D01*
X0114*
Y-00672*
X01134D02*
Y-00663D01*
X0113*
X01128Y-00664*
Y-00667*
X0113Y-00669*
X01134*
X01125Y-00672D02*
X01122D01*
X01124*
Y-00663*
X01125Y-00664*
X01118D02*
X01117Y-00663D01*
X01114*
X01112Y-00664*
Y-00666*
X01114Y-00667*
X01115*
X01114*
X01112Y-00669*
Y-0067*
X01114Y-00672*
X01117*
X01118Y-0067*
X01109Y-00672D02*
Y-0067D01*
X01108*
Y-00672*
X01109*
X01102D02*
X01099D01*
X01101*
Y-00663*
X01102Y-00664*
X01095Y-00663D02*
X01089D01*
Y-00664*
X01095Y-0067*
Y-00672*
X-00231Y01151D02*
Y01143D01*
X-00235*
X-00236Y01144*
Y0115*
X-00235Y01151*
X-00231*
X-00245Y01143D02*
X-00239D01*
X-00245Y01148*
Y0115*
X-00243Y01151*
X-00241*
X-00239Y0115*
X-00248Y01143D02*
Y01144D01*
X-00249*
Y01143*
X-00248*
X-00255D02*
X-00258D01*
X-00256*
Y01151*
X-00255Y0115*
X-00262D02*
X-00264Y01151D01*
X-00267*
X-00268Y0115*
Y01148*
X-00267Y01147*
X-00265*
X-00267*
X-00268Y01145*
Y01144*
X-00267Y01143*
X-00264*
X-00262Y01144*
X-0023Y01369D02*
Y01361D01*
X-00234*
X-00235Y01362*
Y01368*
X-00234Y01369*
X-0023*
X-00238Y01368D02*
X-0024Y01369D01*
X-00242*
X-00244Y01368*
Y01366*
X-00242Y01365*
X-00241*
X-00242*
X-00244Y01363*
Y01362*
X-00242Y01361*
X-0024*
X-00238Y01362*
X-00247Y01361D02*
Y01362D01*
X-00248*
Y01361*
X-00247*
X-00254D02*
X-00257D01*
X-00255*
Y01369*
X-00254Y01368*
X-00261D02*
X-00263Y01369D01*
X-00266*
X-00267Y01368*
Y01366*
X-00266Y01365*
X-00264*
X-00266*
X-00267Y01363*
Y01362*
X-00266Y01361*
X-00263*
X-00261Y01362*
X00238Y01164D02*
Y01172D01*
X00233*
X00232Y01171*
Y01168*
X00233Y01166*
X00238*
X00229Y01172D02*
Y01164D01*
X00225*
X00223Y01165*
Y01171*
X00225Y01172*
X00229*
X0022Y01164D02*
X00217D01*
X00219*
Y01172*
X0022Y01171*
X00213Y01164D02*
Y01165D01*
X00212*
Y01164*
X00213*
X00206D02*
X00203D01*
X00204*
Y01172*
X00206Y01171*
X00199D02*
X00197Y01172D01*
X00194*
X00193Y01171*
Y01169*
X00194Y01168*
X00196*
X00194*
X00193Y01166*
Y01165*
X00194Y01164*
X00197*
X00199Y01165*
X00102Y-00119D02*
X00096D01*
X00099*
Y-00128*
X00093D02*
Y-00119D01*
X00089*
X00087Y-0012*
Y-00123*
X00089Y-00125*
X00093*
X00078Y-00119D02*
X00084D01*
Y-00123*
X00081Y-00122*
X0008*
X00078Y-00123*
Y-00126*
X0008Y-00128*
X00083*
X00084Y-00126*
X00076Y-00128D02*
Y-00126D01*
X00074*
Y-00128*
X00076*
X00063D02*
X00068D01*
X00063Y-00122*
Y-0012*
X00064Y-00119*
X00067*
X00068Y-0012*
X00007Y-00068D02*
X00001D01*
X00004*
Y-00077*
X-00001D02*
Y-00068D01*
X-00005*
X-00007Y-00069*
Y-00072*
X-00005Y-00074*
X-00001*
X-00014Y-00077D02*
Y-00068D01*
X-0001Y-00072*
X-00016*
X-00018Y-00077D02*
Y-00075D01*
X-0002*
Y-00077*
X-00018*
X-00031D02*
X-00026D01*
X-00031Y-00071*
Y-00069*
X-0003Y-00068*
X-00027*
X-00026Y-00069*
X00302Y00391D02*
X00296D01*
X00299*
Y00383*
X00293D02*
Y00391D01*
X00289*
X00287Y0039*
Y00387*
X00289Y00385*
X00293*
X00284Y00383D02*
X00281D01*
X00283*
Y00391*
X00284Y0039*
X00277Y00383D02*
Y00384D01*
X00276*
Y00383*
X00277*
X00264D02*
X0027D01*
X00264Y00388*
Y0039*
X00266Y00391*
X00268*
X0027Y0039*
X00322Y-00048D02*
X00316D01*
X00319*
Y-00057*
X00313D02*
Y-00048D01*
X00309*
X00307Y-00049*
Y-00052*
X00309Y-00054*
X00313*
X00304Y-00049D02*
X00303Y-00048D01*
X003*
X00298Y-00049*
Y-00051*
X003Y-00052*
X00301*
X003*
X00298Y-00054*
Y-00055*
X003Y-00057*
X00303*
X00304Y-00055*
X00296Y-00057D02*
Y-00055D01*
X00294*
Y-00057*
X00296*
X00288D02*
X00285D01*
X00287*
Y-00048*
X00288Y-00049*
X00281Y-00055D02*
X0028Y-00057D01*
X00277*
X00275Y-00055*
Y-00049*
X00277Y-00048*
X0028*
X00281Y-00049*
Y-00051*
X0028Y-00052*
X00275*
X00185Y0016D02*
X00179D01*
X00182*
Y00152*
X00176D02*
Y0016D01*
X00172*
X0017Y00159*
Y00156*
X00172Y00154*
X00176*
X00163Y00152D02*
Y0016D01*
X00167Y00156*
X00161*
X00159Y00152D02*
Y00153D01*
X00157*
Y00152*
X00159*
X00151D02*
X00148D01*
X0015*
Y0016*
X00151Y00159*
X00144Y00153D02*
X00143Y00152D01*
X0014*
X00138Y00153*
Y00159*
X0014Y0016*
X00143*
X00144Y00159*
Y00157*
X00143Y00156*
X00138*
X00292Y00102D02*
X00286D01*
X00289*
Y00094*
X00283D02*
Y00102D01*
X00279*
X00277Y00101*
Y00098*
X00279Y00096*
X00283*
X00268Y00102D02*
X00274D01*
Y00098*
X00271Y00099*
X0027*
X00268Y00098*
Y00095*
X0027Y00094*
X00273*
X00274Y00095*
X00266Y00094D02*
Y00095D01*
X00264*
Y00094*
X00266*
X00258D02*
X00255D01*
X00257*
Y00102*
X00258Y00101*
X00251Y00095D02*
X0025Y00094D01*
X00247*
X00245Y00095*
Y00101*
X00247Y00102*
X0025*
X00251Y00101*
Y00099*
X0025Y00098*
X00245*
X00298Y00279D02*
X00292D01*
X00295*
Y00271*
X00289D02*
Y00279D01*
X00285*
X00283Y00278*
Y00275*
X00285Y00273*
X00289*
X00274Y00279D02*
X00277Y00278D01*
X0028Y00275*
Y00272*
X00279Y00271*
X00276*
X00274Y00272*
Y00273*
X00276Y00275*
X0028*
X00272Y00271D02*
Y00272D01*
X0027*
Y00271*
X00272*
X00264D02*
X00261D01*
X00263*
Y00279*
X00264Y00278*
X00257Y00272D02*
X00256Y00271D01*
X00253*
X00251Y00272*
Y00278*
X00253Y00279*
X00256*
X00257Y00278*
Y00276*
X00256Y00275*
X00251*
X-00287Y-0004D02*
X-00293Y-00049D01*
Y-0004D02*
X-00287Y-00049D01*
X-00296D02*
X-00299D01*
X-00297*
Y-0004*
X-00296Y-00042*
X-00303Y-00049D02*
Y-00047D01*
X-00304*
Y-00049*
X-00303*
X-0031D02*
X-00313D01*
X-00312*
Y-0004*
X-0031Y-00042*
X-00317Y-00047D02*
X-00319Y-00049D01*
X-00322*
X-00323Y-00047*
Y-00042*
X-00322Y-0004*
X-00319*
X-00317Y-00042*
Y-00043*
X-00319Y-00045*
X-00323*
X00184Y-00028D02*
Y-00019D01*
X00179*
X00178Y-0002*
Y-00023*
X00179Y-00025*
X00184*
X00181D02*
X00178Y-00028D01*
X00175D02*
X00172D01*
X00173*
Y-00019*
X00175Y-0002*
X00168Y-00028D02*
Y-00026D01*
X00166*
Y-00028*
X00168*
X0016D02*
X00158D01*
X00159*
Y-00019*
X0016Y-0002*
X00153Y-00026D02*
X00152Y-00028D01*
X00149*
X00147Y-00026*
Y-0002*
X00149Y-00019*
X00152*
X00153Y-0002*
Y-00022*
X00152Y-00023*
X00147*
X-0009Y00249D02*
Y00255D01*
X-00089Y00256*
X-00086*
X-00085Y00255*
Y00249*
X-00086Y00248*
X-00089*
X-00087Y0025D02*
X-0009Y00248D01*
X-00089D02*
X-0009Y00249D01*
X-00099Y00256D02*
X-00096Y00255D01*
X-00093Y00252*
Y00249*
X-00095Y00248*
X-00097*
X-00099Y00249*
Y0025*
X-00097Y00252*
X-00093*
X-00102Y00248D02*
Y00249D01*
X-00103*
Y00248*
X-00102*
X-00109D02*
X-00112D01*
X-0011*
Y00256*
X-00109Y00255*
X-00116Y00249D02*
X-00118Y00248D01*
X-00121*
X-00122Y00249*
Y00255*
X-00121Y00256*
X-00118*
X-00116Y00255*
Y00253*
X-00118Y00252*
X-00122*
X00062Y00158D02*
Y00164D01*
X00063Y00165*
X00066*
X00068Y00164*
Y00158*
X00066Y00157*
X00063*
X00065Y00159D02*
X00062Y00157D01*
X00063D02*
X00062Y00158D01*
X00059Y00157D02*
X00056D01*
X00057*
Y00165*
X00059Y00164*
X00052Y00157D02*
Y00158D01*
X0005*
Y00157*
X00052*
X00044D02*
X00042D01*
X00043*
Y00165*
X00044Y00164*
X00037Y00158D02*
X00036Y00157D01*
X00033*
X00031Y00158*
Y00164*
X00033Y00165*
X00036*
X00037Y00164*
Y00162*
X00036Y00161*
X00031*
X-00299Y-0023D02*
X-00298Y-00229D01*
X-00295*
X-00294Y-0023*
Y-00236*
X-00295Y-00238*
X-00298*
X-00299Y-00236*
X-00302Y-00238D02*
X-00305D01*
X-00304*
Y-00229*
X-00302Y-0023*
X-00309D02*
X-00311Y-00229D01*
X-00314*
X-00315Y-0023*
Y-00232*
X-00314Y-00233*
X-00312*
X-00314*
X-00315Y-00235*
Y-00236*
X-00314Y-00238*
X-00311*
X-00309Y-00236*
X-00318Y-00238D02*
Y-00236D01*
X-00319*
Y-00238*
X-00318*
X-00325D02*
X-00328D01*
X-00327*
Y-00229*
X-00325Y-0023*
X-00332Y-00236D02*
X-00334Y-00238D01*
X-00337*
X-00338Y-00236*
Y-0023*
X-00337Y-00229*
X-00334*
X-00332Y-0023*
Y-00232*
X-00334Y-00233*
X-00338*
X-00023Y00288D02*
X-00021Y0029D01*
X-00018*
X-00017Y00288*
Y00283*
X-00018Y00281*
X-00021*
X-00023Y00283*
X-00026Y00281D02*
X-00029D01*
X-00027*
Y0029*
X-00026Y00288*
X-00039Y00281D02*
X-00033D01*
X-00039Y00287*
Y00288*
X-00037Y0029*
X-00034*
X-00033Y00288*
X-00042Y00281D02*
Y00283D01*
X-00043*
Y00281*
X-00042*
X-00049D02*
X-00052D01*
X-0005*
Y0029*
X-00049Y00288*
X-00056Y00283D02*
X-00057Y00281D01*
X-0006*
X-00062Y00283*
Y00288*
X-0006Y0029*
X-00057*
X-00056Y00288*
Y00287*
X-00057Y00286*
X-00062*
X00219Y00191D02*
X00218Y00192D01*
Y00195*
X00219Y00197*
X00225*
X00227Y00195*
Y00192*
X00225Y00191*
X00227Y00188D02*
Y00185D01*
Y00186*
X00218*
X00219Y00188*
X00227Y00176D02*
X00218D01*
X00222Y00181*
Y00175*
X00227Y00172D02*
X00225D01*
Y00171*
X00227*
Y00172*
Y00165D02*
Y00162D01*
Y00163*
X00218*
X00219Y00165*
X00225Y00158D02*
X00227Y00156D01*
Y00153*
X00225Y00152*
X00219*
X00218Y00153*
Y00156*
X00219Y00158*
X00221*
X00222Y00156*
Y00152*
X00129Y-00607D02*
X0013Y-00606D01*
X00133*
X00135Y-00607*
Y-00613*
X00133Y-00615*
X0013*
X00129Y-00613*
X00126Y-00615D02*
X00123D01*
X00124*
Y-00606*
X00126Y-00607*
X00119Y-00615D02*
Y-00613D01*
X00117*
Y-00615*
X00119*
X00111D02*
X00109D01*
X0011*
Y-00606*
X00111Y-00607*
X00104Y-00615D02*
X00101D01*
X00103*
Y-00606*
X00104Y-00607*
X-00093Y-0025D02*
X-00092Y-00249D01*
X-00089*
X-00088Y-0025*
Y-00256*
X-00089Y-00258*
X-00092*
X-00093Y-00256*
X-00102Y-00258D02*
X-00096D01*
X-00102Y-00252*
Y-0025*
X-001Y-00249*
X-00098*
X-00096Y-0025*
X-00105Y-00258D02*
Y-00256D01*
X-00106*
Y-00258*
X-00105*
X-00112D02*
X-00115D01*
X-00113*
Y-00249*
X-00112Y-0025*
X-00119Y-00258D02*
X-00122D01*
X-00121*
Y-00249*
X-00119Y-0025*
X-00047D02*
X-00046Y-00249D01*
X-00043*
X-00042Y-0025*
Y-00256*
X-00043Y-00258*
X-00046*
X-00047Y-00256*
X-0005Y-0025D02*
X-00052Y-00249D01*
X-00054*
X-00056Y-0025*
Y-00252*
X-00054Y-00253*
X-00053*
X-00054*
X-00056Y-00255*
Y-00256*
X-00054Y-00258*
X-00052*
X-0005Y-00256*
X-00059Y-00258D02*
Y-00256D01*
X-0006*
Y-00258*
X-00059*
X-00066D02*
X-00069D01*
X-00067*
Y-00249*
X-00066Y-0025*
X-00073Y-00258D02*
X-00076D01*
X-00075*
Y-00249*
X-00073Y-0025*
X00093Y-00257D02*
X00094Y-00256D01*
X00097*
X00098Y-00257*
Y-00263*
X00097Y-00265*
X00094*
X00093Y-00263*
X00086Y-00265D02*
Y-00256D01*
X0009Y-0026*
X00084*
X00081Y-00265D02*
Y-00263D01*
X0008*
Y-00265*
X00081*
X00074D02*
X00071D01*
X00073*
Y-00256*
X00074Y-00257*
X00067Y-00265D02*
X00064D01*
X00065*
Y-00256*
X00067Y-00257*
X00051D02*
X00052Y-00256D01*
X00055*
X00056Y-00257*
Y-00263*
X00055Y-00265*
X00052*
X00051Y-00263*
X00042Y-00256D02*
X00048D01*
Y-0026*
X00045Y-00259*
X00044*
X00042Y-0026*
Y-00263*
X00044Y-00265*
X00046*
X00048Y-00263*
X00039Y-00265D02*
Y-00263D01*
X00038*
Y-00265*
X00039*
X00032D02*
X00029D01*
X00031*
Y-00256*
X00032Y-00257*
X00025Y-00265D02*
X00022D01*
X00023*
Y-00256*
X00025Y-00257*
X00089Y-00332D02*
X0009Y-00331D01*
X00093*
X00095Y-00332*
Y-00338*
X00093Y-0034*
X0009*
X00089Y-00338*
X0008Y-00331D02*
X00083Y-00332D01*
X00086Y-00335*
Y-00338*
X00084Y-0034*
X00082*
X0008Y-00338*
Y-00337*
X00082Y-00335*
X00086*
X00077Y-0034D02*
Y-00338D01*
X00076*
Y-0034*
X00077*
X0007D02*
X00067D01*
X00069*
Y-00331*
X0007Y-00332*
X00063Y-0034D02*
X0006D01*
X00061*
Y-00331*
X00063Y-00332*
X-00072Y-00329D02*
X-00071Y-00328D01*
X-00068*
X-00067Y-00329*
Y-00335*
X-00068Y-00337*
X-00071*
X-00072Y-00335*
X-00075Y-00328D02*
X-00081D01*
Y-00329*
X-00075Y-00335*
Y-00337*
X-00084D02*
Y-00335D01*
X-00085*
Y-00337*
X-00084*
X-00091D02*
X-00094D01*
X-00092*
Y-00328*
X-00091Y-00329*
X-00098Y-00337D02*
X-00101D01*
X-001*
Y-00328*
X-00098Y-00329*
X00128Y-00407D02*
X00129Y-00406D01*
X00132*
X00134Y-00407*
Y-00413*
X00132Y-00415*
X00129*
X00128Y-00413*
X00125Y-00407D02*
X00123Y-00406D01*
X00121*
X00119Y-00407*
Y-00409*
X00121Y-0041*
X00119Y-00412*
Y-00413*
X00121Y-00415*
X00123*
X00125Y-00413*
Y-00412*
X00123Y-0041*
X00125Y-00409*
Y-00407*
X00123Y-0041D02*
X00121D01*
X00116Y-00415D02*
Y-00413D01*
X00115*
Y-00415*
X00116*
X00109D02*
X00106D01*
X00108*
Y-00406*
X00109Y-00407*
X00102Y-00415D02*
X00099D01*
X001*
Y-00406*
X00102Y-00407*
X00164D02*
X00165Y-00406D01*
X00168*
X0017Y-00407*
Y-00413*
X00168Y-00415*
X00165*
X00164Y-00413*
X00161D02*
X00159Y-00415D01*
X00157*
X00155Y-00413*
Y-00407*
X00157Y-00406*
X00159*
X00161Y-00407*
Y-00409*
X00159Y-0041*
X00155*
X00152Y-00415D02*
Y-00413D01*
X00151*
Y-00415*
X00152*
X00145D02*
X00142D01*
X00144*
Y-00406*
X00145Y-00407*
X00138Y-00415D02*
X00135D01*
X00136*
Y-00406*
X00138Y-00407*
X00003Y-00251D02*
Y-0026D01*
X-00002*
X-00005D02*
X-00008D01*
X-00007*
Y-00251*
X-00005Y-00253*
X-00012Y-0026D02*
Y-00258D01*
X-00014*
Y-0026*
X-00012*
X-0002D02*
X-00022D01*
X-00021*
Y-00251*
X-0002Y-00253*
X-00027Y-0026D02*
X-0003D01*
X-00028*
Y-00251*
X-00027Y-00253*
X00016Y-00171D02*
Y-00162D01*
X00011*
X0001Y-00163*
Y-00166*
X00011Y-00168*
X00016*
X00013D02*
X0001Y-00171D01*
X00007D02*
X00004D01*
X00005*
Y-00162*
X00007Y-00163*
X0Y-00171D02*
Y-00169D01*
X-00001*
Y-00171*
X0*
X-00007D02*
X-00009D01*
X-00008*
Y-00162*
X-00007Y-00163*
X-00014Y-00171D02*
X-00017D01*
X-00015*
Y-00162*
X-00014Y-00163*
X00213Y-00252D02*
X00211Y-00251D01*
Y-00248*
X00213Y-00246*
X00218*
X0022Y-00248*
Y-00251*
X00218Y-00252*
X0022Y-00255D02*
Y-00258D01*
Y-00256*
X00211*
X00213Y-00255*
X00211Y-00268D02*
Y-00262D01*
X00216*
X00214Y-00265*
Y-00267*
X00216Y-00268*
X00218*
X0022Y-00267*
Y-00264*
X00218Y-00262*
X0022Y-00271D02*
X00218D01*
Y-00272*
X0022*
Y-00271*
Y-00278D02*
Y-00281D01*
Y-0028*
X00211*
X00213Y-00278*
X00218Y-00285D02*
X0022Y-00287D01*
Y-0029*
X00218Y-00291*
X00213*
X00211Y-0029*
Y-00287*
X00213Y-00285*
X00214*
X00216Y-00287*
Y-00291*
X-00024Y-00586D02*
Y-00593D01*
X-00025Y-00595*
X-00028*
X-00029Y-00593*
Y-00586*
X-00032Y-00595D02*
X-00035D01*
X-00034*
Y-00586*
X-00032Y-00587*
X-00039Y-00595D02*
Y-00593D01*
X-00041*
Y-00595*
X-00039*
X-00047D02*
X-00049D01*
X-00048*
Y-00586*
X-00047Y-00587*
X-00054Y-00595D02*
X-00057D01*
X-00055*
Y-00586*
X-00054Y-00587*
X-00251Y0019D02*
Y00183D01*
X-00252Y00182*
X-00255*
X-00256Y00183*
Y0019*
X-00259Y00182D02*
X-00262D01*
X-00261*
Y0019*
X-00259Y00189*
X-00266Y00182D02*
Y00183D01*
X-00268*
Y00182*
X-00266*
X-00274D02*
X-00276D01*
X-00275*
Y0019*
X-00274Y00189*
X-00281Y00183D02*
X-00282Y00182D01*
X-00285*
X-00287Y00183*
Y00189*
X-00285Y0019*
X-00282*
X-00281Y00189*
Y00187*
X-00282Y00186*
X-00287*
X-00099Y-00145D02*
X-00105D01*
X-00102*
Y-00154*
X-00108D02*
Y-00145D01*
X-00112*
X-00114Y-00147*
Y-0015*
X-00112Y-00151*
X-00108*
X-00117Y-00154D02*
X-00119D01*
X-00118*
Y-00145*
X-00117Y-00147*
X-00124Y-00154D02*
Y-00152D01*
X-00125*
Y-00154*
X-00124*
X-00131D02*
X-00134D01*
X-00132*
Y-00145*
X-00131Y-00147*
X-00138Y-00154D02*
X-00141D01*
X-0014*
Y-00145*
X-00138Y-00147*
X00161Y-0021D02*
X00155D01*
X00158*
Y-00219*
X00152D02*
Y-0021D01*
X00148*
X00146Y-00211*
Y-00214*
X00148Y-00216*
X00152*
X00137Y-00219D02*
X00143D01*
X00137Y-00213*
Y-00211*
X00139Y-0021*
X00142*
X00143Y-00211*
X00135Y-00219D02*
Y-00217D01*
X00133*
Y-00219*
X00135*
X00127D02*
X00124D01*
X00126*
Y-0021*
X00127Y-00211*
X0012Y-00219D02*
X00117D01*
X00119*
Y-0021*
X0012Y-00211*
X00065Y-00017D02*
X00059D01*
X00062*
Y-00026*
X00056D02*
Y-00017D01*
X00052*
X0005Y-00018*
Y-00021*
X00052Y-00023*
X00056*
X00047Y-00018D02*
X00046Y-00017D01*
X00043*
X00041Y-00018*
Y-0002*
X00043Y-00021*
X00041Y-00023*
Y-00024*
X00043Y-00026*
X00046*
X00047Y-00024*
Y-00023*
X00046Y-00021*
X00047Y-0002*
Y-00018*
X00046Y-00021D02*
X00043D01*
X00039Y-00026D02*
Y-00024D01*
X00037*
Y-00026*
X00039*
X00026D02*
X00031D01*
X00026Y-0002*
Y-00018*
X00027Y-00017*
X0003*
X00031Y-00018*
X-00178Y-00031D02*
X-00183D01*
X-0018*
Y-0004*
X-00186D02*
Y-00031D01*
X-0019*
X-00192Y-00032*
Y-00035*
X-0019Y-00037*
X-00186*
X-00195Y-00032D02*
X-00196Y-00031D01*
X-00199*
X-00201Y-00032*
Y-00034*
X-00199Y-00035*
X-00201Y-00037*
Y-00038*
X-00199Y-0004*
X-00196*
X-00195Y-00038*
Y-00037*
X-00196Y-00035*
X-00195Y-00034*
Y-00032*
X-00196Y-00035D02*
X-00199D01*
X-00203Y-0004D02*
Y-00038D01*
X-00205*
Y-0004*
X-00203*
X-00211D02*
X-00214D01*
X-00212*
Y-00031*
X-00211Y-00032*
X-00218Y-00038D02*
X-00219Y-0004D01*
X-00222*
X-00224Y-00038*
Y-00032*
X-00222Y-00031*
X-00219*
X-00218Y-00032*
Y-00034*
X-00219Y-00035*
X-00224*
X00153Y00067D02*
X00147D01*
X0015*
Y00059*
X00144D02*
Y00067D01*
X0014*
X00138Y00066*
Y00063*
X0014Y00061*
X00144*
X00135Y0006D02*
X00134Y00059D01*
X00131*
X00129Y0006*
Y00066*
X00131Y00067*
X00134*
X00135Y00066*
Y00064*
X00134Y00063*
X00129*
X00127Y00059D02*
Y0006D01*
X00125*
Y00059*
X00127*
X00114D02*
X00119D01*
X00114Y00064*
Y00066*
X00115Y00067*
X00118*
X00119Y00066*
X00193Y00266D02*
X00187D01*
X0019*
Y00258*
X00184D02*
Y00266D01*
X0018*
X00178Y00265*
Y00262*
X0018Y0026*
X00184*
X00175Y00258D02*
X00172D01*
X00174*
Y00266*
X00175Y00265*
X00168Y00258D02*
X00165D01*
X00167*
Y00266*
X00168Y00265*
X00161Y00258D02*
Y00259D01*
X00159*
Y00258*
X00161*
X00148D02*
X00154D01*
X00148Y00263*
Y00265*
X00149Y00266*
X00152*
X00154Y00265*
X-00282Y-00396D02*
X-00287D01*
X-00284*
Y-00405*
X-0029D02*
Y-00396D01*
X-00294*
X-00296Y-00397*
Y-004*
X-00294Y-00402*
X-0029*
X-00299Y-00405D02*
X-00302D01*
X-003*
Y-00396*
X-00299Y-00397*
X-00312Y-00405D02*
X-00306D01*
X-00312Y-00399*
Y-00397*
X-0031Y-00396*
X-00307*
X-00306Y-00397*
X-00315Y-00405D02*
Y-00403D01*
X-00316*
Y-00405*
X-00315*
X-00328D02*
X-00322D01*
X-00328Y-00399*
Y-00397*
X-00326Y-00396*
X-00323*
X-00322Y-00397*
G54D147*
X-00012Y00475D03*
G54D228*
X-00315Y00218D02*
D01*
X-00315Y00219*
X-00315Y0022*
X-00315Y0022*
X-00315Y00221*
X-00315Y00222*
X-00316Y00223*
X-00316Y00224*
X-00317Y00224*
X-00317Y00225*
X-00317Y00226*
X-00318Y00226*
X-00319Y00227*
X-00319Y00227*
X-0032Y00228*
X-00321Y00228*
X-00321Y00229*
X-00322Y00229*
X-00323Y00229*
X-00324Y00229*
X-00324Y0023*
X-00325Y0023*
X-00326Y0023*
X-00327*
X-00328Y0023*
X-00329Y0023*
X-00329Y00229*
X-0033Y00229*
X-00331Y00229*
X-00332Y00229*
X-00332Y00228*
X-00333Y00228*
X-00334Y00227*
X-00334Y00227*
X-00335Y00226*
X-00336Y00226*
X-00336Y00225*
X-00337Y00224*
X-00337Y00224*
X-00337Y00223*
X-00338Y00222*
X-00338Y00221*
X-00338Y0022*
X-00338Y0022*
X-00338Y00219*
X-00338Y00218*
X-00338Y00217*
X-00338Y00216*
X-00338Y00216*
X-00338Y00215*
X-00338Y00214*
X-00337Y00213*
X-00337Y00212*
X-00337Y00212*
X-00336Y00211*
X-00336Y0021*
X-00335Y0021*
X-00334Y00209*
X-00334Y00209*
X-00333Y00208*
X-00332Y00208*
X-00332Y00207*
X-00331Y00207*
X-0033Y00207*
X-00329Y00207*
X-00329Y00206*
X-00328Y00206*
X-00327Y00206*
X-00326*
X-00325Y00206*
X-00324Y00206*
X-00324Y00207*
X-00323Y00207*
X-00322Y00207*
X-00321Y00207*
X-00321Y00208*
X-0032Y00208*
X-00319Y00209*
X-00319Y00209*
X-00318Y0021*
X-00317Y0021*
X-00317Y00211*
X-00317Y00212*
X-00316Y00212*
X-00316Y00213*
X-00315Y00214*
X-00315Y00215*
X-00315Y00216*
X-00315Y00216*
X-00315Y00217*
X-00315Y00218*
G54D229*
X00019Y0022D02*
D01*
X00018Y00222*
X00018Y00224*
X00018Y00227*
X00017Y00229*
X00016Y00231*
X00015Y00234*
X00014Y00236*
X00013Y00238*
X00012Y0024*
X0001Y00242*
X00009Y00244*
X00007Y00246*
X00005Y00247*
X00003Y00249*
X00001Y0025*
X0Y00251*
X-00002Y00252*
X-00005Y00253*
X-00007Y00253*
X-00009Y00254*
X-00012Y00254*
X-00014Y00254*
X-00017*
X-00019Y00254*
X-00022Y00254*
X-00024Y00253*
X-00026Y00253*
X-00029Y00252*
X-00031Y00251*
X-00033Y0025*
X-00035Y00249*
X-00037Y00247*
X-00039Y00246*
X-00041Y00244*
X-00042Y00242*
X-00044Y0024*
X-00045Y00238*
X-00046Y00236*
X-00047Y00234*
X-00048Y00231*
X-00049Y00229*
X-0005Y00227*
X-0005Y00224*
X-0005Y00222*
X-00051Y0022*
X-0005Y00217*
X-0005Y00215*
X-0005Y00212*
X-00049Y0021*
X-00048Y00208*
X-00047Y00205*
X-00046Y00203*
X-00045Y00201*
X-00044Y00199*
X-00042Y00197*
X-00041Y00195*
X-00039Y00193*
X-00037Y00192*
X-00035Y0019*
X-00033Y00189*
X-00031Y00188*
X-00029Y00187*
X-00026Y00186*
X-00024Y00186*
X-00022Y00185*
X-00019Y00185*
X-00017Y00185*
X-00014*
X-00012Y00185*
X-00009Y00185*
X-00007Y00186*
X-00005Y00186*
X-00002Y00187*
X0Y00188*
X00001Y00189*
X00003Y0019*
X00005Y00192*
X00007Y00193*
X00009Y00195*
X0001Y00197*
X00012Y00199*
X00013Y00201*
X00014Y00203*
X00015Y00205*
X00016Y00208*
X00017Y0021*
X00018Y00212*
X00018Y00215*
X00018Y00217*
X00019Y0022*
X00018D02*
D01*
X00017Y00222*
X00017Y00224*
X00017Y00227*
X00016Y00229*
X00015Y00231*
X00014Y00234*
X00013Y00236*
X00012Y00238*
X00011Y0024*
X00009Y00242*
X00008Y00244*
X00006Y00246*
X00004Y00247*
X00002Y00249*
X0Y0025*
X-00001Y00251*
X-00003Y00252*
X-00006Y00253*
X-00008Y00253*
X-0001Y00254*
X-00013Y00254*
X-00015Y00254*
X-00018*
X-0002Y00254*
X-00023Y00254*
X-00025Y00253*
X-00027Y00253*
X-0003Y00252*
X-00032Y00251*
X-00034Y0025*
X-00036Y00249*
X-00038Y00247*
X-0004Y00246*
X-00042Y00244*
X-00043Y00242*
X-00045Y0024*
X-00046Y00238*
X-00047Y00236*
X-00048Y00234*
X-00049Y00231*
X-0005Y00229*
X-00051Y00227*
X-00051Y00224*
X-00051Y00222*
X-00052Y0022*
X-00051Y00217*
X-00051Y00215*
X-00051Y00212*
X-0005Y0021*
X-00049Y00208*
X-00048Y00205*
X-00047Y00203*
X-00046Y00201*
X-00045Y00199*
X-00043Y00197*
X-00042Y00195*
X-0004Y00193*
X-00038Y00192*
X-00036Y0019*
X-00034Y00189*
X-00032Y00188*
X-0003Y00187*
X-00027Y00186*
X-00025Y00186*
X-00023Y00185*
X-0002Y00185*
X-00018Y00185*
X-00015*
X-00013Y00185*
X-0001Y00185*
X-00008Y00186*
X-00006Y00186*
X-00003Y00187*
X-00001Y00188*
X0Y00189*
X00002Y0019*
X00004Y00192*
X00006Y00193*
X00008Y00195*
X00009Y00197*
X00011Y00199*
X00012Y00201*
X00013Y00203*
X00014Y00205*
X00015Y00208*
X00016Y0021*
X00017Y00212*
X00017Y00215*
X00017Y00217*
X00018Y0022*
G54D230*
X-00255Y01072D02*
X-00245D01*
X-0025Y01071D02*
Y01073D01*
X-00255Y01078D02*
X-00245D01*
X-00255D02*
X-0025Y01073D01*
X-00245Y01078*
X-0025Y01292D02*
X-00245Y01297D01*
X-00255D02*
X-0025Y01292D01*
X-00255Y01297D02*
X-00245D01*
X-0025Y0129D02*
Y01292D01*
X-00255Y01291D02*
X-00245D01*
M02*